M48
;DRILL file {KiCad 4.0.5+dfsg1-4} date Tue Dec 12 22:17:12 2017
;FORMAT={2:4/ absolute / inch / suppress leading zeros}
FMAT,2
INCH,TZ
T1C0.026
T2C0.030
T3C0.031
T4C0.039
T5C0.040
T6C0.052
T7C0.059
T8C0.126
%
G90
G05
M72
T1
X29100Y-13900
X29100Y-14687
X29100Y-15475
X29100Y-16262
X29100Y-17050
X29100Y-17837
X29100Y-18624
X29100Y-19412
X34612Y-13900
X34612Y-14687
X34612Y-15475
X34612Y-16262
X34612Y-17050
X34612Y-17837
X34612Y-18624
X34612Y-19412
T2
X20900Y-23400
X20900Y-24400
X20900Y-28400
X20900Y-31400
X26300Y-23400
X26300Y-24400
X26300Y-28400
X26300Y-31400
X31680Y-23400
X31680Y-24400
X31680Y-28400
X31680Y-31400
X37100Y-23400
X37100Y-24400
X37100Y-28400
X37100Y-31400
T3
X12547Y-32331
X15500Y-33000
T4
X8469Y-17713
X8500Y-40400
X8500Y-43700
X8500Y-44700
X9500Y-29750
X9500Y-40400
X9500Y-43700
X9500Y-44700
X10000Y-17250
X10500Y-43700
X10500Y-44700
X10516Y-29287
X11500Y-43700
X11500Y-44700
X12484Y-29287
X12500Y-43700
X12500Y-44700
X13000Y-17250
X13500Y-29750
X14531Y-17713
X18050Y-40950
X18200Y-17000
X19050Y-40950
X20200Y-14700
X20850Y-45550
X21100Y-18600
X22300Y-19600
X24000Y-17000
X25000Y-19600
X26500Y-19100
X26950Y-13900
X26950Y-14900
X31650Y-22050
X40100Y-17800
X40100Y-18800
X40100Y-19800
X40100Y-20800
X40100Y-21800
X41100Y-17800
X41100Y-18800
X41100Y-19800
X41100Y-20800
X41100Y-21800
T5
X18500Y-23500
X19500Y-23500
X24000Y-23500
X25000Y-23500
X27150Y-40550
X27150Y-41550
X27150Y-42550
X27150Y-43550
X27150Y-44550
X27150Y-45550
X29400Y-23500
X30400Y-23500
X34850Y-23550
X35850Y-23550
T6
X22200Y-35500
X24169Y-35500
X26137Y-35500
X28200Y-35500
X30169Y-35500
X32137Y-35500
T7
X10169Y-36000
X18831Y-36000
T8
X7850Y-13200
X7850Y-33200
X41550Y-13200
X41550Y-33200
T0
M30
