G04 #@! TF.FileFunction,Legend,Top*
%FSLAX46Y46*%
G04 Gerber Fmt 4.6, Leading zero omitted, Abs format (unit mm)*
G04 Created by KiCad (PCBNEW 4.0.5+dfsg1-4) date Tue Dec 12 22:17:04 2017*
%MOMM*%
%LPD*%
G01*
G04 APERTURE LIST*
%ADD10C,0.100000*%
%ADD11C,0.200000*%
%ADD12C,0.300000*%
%ADD13C,2.000000*%
%ADD14C,0.150000*%
%ADD15C,0.120000*%
%ADD16C,0.010000*%
%ADD17C,0.381000*%
%ADD18C,0.152400*%
G04 APERTURE END LIST*
D10*
D11*
X110236000Y-99822000D02*
X15240000Y-99822000D01*
D12*
X44152715Y-107739571D02*
X44152715Y-106239571D01*
X44724143Y-106239571D01*
X44867001Y-106311000D01*
X44938429Y-106382429D01*
X45009858Y-106525286D01*
X45009858Y-106739571D01*
X44938429Y-106882429D01*
X44867001Y-106953857D01*
X44724143Y-107025286D01*
X44152715Y-107025286D01*
X45867001Y-107739571D02*
X45724143Y-107668143D01*
X45652715Y-107596714D01*
X45581286Y-107453857D01*
X45581286Y-107025286D01*
X45652715Y-106882429D01*
X45724143Y-106811000D01*
X45867001Y-106739571D01*
X46081286Y-106739571D01*
X46224143Y-106811000D01*
X46295572Y-106882429D01*
X46367001Y-107025286D01*
X46367001Y-107453857D01*
X46295572Y-107596714D01*
X46224143Y-107668143D01*
X46081286Y-107739571D01*
X45867001Y-107739571D01*
X46867001Y-106739571D02*
X47152715Y-107739571D01*
X47438429Y-107025286D01*
X47724144Y-107739571D01*
X48009858Y-106739571D01*
X49152715Y-107668143D02*
X49009858Y-107739571D01*
X48724144Y-107739571D01*
X48581287Y-107668143D01*
X48509858Y-107525286D01*
X48509858Y-106953857D01*
X48581287Y-106811000D01*
X48724144Y-106739571D01*
X49009858Y-106739571D01*
X49152715Y-106811000D01*
X49224144Y-106953857D01*
X49224144Y-107096714D01*
X48509858Y-107239571D01*
X49867001Y-107739571D02*
X49867001Y-106739571D01*
X49867001Y-107025286D02*
X49938429Y-106882429D01*
X50009858Y-106811000D01*
X50152715Y-106739571D01*
X50295572Y-106739571D01*
X20645715Y-106342571D02*
X20645715Y-104842571D01*
X21217143Y-104842571D01*
X21360001Y-104914000D01*
X21431429Y-104985429D01*
X21502858Y-105128286D01*
X21502858Y-105342571D01*
X21431429Y-105485429D01*
X21360001Y-105556857D01*
X21217143Y-105628286D01*
X20645715Y-105628286D01*
X22145715Y-106342571D02*
X22145715Y-105342571D01*
X22145715Y-105628286D02*
X22217143Y-105485429D01*
X22288572Y-105414000D01*
X22431429Y-105342571D01*
X22574286Y-105342571D01*
X23288572Y-106342571D02*
X23145714Y-106271143D01*
X23074286Y-106199714D01*
X23002857Y-106056857D01*
X23002857Y-105628286D01*
X23074286Y-105485429D01*
X23145714Y-105414000D01*
X23288572Y-105342571D01*
X23502857Y-105342571D01*
X23645714Y-105414000D01*
X23717143Y-105485429D01*
X23788572Y-105628286D01*
X23788572Y-106056857D01*
X23717143Y-106199714D01*
X23645714Y-106271143D01*
X23502857Y-106342571D01*
X23288572Y-106342571D01*
X25074286Y-105342571D02*
X25074286Y-106556857D01*
X25002857Y-106699714D01*
X24931429Y-106771143D01*
X24788572Y-106842571D01*
X24574286Y-106842571D01*
X24431429Y-106771143D01*
X25074286Y-106271143D02*
X24931429Y-106342571D01*
X24645715Y-106342571D01*
X24502857Y-106271143D01*
X24431429Y-106199714D01*
X24360000Y-106056857D01*
X24360000Y-105628286D01*
X24431429Y-105485429D01*
X24502857Y-105414000D01*
X24645715Y-105342571D01*
X24931429Y-105342571D01*
X25074286Y-105414000D01*
X72580715Y-103777571D02*
X72580715Y-102277571D01*
X72937858Y-102277571D01*
X73152143Y-102349000D01*
X73295001Y-102491857D01*
X73366429Y-102634714D01*
X73437858Y-102920429D01*
X73437858Y-103134714D01*
X73366429Y-103420429D01*
X73295001Y-103563286D01*
X73152143Y-103706143D01*
X72937858Y-103777571D01*
X72580715Y-103777571D01*
X73866429Y-102277571D02*
X74723572Y-102277571D01*
X74295001Y-103777571D02*
X74295001Y-102277571D01*
X76080715Y-103777571D02*
X75580715Y-103063286D01*
X75223572Y-103777571D02*
X75223572Y-102277571D01*
X75795000Y-102277571D01*
X75937858Y-102349000D01*
X76009286Y-102420429D01*
X76080715Y-102563286D01*
X76080715Y-102777571D01*
X76009286Y-102920429D01*
X75937858Y-102991857D01*
X75795000Y-103063286D01*
X75223572Y-103063286D01*
X74045001Y-106327571D02*
X73545001Y-105613286D01*
X73187858Y-106327571D02*
X73187858Y-104827571D01*
X73759286Y-104827571D01*
X73902144Y-104899000D01*
X73973572Y-104970429D01*
X74045001Y-105113286D01*
X74045001Y-105327571D01*
X73973572Y-105470429D01*
X73902144Y-105541857D01*
X73759286Y-105613286D01*
X73187858Y-105613286D01*
X74545001Y-104827571D02*
X75545001Y-106327571D01*
X75545001Y-104827571D02*
X74545001Y-106327571D01*
X73152143Y-107377571D02*
X74009286Y-107377571D01*
X73580715Y-108877571D02*
X73580715Y-107377571D01*
X74366429Y-107377571D02*
X75366429Y-108877571D01*
X75366429Y-107377571D02*
X74366429Y-108877571D01*
X72366429Y-110856143D02*
X73509286Y-110856143D01*
X72937857Y-111427571D02*
X72937857Y-110284714D01*
X74937858Y-109927571D02*
X74223572Y-109927571D01*
X74152143Y-110641857D01*
X74223572Y-110570429D01*
X74366429Y-110499000D01*
X74723572Y-110499000D01*
X74866429Y-110570429D01*
X74937858Y-110641857D01*
X75009286Y-110784714D01*
X75009286Y-111141857D01*
X74937858Y-111284714D01*
X74866429Y-111356143D01*
X74723572Y-111427571D01*
X74366429Y-111427571D01*
X74223572Y-111356143D01*
X74152143Y-111284714D01*
X75437857Y-109927571D02*
X75937857Y-111427571D01*
X76437857Y-109927571D01*
X73473572Y-113834714D02*
X73402143Y-113906143D01*
X73187857Y-113977571D01*
X73045000Y-113977571D01*
X72830715Y-113906143D01*
X72687857Y-113763286D01*
X72616429Y-113620429D01*
X72545000Y-113334714D01*
X72545000Y-113120429D01*
X72616429Y-112834714D01*
X72687857Y-112691857D01*
X72830715Y-112549000D01*
X73045000Y-112477571D01*
X73187857Y-112477571D01*
X73402143Y-112549000D01*
X73473572Y-112620429D01*
X73902143Y-112477571D02*
X74759286Y-112477571D01*
X74330715Y-113977571D02*
X74330715Y-112477571D01*
X75187857Y-113906143D02*
X75402143Y-113977571D01*
X75759286Y-113977571D01*
X75902143Y-113906143D01*
X75973572Y-113834714D01*
X76045000Y-113691857D01*
X76045000Y-113549000D01*
X75973572Y-113406143D01*
X75902143Y-113334714D01*
X75759286Y-113263286D01*
X75473572Y-113191857D01*
X75330714Y-113120429D01*
X75259286Y-113049000D01*
X75187857Y-112906143D01*
X75187857Y-112763286D01*
X75259286Y-112620429D01*
X75330714Y-112549000D01*
X75473572Y-112477571D01*
X75830714Y-112477571D01*
X76045000Y-112549000D01*
X73152143Y-115099000D02*
X73009286Y-115027571D01*
X72795000Y-115027571D01*
X72580715Y-115099000D01*
X72437857Y-115241857D01*
X72366429Y-115384714D01*
X72295000Y-115670429D01*
X72295000Y-115884714D01*
X72366429Y-116170429D01*
X72437857Y-116313286D01*
X72580715Y-116456143D01*
X72795000Y-116527571D01*
X72937857Y-116527571D01*
X73152143Y-116456143D01*
X73223572Y-116384714D01*
X73223572Y-115884714D01*
X72937857Y-115884714D01*
X73866429Y-116527571D02*
X73866429Y-115027571D01*
X74723572Y-116527571D01*
X74723572Y-115027571D01*
X75437858Y-116527571D02*
X75437858Y-115027571D01*
X75795001Y-115027571D01*
X76009286Y-115099000D01*
X76152144Y-115241857D01*
X76223572Y-115384714D01*
X76295001Y-115670429D01*
X76295001Y-115884714D01*
X76223572Y-116170429D01*
X76152144Y-116313286D01*
X76009286Y-116456143D01*
X75795001Y-116527571D01*
X75437858Y-116527571D01*
X90913143Y-91346571D02*
X90913143Y-89846571D01*
X91270286Y-89846571D01*
X91484571Y-89918000D01*
X91627429Y-90060857D01*
X91698857Y-90203714D01*
X91770286Y-90489429D01*
X91770286Y-90703714D01*
X91698857Y-90989429D01*
X91627429Y-91132286D01*
X91484571Y-91275143D01*
X91270286Y-91346571D01*
X90913143Y-91346571D01*
X92627429Y-91346571D02*
X92484571Y-91275143D01*
X92413143Y-91203714D01*
X92341714Y-91060857D01*
X92341714Y-90632286D01*
X92413143Y-90489429D01*
X92484571Y-90418000D01*
X92627429Y-90346571D01*
X92841714Y-90346571D01*
X92984571Y-90418000D01*
X93056000Y-90489429D01*
X93127429Y-90632286D01*
X93127429Y-91060857D01*
X93056000Y-91203714D01*
X92984571Y-91275143D01*
X92841714Y-91346571D01*
X92627429Y-91346571D01*
X93770286Y-91346571D02*
X93770286Y-90346571D01*
X93770286Y-90489429D02*
X93841714Y-90418000D01*
X93984572Y-90346571D01*
X94198857Y-90346571D01*
X94341714Y-90418000D01*
X94413143Y-90560857D01*
X94413143Y-91346571D01*
X94413143Y-90560857D02*
X94484572Y-90418000D01*
X94627429Y-90346571D01*
X94841714Y-90346571D01*
X94984572Y-90418000D01*
X95056000Y-90560857D01*
X95056000Y-91346571D01*
X95984572Y-91346571D02*
X95841714Y-91275143D01*
X95770286Y-91203714D01*
X95698857Y-91060857D01*
X95698857Y-90632286D01*
X95770286Y-90489429D01*
X95841714Y-90418000D01*
X95984572Y-90346571D01*
X96198857Y-90346571D01*
X96341714Y-90418000D01*
X96413143Y-90489429D01*
X96484572Y-90632286D01*
X96484572Y-91060857D01*
X96413143Y-91203714D01*
X96341714Y-91275143D01*
X96198857Y-91346571D01*
X95984572Y-91346571D01*
X97127429Y-91346571D02*
X97127429Y-89846571D01*
X97984572Y-91346571D01*
X97984572Y-89846571D01*
X98913144Y-91346571D02*
X98770286Y-91275143D01*
X98698858Y-91203714D01*
X98627429Y-91060857D01*
X98627429Y-90632286D01*
X98698858Y-90489429D01*
X98770286Y-90418000D01*
X98913144Y-90346571D01*
X99127429Y-90346571D01*
X99270286Y-90418000D01*
X99341715Y-90489429D01*
X99413144Y-90632286D01*
X99413144Y-91060857D01*
X99341715Y-91203714D01*
X99270286Y-91275143D01*
X99127429Y-91346571D01*
X98913144Y-91346571D01*
X100698858Y-91346571D02*
X100698858Y-89846571D01*
X100698858Y-91275143D02*
X100556001Y-91346571D01*
X100270287Y-91346571D01*
X100127429Y-91275143D01*
X100056001Y-91203714D01*
X99984572Y-91060857D01*
X99984572Y-90632286D01*
X100056001Y-90489429D01*
X100127429Y-90418000D01*
X100270287Y-90346571D01*
X100556001Y-90346571D01*
X100698858Y-90418000D01*
X101984572Y-91275143D02*
X101841715Y-91346571D01*
X101556001Y-91346571D01*
X101413144Y-91275143D01*
X101341715Y-91132286D01*
X101341715Y-90560857D01*
X101413144Y-90418000D01*
X101556001Y-90346571D01*
X101841715Y-90346571D01*
X101984572Y-90418000D01*
X102056001Y-90560857D01*
X102056001Y-90703714D01*
X101341715Y-90846571D01*
X104627429Y-91346571D02*
X103770286Y-91346571D01*
X104198858Y-91346571D02*
X104198858Y-89846571D01*
X104056001Y-90060857D01*
X103913143Y-90203714D01*
X103770286Y-90275143D01*
X105270286Y-91203714D02*
X105341714Y-91275143D01*
X105270286Y-91346571D01*
X105198857Y-91275143D01*
X105270286Y-91203714D01*
X105270286Y-91346571D01*
X106770286Y-91346571D02*
X105913143Y-91346571D01*
X106341715Y-91346571D02*
X106341715Y-89846571D01*
X106198858Y-90060857D01*
X106056000Y-90203714D01*
X105913143Y-90275143D01*
X93627429Y-93896571D02*
X93627429Y-92396571D01*
X93984572Y-92396571D01*
X94198857Y-92468000D01*
X94341715Y-92610857D01*
X94413143Y-92753714D01*
X94484572Y-93039429D01*
X94484572Y-93253714D01*
X94413143Y-93539429D01*
X94341715Y-93682286D01*
X94198857Y-93825143D01*
X93984572Y-93896571D01*
X93627429Y-93896571D01*
X95698857Y-93825143D02*
X95556000Y-93896571D01*
X95270286Y-93896571D01*
X95127429Y-93825143D01*
X95056000Y-93682286D01*
X95056000Y-93110857D01*
X95127429Y-92968000D01*
X95270286Y-92896571D01*
X95556000Y-92896571D01*
X95698857Y-92968000D01*
X95770286Y-93110857D01*
X95770286Y-93253714D01*
X95056000Y-93396571D01*
X96341714Y-93825143D02*
X96484571Y-93896571D01*
X96770286Y-93896571D01*
X96913143Y-93825143D01*
X96984571Y-93682286D01*
X96984571Y-93610857D01*
X96913143Y-93468000D01*
X96770286Y-93396571D01*
X96556000Y-93396571D01*
X96413143Y-93325143D01*
X96341714Y-93182286D01*
X96341714Y-93110857D01*
X96413143Y-92968000D01*
X96556000Y-92896571D01*
X96770286Y-92896571D01*
X96913143Y-92968000D01*
X97627429Y-93896571D02*
X97627429Y-92896571D01*
X97627429Y-92396571D02*
X97556000Y-92468000D01*
X97627429Y-92539429D01*
X97698857Y-92468000D01*
X97627429Y-92396571D01*
X97627429Y-92539429D01*
X98984572Y-92896571D02*
X98984572Y-94110857D01*
X98913143Y-94253714D01*
X98841715Y-94325143D01*
X98698858Y-94396571D01*
X98484572Y-94396571D01*
X98341715Y-94325143D01*
X98984572Y-93825143D02*
X98841715Y-93896571D01*
X98556001Y-93896571D01*
X98413143Y-93825143D01*
X98341715Y-93753714D01*
X98270286Y-93610857D01*
X98270286Y-93182286D01*
X98341715Y-93039429D01*
X98413143Y-92968000D01*
X98556001Y-92896571D01*
X98841715Y-92896571D01*
X98984572Y-92968000D01*
X99698858Y-92896571D02*
X99698858Y-93896571D01*
X99698858Y-93039429D02*
X99770286Y-92968000D01*
X99913144Y-92896571D01*
X100127429Y-92896571D01*
X100270286Y-92968000D01*
X100341715Y-93110857D01*
X100341715Y-93896571D01*
X102198858Y-93896571D02*
X102198858Y-92396571D01*
X102198858Y-92968000D02*
X102341715Y-92896571D01*
X102627429Y-92896571D01*
X102770286Y-92968000D01*
X102841715Y-93039429D01*
X102913144Y-93182286D01*
X102913144Y-93610857D01*
X102841715Y-93753714D01*
X102770286Y-93825143D01*
X102627429Y-93896571D01*
X102341715Y-93896571D01*
X102198858Y-93825143D01*
X103413144Y-92896571D02*
X103770287Y-93896571D01*
X104127429Y-92896571D02*
X103770287Y-93896571D01*
X103627429Y-94253714D01*
X103556001Y-94325143D01*
X103413144Y-94396571D01*
X90484572Y-95446571D02*
X90484572Y-96446571D01*
X90484572Y-95589429D02*
X90556000Y-95518000D01*
X90698858Y-95446571D01*
X90913143Y-95446571D01*
X91056000Y-95518000D01*
X91127429Y-95660857D01*
X91127429Y-96446571D01*
X92484572Y-96446571D02*
X92484572Y-94946571D01*
X92484572Y-96375143D02*
X92341715Y-96446571D01*
X92056001Y-96446571D01*
X91913143Y-96375143D01*
X91841715Y-96303714D01*
X91770286Y-96160857D01*
X91770286Y-95732286D01*
X91841715Y-95589429D01*
X91913143Y-95518000D01*
X92056001Y-95446571D01*
X92341715Y-95446571D01*
X92484572Y-95518000D01*
X93198858Y-96446571D02*
X93198858Y-94946571D01*
X93341715Y-95875143D02*
X93770286Y-96446571D01*
X93770286Y-95446571D02*
X93198858Y-96018000D01*
X95341715Y-95732286D02*
X95270287Y-95660857D01*
X95127430Y-95589429D01*
X94984572Y-95589429D01*
X94841715Y-95660857D01*
X94770287Y-95732286D01*
X94698858Y-95875143D01*
X94698858Y-96018000D01*
X94770287Y-96160857D01*
X94841715Y-96232286D01*
X94984572Y-96303714D01*
X95127430Y-96303714D01*
X95270287Y-96232286D01*
X95341715Y-96160857D01*
X95341715Y-95589429D02*
X95341715Y-96160857D01*
X95413144Y-96232286D01*
X95484572Y-96232286D01*
X95627430Y-96160857D01*
X95698858Y-96018000D01*
X95698858Y-95660857D01*
X95556001Y-95446571D01*
X95341715Y-95303714D01*
X95056001Y-95232286D01*
X94770287Y-95303714D01*
X94556001Y-95446571D01*
X94413144Y-95660857D01*
X94341715Y-95946571D01*
X94413144Y-96232286D01*
X94556001Y-96446571D01*
X94770287Y-96589429D01*
X95056001Y-96660857D01*
X95341715Y-96589429D01*
X95556001Y-96446571D01*
X97198858Y-96303714D02*
X97127429Y-96375143D01*
X96913143Y-96446571D01*
X96770286Y-96446571D01*
X96556001Y-96375143D01*
X96413143Y-96232286D01*
X96341715Y-96089429D01*
X96270286Y-95803714D01*
X96270286Y-95589429D01*
X96341715Y-95303714D01*
X96413143Y-95160857D01*
X96556001Y-95018000D01*
X96770286Y-94946571D01*
X96913143Y-94946571D01*
X97127429Y-95018000D01*
X97198858Y-95089429D01*
X97770286Y-96375143D02*
X97984572Y-96446571D01*
X98341715Y-96446571D01*
X98484572Y-96375143D01*
X98556001Y-96303714D01*
X98627429Y-96160857D01*
X98627429Y-96018000D01*
X98556001Y-95875143D01*
X98484572Y-95803714D01*
X98341715Y-95732286D01*
X98056001Y-95660857D01*
X97913143Y-95589429D01*
X97841715Y-95518000D01*
X97770286Y-95375143D01*
X97770286Y-95232286D01*
X97841715Y-95089429D01*
X97913143Y-95018000D01*
X98056001Y-94946571D01*
X98413143Y-94946571D01*
X98627429Y-95018000D01*
X99198857Y-96375143D02*
X99413143Y-96446571D01*
X99770286Y-96446571D01*
X99913143Y-96375143D01*
X99984572Y-96303714D01*
X100056000Y-96160857D01*
X100056000Y-96018000D01*
X99984572Y-95875143D01*
X99913143Y-95803714D01*
X99770286Y-95732286D01*
X99484572Y-95660857D01*
X99341714Y-95589429D01*
X99270286Y-95518000D01*
X99198857Y-95375143D01*
X99198857Y-95232286D01*
X99270286Y-95089429D01*
X99341714Y-95018000D01*
X99484572Y-94946571D01*
X99841714Y-94946571D01*
X100056000Y-95018000D01*
X100698857Y-96446571D02*
X100698857Y-94946571D01*
X100698857Y-95660857D02*
X101556000Y-95660857D01*
X101556000Y-96446571D02*
X101556000Y-94946571D01*
X102984572Y-96446571D02*
X102270286Y-96446571D01*
X102270286Y-94946571D01*
X103484572Y-96303714D02*
X103556000Y-96375143D01*
X103484572Y-96446571D01*
X103413143Y-96375143D01*
X103484572Y-96303714D01*
X103484572Y-96446571D01*
X104413144Y-96446571D02*
X104270286Y-96375143D01*
X104198858Y-96303714D01*
X104127429Y-96160857D01*
X104127429Y-95732286D01*
X104198858Y-95589429D01*
X104270286Y-95518000D01*
X104413144Y-95446571D01*
X104627429Y-95446571D01*
X104770286Y-95518000D01*
X104841715Y-95589429D01*
X104913144Y-95732286D01*
X104913144Y-96160857D01*
X104841715Y-96303714D01*
X104770286Y-96375143D01*
X104627429Y-96446571D01*
X104413144Y-96446571D01*
X105556001Y-96446571D02*
X105556001Y-95446571D01*
X105556001Y-95732286D02*
X105627429Y-95589429D01*
X105698858Y-95518000D01*
X105841715Y-95446571D01*
X105984572Y-95446571D01*
X107127429Y-95446571D02*
X107127429Y-96660857D01*
X107056000Y-96803714D01*
X106984572Y-96875143D01*
X106841715Y-96946571D01*
X106627429Y-96946571D01*
X106484572Y-96875143D01*
X107127429Y-96375143D02*
X106984572Y-96446571D01*
X106698858Y-96446571D01*
X106556000Y-96375143D01*
X106484572Y-96303714D01*
X106413143Y-96160857D01*
X106413143Y-95732286D01*
X106484572Y-95589429D01*
X106556000Y-95518000D01*
X106698858Y-95446571D01*
X106984572Y-95446571D01*
X107127429Y-95518000D01*
D13*
X16764000Y-69596000D02*
X108204000Y-69596000D01*
D12*
X82978572Y-83228571D02*
X82121429Y-83228571D01*
X82550001Y-83228571D02*
X82550001Y-81728571D01*
X82407144Y-81942857D01*
X82264286Y-82085714D01*
X82121429Y-82157143D01*
X77041429Y-81871429D02*
X77112858Y-81800000D01*
X77255715Y-81728571D01*
X77612858Y-81728571D01*
X77755715Y-81800000D01*
X77827144Y-81871429D01*
X77898572Y-82014286D01*
X77898572Y-82157143D01*
X77827144Y-82371429D01*
X76970001Y-83228571D01*
X77898572Y-83228571D01*
X71890001Y-81728571D02*
X72818572Y-81728571D01*
X72318572Y-82300000D01*
X72532858Y-82300000D01*
X72675715Y-82371429D01*
X72747144Y-82442857D01*
X72818572Y-82585714D01*
X72818572Y-82942857D01*
X72747144Y-83085714D01*
X72675715Y-83157143D01*
X72532858Y-83228571D01*
X72104286Y-83228571D01*
X71961429Y-83157143D01*
X71890001Y-83085714D01*
X66325715Y-82228571D02*
X66325715Y-83228571D01*
X65968572Y-81657143D02*
X65611429Y-82728571D01*
X66540001Y-82728571D01*
X56344286Y-83228571D02*
X55630000Y-83228571D01*
X55630000Y-81728571D01*
X60531429Y-83228571D02*
X60531429Y-81728571D01*
X61388572Y-83228571D01*
X61388572Y-81728571D01*
D14*
X28194000Y-35306000D02*
X28194000Y-33274000D01*
X28321000Y-32893000D02*
X28321000Y-35814000D01*
X28448000Y-36068000D02*
X28448000Y-32512000D01*
X28575000Y-32131000D02*
X28575000Y-36449000D01*
X28702000Y-36703000D02*
X28702000Y-31877000D01*
X28829000Y-31750000D02*
X28829000Y-36830000D01*
X27813000Y-29083000D02*
X27813000Y-39497000D01*
X27813000Y-39497000D02*
X37465000Y-39497000D01*
X37465000Y-39497000D02*
X38227000Y-38735000D01*
X38227000Y-38735000D02*
X38227000Y-29845000D01*
X38227000Y-29845000D02*
X37465000Y-29083000D01*
X37465000Y-29083000D02*
X27813000Y-29083000D01*
X37592000Y-34290000D02*
X36830000Y-34290000D01*
X37211000Y-33909000D02*
X37211000Y-34671000D01*
X37973000Y-34290000D02*
G75*
G03X37973000Y-34290000I-4953000J0D01*
G01*
X107594000Y-60442000D02*
X98654000Y-60442000D01*
X98654000Y-60442000D02*
X98654000Y-40142000D01*
X98654000Y-40142000D02*
X107594000Y-40142000D01*
X107594000Y-40142000D02*
X107594000Y-60442000D01*
X107594000Y-52517000D02*
X106294000Y-52517000D01*
X106294000Y-52517000D02*
X106294000Y-59242000D01*
X106294000Y-59242000D02*
X99954000Y-59242000D01*
X99954000Y-59242000D02*
X99954000Y-41342000D01*
X99954000Y-41342000D02*
X106294000Y-41342000D01*
X106294000Y-41342000D02*
X106294000Y-48067000D01*
X106294000Y-48067000D02*
X107594000Y-48067000D01*
X98654000Y-50542000D02*
X98454000Y-50542000D01*
X98454000Y-50542000D02*
X98454000Y-50042000D01*
X98454000Y-50042000D02*
X98654000Y-50042000D01*
X98554000Y-50542000D02*
X98554000Y-50042000D01*
X98654000Y-43062000D02*
X98454000Y-43062000D01*
X98454000Y-43062000D02*
X98454000Y-42562000D01*
X98454000Y-42562000D02*
X98654000Y-42562000D01*
X98554000Y-43062000D02*
X98554000Y-42562000D01*
X98654000Y-58022000D02*
X98454000Y-58022000D01*
X98454000Y-58022000D02*
X98454000Y-57522000D01*
X98454000Y-57522000D02*
X98654000Y-57522000D01*
X98554000Y-58022000D02*
X98554000Y-57522000D01*
X104994000Y-57572000D02*
X103794000Y-57572000D01*
X103794000Y-57572000D02*
X104394000Y-56972000D01*
X104394000Y-56972000D02*
X104994000Y-57572000D01*
X42829480Y-93939360D02*
X42829480Y-96441260D01*
X42829480Y-86438740D02*
X42829480Y-88940640D01*
X30830520Y-86438740D02*
X30830520Y-88940640D01*
X30830520Y-96441260D02*
X30830520Y-93939360D01*
X41330880Y-91440000D02*
X32329120Y-91440000D01*
X41330880Y-93939360D02*
X41330880Y-88940640D01*
X32329120Y-93939360D02*
X32329120Y-88940640D01*
X26830020Y-93339920D02*
X26830020Y-93939360D01*
X46829980Y-89540080D02*
X46829980Y-88940640D01*
X46829980Y-88940640D02*
X26830020Y-88940640D01*
X26830020Y-88940640D02*
X26830020Y-89540080D01*
X26830020Y-93939360D02*
X46829980Y-93939360D01*
X46829980Y-93939360D02*
X46829980Y-93339920D01*
X24831040Y-93339920D02*
X24831040Y-96441260D01*
X48828960Y-89540080D02*
X48828960Y-86438740D01*
X48828960Y-86438740D02*
X24831040Y-86438740D01*
X24831040Y-86438740D02*
X24831040Y-89540080D01*
X24831040Y-96441260D02*
X48828960Y-96441260D01*
X48828960Y-96441260D02*
X48828960Y-93339920D01*
X43370000Y-80870000D02*
X27870000Y-80870000D01*
X43370000Y-85070000D02*
X27870000Y-85070000D01*
X27870000Y-85070000D02*
X27870000Y-80870000D01*
X43370000Y-85070000D02*
X43370000Y-80870000D01*
D15*
X62936000Y-53592000D02*
X63866000Y-53592000D01*
X66096000Y-53592000D02*
X65166000Y-53592000D01*
X66096000Y-53592000D02*
X66096000Y-51432000D01*
X62936000Y-53592000D02*
X62936000Y-52132000D01*
X56078000Y-53592000D02*
X57008000Y-53592000D01*
X59238000Y-53592000D02*
X58308000Y-53592000D01*
X59238000Y-53592000D02*
X59238000Y-51432000D01*
X56078000Y-53592000D02*
X56078000Y-52132000D01*
X48966000Y-53592000D02*
X49896000Y-53592000D01*
X52126000Y-53592000D02*
X51196000Y-53592000D01*
X52126000Y-53592000D02*
X52126000Y-51432000D01*
X48966000Y-53592000D02*
X48966000Y-52132000D01*
X41854000Y-53592000D02*
X42784000Y-53592000D01*
X45014000Y-53592000D02*
X44084000Y-53592000D01*
X45014000Y-53592000D02*
X45014000Y-51432000D01*
X41854000Y-53592000D02*
X41854000Y-52132000D01*
D16*
G36*
X92967360Y-31670468D02*
X93002592Y-31687874D01*
X93046040Y-31718206D01*
X93077706Y-31751283D01*
X93099394Y-31792817D01*
X93112903Y-31848522D01*
X93120038Y-31924111D01*
X93122600Y-32025296D01*
X93122750Y-32068797D01*
X93122312Y-32164135D01*
X93120496Y-32232271D01*
X93116545Y-32279418D01*
X93109702Y-32311790D01*
X93099211Y-32335600D01*
X93088296Y-32351843D01*
X93018619Y-32420952D01*
X92936566Y-32462521D01*
X92848050Y-32475023D01*
X92758981Y-32456934D01*
X92730763Y-32444142D01*
X92663210Y-32408931D01*
X92663210Y-32960700D01*
X92712512Y-32935205D01*
X92777473Y-32915480D01*
X92857320Y-32910427D01*
X92937052Y-32919756D01*
X92997265Y-32940714D01*
X93047208Y-32980627D01*
X93089881Y-33037741D01*
X93093090Y-33043605D01*
X93106622Y-33071227D01*
X93116505Y-33099068D01*
X93123309Y-33132794D01*
X93127601Y-33178071D01*
X93129951Y-33240562D01*
X93130928Y-33325935D01*
X93131105Y-33422010D01*
X93131105Y-33728526D01*
X92947289Y-33728526D01*
X92947289Y-33163339D01*
X92895875Y-33120077D01*
X92842466Y-33085472D01*
X92791888Y-33079180D01*
X92741030Y-33095372D01*
X92713925Y-33111227D01*
X92693751Y-33133810D01*
X92679403Y-33167940D01*
X92669776Y-33218434D01*
X92663763Y-33290111D01*
X92660260Y-33387788D01*
X92659026Y-33452802D01*
X92654855Y-33720171D01*
X92567125Y-33725222D01*
X92479394Y-33730273D01*
X92479394Y-32071101D01*
X92663210Y-32071101D01*
X92667896Y-32163600D01*
X92683688Y-32227809D01*
X92713183Y-32267759D01*
X92758980Y-32287480D01*
X92805250Y-32291421D01*
X92857628Y-32286892D01*
X92892390Y-32269069D01*
X92914128Y-32245519D01*
X92931240Y-32220189D01*
X92941427Y-32191969D01*
X92945960Y-32152431D01*
X92946109Y-32093142D01*
X92944584Y-32043498D01*
X92941081Y-31968710D01*
X92935867Y-31919611D01*
X92927087Y-31888467D01*
X92912886Y-31867545D01*
X92899484Y-31855452D01*
X92843487Y-31829081D01*
X92777211Y-31824822D01*
X92739156Y-31833906D01*
X92701477Y-31866196D01*
X92676519Y-31929006D01*
X92664422Y-32021894D01*
X92663210Y-32071101D01*
X92479394Y-32071101D01*
X92479394Y-31656421D01*
X92571302Y-31656421D01*
X92626483Y-31658603D01*
X92654952Y-31666351D01*
X92663206Y-31681468D01*
X92663210Y-31681916D01*
X92667040Y-31696720D01*
X92683933Y-31695039D01*
X92717519Y-31678772D01*
X92795778Y-31653887D01*
X92883827Y-31651271D01*
X92967360Y-31670468D01*
X92967360Y-31670468D01*
G37*
X92967360Y-31670468D02*
X93002592Y-31687874D01*
X93046040Y-31718206D01*
X93077706Y-31751283D01*
X93099394Y-31792817D01*
X93112903Y-31848522D01*
X93120038Y-31924111D01*
X93122600Y-32025296D01*
X93122750Y-32068797D01*
X93122312Y-32164135D01*
X93120496Y-32232271D01*
X93116545Y-32279418D01*
X93109702Y-32311790D01*
X93099211Y-32335600D01*
X93088296Y-32351843D01*
X93018619Y-32420952D01*
X92936566Y-32462521D01*
X92848050Y-32475023D01*
X92758981Y-32456934D01*
X92730763Y-32444142D01*
X92663210Y-32408931D01*
X92663210Y-32960700D01*
X92712512Y-32935205D01*
X92777473Y-32915480D01*
X92857320Y-32910427D01*
X92937052Y-32919756D01*
X92997265Y-32940714D01*
X93047208Y-32980627D01*
X93089881Y-33037741D01*
X93093090Y-33043605D01*
X93106622Y-33071227D01*
X93116505Y-33099068D01*
X93123309Y-33132794D01*
X93127601Y-33178071D01*
X93129951Y-33240562D01*
X93130928Y-33325935D01*
X93131105Y-33422010D01*
X93131105Y-33728526D01*
X92947289Y-33728526D01*
X92947289Y-33163339D01*
X92895875Y-33120077D01*
X92842466Y-33085472D01*
X92791888Y-33079180D01*
X92741030Y-33095372D01*
X92713925Y-33111227D01*
X92693751Y-33133810D01*
X92679403Y-33167940D01*
X92669776Y-33218434D01*
X92663763Y-33290111D01*
X92660260Y-33387788D01*
X92659026Y-33452802D01*
X92654855Y-33720171D01*
X92567125Y-33725222D01*
X92479394Y-33730273D01*
X92479394Y-32071101D01*
X92663210Y-32071101D01*
X92667896Y-32163600D01*
X92683688Y-32227809D01*
X92713183Y-32267759D01*
X92758980Y-32287480D01*
X92805250Y-32291421D01*
X92857628Y-32286892D01*
X92892390Y-32269069D01*
X92914128Y-32245519D01*
X92931240Y-32220189D01*
X92941427Y-32191969D01*
X92945960Y-32152431D01*
X92946109Y-32093142D01*
X92944584Y-32043498D01*
X92941081Y-31968710D01*
X92935867Y-31919611D01*
X92927087Y-31888467D01*
X92912886Y-31867545D01*
X92899484Y-31855452D01*
X92843487Y-31829081D01*
X92777211Y-31824822D01*
X92739156Y-31833906D01*
X92701477Y-31866196D01*
X92676519Y-31929006D01*
X92664422Y-32021894D01*
X92663210Y-32071101D01*
X92479394Y-32071101D01*
X92479394Y-31656421D01*
X92571302Y-31656421D01*
X92626483Y-31658603D01*
X92654952Y-31666351D01*
X92663206Y-31681468D01*
X92663210Y-31681916D01*
X92667040Y-31696720D01*
X92683933Y-31695039D01*
X92717519Y-31678772D01*
X92795778Y-31653887D01*
X92883827Y-31651271D01*
X92967360Y-31670468D01*
G36*
X93664457Y-32916184D02*
X93743070Y-32937160D01*
X93802916Y-32975180D01*
X93845147Y-33024978D01*
X93858275Y-33046230D01*
X93867968Y-33068492D01*
X93874744Y-33096970D01*
X93879123Y-33136871D01*
X93881624Y-33193401D01*
X93882768Y-33271767D01*
X93883072Y-33377176D01*
X93883078Y-33405142D01*
X93883078Y-33728526D01*
X93802868Y-33728526D01*
X93751706Y-33724943D01*
X93713877Y-33715866D01*
X93704399Y-33710268D01*
X93678488Y-33700606D01*
X93652024Y-33710268D01*
X93608452Y-33722330D01*
X93545160Y-33727185D01*
X93475010Y-33725078D01*
X93410860Y-33716256D01*
X93373407Y-33704937D01*
X93300933Y-33658412D01*
X93255640Y-33593846D01*
X93235278Y-33508000D01*
X93235088Y-33505796D01*
X93236875Y-33467713D01*
X93398473Y-33467713D01*
X93412601Y-33511030D01*
X93435612Y-33535408D01*
X93481804Y-33553845D01*
X93542775Y-33561205D01*
X93604949Y-33557583D01*
X93654751Y-33543074D01*
X93668703Y-33533765D01*
X93693085Y-33490753D01*
X93699263Y-33441857D01*
X93699263Y-33377605D01*
X93606818Y-33377605D01*
X93518995Y-33384366D01*
X93452418Y-33403520D01*
X93411002Y-33433376D01*
X93398473Y-33467713D01*
X93236875Y-33467713D01*
X93239490Y-33412004D01*
X93270424Y-33337847D01*
X93328581Y-33281767D01*
X93336620Y-33276665D01*
X93371163Y-33260055D01*
X93413918Y-33249996D01*
X93473686Y-33245107D01*
X93544690Y-33243983D01*
X93699263Y-33243921D01*
X93699263Y-33179125D01*
X93692706Y-33128850D01*
X93675975Y-33095169D01*
X93674016Y-33093376D01*
X93636783Y-33078642D01*
X93580580Y-33072931D01*
X93518467Y-33075737D01*
X93463510Y-33086556D01*
X93430899Y-33102782D01*
X93413228Y-33115780D01*
X93394569Y-33118262D01*
X93368819Y-33107613D01*
X93329873Y-33081218D01*
X93271630Y-33036465D01*
X93266284Y-33032273D01*
X93269023Y-33016760D01*
X93291876Y-32990960D01*
X93326609Y-32962289D01*
X93364990Y-32938166D01*
X93377048Y-32932470D01*
X93421034Y-32921103D01*
X93485487Y-32912995D01*
X93557497Y-32909743D01*
X93560864Y-32909736D01*
X93664457Y-32916184D01*
X93664457Y-32916184D01*
G37*
X93664457Y-32916184D02*
X93743070Y-32937160D01*
X93802916Y-32975180D01*
X93845147Y-33024978D01*
X93858275Y-33046230D01*
X93867968Y-33068492D01*
X93874744Y-33096970D01*
X93879123Y-33136871D01*
X93881624Y-33193401D01*
X93882768Y-33271767D01*
X93883072Y-33377176D01*
X93883078Y-33405142D01*
X93883078Y-33728526D01*
X93802868Y-33728526D01*
X93751706Y-33724943D01*
X93713877Y-33715866D01*
X93704399Y-33710268D01*
X93678488Y-33700606D01*
X93652024Y-33710268D01*
X93608452Y-33722330D01*
X93545160Y-33727185D01*
X93475010Y-33725078D01*
X93410860Y-33716256D01*
X93373407Y-33704937D01*
X93300933Y-33658412D01*
X93255640Y-33593846D01*
X93235278Y-33508000D01*
X93235088Y-33505796D01*
X93236875Y-33467713D01*
X93398473Y-33467713D01*
X93412601Y-33511030D01*
X93435612Y-33535408D01*
X93481804Y-33553845D01*
X93542775Y-33561205D01*
X93604949Y-33557583D01*
X93654751Y-33543074D01*
X93668703Y-33533765D01*
X93693085Y-33490753D01*
X93699263Y-33441857D01*
X93699263Y-33377605D01*
X93606818Y-33377605D01*
X93518995Y-33384366D01*
X93452418Y-33403520D01*
X93411002Y-33433376D01*
X93398473Y-33467713D01*
X93236875Y-33467713D01*
X93239490Y-33412004D01*
X93270424Y-33337847D01*
X93328581Y-33281767D01*
X93336620Y-33276665D01*
X93371163Y-33260055D01*
X93413918Y-33249996D01*
X93473686Y-33245107D01*
X93544690Y-33243983D01*
X93699263Y-33243921D01*
X93699263Y-33179125D01*
X93692706Y-33128850D01*
X93675975Y-33095169D01*
X93674016Y-33093376D01*
X93636783Y-33078642D01*
X93580580Y-33072931D01*
X93518467Y-33075737D01*
X93463510Y-33086556D01*
X93430899Y-33102782D01*
X93413228Y-33115780D01*
X93394569Y-33118262D01*
X93368819Y-33107613D01*
X93329873Y-33081218D01*
X93271630Y-33036465D01*
X93266284Y-33032273D01*
X93269023Y-33016760D01*
X93291876Y-32990960D01*
X93326609Y-32962289D01*
X93364990Y-32938166D01*
X93377048Y-32932470D01*
X93421034Y-32921103D01*
X93485487Y-32912995D01*
X93557497Y-32909743D01*
X93560864Y-32909736D01*
X93664457Y-32916184D01*
G36*
X94183881Y-32911486D02*
X94208888Y-32918982D01*
X94216950Y-32935451D01*
X94217289Y-32942886D01*
X94218736Y-32963594D01*
X94228698Y-32966845D01*
X94255612Y-32952648D01*
X94271598Y-32942948D01*
X94322033Y-32922175D01*
X94382272Y-32911904D01*
X94445434Y-32911114D01*
X94504637Y-32918786D01*
X94553002Y-32933898D01*
X94583646Y-32955432D01*
X94589689Y-32982366D01*
X94586639Y-32989660D01*
X94564406Y-33019937D01*
X94529930Y-33057175D01*
X94523694Y-33063195D01*
X94490833Y-33090875D01*
X94462480Y-33099818D01*
X94422827Y-33093576D01*
X94406942Y-33089429D01*
X94357509Y-33079467D01*
X94322752Y-33083947D01*
X94293400Y-33099746D01*
X94266513Y-33120949D01*
X94246710Y-33147614D01*
X94232948Y-33184827D01*
X94224184Y-33237673D01*
X94219374Y-33311237D01*
X94217474Y-33410605D01*
X94217289Y-33470601D01*
X94217289Y-33728526D01*
X94050184Y-33728526D01*
X94050184Y-32909710D01*
X94133736Y-32909710D01*
X94183881Y-32911486D01*
X94183881Y-32911486D01*
G37*
X94183881Y-32911486D02*
X94208888Y-32918982D01*
X94216950Y-32935451D01*
X94217289Y-32942886D01*
X94218736Y-32963594D01*
X94228698Y-32966845D01*
X94255612Y-32952648D01*
X94271598Y-32942948D01*
X94322033Y-32922175D01*
X94382272Y-32911904D01*
X94445434Y-32911114D01*
X94504637Y-32918786D01*
X94553002Y-32933898D01*
X94583646Y-32955432D01*
X94589689Y-32982366D01*
X94586639Y-32989660D01*
X94564406Y-33019937D01*
X94529930Y-33057175D01*
X94523694Y-33063195D01*
X94490833Y-33090875D01*
X94462480Y-33099818D01*
X94422827Y-33093576D01*
X94406942Y-33089429D01*
X94357509Y-33079467D01*
X94322752Y-33083947D01*
X94293400Y-33099746D01*
X94266513Y-33120949D01*
X94246710Y-33147614D01*
X94232948Y-33184827D01*
X94224184Y-33237673D01*
X94219374Y-33311237D01*
X94217474Y-33410605D01*
X94217289Y-33470601D01*
X94217289Y-33728526D01*
X94050184Y-33728526D01*
X94050184Y-32909710D01*
X94133736Y-32909710D01*
X94183881Y-32911486D01*
G36*
X95236631Y-33728526D02*
X95144723Y-33728526D01*
X95091377Y-33726962D01*
X95063593Y-33720485D01*
X95053590Y-33706418D01*
X95052815Y-33696906D01*
X95051128Y-33677832D01*
X95040490Y-33674174D01*
X95012535Y-33685932D01*
X94990795Y-33696906D01*
X94907332Y-33722911D01*
X94816604Y-33724416D01*
X94742842Y-33705021D01*
X94674154Y-33658165D01*
X94621794Y-33589004D01*
X94593122Y-33507427D01*
X94592392Y-33502866D01*
X94588132Y-33453101D01*
X94586014Y-33381659D01*
X94586184Y-33327626D01*
X94768720Y-33327626D01*
X94772949Y-33399441D01*
X94782568Y-33458634D01*
X94795590Y-33492060D01*
X94844856Y-33537740D01*
X94903350Y-33554115D01*
X94963671Y-33540873D01*
X95015217Y-33501373D01*
X95034738Y-33474807D01*
X95046152Y-33443106D01*
X95051498Y-33396832D01*
X95052815Y-33327328D01*
X95050458Y-33258499D01*
X95044233Y-33198026D01*
X95035408Y-33157556D01*
X95033937Y-33153929D01*
X94998347Y-33110802D01*
X94946400Y-33087124D01*
X94888278Y-33083301D01*
X94834160Y-33099738D01*
X94794226Y-33136840D01*
X94790083Y-33144222D01*
X94777116Y-33189239D01*
X94770052Y-33253967D01*
X94768720Y-33327626D01*
X94586184Y-33327626D01*
X94586271Y-33300230D01*
X94587472Y-33256405D01*
X94595645Y-33147988D01*
X94612630Y-33066588D01*
X94640887Y-33006412D01*
X94682872Y-32961666D01*
X94723632Y-32935400D01*
X94780581Y-32916935D01*
X94851411Y-32910602D01*
X94923941Y-32915760D01*
X94985986Y-32931769D01*
X95018768Y-32950920D01*
X95052815Y-32981732D01*
X95052815Y-32592210D01*
X95236631Y-32592210D01*
X95236631Y-33728526D01*
X95236631Y-33728526D01*
G37*
X95236631Y-33728526D02*
X95144723Y-33728526D01*
X95091377Y-33726962D01*
X95063593Y-33720485D01*
X95053590Y-33706418D01*
X95052815Y-33696906D01*
X95051128Y-33677832D01*
X95040490Y-33674174D01*
X95012535Y-33685932D01*
X94990795Y-33696906D01*
X94907332Y-33722911D01*
X94816604Y-33724416D01*
X94742842Y-33705021D01*
X94674154Y-33658165D01*
X94621794Y-33589004D01*
X94593122Y-33507427D01*
X94592392Y-33502866D01*
X94588132Y-33453101D01*
X94586014Y-33381659D01*
X94586184Y-33327626D01*
X94768720Y-33327626D01*
X94772949Y-33399441D01*
X94782568Y-33458634D01*
X94795590Y-33492060D01*
X94844856Y-33537740D01*
X94903350Y-33554115D01*
X94963671Y-33540873D01*
X95015217Y-33501373D01*
X95034738Y-33474807D01*
X95046152Y-33443106D01*
X95051498Y-33396832D01*
X95052815Y-33327328D01*
X95050458Y-33258499D01*
X95044233Y-33198026D01*
X95035408Y-33157556D01*
X95033937Y-33153929D01*
X94998347Y-33110802D01*
X94946400Y-33087124D01*
X94888278Y-33083301D01*
X94834160Y-33099738D01*
X94794226Y-33136840D01*
X94790083Y-33144222D01*
X94777116Y-33189239D01*
X94770052Y-33253967D01*
X94768720Y-33327626D01*
X94586184Y-33327626D01*
X94586271Y-33300230D01*
X94587472Y-33256405D01*
X94595645Y-33147988D01*
X94612630Y-33066588D01*
X94640887Y-33006412D01*
X94682872Y-32961666D01*
X94723632Y-32935400D01*
X94780581Y-32916935D01*
X94851411Y-32910602D01*
X94923941Y-32915760D01*
X94985986Y-32931769D01*
X95018768Y-32950920D01*
X95052815Y-32981732D01*
X95052815Y-32592210D01*
X95236631Y-32592210D01*
X95236631Y-33728526D01*
G36*
X95878130Y-32913104D02*
X95944220Y-32918066D01*
X96030626Y-33177079D01*
X96117031Y-33436092D01*
X96144124Y-33344184D01*
X96160428Y-33287384D01*
X96181875Y-33210625D01*
X96205035Y-33126251D01*
X96217280Y-33080993D01*
X96263344Y-32909710D01*
X96453387Y-32909710D01*
X96396582Y-33089349D01*
X96368607Y-33177704D01*
X96334813Y-33284281D01*
X96299520Y-33395454D01*
X96268013Y-33494579D01*
X96196250Y-33720171D01*
X96041286Y-33730253D01*
X95999270Y-33591528D01*
X95973359Y-33505351D01*
X95945083Y-33410347D01*
X95920369Y-33326441D01*
X95919394Y-33323102D01*
X95900935Y-33266248D01*
X95884649Y-33227456D01*
X95873242Y-33212787D01*
X95870898Y-33214483D01*
X95862671Y-33237225D01*
X95847038Y-33285940D01*
X95825904Y-33354502D01*
X95801170Y-33436785D01*
X95787787Y-33482046D01*
X95715311Y-33728526D01*
X95561495Y-33728526D01*
X95438531Y-33340006D01*
X95403988Y-33231022D01*
X95372521Y-33132048D01*
X95345616Y-33047736D01*
X95324759Y-32982734D01*
X95311438Y-32941692D01*
X95307388Y-32929701D01*
X95310594Y-32917423D01*
X95335765Y-32912046D01*
X95388146Y-32912584D01*
X95396345Y-32912990D01*
X95493482Y-32918066D01*
X95557100Y-33152013D01*
X95580484Y-33237333D01*
X95601381Y-33312335D01*
X95617951Y-33370507D01*
X95628354Y-33405337D01*
X95630276Y-33411016D01*
X95638241Y-33404486D01*
X95654304Y-33370654D01*
X95676621Y-33314127D01*
X95703345Y-33239510D01*
X95725937Y-33172107D01*
X95812041Y-32908143D01*
X95878130Y-32913104D01*
X95878130Y-32913104D01*
G37*
X95878130Y-32913104D02*
X95944220Y-32918066D01*
X96030626Y-33177079D01*
X96117031Y-33436092D01*
X96144124Y-33344184D01*
X96160428Y-33287384D01*
X96181875Y-33210625D01*
X96205035Y-33126251D01*
X96217280Y-33080993D01*
X96263344Y-32909710D01*
X96453387Y-32909710D01*
X96396582Y-33089349D01*
X96368607Y-33177704D01*
X96334813Y-33284281D01*
X96299520Y-33395454D01*
X96268013Y-33494579D01*
X96196250Y-33720171D01*
X96041286Y-33730253D01*
X95999270Y-33591528D01*
X95973359Y-33505351D01*
X95945083Y-33410347D01*
X95920369Y-33326441D01*
X95919394Y-33323102D01*
X95900935Y-33266248D01*
X95884649Y-33227456D01*
X95873242Y-33212787D01*
X95870898Y-33214483D01*
X95862671Y-33237225D01*
X95847038Y-33285940D01*
X95825904Y-33354502D01*
X95801170Y-33436785D01*
X95787787Y-33482046D01*
X95715311Y-33728526D01*
X95561495Y-33728526D01*
X95438531Y-33340006D01*
X95403988Y-33231022D01*
X95372521Y-33132048D01*
X95345616Y-33047736D01*
X95324759Y-32982734D01*
X95311438Y-32941692D01*
X95307388Y-32929701D01*
X95310594Y-32917423D01*
X95335765Y-32912046D01*
X95388146Y-32912584D01*
X95396345Y-32912990D01*
X95493482Y-32918066D01*
X95557100Y-33152013D01*
X95580484Y-33237333D01*
X95601381Y-33312335D01*
X95617951Y-33370507D01*
X95628354Y-33405337D01*
X95630276Y-33411016D01*
X95638241Y-33404486D01*
X95654304Y-33370654D01*
X95676621Y-33314127D01*
X95703345Y-33239510D01*
X95725937Y-33172107D01*
X95812041Y-32908143D01*
X95878130Y-32913104D01*
G36*
X96883992Y-32914673D02*
X96954427Y-32931780D01*
X96974787Y-32940844D01*
X97014253Y-32964583D01*
X97044541Y-32991321D01*
X97066952Y-33025699D01*
X97082786Y-33072360D01*
X97093343Y-33135946D01*
X97099924Y-33221099D01*
X97103828Y-33332462D01*
X97105310Y-33406849D01*
X97110765Y-33728526D01*
X97017580Y-33728526D01*
X96961047Y-33726156D01*
X96931922Y-33718055D01*
X96924394Y-33704451D01*
X96920420Y-33689741D01*
X96902652Y-33692554D01*
X96878440Y-33704348D01*
X96817828Y-33722427D01*
X96739929Y-33727299D01*
X96657995Y-33719330D01*
X96585281Y-33698889D01*
X96578759Y-33696051D01*
X96512302Y-33649365D01*
X96468491Y-33584464D01*
X96448332Y-33508600D01*
X96449872Y-33481344D01*
X96614345Y-33481344D01*
X96628837Y-33518024D01*
X96671805Y-33544309D01*
X96741129Y-33558417D01*
X96778177Y-33560290D01*
X96839919Y-33555494D01*
X96880960Y-33536858D01*
X96890973Y-33528000D01*
X96918100Y-33479806D01*
X96924394Y-33436092D01*
X96924394Y-33377605D01*
X96842930Y-33377605D01*
X96748234Y-33382432D01*
X96681813Y-33397613D01*
X96639846Y-33424200D01*
X96630449Y-33436052D01*
X96614345Y-33481344D01*
X96449872Y-33481344D01*
X96452829Y-33429026D01*
X96482985Y-33352995D01*
X96524131Y-33301612D01*
X96549052Y-33279397D01*
X96573448Y-33264798D01*
X96605191Y-33255897D01*
X96652152Y-33250775D01*
X96722204Y-33247515D01*
X96749990Y-33246577D01*
X96924394Y-33240879D01*
X96924138Y-33188091D01*
X96917384Y-33132603D01*
X96892964Y-33099052D01*
X96843630Y-33077618D01*
X96842306Y-33077236D01*
X96772360Y-33068808D01*
X96703914Y-33079816D01*
X96653047Y-33106585D01*
X96632637Y-33119803D01*
X96610654Y-33117974D01*
X96576826Y-33098824D01*
X96556961Y-33085308D01*
X96518106Y-33056432D01*
X96494038Y-33034786D01*
X96490176Y-33028589D01*
X96506079Y-32996519D01*
X96553065Y-32958219D01*
X96573473Y-32945297D01*
X96632143Y-32923041D01*
X96711212Y-32910432D01*
X96799041Y-32907600D01*
X96883992Y-32914673D01*
X96883992Y-32914673D01*
G37*
X96883992Y-32914673D02*
X96954427Y-32931780D01*
X96974787Y-32940844D01*
X97014253Y-32964583D01*
X97044541Y-32991321D01*
X97066952Y-33025699D01*
X97082786Y-33072360D01*
X97093343Y-33135946D01*
X97099924Y-33221099D01*
X97103828Y-33332462D01*
X97105310Y-33406849D01*
X97110765Y-33728526D01*
X97017580Y-33728526D01*
X96961047Y-33726156D01*
X96931922Y-33718055D01*
X96924394Y-33704451D01*
X96920420Y-33689741D01*
X96902652Y-33692554D01*
X96878440Y-33704348D01*
X96817828Y-33722427D01*
X96739929Y-33727299D01*
X96657995Y-33719330D01*
X96585281Y-33698889D01*
X96578759Y-33696051D01*
X96512302Y-33649365D01*
X96468491Y-33584464D01*
X96448332Y-33508600D01*
X96449872Y-33481344D01*
X96614345Y-33481344D01*
X96628837Y-33518024D01*
X96671805Y-33544309D01*
X96741129Y-33558417D01*
X96778177Y-33560290D01*
X96839919Y-33555494D01*
X96880960Y-33536858D01*
X96890973Y-33528000D01*
X96918100Y-33479806D01*
X96924394Y-33436092D01*
X96924394Y-33377605D01*
X96842930Y-33377605D01*
X96748234Y-33382432D01*
X96681813Y-33397613D01*
X96639846Y-33424200D01*
X96630449Y-33436052D01*
X96614345Y-33481344D01*
X96449872Y-33481344D01*
X96452829Y-33429026D01*
X96482985Y-33352995D01*
X96524131Y-33301612D01*
X96549052Y-33279397D01*
X96573448Y-33264798D01*
X96605191Y-33255897D01*
X96652152Y-33250775D01*
X96722204Y-33247515D01*
X96749990Y-33246577D01*
X96924394Y-33240879D01*
X96924138Y-33188091D01*
X96917384Y-33132603D01*
X96892964Y-33099052D01*
X96843630Y-33077618D01*
X96842306Y-33077236D01*
X96772360Y-33068808D01*
X96703914Y-33079816D01*
X96653047Y-33106585D01*
X96632637Y-33119803D01*
X96610654Y-33117974D01*
X96576826Y-33098824D01*
X96556961Y-33085308D01*
X96518106Y-33056432D01*
X96494038Y-33034786D01*
X96490176Y-33028589D01*
X96506079Y-32996519D01*
X96553065Y-32958219D01*
X96573473Y-32945297D01*
X96632143Y-32923041D01*
X96711212Y-32910432D01*
X96799041Y-32907600D01*
X96883992Y-32914673D01*
G36*
X97677167Y-32909447D02*
X97741408Y-32922112D01*
X97777980Y-32940864D01*
X97816453Y-32972017D01*
X97761717Y-33041127D01*
X97727969Y-33082979D01*
X97705053Y-33103398D01*
X97682279Y-33106517D01*
X97648956Y-33096472D01*
X97633314Y-33090789D01*
X97569542Y-33082404D01*
X97511140Y-33100378D01*
X97468264Y-33140982D01*
X97461299Y-33153929D01*
X97453713Y-33188224D01*
X97447859Y-33251427D01*
X97444011Y-33339060D01*
X97442443Y-33446640D01*
X97442421Y-33461944D01*
X97442421Y-33728526D01*
X97258605Y-33728526D01*
X97258605Y-32909710D01*
X97350513Y-32909710D01*
X97403507Y-32911094D01*
X97431115Y-32917252D01*
X97441324Y-32931194D01*
X97442421Y-32944344D01*
X97442421Y-32978978D01*
X97486450Y-32944344D01*
X97536937Y-32920716D01*
X97604760Y-32909033D01*
X97677167Y-32909447D01*
X97677167Y-32909447D01*
G37*
X97677167Y-32909447D02*
X97741408Y-32922112D01*
X97777980Y-32940864D01*
X97816453Y-32972017D01*
X97761717Y-33041127D01*
X97727969Y-33082979D01*
X97705053Y-33103398D01*
X97682279Y-33106517D01*
X97648956Y-33096472D01*
X97633314Y-33090789D01*
X97569542Y-33082404D01*
X97511140Y-33100378D01*
X97468264Y-33140982D01*
X97461299Y-33153929D01*
X97453713Y-33188224D01*
X97447859Y-33251427D01*
X97444011Y-33339060D01*
X97442443Y-33446640D01*
X97442421Y-33461944D01*
X97442421Y-33728526D01*
X97258605Y-33728526D01*
X97258605Y-32909710D01*
X97350513Y-32909710D01*
X97403507Y-32911094D01*
X97431115Y-32917252D01*
X97441324Y-32931194D01*
X97442421Y-32944344D01*
X97442421Y-32978978D01*
X97486450Y-32944344D01*
X97536937Y-32920716D01*
X97604760Y-32909033D01*
X97677167Y-32909447D01*
G36*
X98205193Y-32914078D02*
X98285068Y-32934845D01*
X98351962Y-32977705D01*
X98384351Y-33009723D01*
X98437445Y-33085413D01*
X98467873Y-33173216D01*
X98478327Y-33281150D01*
X98478380Y-33289875D01*
X98478473Y-33377605D01*
X97973534Y-33377605D01*
X97984298Y-33423559D01*
X98003732Y-33465178D01*
X98037745Y-33508544D01*
X98044860Y-33515467D01*
X98106003Y-33552935D01*
X98175729Y-33559289D01*
X98255987Y-33534638D01*
X98269592Y-33528000D01*
X98311319Y-33507819D01*
X98339268Y-33496321D01*
X98344145Y-33495258D01*
X98361168Y-33505583D01*
X98393633Y-33530845D01*
X98410114Y-33544650D01*
X98444264Y-33576361D01*
X98455478Y-33597299D01*
X98447695Y-33616560D01*
X98443535Y-33621827D01*
X98415357Y-33644878D01*
X98368862Y-33672892D01*
X98336434Y-33689246D01*
X98244385Y-33718059D01*
X98142476Y-33727395D01*
X98045963Y-33716332D01*
X98018934Y-33708412D01*
X97935276Y-33663581D01*
X97873266Y-33594598D01*
X97832545Y-33500794D01*
X97812755Y-33381498D01*
X97810582Y-33319118D01*
X97816926Y-33228298D01*
X97977157Y-33228298D01*
X97992655Y-33235012D01*
X98034312Y-33240280D01*
X98094876Y-33243389D01*
X98135907Y-33243921D01*
X98209711Y-33243408D01*
X98256293Y-33241006D01*
X98281848Y-33235422D01*
X98292569Y-33225361D01*
X98294657Y-33210763D01*
X98280331Y-33165796D01*
X98244262Y-33121353D01*
X98196815Y-33087242D01*
X98149349Y-33073288D01*
X98084879Y-33085666D01*
X98029070Y-33121452D01*
X97990374Y-33173033D01*
X97977157Y-33228298D01*
X97816926Y-33228298D01*
X97819821Y-33186866D01*
X97848336Y-33081498D01*
X97896729Y-33002178D01*
X97965604Y-32948071D01*
X98055565Y-32918343D01*
X98104300Y-32912618D01*
X98205193Y-32914078D01*
X98205193Y-32914078D01*
G37*
X98205193Y-32914078D02*
X98285068Y-32934845D01*
X98351962Y-32977705D01*
X98384351Y-33009723D01*
X98437445Y-33085413D01*
X98467873Y-33173216D01*
X98478327Y-33281150D01*
X98478380Y-33289875D01*
X98478473Y-33377605D01*
X97973534Y-33377605D01*
X97984298Y-33423559D01*
X98003732Y-33465178D01*
X98037745Y-33508544D01*
X98044860Y-33515467D01*
X98106003Y-33552935D01*
X98175729Y-33559289D01*
X98255987Y-33534638D01*
X98269592Y-33528000D01*
X98311319Y-33507819D01*
X98339268Y-33496321D01*
X98344145Y-33495258D01*
X98361168Y-33505583D01*
X98393633Y-33530845D01*
X98410114Y-33544650D01*
X98444264Y-33576361D01*
X98455478Y-33597299D01*
X98447695Y-33616560D01*
X98443535Y-33621827D01*
X98415357Y-33644878D01*
X98368862Y-33672892D01*
X98336434Y-33689246D01*
X98244385Y-33718059D01*
X98142476Y-33727395D01*
X98045963Y-33716332D01*
X98018934Y-33708412D01*
X97935276Y-33663581D01*
X97873266Y-33594598D01*
X97832545Y-33500794D01*
X97812755Y-33381498D01*
X97810582Y-33319118D01*
X97816926Y-33228298D01*
X97977157Y-33228298D01*
X97992655Y-33235012D01*
X98034312Y-33240280D01*
X98094876Y-33243389D01*
X98135907Y-33243921D01*
X98209711Y-33243408D01*
X98256293Y-33241006D01*
X98281848Y-33235422D01*
X98292569Y-33225361D01*
X98294657Y-33210763D01*
X98280331Y-33165796D01*
X98244262Y-33121353D01*
X98196815Y-33087242D01*
X98149349Y-33073288D01*
X98084879Y-33085666D01*
X98029070Y-33121452D01*
X97990374Y-33173033D01*
X97977157Y-33228298D01*
X97816926Y-33228298D01*
X97819821Y-33186866D01*
X97848336Y-33081498D01*
X97896729Y-33002178D01*
X97965604Y-32948071D01*
X98055565Y-32918343D01*
X98104300Y-32912618D01*
X98205193Y-32914078D01*
G36*
X92130784Y-31665104D02*
X92218205Y-31703754D01*
X92284570Y-31768290D01*
X92329976Y-31858812D01*
X92354518Y-31975418D01*
X92356277Y-31993624D01*
X92357656Y-32121984D01*
X92339784Y-32234496D01*
X92303750Y-32325688D01*
X92284455Y-32355022D01*
X92217245Y-32417106D01*
X92131650Y-32457316D01*
X92035890Y-32474003D01*
X91938187Y-32465517D01*
X91863917Y-32439380D01*
X91800047Y-32395335D01*
X91747846Y-32337587D01*
X91746943Y-32336236D01*
X91725744Y-32300593D01*
X91711967Y-32264752D01*
X91703624Y-32219519D01*
X91698727Y-32155701D01*
X91696569Y-32103368D01*
X91695671Y-32055910D01*
X91862743Y-32055910D01*
X91864376Y-32103154D01*
X91870304Y-32166046D01*
X91880761Y-32206407D01*
X91899619Y-32235122D01*
X91917281Y-32251896D01*
X91979894Y-32287016D01*
X92045408Y-32291710D01*
X92106421Y-32266440D01*
X92136928Y-32238124D01*
X92158911Y-32209589D01*
X92171769Y-32182284D01*
X92177412Y-32146750D01*
X92177751Y-32093524D01*
X92176012Y-32044506D01*
X92172271Y-31974482D01*
X92166341Y-31929064D01*
X92155653Y-31899440D01*
X92137639Y-31876797D01*
X92123363Y-31863855D01*
X92063651Y-31829860D01*
X91999234Y-31828165D01*
X91945219Y-31848301D01*
X91899140Y-31890352D01*
X91871689Y-31959428D01*
X91862743Y-32055910D01*
X91695671Y-32055910D01*
X91694599Y-31999299D01*
X91697964Y-31921468D01*
X91708045Y-31862930D01*
X91726226Y-31816737D01*
X91753890Y-31775942D01*
X91764146Y-31763828D01*
X91828278Y-31703474D01*
X91897066Y-31668220D01*
X91981189Y-31653450D01*
X92022209Y-31652243D01*
X92130784Y-31665104D01*
X92130784Y-31665104D01*
G37*
X92130784Y-31665104D02*
X92218205Y-31703754D01*
X92284570Y-31768290D01*
X92329976Y-31858812D01*
X92354518Y-31975418D01*
X92356277Y-31993624D01*
X92357656Y-32121984D01*
X92339784Y-32234496D01*
X92303750Y-32325688D01*
X92284455Y-32355022D01*
X92217245Y-32417106D01*
X92131650Y-32457316D01*
X92035890Y-32474003D01*
X91938187Y-32465517D01*
X91863917Y-32439380D01*
X91800047Y-32395335D01*
X91747846Y-32337587D01*
X91746943Y-32336236D01*
X91725744Y-32300593D01*
X91711967Y-32264752D01*
X91703624Y-32219519D01*
X91698727Y-32155701D01*
X91696569Y-32103368D01*
X91695671Y-32055910D01*
X91862743Y-32055910D01*
X91864376Y-32103154D01*
X91870304Y-32166046D01*
X91880761Y-32206407D01*
X91899619Y-32235122D01*
X91917281Y-32251896D01*
X91979894Y-32287016D01*
X92045408Y-32291710D01*
X92106421Y-32266440D01*
X92136928Y-32238124D01*
X92158911Y-32209589D01*
X92171769Y-32182284D01*
X92177412Y-32146750D01*
X92177751Y-32093524D01*
X92176012Y-32044506D01*
X92172271Y-31974482D01*
X92166341Y-31929064D01*
X92155653Y-31899440D01*
X92137639Y-31876797D01*
X92123363Y-31863855D01*
X92063651Y-31829860D01*
X91999234Y-31828165D01*
X91945219Y-31848301D01*
X91899140Y-31890352D01*
X91871689Y-31959428D01*
X91862743Y-32055910D01*
X91695671Y-32055910D01*
X91694599Y-31999299D01*
X91697964Y-31921468D01*
X91708045Y-31862930D01*
X91726226Y-31816737D01*
X91753890Y-31775942D01*
X91764146Y-31763828D01*
X91828278Y-31703474D01*
X91897066Y-31668220D01*
X91981189Y-31653450D01*
X92022209Y-31652243D01*
X92130784Y-31665104D01*
G36*
X93701018Y-31675027D02*
X93717670Y-31682866D01*
X93775305Y-31725086D01*
X93829805Y-31786700D01*
X93870499Y-31854543D01*
X93882074Y-31885734D01*
X93892634Y-31941449D01*
X93898931Y-32008781D01*
X93899696Y-32036585D01*
X93899789Y-32124316D01*
X93394850Y-32124316D01*
X93405613Y-32170270D01*
X93432033Y-32224620D01*
X93478222Y-32271591D01*
X93533172Y-32301848D01*
X93568189Y-32308131D01*
X93615677Y-32300506D01*
X93672335Y-32281383D01*
X93691582Y-32272584D01*
X93762759Y-32237036D01*
X93823502Y-32283367D01*
X93858552Y-32314703D01*
X93877202Y-32340567D01*
X93878147Y-32348158D01*
X93861485Y-32366556D01*
X93824970Y-32394515D01*
X93791828Y-32416327D01*
X93702393Y-32455537D01*
X93602129Y-32473285D01*
X93502754Y-32468670D01*
X93423539Y-32444551D01*
X93341880Y-32392884D01*
X93283849Y-32324856D01*
X93247546Y-32236843D01*
X93231072Y-32125216D01*
X93229611Y-32074138D01*
X93235457Y-31957091D01*
X93236175Y-31953686D01*
X93403489Y-31953686D01*
X93408097Y-31964662D01*
X93427036Y-31970715D01*
X93466098Y-31973310D01*
X93531077Y-31973910D01*
X93556097Y-31973921D01*
X93632221Y-31973014D01*
X93680496Y-31969720D01*
X93706460Y-31963181D01*
X93715648Y-31952537D01*
X93715973Y-31949119D01*
X93705487Y-31921956D01*
X93679242Y-31883903D01*
X93667959Y-31870579D01*
X93626072Y-31832896D01*
X93582409Y-31818080D01*
X93558885Y-31816842D01*
X93495243Y-31832329D01*
X93441873Y-31873930D01*
X93408019Y-31934353D01*
X93407419Y-31936322D01*
X93403489Y-31953686D01*
X93236175Y-31953686D01*
X93254899Y-31864928D01*
X93289922Y-31791190D01*
X93332756Y-31738848D01*
X93411948Y-31682092D01*
X93505040Y-31651762D01*
X93604055Y-31649021D01*
X93701018Y-31675027D01*
X93701018Y-31675027D01*
G37*
X93701018Y-31675027D02*
X93717670Y-31682866D01*
X93775305Y-31725086D01*
X93829805Y-31786700D01*
X93870499Y-31854543D01*
X93882074Y-31885734D01*
X93892634Y-31941449D01*
X93898931Y-32008781D01*
X93899696Y-32036585D01*
X93899789Y-32124316D01*
X93394850Y-32124316D01*
X93405613Y-32170270D01*
X93432033Y-32224620D01*
X93478222Y-32271591D01*
X93533172Y-32301848D01*
X93568189Y-32308131D01*
X93615677Y-32300506D01*
X93672335Y-32281383D01*
X93691582Y-32272584D01*
X93762759Y-32237036D01*
X93823502Y-32283367D01*
X93858552Y-32314703D01*
X93877202Y-32340567D01*
X93878147Y-32348158D01*
X93861485Y-32366556D01*
X93824970Y-32394515D01*
X93791828Y-32416327D01*
X93702393Y-32455537D01*
X93602129Y-32473285D01*
X93502754Y-32468670D01*
X93423539Y-32444551D01*
X93341880Y-32392884D01*
X93283849Y-32324856D01*
X93247546Y-32236843D01*
X93231072Y-32125216D01*
X93229611Y-32074138D01*
X93235457Y-31957091D01*
X93236175Y-31953686D01*
X93403489Y-31953686D01*
X93408097Y-31964662D01*
X93427036Y-31970715D01*
X93466098Y-31973310D01*
X93531077Y-31973910D01*
X93556097Y-31973921D01*
X93632221Y-31973014D01*
X93680496Y-31969720D01*
X93706460Y-31963181D01*
X93715648Y-31952537D01*
X93715973Y-31949119D01*
X93705487Y-31921956D01*
X93679242Y-31883903D01*
X93667959Y-31870579D01*
X93626072Y-31832896D01*
X93582409Y-31818080D01*
X93558885Y-31816842D01*
X93495243Y-31832329D01*
X93441873Y-31873930D01*
X93408019Y-31934353D01*
X93407419Y-31936322D01*
X93403489Y-31953686D01*
X93236175Y-31953686D01*
X93254899Y-31864928D01*
X93289922Y-31791190D01*
X93332756Y-31738848D01*
X93411948Y-31682092D01*
X93505040Y-31651762D01*
X93604055Y-31649021D01*
X93701018Y-31675027D01*
G36*
X95522628Y-31653547D02*
X95585908Y-31665548D01*
X95651557Y-31690648D01*
X95658572Y-31693848D01*
X95708356Y-31720026D01*
X95742834Y-31744353D01*
X95753978Y-31759937D01*
X95743366Y-31785353D01*
X95717588Y-31822853D01*
X95706146Y-31836852D01*
X95658992Y-31891954D01*
X95598201Y-31856086D01*
X95540347Y-31832192D01*
X95473500Y-31819420D01*
X95409394Y-31818613D01*
X95359764Y-31830615D01*
X95347854Y-31838105D01*
X95325172Y-31872450D01*
X95322416Y-31912013D01*
X95339388Y-31942920D01*
X95349427Y-31948913D01*
X95379510Y-31956357D01*
X95432389Y-31965106D01*
X95497575Y-31973467D01*
X95509600Y-31974778D01*
X95614297Y-31992888D01*
X95690232Y-32023651D01*
X95740592Y-32069907D01*
X95768564Y-32134497D01*
X95777278Y-32213387D01*
X95765240Y-32303065D01*
X95726151Y-32373486D01*
X95659855Y-32424777D01*
X95566194Y-32457067D01*
X95462223Y-32469807D01*
X95377438Y-32469654D01*
X95308665Y-32458083D01*
X95261697Y-32442109D01*
X95202350Y-32414275D01*
X95147506Y-32381973D01*
X95128013Y-32367755D01*
X95077881Y-32326835D01*
X95198803Y-32204477D01*
X95267543Y-32249967D01*
X95336488Y-32284133D01*
X95410111Y-32302004D01*
X95480883Y-32303889D01*
X95541274Y-32290101D01*
X95583757Y-32260949D01*
X95597474Y-32236352D01*
X95595417Y-32196904D01*
X95561330Y-32166737D01*
X95495308Y-32145906D01*
X95422974Y-32136279D01*
X95311652Y-32117910D01*
X95228952Y-32083254D01*
X95173765Y-32031297D01*
X95144988Y-31961023D01*
X95141001Y-31877707D01*
X95160693Y-31790681D01*
X95205589Y-31724902D01*
X95276091Y-31680068D01*
X95372601Y-31655879D01*
X95444100Y-31651137D01*
X95522628Y-31653547D01*
X95522628Y-31653547D01*
G37*
X95522628Y-31653547D02*
X95585908Y-31665548D01*
X95651557Y-31690648D01*
X95658572Y-31693848D01*
X95708356Y-31720026D01*
X95742834Y-31744353D01*
X95753978Y-31759937D01*
X95743366Y-31785353D01*
X95717588Y-31822853D01*
X95706146Y-31836852D01*
X95658992Y-31891954D01*
X95598201Y-31856086D01*
X95540347Y-31832192D01*
X95473500Y-31819420D01*
X95409394Y-31818613D01*
X95359764Y-31830615D01*
X95347854Y-31838105D01*
X95325172Y-31872450D01*
X95322416Y-31912013D01*
X95339388Y-31942920D01*
X95349427Y-31948913D01*
X95379510Y-31956357D01*
X95432389Y-31965106D01*
X95497575Y-31973467D01*
X95509600Y-31974778D01*
X95614297Y-31992888D01*
X95690232Y-32023651D01*
X95740592Y-32069907D01*
X95768564Y-32134497D01*
X95777278Y-32213387D01*
X95765240Y-32303065D01*
X95726151Y-32373486D01*
X95659855Y-32424777D01*
X95566194Y-32457067D01*
X95462223Y-32469807D01*
X95377438Y-32469654D01*
X95308665Y-32458083D01*
X95261697Y-32442109D01*
X95202350Y-32414275D01*
X95147506Y-32381973D01*
X95128013Y-32367755D01*
X95077881Y-32326835D01*
X95198803Y-32204477D01*
X95267543Y-32249967D01*
X95336488Y-32284133D01*
X95410111Y-32302004D01*
X95480883Y-32303889D01*
X95541274Y-32290101D01*
X95583757Y-32260949D01*
X95597474Y-32236352D01*
X95595417Y-32196904D01*
X95561330Y-32166737D01*
X95495308Y-32145906D01*
X95422974Y-32136279D01*
X95311652Y-32117910D01*
X95228952Y-32083254D01*
X95173765Y-32031297D01*
X95144988Y-31961023D01*
X95141001Y-31877707D01*
X95160693Y-31790681D01*
X95205589Y-31724902D01*
X95276091Y-31680068D01*
X95372601Y-31655879D01*
X95444100Y-31651137D01*
X95522628Y-31653547D01*
G36*
X96315669Y-31666310D02*
X96400192Y-31712340D01*
X96466321Y-31785006D01*
X96497478Y-31844106D01*
X96510855Y-31896305D01*
X96519522Y-31970719D01*
X96523237Y-32056442D01*
X96521754Y-32142569D01*
X96514831Y-32218193D01*
X96506745Y-32258584D01*
X96479465Y-32313840D01*
X96432220Y-32372530D01*
X96375282Y-32423852D01*
X96318924Y-32457005D01*
X96317550Y-32457531D01*
X96247616Y-32472018D01*
X96164737Y-32472377D01*
X96085977Y-32459188D01*
X96055566Y-32448617D01*
X95977239Y-32404201D01*
X95921143Y-32346007D01*
X95884286Y-32268965D01*
X95863680Y-32168001D01*
X95859018Y-32115116D01*
X95859613Y-32048663D01*
X96038736Y-32048663D01*
X96044770Y-32145630D01*
X96062138Y-32219523D01*
X96089740Y-32266736D01*
X96109404Y-32280237D01*
X96159787Y-32289651D01*
X96219673Y-32286864D01*
X96271449Y-32273316D01*
X96285027Y-32265862D01*
X96320849Y-32222451D01*
X96344493Y-32156014D01*
X96354558Y-32075161D01*
X96349642Y-31988502D01*
X96338655Y-31936349D01*
X96307109Y-31875951D01*
X96257311Y-31838197D01*
X96197337Y-31825143D01*
X96135264Y-31838849D01*
X96087582Y-31872372D01*
X96062525Y-31900031D01*
X96047900Y-31927294D01*
X96040929Y-31964190D01*
X96038833Y-32020750D01*
X96038736Y-32048663D01*
X95859613Y-32048663D01*
X95860282Y-31973994D01*
X95883265Y-31858271D01*
X95927972Y-31767941D01*
X95994405Y-31703000D01*
X96082565Y-31663445D01*
X96101495Y-31658858D01*
X96215266Y-31648090D01*
X96315669Y-31666310D01*
X96315669Y-31666310D01*
G37*
X96315669Y-31666310D02*
X96400192Y-31712340D01*
X96466321Y-31785006D01*
X96497478Y-31844106D01*
X96510855Y-31896305D01*
X96519522Y-31970719D01*
X96523237Y-32056442D01*
X96521754Y-32142569D01*
X96514831Y-32218193D01*
X96506745Y-32258584D01*
X96479465Y-32313840D01*
X96432220Y-32372530D01*
X96375282Y-32423852D01*
X96318924Y-32457005D01*
X96317550Y-32457531D01*
X96247616Y-32472018D01*
X96164737Y-32472377D01*
X96085977Y-32459188D01*
X96055566Y-32448617D01*
X95977239Y-32404201D01*
X95921143Y-32346007D01*
X95884286Y-32268965D01*
X95863680Y-32168001D01*
X95859018Y-32115116D01*
X95859613Y-32048663D01*
X96038736Y-32048663D01*
X96044770Y-32145630D01*
X96062138Y-32219523D01*
X96089740Y-32266736D01*
X96109404Y-32280237D01*
X96159787Y-32289651D01*
X96219673Y-32286864D01*
X96271449Y-32273316D01*
X96285027Y-32265862D01*
X96320849Y-32222451D01*
X96344493Y-32156014D01*
X96354558Y-32075161D01*
X96349642Y-31988502D01*
X96338655Y-31936349D01*
X96307109Y-31875951D01*
X96257311Y-31838197D01*
X96197337Y-31825143D01*
X96135264Y-31838849D01*
X96087582Y-31872372D01*
X96062525Y-31900031D01*
X96047900Y-31927294D01*
X96040929Y-31964190D01*
X96038833Y-32020750D01*
X96038736Y-32048663D01*
X95859613Y-32048663D01*
X95860282Y-31973994D01*
X95883265Y-31858271D01*
X95927972Y-31767941D01*
X95994405Y-31703000D01*
X96082565Y-31663445D01*
X96101495Y-31658858D01*
X96215266Y-31648090D01*
X96315669Y-31666310D01*
G36*
X96824131Y-31916533D02*
X96825710Y-32039089D01*
X96831481Y-32132179D01*
X96842991Y-32199651D01*
X96861790Y-32245355D01*
X96889426Y-32273139D01*
X96927448Y-32286854D01*
X96974526Y-32290358D01*
X97023832Y-32286432D01*
X97061283Y-32272089D01*
X97088428Y-32243478D01*
X97106815Y-32196751D01*
X97117993Y-32128058D01*
X97123511Y-32033550D01*
X97124921Y-31916533D01*
X97124921Y-31656421D01*
X97308736Y-31656421D01*
X97308736Y-32458526D01*
X97216828Y-32458526D01*
X97161422Y-32456281D01*
X97132891Y-32448396D01*
X97124921Y-32433428D01*
X97120120Y-32420097D01*
X97101014Y-32422917D01*
X97062504Y-32441783D01*
X96974239Y-32470887D01*
X96880623Y-32468825D01*
X96790921Y-32437221D01*
X96748204Y-32412257D01*
X96715621Y-32385226D01*
X96691817Y-32351405D01*
X96675439Y-32306068D01*
X96665131Y-32244489D01*
X96659541Y-32161943D01*
X96657312Y-32053705D01*
X96657026Y-31970004D01*
X96657026Y-31656421D01*
X96824131Y-31656421D01*
X96824131Y-31916533D01*
X96824131Y-31916533D01*
G37*
X96824131Y-31916533D02*
X96825710Y-32039089D01*
X96831481Y-32132179D01*
X96842991Y-32199651D01*
X96861790Y-32245355D01*
X96889426Y-32273139D01*
X96927448Y-32286854D01*
X96974526Y-32290358D01*
X97023832Y-32286432D01*
X97061283Y-32272089D01*
X97088428Y-32243478D01*
X97106815Y-32196751D01*
X97117993Y-32128058D01*
X97123511Y-32033550D01*
X97124921Y-31916533D01*
X97124921Y-31656421D01*
X97308736Y-31656421D01*
X97308736Y-32458526D01*
X97216828Y-32458526D01*
X97161422Y-32456281D01*
X97132891Y-32448396D01*
X97124921Y-32433428D01*
X97120120Y-32420097D01*
X97101014Y-32422917D01*
X97062504Y-32441783D01*
X96974239Y-32470887D01*
X96880623Y-32468825D01*
X96790921Y-32437221D01*
X96748204Y-32412257D01*
X96715621Y-32385226D01*
X96691817Y-32351405D01*
X96675439Y-32306068D01*
X96665131Y-32244489D01*
X96659541Y-32161943D01*
X96657312Y-32053705D01*
X96657026Y-31970004D01*
X96657026Y-31656421D01*
X96824131Y-31656421D01*
X96824131Y-31916533D01*
G36*
X98450576Y-31663419D02*
X98547395Y-31704549D01*
X98577890Y-31724571D01*
X98616865Y-31755340D01*
X98641331Y-31779533D01*
X98645578Y-31787413D01*
X98633584Y-31804899D01*
X98602887Y-31834570D01*
X98578312Y-31855279D01*
X98511046Y-31909336D01*
X98457930Y-31864642D01*
X98416884Y-31835789D01*
X98376863Y-31825829D01*
X98331059Y-31828261D01*
X98258324Y-31846345D01*
X98208256Y-31883881D01*
X98177829Y-31944562D01*
X98164017Y-32032081D01*
X98164013Y-32032136D01*
X98165208Y-32129958D01*
X98183772Y-32201730D01*
X98220804Y-32250595D01*
X98246050Y-32267143D01*
X98313097Y-32287749D01*
X98384709Y-32287762D01*
X98447015Y-32267768D01*
X98461763Y-32258000D01*
X98498750Y-32233047D01*
X98527668Y-32228958D01*
X98558856Y-32247530D01*
X98593336Y-32280887D01*
X98647912Y-32337196D01*
X98587318Y-32387142D01*
X98493698Y-32443513D01*
X98388125Y-32471293D01*
X98277798Y-32469282D01*
X98205343Y-32450862D01*
X98120656Y-32405310D01*
X98052927Y-32333650D01*
X98022157Y-32283066D01*
X97997236Y-32210488D01*
X97984766Y-32118569D01*
X97984670Y-32018948D01*
X97996870Y-31923267D01*
X98021290Y-31843169D01*
X98025136Y-31834956D01*
X98082093Y-31754413D01*
X98159209Y-31695771D01*
X98250390Y-31660247D01*
X98349543Y-31649057D01*
X98450576Y-31663419D01*
X98450576Y-31663419D01*
G37*
X98450576Y-31663419D02*
X98547395Y-31704549D01*
X98577890Y-31724571D01*
X98616865Y-31755340D01*
X98641331Y-31779533D01*
X98645578Y-31787413D01*
X98633584Y-31804899D01*
X98602887Y-31834570D01*
X98578312Y-31855279D01*
X98511046Y-31909336D01*
X98457930Y-31864642D01*
X98416884Y-31835789D01*
X98376863Y-31825829D01*
X98331059Y-31828261D01*
X98258324Y-31846345D01*
X98208256Y-31883881D01*
X98177829Y-31944562D01*
X98164017Y-32032081D01*
X98164013Y-32032136D01*
X98165208Y-32129958D01*
X98183772Y-32201730D01*
X98220804Y-32250595D01*
X98246050Y-32267143D01*
X98313097Y-32287749D01*
X98384709Y-32287762D01*
X98447015Y-32267768D01*
X98461763Y-32258000D01*
X98498750Y-32233047D01*
X98527668Y-32228958D01*
X98558856Y-32247530D01*
X98593336Y-32280887D01*
X98647912Y-32337196D01*
X98587318Y-32387142D01*
X98493698Y-32443513D01*
X98388125Y-32471293D01*
X98277798Y-32469282D01*
X98205343Y-32450862D01*
X98120656Y-32405310D01*
X98052927Y-32333650D01*
X98022157Y-32283066D01*
X97997236Y-32210488D01*
X97984766Y-32118569D01*
X97984670Y-32018948D01*
X97996870Y-31923267D01*
X98021290Y-31843169D01*
X98025136Y-31834956D01*
X98082093Y-31754413D01*
X98159209Y-31695771D01*
X98250390Y-31660247D01*
X98349543Y-31649057D01*
X98450576Y-31663419D01*
G36*
X99062784Y-31653554D02*
X99105574Y-31663949D01*
X99187609Y-31702013D01*
X99257757Y-31760149D01*
X99306305Y-31829852D01*
X99312975Y-31845502D01*
X99322124Y-31886496D01*
X99328529Y-31947138D01*
X99330710Y-32008430D01*
X99330710Y-32124316D01*
X99088407Y-32124316D01*
X98988471Y-32124693D01*
X98918069Y-32126987D01*
X98873313Y-32132938D01*
X98850315Y-32144285D01*
X98845189Y-32162771D01*
X98854048Y-32190136D01*
X98869917Y-32222155D01*
X98914184Y-32275592D01*
X98975699Y-32302215D01*
X99050885Y-32301347D01*
X99136053Y-32272371D01*
X99209659Y-32236611D01*
X99270734Y-32284904D01*
X99331810Y-32333197D01*
X99274351Y-32386285D01*
X99197641Y-32436445D01*
X99103302Y-32466688D01*
X99001827Y-32475151D01*
X98903711Y-32459974D01*
X98887881Y-32454824D01*
X98801647Y-32409791D01*
X98737501Y-32342652D01*
X98694091Y-32251405D01*
X98670064Y-32134044D01*
X98669784Y-32131529D01*
X98667633Y-32003627D01*
X98676329Y-31957997D01*
X98846105Y-31957997D01*
X98861697Y-31965013D01*
X98904029Y-31970388D01*
X98966434Y-31973457D01*
X99005981Y-31973921D01*
X99079728Y-31973630D01*
X99125840Y-31971783D01*
X99150100Y-31966912D01*
X99158294Y-31957555D01*
X99156206Y-31942245D01*
X99154455Y-31936322D01*
X99124560Y-31880668D01*
X99077542Y-31835815D01*
X99036049Y-31816105D01*
X98980926Y-31817295D01*
X98925068Y-31841875D01*
X98878212Y-31882570D01*
X98850094Y-31932108D01*
X98846105Y-31957997D01*
X98676329Y-31957997D01*
X98689074Y-31891133D01*
X98731611Y-31796727D01*
X98792747Y-31723088D01*
X98869985Y-31672893D01*
X98960830Y-31648822D01*
X99062784Y-31653554D01*
X99062784Y-31653554D01*
G37*
X99062784Y-31653554D02*
X99105574Y-31663949D01*
X99187609Y-31702013D01*
X99257757Y-31760149D01*
X99306305Y-31829852D01*
X99312975Y-31845502D01*
X99322124Y-31886496D01*
X99328529Y-31947138D01*
X99330710Y-32008430D01*
X99330710Y-32124316D01*
X99088407Y-32124316D01*
X98988471Y-32124693D01*
X98918069Y-32126987D01*
X98873313Y-32132938D01*
X98850315Y-32144285D01*
X98845189Y-32162771D01*
X98854048Y-32190136D01*
X98869917Y-32222155D01*
X98914184Y-32275592D01*
X98975699Y-32302215D01*
X99050885Y-32301347D01*
X99136053Y-32272371D01*
X99209659Y-32236611D01*
X99270734Y-32284904D01*
X99331810Y-32333197D01*
X99274351Y-32386285D01*
X99197641Y-32436445D01*
X99103302Y-32466688D01*
X99001827Y-32475151D01*
X98903711Y-32459974D01*
X98887881Y-32454824D01*
X98801647Y-32409791D01*
X98737501Y-32342652D01*
X98694091Y-32251405D01*
X98670064Y-32134044D01*
X98669784Y-32131529D01*
X98667633Y-32003627D01*
X98676329Y-31957997D01*
X98846105Y-31957997D01*
X98861697Y-31965013D01*
X98904029Y-31970388D01*
X98966434Y-31973457D01*
X99005981Y-31973921D01*
X99079728Y-31973630D01*
X99125840Y-31971783D01*
X99150100Y-31966912D01*
X99158294Y-31957555D01*
X99156206Y-31942245D01*
X99154455Y-31936322D01*
X99124560Y-31880668D01*
X99077542Y-31835815D01*
X99036049Y-31816105D01*
X98980926Y-31817295D01*
X98925068Y-31841875D01*
X98878212Y-31882570D01*
X98850094Y-31932108D01*
X98846105Y-31957997D01*
X98676329Y-31957997D01*
X98689074Y-31891133D01*
X98731611Y-31796727D01*
X98792747Y-31723088D01*
X98869985Y-31672893D01*
X98960830Y-31648822D01*
X99062784Y-31653554D01*
G36*
X94501957Y-31670226D02*
X94543546Y-31690090D01*
X94583825Y-31718784D01*
X94614510Y-31751809D01*
X94636861Y-31793931D01*
X94652136Y-31849915D01*
X94661592Y-31924528D01*
X94666487Y-32022535D01*
X94668081Y-32148702D01*
X94668106Y-32161914D01*
X94668473Y-32458526D01*
X94484657Y-32458526D01*
X94484657Y-32185081D01*
X94484527Y-32083777D01*
X94483621Y-32010353D01*
X94481173Y-31959271D01*
X94476414Y-31924990D01*
X94468574Y-31901971D01*
X94456885Y-31884673D01*
X94440602Y-31867581D01*
X94383634Y-31830857D01*
X94321445Y-31824042D01*
X94262199Y-31847261D01*
X94241595Y-31864543D01*
X94226470Y-31880791D01*
X94215610Y-31898191D01*
X94208310Y-31922212D01*
X94203863Y-31958322D01*
X94201564Y-32011988D01*
X94200704Y-32088680D01*
X94200578Y-32182043D01*
X94200578Y-32458526D01*
X94016763Y-32458526D01*
X94016763Y-31656421D01*
X94108671Y-31656421D01*
X94163851Y-31658603D01*
X94192320Y-31666351D01*
X94200575Y-31681468D01*
X94200578Y-31681916D01*
X94204408Y-31696720D01*
X94221301Y-31695040D01*
X94254888Y-31678773D01*
X94331063Y-31654840D01*
X94418200Y-31652178D01*
X94501957Y-31670226D01*
X94501957Y-31670226D01*
G37*
X94501957Y-31670226D02*
X94543546Y-31690090D01*
X94583825Y-31718784D01*
X94614510Y-31751809D01*
X94636861Y-31793931D01*
X94652136Y-31849915D01*
X94661592Y-31924528D01*
X94666487Y-32022535D01*
X94668081Y-32148702D01*
X94668106Y-32161914D01*
X94668473Y-32458526D01*
X94484657Y-32458526D01*
X94484657Y-32185081D01*
X94484527Y-32083777D01*
X94483621Y-32010353D01*
X94481173Y-31959271D01*
X94476414Y-31924990D01*
X94468574Y-31901971D01*
X94456885Y-31884673D01*
X94440602Y-31867581D01*
X94383634Y-31830857D01*
X94321445Y-31824042D01*
X94262199Y-31847261D01*
X94241595Y-31864543D01*
X94226470Y-31880791D01*
X94215610Y-31898191D01*
X94208310Y-31922212D01*
X94203863Y-31958322D01*
X94201564Y-32011988D01*
X94200704Y-32088680D01*
X94200578Y-32182043D01*
X94200578Y-32458526D01*
X94016763Y-32458526D01*
X94016763Y-31656421D01*
X94108671Y-31656421D01*
X94163851Y-31658603D01*
X94192320Y-31666351D01*
X94200575Y-31681468D01*
X94200578Y-31681916D01*
X94204408Y-31696720D01*
X94221301Y-31695040D01*
X94254888Y-31678773D01*
X94331063Y-31654840D01*
X94418200Y-31652178D01*
X94501957Y-31670226D01*
G36*
X97895388Y-31655645D02*
X97952865Y-31673206D01*
X97989872Y-31695395D01*
X98001927Y-31712942D01*
X97998609Y-31733742D01*
X97977079Y-31766419D01*
X97958874Y-31789562D01*
X97921344Y-31831402D01*
X97893148Y-31849005D01*
X97869111Y-31847856D01*
X97797808Y-31829710D01*
X97745442Y-31830534D01*
X97702918Y-31851098D01*
X97688642Y-31863134D01*
X97642947Y-31905483D01*
X97642947Y-32458526D01*
X97459131Y-32458526D01*
X97459131Y-31656421D01*
X97551039Y-31656421D01*
X97606219Y-31658603D01*
X97634688Y-31666351D01*
X97642943Y-31681468D01*
X97642947Y-31681916D01*
X97646845Y-31697749D01*
X97664474Y-31695684D01*
X97688901Y-31684261D01*
X97739350Y-31663005D01*
X97780316Y-31650216D01*
X97833028Y-31646938D01*
X97895388Y-31655645D01*
X97895388Y-31655645D01*
G37*
X97895388Y-31655645D02*
X97952865Y-31673206D01*
X97989872Y-31695395D01*
X98001927Y-31712942D01*
X97998609Y-31733742D01*
X97977079Y-31766419D01*
X97958874Y-31789562D01*
X97921344Y-31831402D01*
X97893148Y-31849005D01*
X97869111Y-31847856D01*
X97797808Y-31829710D01*
X97745442Y-31830534D01*
X97702918Y-31851098D01*
X97688642Y-31863134D01*
X97642947Y-31905483D01*
X97642947Y-32458526D01*
X97459131Y-32458526D01*
X97459131Y-31656421D01*
X97551039Y-31656421D01*
X97606219Y-31658603D01*
X97634688Y-31666351D01*
X97642943Y-31681468D01*
X97642947Y-31681916D01*
X97646845Y-31697749D01*
X97664474Y-31695684D01*
X97688901Y-31684261D01*
X97739350Y-31663005D01*
X97780316Y-31650216D01*
X97833028Y-31646938D01*
X97895388Y-31655645D01*
G36*
X96004964Y-26116576D02*
X96080513Y-26517322D01*
X96638041Y-26747154D01*
X96972465Y-26519748D01*
X97066122Y-26456431D01*
X97150782Y-26399896D01*
X97222495Y-26352727D01*
X97277311Y-26317502D01*
X97311280Y-26296805D01*
X97320530Y-26292342D01*
X97337195Y-26303820D01*
X97372806Y-26335551D01*
X97423371Y-26383483D01*
X97484900Y-26443562D01*
X97553399Y-26511733D01*
X97624879Y-26583945D01*
X97695347Y-26656142D01*
X97760811Y-26724273D01*
X97817280Y-26784283D01*
X97860763Y-26832119D01*
X97887268Y-26863727D01*
X97893605Y-26874305D01*
X97884486Y-26893806D01*
X97858920Y-26936531D01*
X97819597Y-26998298D01*
X97769203Y-27074931D01*
X97710427Y-27162248D01*
X97676368Y-27212052D01*
X97614289Y-27302993D01*
X97559126Y-27385059D01*
X97513554Y-27454163D01*
X97480250Y-27506222D01*
X97461890Y-27537150D01*
X97459131Y-27543650D01*
X97465385Y-27562121D01*
X97482434Y-27605172D01*
X97507703Y-27666749D01*
X97538622Y-27740799D01*
X97572618Y-27821270D01*
X97607118Y-27902107D01*
X97639551Y-27977258D01*
X97667343Y-28040671D01*
X97687923Y-28086293D01*
X97698719Y-28108069D01*
X97699356Y-28108926D01*
X97716307Y-28113084D01*
X97761451Y-28122361D01*
X97830110Y-28135844D01*
X97917602Y-28152621D01*
X98019250Y-28171781D01*
X98078556Y-28182830D01*
X98187172Y-28203510D01*
X98285277Y-28223189D01*
X98367909Y-28240789D01*
X98430104Y-28255233D01*
X98466899Y-28265446D01*
X98474296Y-28268686D01*
X98481540Y-28290617D01*
X98487385Y-28340147D01*
X98491835Y-28411485D01*
X98494893Y-28498839D01*
X98496565Y-28596417D01*
X98496853Y-28698426D01*
X98495761Y-28799075D01*
X98493294Y-28892572D01*
X98489456Y-28973125D01*
X98484250Y-29034942D01*
X98477681Y-29072230D01*
X98473741Y-29079993D01*
X98450188Y-29089298D01*
X98400282Y-29102600D01*
X98330623Y-29118337D01*
X98247813Y-29134946D01*
X98218905Y-29140319D01*
X98079531Y-29165848D01*
X97969436Y-29186408D01*
X97884982Y-29202815D01*
X97822530Y-29215887D01*
X97778444Y-29226441D01*
X97749085Y-29235294D01*
X97730815Y-29243263D01*
X97719998Y-29251165D01*
X97718485Y-29252727D01*
X97703377Y-29277886D01*
X97680329Y-29326850D01*
X97651644Y-29393621D01*
X97619622Y-29472205D01*
X97586565Y-29556607D01*
X97554773Y-29640830D01*
X97526549Y-29718879D01*
X97504193Y-29784759D01*
X97490007Y-29832473D01*
X97486293Y-29856027D01*
X97486602Y-29856852D01*
X97499189Y-29876104D01*
X97527744Y-29918463D01*
X97569267Y-29979521D01*
X97620756Y-30054868D01*
X97679211Y-30140096D01*
X97695858Y-30164315D01*
X97755215Y-30252123D01*
X97807447Y-30332238D01*
X97849708Y-30400062D01*
X97879153Y-30450993D01*
X97892937Y-30480431D01*
X97893605Y-30484048D01*
X97882024Y-30503057D01*
X97850024Y-30540714D01*
X97801718Y-30592973D01*
X97741220Y-30655786D01*
X97672644Y-30725106D01*
X97600104Y-30796885D01*
X97527712Y-30867077D01*
X97459584Y-30931635D01*
X97399832Y-30986510D01*
X97352571Y-31027656D01*
X97321913Y-31051026D01*
X97313432Y-31054842D01*
X97293691Y-31045855D01*
X97253274Y-31021616D01*
X97198763Y-30986209D01*
X97156823Y-30957711D01*
X97080829Y-30905418D01*
X96990834Y-30843845D01*
X96900564Y-30782370D01*
X96852032Y-30749469D01*
X96687762Y-30638359D01*
X96549869Y-30712916D01*
X96487049Y-30745578D01*
X96433629Y-30770966D01*
X96397484Y-30785446D01*
X96388284Y-30787460D01*
X96377221Y-30772584D01*
X96355394Y-30730547D01*
X96324434Y-30665227D01*
X96285970Y-30580500D01*
X96241632Y-30480245D01*
X96193047Y-30368339D01*
X96141846Y-30248659D01*
X96089659Y-30125084D01*
X96038113Y-30001491D01*
X95988840Y-29881757D01*
X95943467Y-29769759D01*
X95903625Y-29669377D01*
X95870942Y-29584486D01*
X95847049Y-29518965D01*
X95833574Y-29476690D01*
X95831406Y-29462172D01*
X95848583Y-29443653D01*
X95886190Y-29413590D01*
X95936366Y-29378232D01*
X95940578Y-29375434D01*
X96070264Y-29271625D01*
X96174834Y-29150515D01*
X96253381Y-29015976D01*
X96304999Y-28871882D01*
X96328782Y-28722105D01*
X96323823Y-28570517D01*
X96289217Y-28420992D01*
X96224057Y-28277400D01*
X96204886Y-28245984D01*
X96105174Y-28119125D01*
X95987377Y-28017255D01*
X95855571Y-27940904D01*
X95713833Y-27890602D01*
X95566242Y-27866879D01*
X95416873Y-27870265D01*
X95269803Y-27901288D01*
X95129111Y-27960480D01*
X94998873Y-28048369D01*
X94958586Y-28084042D01*
X94856055Y-28195706D01*
X94781341Y-28313257D01*
X94730090Y-28445020D01*
X94701546Y-28575507D01*
X94694500Y-28722216D01*
X94717996Y-28869653D01*
X94769649Y-29012834D01*
X94847071Y-29146777D01*
X94947875Y-29266498D01*
X95069676Y-29367014D01*
X95085684Y-29377609D01*
X95136398Y-29412306D01*
X95174950Y-29442370D01*
X95193381Y-29461565D01*
X95193649Y-29462172D01*
X95189692Y-29482936D01*
X95174007Y-29530062D01*
X95148222Y-29599673D01*
X95113969Y-29687893D01*
X95072877Y-29790844D01*
X95026576Y-29904650D01*
X94976696Y-30025435D01*
X94924867Y-30149321D01*
X94872719Y-30272432D01*
X94821882Y-30390891D01*
X94773987Y-30500823D01*
X94730662Y-30598349D01*
X94693538Y-30679593D01*
X94664244Y-30740679D01*
X94644412Y-30777730D01*
X94636426Y-30787460D01*
X94612021Y-30779883D01*
X94566358Y-30759560D01*
X94507310Y-30730125D01*
X94474840Y-30712916D01*
X94336947Y-30638359D01*
X94172677Y-30749469D01*
X94088821Y-30806390D01*
X93997013Y-30869030D01*
X93910980Y-30928011D01*
X93867887Y-30957711D01*
X93807277Y-30998410D01*
X93755955Y-31030663D01*
X93720615Y-31050384D01*
X93709137Y-31054554D01*
X93692430Y-31043307D01*
X93655454Y-31011911D01*
X93601795Y-30963624D01*
X93535038Y-30901708D01*
X93458766Y-30829421D01*
X93410527Y-30783008D01*
X93326133Y-30700087D01*
X93253197Y-30625920D01*
X93194669Y-30563680D01*
X93153497Y-30516541D01*
X93132628Y-30487673D01*
X93130626Y-30481815D01*
X93139917Y-30459532D01*
X93165591Y-30414477D01*
X93204800Y-30351211D01*
X93254697Y-30274295D01*
X93312433Y-30188292D01*
X93328851Y-30164315D01*
X93388677Y-30077170D01*
X93442350Y-29998710D01*
X93486870Y-29933345D01*
X93519235Y-29885484D01*
X93536445Y-29859535D01*
X93538107Y-29856852D01*
X93535621Y-29836172D01*
X93522423Y-29790704D01*
X93500814Y-29726444D01*
X93473096Y-29649387D01*
X93441570Y-29565529D01*
X93408537Y-29480866D01*
X93376299Y-29401392D01*
X93347157Y-29333104D01*
X93323412Y-29281997D01*
X93307365Y-29254067D01*
X93306225Y-29252727D01*
X93296412Y-29244745D01*
X93279839Y-29236851D01*
X93252868Y-29228229D01*
X93211861Y-29218062D01*
X93153180Y-29205531D01*
X93073187Y-29189821D01*
X92968245Y-29170113D01*
X92834715Y-29145592D01*
X92805804Y-29140319D01*
X92720118Y-29123764D01*
X92645418Y-29107569D01*
X92588306Y-29093296D01*
X92555383Y-29082508D01*
X92550969Y-29079993D01*
X92543694Y-29057696D01*
X92537781Y-29007869D01*
X92533234Y-28936304D01*
X92530055Y-28848793D01*
X92528251Y-28751128D01*
X92527823Y-28649101D01*
X92528777Y-28548503D01*
X92531116Y-28455127D01*
X92534844Y-28374765D01*
X92539966Y-28313209D01*
X92546484Y-28276250D01*
X92550414Y-28268686D01*
X92572292Y-28261056D01*
X92622109Y-28248642D01*
X92694903Y-28232522D01*
X92785711Y-28213773D01*
X92889569Y-28193471D01*
X92946154Y-28182830D01*
X93053514Y-28162760D01*
X93149254Y-28144580D01*
X93228694Y-28129199D01*
X93287154Y-28117531D01*
X93319955Y-28110488D01*
X93325354Y-28108926D01*
X93334478Y-28091322D01*
X93353765Y-28048918D01*
X93380645Y-27987772D01*
X93412546Y-27913943D01*
X93446898Y-27833489D01*
X93481129Y-27752468D01*
X93512669Y-27676937D01*
X93538946Y-27612955D01*
X93557389Y-27566580D01*
X93565429Y-27543869D01*
X93565578Y-27542876D01*
X93556465Y-27524961D01*
X93530914Y-27483733D01*
X93491612Y-27423291D01*
X93441243Y-27347731D01*
X93382494Y-27261152D01*
X93348342Y-27211421D01*
X93286110Y-27120236D01*
X93230836Y-27037449D01*
X93185218Y-26967249D01*
X93151952Y-26913824D01*
X93133736Y-26881361D01*
X93131105Y-26874083D01*
X93142414Y-26857145D01*
X93173681Y-26820978D01*
X93220910Y-26769635D01*
X93280108Y-26707167D01*
X93347281Y-26637626D01*
X93418434Y-26565065D01*
X93489574Y-26493535D01*
X93556707Y-26427087D01*
X93615839Y-26369774D01*
X93662975Y-26325647D01*
X93694123Y-26298759D01*
X93704543Y-26292342D01*
X93721509Y-26301365D01*
X93762089Y-26326715D01*
X93822337Y-26365810D01*
X93898307Y-26416071D01*
X93986054Y-26474917D01*
X94052244Y-26519748D01*
X94386668Y-26747154D01*
X94665433Y-26632238D01*
X94944197Y-26517322D01*
X95019746Y-26116576D01*
X95095294Y-25715829D01*
X95929415Y-25715829D01*
X96004964Y-26116576D01*
X96004964Y-26116576D01*
G37*
X96004964Y-26116576D02*
X96080513Y-26517322D01*
X96638041Y-26747154D01*
X96972465Y-26519748D01*
X97066122Y-26456431D01*
X97150782Y-26399896D01*
X97222495Y-26352727D01*
X97277311Y-26317502D01*
X97311280Y-26296805D01*
X97320530Y-26292342D01*
X97337195Y-26303820D01*
X97372806Y-26335551D01*
X97423371Y-26383483D01*
X97484900Y-26443562D01*
X97553399Y-26511733D01*
X97624879Y-26583945D01*
X97695347Y-26656142D01*
X97760811Y-26724273D01*
X97817280Y-26784283D01*
X97860763Y-26832119D01*
X97887268Y-26863727D01*
X97893605Y-26874305D01*
X97884486Y-26893806D01*
X97858920Y-26936531D01*
X97819597Y-26998298D01*
X97769203Y-27074931D01*
X97710427Y-27162248D01*
X97676368Y-27212052D01*
X97614289Y-27302993D01*
X97559126Y-27385059D01*
X97513554Y-27454163D01*
X97480250Y-27506222D01*
X97461890Y-27537150D01*
X97459131Y-27543650D01*
X97465385Y-27562121D01*
X97482434Y-27605172D01*
X97507703Y-27666749D01*
X97538622Y-27740799D01*
X97572618Y-27821270D01*
X97607118Y-27902107D01*
X97639551Y-27977258D01*
X97667343Y-28040671D01*
X97687923Y-28086293D01*
X97698719Y-28108069D01*
X97699356Y-28108926D01*
X97716307Y-28113084D01*
X97761451Y-28122361D01*
X97830110Y-28135844D01*
X97917602Y-28152621D01*
X98019250Y-28171781D01*
X98078556Y-28182830D01*
X98187172Y-28203510D01*
X98285277Y-28223189D01*
X98367909Y-28240789D01*
X98430104Y-28255233D01*
X98466899Y-28265446D01*
X98474296Y-28268686D01*
X98481540Y-28290617D01*
X98487385Y-28340147D01*
X98491835Y-28411485D01*
X98494893Y-28498839D01*
X98496565Y-28596417D01*
X98496853Y-28698426D01*
X98495761Y-28799075D01*
X98493294Y-28892572D01*
X98489456Y-28973125D01*
X98484250Y-29034942D01*
X98477681Y-29072230D01*
X98473741Y-29079993D01*
X98450188Y-29089298D01*
X98400282Y-29102600D01*
X98330623Y-29118337D01*
X98247813Y-29134946D01*
X98218905Y-29140319D01*
X98079531Y-29165848D01*
X97969436Y-29186408D01*
X97884982Y-29202815D01*
X97822530Y-29215887D01*
X97778444Y-29226441D01*
X97749085Y-29235294D01*
X97730815Y-29243263D01*
X97719998Y-29251165D01*
X97718485Y-29252727D01*
X97703377Y-29277886D01*
X97680329Y-29326850D01*
X97651644Y-29393621D01*
X97619622Y-29472205D01*
X97586565Y-29556607D01*
X97554773Y-29640830D01*
X97526549Y-29718879D01*
X97504193Y-29784759D01*
X97490007Y-29832473D01*
X97486293Y-29856027D01*
X97486602Y-29856852D01*
X97499189Y-29876104D01*
X97527744Y-29918463D01*
X97569267Y-29979521D01*
X97620756Y-30054868D01*
X97679211Y-30140096D01*
X97695858Y-30164315D01*
X97755215Y-30252123D01*
X97807447Y-30332238D01*
X97849708Y-30400062D01*
X97879153Y-30450993D01*
X97892937Y-30480431D01*
X97893605Y-30484048D01*
X97882024Y-30503057D01*
X97850024Y-30540714D01*
X97801718Y-30592973D01*
X97741220Y-30655786D01*
X97672644Y-30725106D01*
X97600104Y-30796885D01*
X97527712Y-30867077D01*
X97459584Y-30931635D01*
X97399832Y-30986510D01*
X97352571Y-31027656D01*
X97321913Y-31051026D01*
X97313432Y-31054842D01*
X97293691Y-31045855D01*
X97253274Y-31021616D01*
X97198763Y-30986209D01*
X97156823Y-30957711D01*
X97080829Y-30905418D01*
X96990834Y-30843845D01*
X96900564Y-30782370D01*
X96852032Y-30749469D01*
X96687762Y-30638359D01*
X96549869Y-30712916D01*
X96487049Y-30745578D01*
X96433629Y-30770966D01*
X96397484Y-30785446D01*
X96388284Y-30787460D01*
X96377221Y-30772584D01*
X96355394Y-30730547D01*
X96324434Y-30665227D01*
X96285970Y-30580500D01*
X96241632Y-30480245D01*
X96193047Y-30368339D01*
X96141846Y-30248659D01*
X96089659Y-30125084D01*
X96038113Y-30001491D01*
X95988840Y-29881757D01*
X95943467Y-29769759D01*
X95903625Y-29669377D01*
X95870942Y-29584486D01*
X95847049Y-29518965D01*
X95833574Y-29476690D01*
X95831406Y-29462172D01*
X95848583Y-29443653D01*
X95886190Y-29413590D01*
X95936366Y-29378232D01*
X95940578Y-29375434D01*
X96070264Y-29271625D01*
X96174834Y-29150515D01*
X96253381Y-29015976D01*
X96304999Y-28871882D01*
X96328782Y-28722105D01*
X96323823Y-28570517D01*
X96289217Y-28420992D01*
X96224057Y-28277400D01*
X96204886Y-28245984D01*
X96105174Y-28119125D01*
X95987377Y-28017255D01*
X95855571Y-27940904D01*
X95713833Y-27890602D01*
X95566242Y-27866879D01*
X95416873Y-27870265D01*
X95269803Y-27901288D01*
X95129111Y-27960480D01*
X94998873Y-28048369D01*
X94958586Y-28084042D01*
X94856055Y-28195706D01*
X94781341Y-28313257D01*
X94730090Y-28445020D01*
X94701546Y-28575507D01*
X94694500Y-28722216D01*
X94717996Y-28869653D01*
X94769649Y-29012834D01*
X94847071Y-29146777D01*
X94947875Y-29266498D01*
X95069676Y-29367014D01*
X95085684Y-29377609D01*
X95136398Y-29412306D01*
X95174950Y-29442370D01*
X95193381Y-29461565D01*
X95193649Y-29462172D01*
X95189692Y-29482936D01*
X95174007Y-29530062D01*
X95148222Y-29599673D01*
X95113969Y-29687893D01*
X95072877Y-29790844D01*
X95026576Y-29904650D01*
X94976696Y-30025435D01*
X94924867Y-30149321D01*
X94872719Y-30272432D01*
X94821882Y-30390891D01*
X94773987Y-30500823D01*
X94730662Y-30598349D01*
X94693538Y-30679593D01*
X94664244Y-30740679D01*
X94644412Y-30777730D01*
X94636426Y-30787460D01*
X94612021Y-30779883D01*
X94566358Y-30759560D01*
X94507310Y-30730125D01*
X94474840Y-30712916D01*
X94336947Y-30638359D01*
X94172677Y-30749469D01*
X94088821Y-30806390D01*
X93997013Y-30869030D01*
X93910980Y-30928011D01*
X93867887Y-30957711D01*
X93807277Y-30998410D01*
X93755955Y-31030663D01*
X93720615Y-31050384D01*
X93709137Y-31054554D01*
X93692430Y-31043307D01*
X93655454Y-31011911D01*
X93601795Y-30963624D01*
X93535038Y-30901708D01*
X93458766Y-30829421D01*
X93410527Y-30783008D01*
X93326133Y-30700087D01*
X93253197Y-30625920D01*
X93194669Y-30563680D01*
X93153497Y-30516541D01*
X93132628Y-30487673D01*
X93130626Y-30481815D01*
X93139917Y-30459532D01*
X93165591Y-30414477D01*
X93204800Y-30351211D01*
X93254697Y-30274295D01*
X93312433Y-30188292D01*
X93328851Y-30164315D01*
X93388677Y-30077170D01*
X93442350Y-29998710D01*
X93486870Y-29933345D01*
X93519235Y-29885484D01*
X93536445Y-29859535D01*
X93538107Y-29856852D01*
X93535621Y-29836172D01*
X93522423Y-29790704D01*
X93500814Y-29726444D01*
X93473096Y-29649387D01*
X93441570Y-29565529D01*
X93408537Y-29480866D01*
X93376299Y-29401392D01*
X93347157Y-29333104D01*
X93323412Y-29281997D01*
X93307365Y-29254067D01*
X93306225Y-29252727D01*
X93296412Y-29244745D01*
X93279839Y-29236851D01*
X93252868Y-29228229D01*
X93211861Y-29218062D01*
X93153180Y-29205531D01*
X93073187Y-29189821D01*
X92968245Y-29170113D01*
X92834715Y-29145592D01*
X92805804Y-29140319D01*
X92720118Y-29123764D01*
X92645418Y-29107569D01*
X92588306Y-29093296D01*
X92555383Y-29082508D01*
X92550969Y-29079993D01*
X92543694Y-29057696D01*
X92537781Y-29007869D01*
X92533234Y-28936304D01*
X92530055Y-28848793D01*
X92528251Y-28751128D01*
X92527823Y-28649101D01*
X92528777Y-28548503D01*
X92531116Y-28455127D01*
X92534844Y-28374765D01*
X92539966Y-28313209D01*
X92546484Y-28276250D01*
X92550414Y-28268686D01*
X92572292Y-28261056D01*
X92622109Y-28248642D01*
X92694903Y-28232522D01*
X92785711Y-28213773D01*
X92889569Y-28193471D01*
X92946154Y-28182830D01*
X93053514Y-28162760D01*
X93149254Y-28144580D01*
X93228694Y-28129199D01*
X93287154Y-28117531D01*
X93319955Y-28110488D01*
X93325354Y-28108926D01*
X93334478Y-28091322D01*
X93353765Y-28048918D01*
X93380645Y-27987772D01*
X93412546Y-27913943D01*
X93446898Y-27833489D01*
X93481129Y-27752468D01*
X93512669Y-27676937D01*
X93538946Y-27612955D01*
X93557389Y-27566580D01*
X93565429Y-27543869D01*
X93565578Y-27542876D01*
X93556465Y-27524961D01*
X93530914Y-27483733D01*
X93491612Y-27423291D01*
X93441243Y-27347731D01*
X93382494Y-27261152D01*
X93348342Y-27211421D01*
X93286110Y-27120236D01*
X93230836Y-27037449D01*
X93185218Y-26967249D01*
X93151952Y-26913824D01*
X93133736Y-26881361D01*
X93131105Y-26874083D01*
X93142414Y-26857145D01*
X93173681Y-26820978D01*
X93220910Y-26769635D01*
X93280108Y-26707167D01*
X93347281Y-26637626D01*
X93418434Y-26565065D01*
X93489574Y-26493535D01*
X93556707Y-26427087D01*
X93615839Y-26369774D01*
X93662975Y-26325647D01*
X93694123Y-26298759D01*
X93704543Y-26292342D01*
X93721509Y-26301365D01*
X93762089Y-26326715D01*
X93822337Y-26365810D01*
X93898307Y-26416071D01*
X93986054Y-26474917D01*
X94052244Y-26519748D01*
X94386668Y-26747154D01*
X94665433Y-26632238D01*
X94944197Y-26517322D01*
X95019746Y-26116576D01*
X95095294Y-25715829D01*
X95929415Y-25715829D01*
X96004964Y-26116576D01*
D17*
X47117000Y-78232000D02*
X47117000Y-78613000D01*
X47117000Y-78613000D02*
X47244000Y-78613000D01*
X46228000Y-77343000D02*
X47117000Y-78232000D01*
X47117000Y-78232000D02*
X47371000Y-78232000D01*
X41529000Y-74168000D02*
X41148000Y-74295000D01*
X41529000Y-74168000D02*
X41529000Y-73787000D01*
X42037000Y-74549000D02*
X41529000Y-74168000D01*
X41783000Y-78232000D02*
X41783000Y-78740000D01*
X41783000Y-78232000D02*
X41402000Y-78232000D01*
X42799000Y-77343000D02*
X41783000Y-78232000D01*
X47371000Y-74041000D02*
X47879000Y-73914000D01*
X47371000Y-74041000D02*
X47371000Y-73533000D01*
X46736000Y-74549000D02*
X47371000Y-74041000D01*
X44577000Y-77470000D02*
X44577000Y-77724000D01*
X43942000Y-77343000D02*
X45085000Y-77343000D01*
X45085000Y-77343000D02*
X45085000Y-77851000D01*
X45085000Y-77851000D02*
X43942000Y-77851000D01*
X43942000Y-77851000D02*
X43942000Y-77343000D01*
X43717981Y-75819000D02*
G75*
G03X43717981Y-75819000I-283981J0D01*
G01*
X45749981Y-75819000D02*
G75*
G03X45749981Y-75819000I-283981J0D01*
G01*
X44450000Y-75819000D02*
X44704000Y-76581000D01*
X44704000Y-76581000D02*
X44196000Y-76581000D01*
X44196000Y-76581000D02*
X44450000Y-75819000D01*
X43434000Y-78105000D02*
X43561000Y-78359000D01*
X43561000Y-78359000D02*
X43815000Y-78613000D01*
X43815000Y-78613000D02*
X44196000Y-78740000D01*
X45593000Y-76962000D02*
X45593000Y-77724000D01*
X45593000Y-77724000D02*
X45593000Y-78105000D01*
X45593000Y-78105000D02*
X45466000Y-78486000D01*
X45466000Y-78486000D02*
X45085000Y-78613000D01*
X45085000Y-78613000D02*
X44577000Y-78740000D01*
X44577000Y-78740000D02*
X44196000Y-78740000D01*
X43434000Y-78105000D02*
X43434000Y-77724000D01*
X43434000Y-77724000D02*
X43434000Y-76962000D01*
X41910000Y-76200000D02*
X42037000Y-76454000D01*
X42037000Y-76454000D02*
X42164000Y-76708000D01*
X42164000Y-76708000D02*
X42672000Y-76835000D01*
X42672000Y-76835000D02*
X43307000Y-76962000D01*
X43307000Y-76962000D02*
X43688000Y-76962000D01*
X41910000Y-76200000D02*
X41910000Y-75946000D01*
X41910000Y-75946000D02*
X42037000Y-75438000D01*
X42037000Y-75438000D02*
X42291000Y-74803000D01*
X42291000Y-74803000D02*
X42799000Y-74295000D01*
X42799000Y-74295000D02*
X43434000Y-73914000D01*
X43434000Y-73914000D02*
X44069000Y-73660000D01*
X44069000Y-73660000D02*
X44577000Y-73660000D01*
X44577000Y-73660000D02*
X45212000Y-73787000D01*
X45212000Y-73787000D02*
X45847000Y-74041000D01*
X45847000Y-74041000D02*
X46355000Y-74549000D01*
X46355000Y-74549000D02*
X46609000Y-74930000D01*
X46609000Y-74930000D02*
X46863000Y-75438000D01*
X46863000Y-75438000D02*
X46990000Y-75819000D01*
X46990000Y-75819000D02*
X46990000Y-76200000D01*
X46990000Y-76200000D02*
X46863000Y-76581000D01*
X46863000Y-76581000D02*
X46609000Y-76708000D01*
X46609000Y-76708000D02*
X46101000Y-76962000D01*
X46101000Y-76962000D02*
X45720000Y-76962000D01*
X45720000Y-76962000D02*
X45339000Y-76962000D01*
D15*
X79082000Y-55491000D02*
X79082000Y-54491000D01*
X77382000Y-54491000D02*
X77382000Y-55491000D01*
X83527000Y-55491000D02*
X83527000Y-54491000D01*
X81827000Y-54491000D02*
X81827000Y-55491000D01*
X63916000Y-46618000D02*
X65116000Y-46618000D01*
X65116000Y-48378000D02*
X63916000Y-48378000D01*
X63916000Y-42300000D02*
X65116000Y-42300000D01*
X65116000Y-44060000D02*
X63916000Y-44060000D01*
X65116000Y-39869000D02*
X63916000Y-39869000D01*
X63916000Y-38109000D02*
X65116000Y-38109000D01*
X65116000Y-34916000D02*
X63916000Y-34916000D01*
X63916000Y-33156000D02*
X65116000Y-33156000D01*
X96511000Y-52359000D02*
X96511000Y-53559000D01*
X94751000Y-53559000D02*
X94751000Y-52359000D01*
X93209000Y-52359000D02*
X93209000Y-53559000D01*
X91449000Y-53559000D02*
X91449000Y-52359000D01*
X49946000Y-46618000D02*
X51146000Y-46618000D01*
X51146000Y-48378000D02*
X49946000Y-48378000D01*
X57058000Y-46618000D02*
X58258000Y-46618000D01*
X58258000Y-48378000D02*
X57058000Y-48378000D01*
X49946000Y-42300000D02*
X51146000Y-42300000D01*
X51146000Y-44060000D02*
X49946000Y-44060000D01*
X57058000Y-42300000D02*
X58258000Y-42300000D01*
X58258000Y-44060000D02*
X57058000Y-44060000D01*
X42834000Y-46618000D02*
X44034000Y-46618000D01*
X44034000Y-48378000D02*
X42834000Y-48378000D01*
X42834000Y-42300000D02*
X44034000Y-42300000D01*
X44034000Y-44060000D02*
X42834000Y-44060000D01*
D14*
X45466000Y-32893000D02*
X45466000Y-35941000D01*
X45466000Y-35941000D02*
X52578000Y-35941000D01*
X52578000Y-35941000D02*
X52578000Y-32893000D01*
X45466000Y-29845000D02*
X45466000Y-29083000D01*
X45466000Y-29083000D02*
X46990000Y-26797000D01*
X46990000Y-26797000D02*
X51054000Y-26797000D01*
X51054000Y-26797000D02*
X52578000Y-29083000D01*
X52578000Y-29083000D02*
X52578000Y-29845000D01*
D18*
X72898000Y-50165000D02*
X72898000Y-50927000D01*
X72898000Y-50927000D02*
X88900000Y-50927000D01*
X88900000Y-50927000D02*
X88900000Y-50165000D01*
D14*
X36820000Y-107798000D02*
X36820000Y-116738000D01*
X36820000Y-116738000D02*
X16520000Y-116738000D01*
X16520000Y-116738000D02*
X16520000Y-107798000D01*
X16520000Y-107798000D02*
X36820000Y-107798000D01*
X28895000Y-107798000D02*
X28895000Y-109098000D01*
X28895000Y-109098000D02*
X35620000Y-109098000D01*
X35620000Y-109098000D02*
X35620000Y-115438000D01*
X35620000Y-115438000D02*
X17720000Y-115438000D01*
X17720000Y-115438000D02*
X17720000Y-109098000D01*
X17720000Y-109098000D02*
X24445000Y-109098000D01*
X24445000Y-109098000D02*
X24445000Y-107798000D01*
X26920000Y-116738000D02*
X26920000Y-116938000D01*
X26920000Y-116938000D02*
X26420000Y-116938000D01*
X26420000Y-116938000D02*
X26420000Y-116738000D01*
X26920000Y-116838000D02*
X26420000Y-116838000D01*
X19440000Y-116738000D02*
X19440000Y-116938000D01*
X19440000Y-116938000D02*
X18940000Y-116938000D01*
X18940000Y-116938000D02*
X18940000Y-116738000D01*
X19440000Y-116838000D02*
X18940000Y-116838000D01*
X34400000Y-116738000D02*
X34400000Y-116938000D01*
X34400000Y-116938000D02*
X33900000Y-116938000D01*
X33900000Y-116938000D02*
X33900000Y-116738000D01*
X34400000Y-116838000D02*
X33900000Y-116838000D01*
X33950000Y-110398000D02*
X33950000Y-111598000D01*
X33950000Y-111598000D02*
X33350000Y-110998000D01*
X33350000Y-110998000D02*
X33950000Y-110398000D01*
X57164000Y-60290000D02*
X57164000Y-59090000D01*
X58914000Y-59090000D02*
X58914000Y-60290000D01*
X84723000Y-60417000D02*
X84723000Y-59217000D01*
X86473000Y-59217000D02*
X86473000Y-60417000D01*
X70880000Y-60290000D02*
X70880000Y-59090000D01*
X72630000Y-59090000D02*
X72630000Y-60290000D01*
X41847800Y-59934400D02*
X41847800Y-58734400D01*
X43597800Y-58734400D02*
X43597800Y-59934400D01*
X92964000Y-57658000D02*
X92964000Y-58166000D01*
X98044000Y-57658000D02*
X98044000Y-58166000D01*
X92964000Y-81026000D02*
X92964000Y-81280000D01*
X98044000Y-81026000D02*
X98044000Y-81280000D01*
X98044000Y-58166000D02*
X98044000Y-81026000D01*
X98044000Y-81280000D02*
X92964000Y-81280000D01*
X92964000Y-81026000D02*
X92964000Y-58166000D01*
X92964000Y-57658000D02*
X98044000Y-57658000D01*
X79197200Y-57658000D02*
X79197200Y-58166000D01*
X84277200Y-57658000D02*
X84277200Y-58166000D01*
X79197200Y-81026000D02*
X79197200Y-81280000D01*
X84277200Y-81026000D02*
X84277200Y-81280000D01*
X84277200Y-58166000D02*
X84277200Y-81026000D01*
X84277200Y-81280000D02*
X79197200Y-81280000D01*
X79197200Y-81026000D02*
X79197200Y-58166000D01*
X79197200Y-57658000D02*
X84277200Y-57658000D01*
X65532000Y-57658000D02*
X65532000Y-58166000D01*
X70612000Y-57658000D02*
X70612000Y-58166000D01*
X65532000Y-81026000D02*
X65532000Y-81280000D01*
X70612000Y-81026000D02*
X70612000Y-81280000D01*
X70612000Y-58166000D02*
X70612000Y-81026000D01*
X70612000Y-81280000D02*
X65532000Y-81280000D01*
X65532000Y-81026000D02*
X65532000Y-58166000D01*
X65532000Y-57658000D02*
X70612000Y-57658000D01*
X51816000Y-57658000D02*
X51816000Y-58166000D01*
X56896000Y-57658000D02*
X56896000Y-58166000D01*
X51816000Y-81026000D02*
X51816000Y-81280000D01*
X56896000Y-81026000D02*
X56896000Y-81280000D01*
X56896000Y-58166000D02*
X56896000Y-81026000D01*
X56896000Y-81280000D02*
X51816000Y-81280000D01*
X51816000Y-81026000D02*
X51816000Y-58166000D01*
X51816000Y-57658000D02*
X56896000Y-57658000D01*
X19110000Y-76690000D02*
X39310000Y-76690000D01*
X19110000Y-42690000D02*
X19110000Y-76690000D01*
X19310000Y-42690000D02*
X19110000Y-42690000D01*
X39310000Y-42690000D02*
X19310000Y-42690000D01*
X39310000Y-76690000D02*
X39310000Y-42690000D01*
X70231000Y-104267000D02*
X70231000Y-116967000D01*
X70231000Y-116967000D02*
X67691000Y-116967000D01*
X67691000Y-116967000D02*
X67691000Y-104267000D01*
X70511000Y-101447000D02*
X70511000Y-102997000D01*
X70231000Y-104267000D02*
X67691000Y-104267000D01*
X67411000Y-102997000D02*
X67411000Y-101447000D01*
X67411000Y-101447000D02*
X70511000Y-101447000D01*
X62230000Y-58420000D02*
X64770000Y-58420000D01*
X59410000Y-58140000D02*
X60960000Y-58140000D01*
X62230000Y-58420000D02*
X62230000Y-60960000D01*
X60960000Y-61240000D02*
X59410000Y-61240000D01*
X59410000Y-61240000D02*
X59410000Y-58140000D01*
X62230000Y-60960000D02*
X64770000Y-60960000D01*
X64770000Y-60960000D02*
X64770000Y-58420000D01*
X89789000Y-58547000D02*
X92329000Y-58547000D01*
X86969000Y-58267000D02*
X88519000Y-58267000D01*
X89789000Y-58547000D02*
X89789000Y-61087000D01*
X88519000Y-61367000D02*
X86969000Y-61367000D01*
X86969000Y-61367000D02*
X86969000Y-58267000D01*
X89789000Y-61087000D02*
X92329000Y-61087000D01*
X92329000Y-61087000D02*
X92329000Y-58547000D01*
X75946000Y-58420000D02*
X78486000Y-58420000D01*
X73126000Y-58140000D02*
X74676000Y-58140000D01*
X75946000Y-58420000D02*
X75946000Y-60960000D01*
X74676000Y-61240000D02*
X73126000Y-61240000D01*
X73126000Y-61240000D02*
X73126000Y-58140000D01*
X75946000Y-60960000D02*
X78486000Y-60960000D01*
X78486000Y-60960000D02*
X78486000Y-58420000D01*
X48260000Y-58420000D02*
X50800000Y-58420000D01*
X45440000Y-58140000D02*
X46990000Y-58140000D01*
X48260000Y-58420000D02*
X48260000Y-60960000D01*
X46990000Y-61240000D02*
X45440000Y-61240000D01*
X45440000Y-61240000D02*
X45440000Y-58140000D01*
X48260000Y-60960000D02*
X50800000Y-60960000D01*
X50800000Y-60960000D02*
X50800000Y-58420000D01*
X22987000Y-84328000D02*
G75*
G03X22987000Y-84328000I-3048000J0D01*
G01*
X108587645Y-84328000D02*
G75*
G03X108587645Y-84328000I-3050645J0D01*
G01*
X108585000Y-33528000D02*
G75*
G03X108585000Y-33528000I-3048000J0D01*
G01*
X22987000Y-33528000D02*
G75*
G03X22987000Y-33528000I-3048000J0D01*
G01*
D15*
X49860000Y-116497000D02*
X49860000Y-114897000D01*
X49860000Y-114897000D02*
X47260000Y-114897000D01*
X49860000Y-116497000D02*
X47260000Y-116497000D01*
X41056000Y-114817000D02*
X42256000Y-114817000D01*
X42256000Y-116577000D02*
X41056000Y-116577000D01*
D14*
X54864000Y-108839000D02*
X54864000Y-111887000D01*
X54864000Y-111887000D02*
X61976000Y-111887000D01*
X61976000Y-111887000D02*
X61976000Y-108839000D01*
X54864000Y-105791000D02*
X54864000Y-105029000D01*
X54864000Y-105029000D02*
X56388000Y-102743000D01*
X56388000Y-102743000D02*
X60452000Y-102743000D01*
X60452000Y-102743000D02*
X61976000Y-105029000D01*
X61976000Y-105029000D02*
X61976000Y-105791000D01*
D15*
X49717000Y-105343000D02*
X49717000Y-102683000D01*
X47117000Y-105343000D02*
X49717000Y-105343000D01*
X47117000Y-102683000D02*
X49717000Y-102683000D01*
X47117000Y-105343000D02*
X47117000Y-102683000D01*
X45847000Y-105343000D02*
X44517000Y-105343000D01*
X44517000Y-105343000D02*
X44517000Y-104013000D01*
X69783000Y-33976000D02*
X67123000Y-33976000D01*
X69783000Y-36576000D02*
X69783000Y-33976000D01*
X67123000Y-36576000D02*
X67123000Y-33976000D01*
X69783000Y-36576000D02*
X67123000Y-36576000D01*
X69783000Y-37846000D02*
X69783000Y-39176000D01*
X69783000Y-39176000D02*
X68453000Y-39176000D01*
X20260000Y-101286000D02*
X20260000Y-103946000D01*
X22860000Y-101286000D02*
X20260000Y-101286000D01*
X22860000Y-103946000D02*
X20260000Y-103946000D01*
X22860000Y-101286000D02*
X22860000Y-103946000D01*
X24130000Y-101286000D02*
X25460000Y-101286000D01*
X25460000Y-101286000D02*
X25460000Y-102616000D01*
X68978000Y-83870000D02*
X68978000Y-96470000D01*
X68978000Y-96470000D02*
X84378000Y-96470000D01*
X84378000Y-96470000D02*
X84378000Y-95520000D01*
X84378000Y-95520000D02*
X84878000Y-95820000D01*
X84878000Y-95820000D02*
X84878000Y-93820000D01*
X84878000Y-93820000D02*
X84378000Y-94070000D01*
X84378000Y-94070000D02*
X84378000Y-88670000D01*
X84378000Y-88670000D02*
X84878000Y-88920000D01*
X84878000Y-88920000D02*
X84878000Y-83870000D01*
X84878000Y-83870000D02*
X68978000Y-83870000D01*
X53738000Y-83870000D02*
X53738000Y-96470000D01*
X53738000Y-96470000D02*
X69138000Y-96470000D01*
X69138000Y-96470000D02*
X69138000Y-95520000D01*
X69138000Y-95520000D02*
X69638000Y-95820000D01*
X69638000Y-95820000D02*
X69638000Y-93820000D01*
X69638000Y-93820000D02*
X69138000Y-94070000D01*
X69138000Y-94070000D02*
X69138000Y-88670000D01*
X69138000Y-88670000D02*
X69638000Y-88920000D01*
X69638000Y-88920000D02*
X69638000Y-83870000D01*
X69638000Y-83870000D02*
X53738000Y-83870000D01*
D14*
X32853334Y-40997143D02*
X32805715Y-41044762D01*
X32662858Y-41092381D01*
X32567620Y-41092381D01*
X32424762Y-41044762D01*
X32329524Y-40949524D01*
X32281905Y-40854286D01*
X32234286Y-40663810D01*
X32234286Y-40520952D01*
X32281905Y-40330476D01*
X32329524Y-40235238D01*
X32424762Y-40140000D01*
X32567620Y-40092381D01*
X32662858Y-40092381D01*
X32805715Y-40140000D01*
X32853334Y-40187619D01*
X33805715Y-41092381D02*
X33234286Y-41092381D01*
X33520000Y-41092381D02*
X33520000Y-40092381D01*
X33424762Y-40235238D01*
X33329524Y-40330476D01*
X33234286Y-40378095D01*
X107894381Y-62841095D02*
X106894381Y-62841095D01*
X106894381Y-62460142D01*
X106942000Y-62364904D01*
X106989619Y-62317285D01*
X107084857Y-62269666D01*
X107227714Y-62269666D01*
X107322952Y-62317285D01*
X107370571Y-62364904D01*
X107418190Y-62460142D01*
X107418190Y-62841095D01*
X106894381Y-61936333D02*
X106894381Y-61317285D01*
X107275333Y-61650619D01*
X107275333Y-61507761D01*
X107322952Y-61412523D01*
X107370571Y-61364904D01*
X107465810Y-61317285D01*
X107703905Y-61317285D01*
X107799143Y-61364904D01*
X107846762Y-61412523D01*
X107894381Y-61507761D01*
X107894381Y-61793476D01*
X107846762Y-61888714D01*
X107799143Y-61936333D01*
X36496667Y-97718571D02*
X36163333Y-97718571D01*
X36163333Y-98242381D02*
X36163333Y-97242381D01*
X36639524Y-97242381D01*
X37544286Y-98242381D02*
X36972857Y-98242381D01*
X37258571Y-98242381D02*
X37258571Y-97242381D01*
X37163333Y-97385238D01*
X37068095Y-97480476D01*
X36972857Y-97528095D01*
X33996476Y-78954381D02*
X34329809Y-79954381D01*
X34663143Y-78954381D01*
X35567905Y-79954381D02*
X35234571Y-79478190D01*
X34996476Y-79954381D02*
X34996476Y-78954381D01*
X35377429Y-78954381D01*
X35472667Y-79002000D01*
X35520286Y-79049619D01*
X35567905Y-79144857D01*
X35567905Y-79287714D01*
X35520286Y-79382952D01*
X35472667Y-79430571D01*
X35377429Y-79478190D01*
X34996476Y-79478190D01*
X36520286Y-79954381D02*
X35948857Y-79954381D01*
X36234571Y-79954381D02*
X36234571Y-78954381D01*
X36139333Y-79097238D01*
X36044095Y-79192476D01*
X35948857Y-79240095D01*
X67563619Y-52927238D02*
X67516000Y-53022476D01*
X67420762Y-53117714D01*
X67277905Y-53260571D01*
X67230286Y-53355810D01*
X67230286Y-53451048D01*
X67468381Y-53403429D02*
X67420762Y-53498667D01*
X67325524Y-53593905D01*
X67135048Y-53641524D01*
X66801714Y-53641524D01*
X66611238Y-53593905D01*
X66516000Y-53498667D01*
X66468381Y-53403429D01*
X66468381Y-53212952D01*
X66516000Y-53117714D01*
X66611238Y-53022476D01*
X66801714Y-52974857D01*
X67135048Y-52974857D01*
X67325524Y-53022476D01*
X67420762Y-53117714D01*
X67468381Y-53212952D01*
X67468381Y-53403429D01*
X67468381Y-52022476D02*
X67468381Y-52593905D01*
X67468381Y-52308191D02*
X66468381Y-52308191D01*
X66611238Y-52403429D01*
X66706476Y-52498667D01*
X66754095Y-52593905D01*
X60705619Y-52927238D02*
X60658000Y-53022476D01*
X60562762Y-53117714D01*
X60419905Y-53260571D01*
X60372286Y-53355810D01*
X60372286Y-53451048D01*
X60610381Y-53403429D02*
X60562762Y-53498667D01*
X60467524Y-53593905D01*
X60277048Y-53641524D01*
X59943714Y-53641524D01*
X59753238Y-53593905D01*
X59658000Y-53498667D01*
X59610381Y-53403429D01*
X59610381Y-53212952D01*
X59658000Y-53117714D01*
X59753238Y-53022476D01*
X59943714Y-52974857D01*
X60277048Y-52974857D01*
X60467524Y-53022476D01*
X60562762Y-53117714D01*
X60610381Y-53212952D01*
X60610381Y-53403429D01*
X59705619Y-52593905D02*
X59658000Y-52546286D01*
X59610381Y-52451048D01*
X59610381Y-52212952D01*
X59658000Y-52117714D01*
X59705619Y-52070095D01*
X59800857Y-52022476D01*
X59896095Y-52022476D01*
X60038952Y-52070095D01*
X60610381Y-52641524D01*
X60610381Y-52022476D01*
X53593619Y-52927238D02*
X53546000Y-53022476D01*
X53450762Y-53117714D01*
X53307905Y-53260571D01*
X53260286Y-53355810D01*
X53260286Y-53451048D01*
X53498381Y-53403429D02*
X53450762Y-53498667D01*
X53355524Y-53593905D01*
X53165048Y-53641524D01*
X52831714Y-53641524D01*
X52641238Y-53593905D01*
X52546000Y-53498667D01*
X52498381Y-53403429D01*
X52498381Y-53212952D01*
X52546000Y-53117714D01*
X52641238Y-53022476D01*
X52831714Y-52974857D01*
X53165048Y-52974857D01*
X53355524Y-53022476D01*
X53450762Y-53117714D01*
X53498381Y-53212952D01*
X53498381Y-53403429D01*
X52498381Y-52641524D02*
X52498381Y-52022476D01*
X52879333Y-52355810D01*
X52879333Y-52212952D01*
X52926952Y-52117714D01*
X52974571Y-52070095D01*
X53069810Y-52022476D01*
X53307905Y-52022476D01*
X53403143Y-52070095D01*
X53450762Y-52117714D01*
X53498381Y-52212952D01*
X53498381Y-52498667D01*
X53450762Y-52593905D01*
X53403143Y-52641524D01*
X46481619Y-52927238D02*
X46434000Y-53022476D01*
X46338762Y-53117714D01*
X46195905Y-53260571D01*
X46148286Y-53355810D01*
X46148286Y-53451048D01*
X46386381Y-53403429D02*
X46338762Y-53498667D01*
X46243524Y-53593905D01*
X46053048Y-53641524D01*
X45719714Y-53641524D01*
X45529238Y-53593905D01*
X45434000Y-53498667D01*
X45386381Y-53403429D01*
X45386381Y-53212952D01*
X45434000Y-53117714D01*
X45529238Y-53022476D01*
X45719714Y-52974857D01*
X46053048Y-52974857D01*
X46243524Y-53022476D01*
X46338762Y-53117714D01*
X46386381Y-53212952D01*
X46386381Y-53403429D01*
X45719714Y-52117714D02*
X46386381Y-52117714D01*
X45338762Y-52355810D02*
X46053048Y-52593905D01*
X46053048Y-51974857D01*
X76811143Y-55157666D02*
X76858762Y-55205285D01*
X76906381Y-55348142D01*
X76906381Y-55443380D01*
X76858762Y-55586238D01*
X76763524Y-55681476D01*
X76668286Y-55729095D01*
X76477810Y-55776714D01*
X76334952Y-55776714D01*
X76144476Y-55729095D01*
X76049238Y-55681476D01*
X75954000Y-55586238D01*
X75906381Y-55443380D01*
X75906381Y-55348142D01*
X75954000Y-55205285D01*
X76001619Y-55157666D01*
X76001619Y-54776714D02*
X75954000Y-54729095D01*
X75906381Y-54633857D01*
X75906381Y-54395761D01*
X75954000Y-54300523D01*
X76001619Y-54252904D01*
X76096857Y-54205285D01*
X76192095Y-54205285D01*
X76334952Y-54252904D01*
X76906381Y-54824333D01*
X76906381Y-54205285D01*
X84534143Y-55157666D02*
X84581762Y-55205285D01*
X84629381Y-55348142D01*
X84629381Y-55443380D01*
X84581762Y-55586238D01*
X84486524Y-55681476D01*
X84391286Y-55729095D01*
X84200810Y-55776714D01*
X84057952Y-55776714D01*
X83867476Y-55729095D01*
X83772238Y-55681476D01*
X83677000Y-55586238D01*
X83629381Y-55443380D01*
X83629381Y-55348142D01*
X83677000Y-55205285D01*
X83724619Y-55157666D01*
X83629381Y-54824333D02*
X83629381Y-54205285D01*
X84010333Y-54538619D01*
X84010333Y-54395761D01*
X84057952Y-54300523D01*
X84105571Y-54252904D01*
X84200810Y-54205285D01*
X84438905Y-54205285D01*
X84534143Y-54252904D01*
X84581762Y-54300523D01*
X84629381Y-54395761D01*
X84629381Y-54681476D01*
X84581762Y-54776714D01*
X84534143Y-54824333D01*
X64349334Y-46172381D02*
X64016000Y-45696190D01*
X63777905Y-46172381D02*
X63777905Y-45172381D01*
X64158858Y-45172381D01*
X64254096Y-45220000D01*
X64301715Y-45267619D01*
X64349334Y-45362857D01*
X64349334Y-45505714D01*
X64301715Y-45600952D01*
X64254096Y-45648571D01*
X64158858Y-45696190D01*
X63777905Y-45696190D01*
X65301715Y-46172381D02*
X64730286Y-46172381D01*
X65016000Y-46172381D02*
X65016000Y-45172381D01*
X64920762Y-45315238D01*
X64825524Y-45410476D01*
X64730286Y-45458095D01*
X64349334Y-41854381D02*
X64016000Y-41378190D01*
X63777905Y-41854381D02*
X63777905Y-40854381D01*
X64158858Y-40854381D01*
X64254096Y-40902000D01*
X64301715Y-40949619D01*
X64349334Y-41044857D01*
X64349334Y-41187714D01*
X64301715Y-41282952D01*
X64254096Y-41330571D01*
X64158858Y-41378190D01*
X63777905Y-41378190D01*
X64730286Y-40949619D02*
X64777905Y-40902000D01*
X64873143Y-40854381D01*
X65111239Y-40854381D01*
X65206477Y-40902000D01*
X65254096Y-40949619D01*
X65301715Y-41044857D01*
X65301715Y-41140095D01*
X65254096Y-41282952D01*
X64682667Y-41854381D01*
X65301715Y-41854381D01*
X64349334Y-37791381D02*
X64016000Y-37315190D01*
X63777905Y-37791381D02*
X63777905Y-36791381D01*
X64158858Y-36791381D01*
X64254096Y-36839000D01*
X64301715Y-36886619D01*
X64349334Y-36981857D01*
X64349334Y-37124714D01*
X64301715Y-37219952D01*
X64254096Y-37267571D01*
X64158858Y-37315190D01*
X63777905Y-37315190D01*
X64682667Y-36791381D02*
X65301715Y-36791381D01*
X64968381Y-37172333D01*
X65111239Y-37172333D01*
X65206477Y-37219952D01*
X65254096Y-37267571D01*
X65301715Y-37362810D01*
X65301715Y-37600905D01*
X65254096Y-37696143D01*
X65206477Y-37743762D01*
X65111239Y-37791381D01*
X64825524Y-37791381D01*
X64730286Y-37743762D01*
X64682667Y-37696143D01*
X64349334Y-32838381D02*
X64016000Y-32362190D01*
X63777905Y-32838381D02*
X63777905Y-31838381D01*
X64158858Y-31838381D01*
X64254096Y-31886000D01*
X64301715Y-31933619D01*
X64349334Y-32028857D01*
X64349334Y-32171714D01*
X64301715Y-32266952D01*
X64254096Y-32314571D01*
X64158858Y-32362190D01*
X63777905Y-32362190D01*
X65206477Y-32171714D02*
X65206477Y-32838381D01*
X64968381Y-31790762D02*
X64730286Y-32505048D01*
X65349334Y-32505048D01*
X95464334Y-55824381D02*
X95131000Y-55348190D01*
X94892905Y-55824381D02*
X94892905Y-54824381D01*
X95273858Y-54824381D01*
X95369096Y-54872000D01*
X95416715Y-54919619D01*
X95464334Y-55014857D01*
X95464334Y-55157714D01*
X95416715Y-55252952D01*
X95369096Y-55300571D01*
X95273858Y-55348190D01*
X94892905Y-55348190D01*
X96369096Y-54824381D02*
X95892905Y-54824381D01*
X95845286Y-55300571D01*
X95892905Y-55252952D01*
X95988143Y-55205333D01*
X96226239Y-55205333D01*
X96321477Y-55252952D01*
X96369096Y-55300571D01*
X96416715Y-55395810D01*
X96416715Y-55633905D01*
X96369096Y-55729143D01*
X96321477Y-55776762D01*
X96226239Y-55824381D01*
X95988143Y-55824381D01*
X95892905Y-55776762D01*
X95845286Y-55729143D01*
X92162334Y-55824381D02*
X91829000Y-55348190D01*
X91590905Y-55824381D02*
X91590905Y-54824381D01*
X91971858Y-54824381D01*
X92067096Y-54872000D01*
X92114715Y-54919619D01*
X92162334Y-55014857D01*
X92162334Y-55157714D01*
X92114715Y-55252952D01*
X92067096Y-55300571D01*
X91971858Y-55348190D01*
X91590905Y-55348190D01*
X93019477Y-54824381D02*
X92829000Y-54824381D01*
X92733762Y-54872000D01*
X92686143Y-54919619D01*
X92590905Y-55062476D01*
X92543286Y-55252952D01*
X92543286Y-55633905D01*
X92590905Y-55729143D01*
X92638524Y-55776762D01*
X92733762Y-55824381D01*
X92924239Y-55824381D01*
X93019477Y-55776762D01*
X93067096Y-55729143D01*
X93114715Y-55633905D01*
X93114715Y-55395810D01*
X93067096Y-55300571D01*
X93019477Y-55252952D01*
X92924239Y-55205333D01*
X92733762Y-55205333D01*
X92638524Y-55252952D01*
X92590905Y-55300571D01*
X92543286Y-55395810D01*
X49903143Y-46172381D02*
X49569809Y-45696190D01*
X49331714Y-46172381D02*
X49331714Y-45172381D01*
X49712667Y-45172381D01*
X49807905Y-45220000D01*
X49855524Y-45267619D01*
X49903143Y-45362857D01*
X49903143Y-45505714D01*
X49855524Y-45600952D01*
X49807905Y-45648571D01*
X49712667Y-45696190D01*
X49331714Y-45696190D01*
X50855524Y-46172381D02*
X50284095Y-46172381D01*
X50569809Y-46172381D02*
X50569809Y-45172381D01*
X50474571Y-45315238D01*
X50379333Y-45410476D01*
X50284095Y-45458095D01*
X51807905Y-46172381D02*
X51236476Y-46172381D01*
X51522190Y-46172381D02*
X51522190Y-45172381D01*
X51426952Y-45315238D01*
X51331714Y-45410476D01*
X51236476Y-45458095D01*
X57015143Y-46172381D02*
X56681809Y-45696190D01*
X56443714Y-46172381D02*
X56443714Y-45172381D01*
X56824667Y-45172381D01*
X56919905Y-45220000D01*
X56967524Y-45267619D01*
X57015143Y-45362857D01*
X57015143Y-45505714D01*
X56967524Y-45600952D01*
X56919905Y-45648571D01*
X56824667Y-45696190D01*
X56443714Y-45696190D01*
X57967524Y-46172381D02*
X57396095Y-46172381D01*
X57681809Y-46172381D02*
X57681809Y-45172381D01*
X57586571Y-45315238D01*
X57491333Y-45410476D01*
X57396095Y-45458095D01*
X58300857Y-45172381D02*
X58919905Y-45172381D01*
X58586571Y-45553333D01*
X58729429Y-45553333D01*
X58824667Y-45600952D01*
X58872286Y-45648571D01*
X58919905Y-45743810D01*
X58919905Y-45981905D01*
X58872286Y-46077143D01*
X58824667Y-46124762D01*
X58729429Y-46172381D01*
X58443714Y-46172381D01*
X58348476Y-46124762D01*
X58300857Y-46077143D01*
X49903143Y-41854381D02*
X49569809Y-41378190D01*
X49331714Y-41854381D02*
X49331714Y-40854381D01*
X49712667Y-40854381D01*
X49807905Y-40902000D01*
X49855524Y-40949619D01*
X49903143Y-41044857D01*
X49903143Y-41187714D01*
X49855524Y-41282952D01*
X49807905Y-41330571D01*
X49712667Y-41378190D01*
X49331714Y-41378190D01*
X50855524Y-41854381D02*
X50284095Y-41854381D01*
X50569809Y-41854381D02*
X50569809Y-40854381D01*
X50474571Y-40997238D01*
X50379333Y-41092476D01*
X50284095Y-41140095D01*
X51712667Y-41187714D02*
X51712667Y-41854381D01*
X51474571Y-40806762D02*
X51236476Y-41521048D01*
X51855524Y-41521048D01*
X57015143Y-41854381D02*
X56681809Y-41378190D01*
X56443714Y-41854381D02*
X56443714Y-40854381D01*
X56824667Y-40854381D01*
X56919905Y-40902000D01*
X56967524Y-40949619D01*
X57015143Y-41044857D01*
X57015143Y-41187714D01*
X56967524Y-41282952D01*
X56919905Y-41330571D01*
X56824667Y-41378190D01*
X56443714Y-41378190D01*
X57967524Y-41854381D02*
X57396095Y-41854381D01*
X57681809Y-41854381D02*
X57681809Y-40854381D01*
X57586571Y-40997238D01*
X57491333Y-41092476D01*
X57396095Y-41140095D01*
X58824667Y-40854381D02*
X58634190Y-40854381D01*
X58538952Y-40902000D01*
X58491333Y-40949619D01*
X58396095Y-41092476D01*
X58348476Y-41282952D01*
X58348476Y-41663905D01*
X58396095Y-41759143D01*
X58443714Y-41806762D01*
X58538952Y-41854381D01*
X58729429Y-41854381D01*
X58824667Y-41806762D01*
X58872286Y-41759143D01*
X58919905Y-41663905D01*
X58919905Y-41425810D01*
X58872286Y-41330571D01*
X58824667Y-41282952D01*
X58729429Y-41235333D01*
X58538952Y-41235333D01*
X58443714Y-41282952D01*
X58396095Y-41330571D01*
X58348476Y-41425810D01*
X42791143Y-46172381D02*
X42457809Y-45696190D01*
X42219714Y-46172381D02*
X42219714Y-45172381D01*
X42600667Y-45172381D01*
X42695905Y-45220000D01*
X42743524Y-45267619D01*
X42791143Y-45362857D01*
X42791143Y-45505714D01*
X42743524Y-45600952D01*
X42695905Y-45648571D01*
X42600667Y-45696190D01*
X42219714Y-45696190D01*
X43743524Y-46172381D02*
X43172095Y-46172381D01*
X43457809Y-46172381D02*
X43457809Y-45172381D01*
X43362571Y-45315238D01*
X43267333Y-45410476D01*
X43172095Y-45458095D01*
X44124476Y-45267619D02*
X44172095Y-45220000D01*
X44267333Y-45172381D01*
X44505429Y-45172381D01*
X44600667Y-45220000D01*
X44648286Y-45267619D01*
X44695905Y-45362857D01*
X44695905Y-45458095D01*
X44648286Y-45600952D01*
X44076857Y-46172381D01*
X44695905Y-46172381D01*
X42791143Y-41854381D02*
X42457809Y-41378190D01*
X42219714Y-41854381D02*
X42219714Y-40854381D01*
X42600667Y-40854381D01*
X42695905Y-40902000D01*
X42743524Y-40949619D01*
X42791143Y-41044857D01*
X42791143Y-41187714D01*
X42743524Y-41282952D01*
X42695905Y-41330571D01*
X42600667Y-41378190D01*
X42219714Y-41378190D01*
X43743524Y-41854381D02*
X43172095Y-41854381D01*
X43457809Y-41854381D02*
X43457809Y-40854381D01*
X43362571Y-40997238D01*
X43267333Y-41092476D01*
X43172095Y-41140095D01*
X44648286Y-40854381D02*
X44172095Y-40854381D01*
X44124476Y-41330571D01*
X44172095Y-41282952D01*
X44267333Y-41235333D01*
X44505429Y-41235333D01*
X44600667Y-41282952D01*
X44648286Y-41330571D01*
X44695905Y-41425810D01*
X44695905Y-41663905D01*
X44648286Y-41759143D01*
X44600667Y-41806762D01*
X44505429Y-41854381D01*
X44267333Y-41854381D01*
X44172095Y-41806762D01*
X44124476Y-41759143D01*
X48260095Y-30059381D02*
X48260095Y-30868905D01*
X48307714Y-30964143D01*
X48355333Y-31011762D01*
X48450571Y-31059381D01*
X48641048Y-31059381D01*
X48736286Y-31011762D01*
X48783905Y-30964143D01*
X48831524Y-30868905D01*
X48831524Y-30059381D01*
X49260095Y-30154619D02*
X49307714Y-30107000D01*
X49402952Y-30059381D01*
X49641048Y-30059381D01*
X49736286Y-30107000D01*
X49783905Y-30154619D01*
X49831524Y-30249857D01*
X49831524Y-30345095D01*
X49783905Y-30487952D01*
X49212476Y-31059381D01*
X49831524Y-31059381D01*
X74652095Y-51358381D02*
X74652095Y-52167905D01*
X74699714Y-52263143D01*
X74747333Y-52310762D01*
X74842571Y-52358381D01*
X75033048Y-52358381D01*
X75128286Y-52310762D01*
X75175905Y-52263143D01*
X75223524Y-52167905D01*
X75223524Y-51358381D01*
X75604476Y-51358381D02*
X76223524Y-51358381D01*
X75890190Y-51739333D01*
X76033048Y-51739333D01*
X76128286Y-51786952D01*
X76175905Y-51834571D01*
X76223524Y-51929810D01*
X76223524Y-52167905D01*
X76175905Y-52263143D01*
X76128286Y-52310762D01*
X76033048Y-52358381D01*
X75747333Y-52358381D01*
X75652095Y-52310762D01*
X75604476Y-52263143D01*
X34011905Y-118450381D02*
X34011905Y-117450381D01*
X34392858Y-117450381D01*
X34488096Y-117498000D01*
X34535715Y-117545619D01*
X34583334Y-117640857D01*
X34583334Y-117783714D01*
X34535715Y-117878952D01*
X34488096Y-117926571D01*
X34392858Y-117974190D01*
X34011905Y-117974190D01*
X35440477Y-117783714D02*
X35440477Y-118450381D01*
X35202381Y-117402762D02*
X34964286Y-118117048D01*
X35583334Y-118117048D01*
X60591381Y-59856666D02*
X60115190Y-60190000D01*
X60591381Y-60428095D02*
X59591381Y-60428095D01*
X59591381Y-60047142D01*
X59639000Y-59951904D01*
X59686619Y-59904285D01*
X59781857Y-59856666D01*
X59924714Y-59856666D01*
X60019952Y-59904285D01*
X60067571Y-59951904D01*
X60115190Y-60047142D01*
X60115190Y-60428095D01*
X59591381Y-59523333D02*
X59591381Y-58856666D01*
X60591381Y-59285238D01*
X88150381Y-59983666D02*
X87674190Y-60317000D01*
X88150381Y-60555095D02*
X87150381Y-60555095D01*
X87150381Y-60174142D01*
X87198000Y-60078904D01*
X87245619Y-60031285D01*
X87340857Y-59983666D01*
X87483714Y-59983666D01*
X87578952Y-60031285D01*
X87626571Y-60078904D01*
X87674190Y-60174142D01*
X87674190Y-60555095D01*
X87578952Y-59412238D02*
X87531333Y-59507476D01*
X87483714Y-59555095D01*
X87388476Y-59602714D01*
X87340857Y-59602714D01*
X87245619Y-59555095D01*
X87198000Y-59507476D01*
X87150381Y-59412238D01*
X87150381Y-59221761D01*
X87198000Y-59126523D01*
X87245619Y-59078904D01*
X87340857Y-59031285D01*
X87388476Y-59031285D01*
X87483714Y-59078904D01*
X87531333Y-59126523D01*
X87578952Y-59221761D01*
X87578952Y-59412238D01*
X87626571Y-59507476D01*
X87674190Y-59555095D01*
X87769429Y-59602714D01*
X87959905Y-59602714D01*
X88055143Y-59555095D01*
X88102762Y-59507476D01*
X88150381Y-59412238D01*
X88150381Y-59221761D01*
X88102762Y-59126523D01*
X88055143Y-59078904D01*
X87959905Y-59031285D01*
X87769429Y-59031285D01*
X87674190Y-59078904D01*
X87626571Y-59126523D01*
X87578952Y-59221761D01*
X71588334Y-62682381D02*
X71255000Y-62206190D01*
X71016905Y-62682381D02*
X71016905Y-61682381D01*
X71397858Y-61682381D01*
X71493096Y-61730000D01*
X71540715Y-61777619D01*
X71588334Y-61872857D01*
X71588334Y-62015714D01*
X71540715Y-62110952D01*
X71493096Y-62158571D01*
X71397858Y-62206190D01*
X71016905Y-62206190D01*
X72064524Y-62682381D02*
X72255000Y-62682381D01*
X72350239Y-62634762D01*
X72397858Y-62587143D01*
X72493096Y-62444286D01*
X72540715Y-62253810D01*
X72540715Y-61872857D01*
X72493096Y-61777619D01*
X72445477Y-61730000D01*
X72350239Y-61682381D01*
X72159762Y-61682381D01*
X72064524Y-61730000D01*
X72016905Y-61777619D01*
X71969286Y-61872857D01*
X71969286Y-62110952D01*
X72016905Y-62206190D01*
X72064524Y-62253810D01*
X72159762Y-62301429D01*
X72350239Y-62301429D01*
X72445477Y-62253810D01*
X72493096Y-62206190D01*
X72540715Y-62110952D01*
X42156143Y-62428381D02*
X41822809Y-61952190D01*
X41584714Y-62428381D02*
X41584714Y-61428381D01*
X41965667Y-61428381D01*
X42060905Y-61476000D01*
X42108524Y-61523619D01*
X42156143Y-61618857D01*
X42156143Y-61761714D01*
X42108524Y-61856952D01*
X42060905Y-61904571D01*
X41965667Y-61952190D01*
X41584714Y-61952190D01*
X43108524Y-62428381D02*
X42537095Y-62428381D01*
X42822809Y-62428381D02*
X42822809Y-61428381D01*
X42727571Y-61571238D01*
X42632333Y-61666476D01*
X42537095Y-61714095D01*
X43727571Y-61428381D02*
X43822810Y-61428381D01*
X43918048Y-61476000D01*
X43965667Y-61523619D01*
X44013286Y-61618857D01*
X44060905Y-61809333D01*
X44060905Y-62047429D01*
X44013286Y-62237905D01*
X43965667Y-62333143D01*
X43918048Y-62380762D01*
X43822810Y-62428381D01*
X43727571Y-62428381D01*
X43632333Y-62380762D01*
X43584714Y-62333143D01*
X43537095Y-62237905D01*
X43489476Y-62047429D01*
X43489476Y-61809333D01*
X43537095Y-61618857D01*
X43584714Y-61523619D01*
X43632333Y-61476000D01*
X43727571Y-61428381D01*
X29662381Y-60451905D02*
X30471905Y-60451905D01*
X30567143Y-60404286D01*
X30614762Y-60356667D01*
X30662381Y-60261429D01*
X30662381Y-60070952D01*
X30614762Y-59975714D01*
X30567143Y-59928095D01*
X30471905Y-59880476D01*
X29662381Y-59880476D01*
X30662381Y-58880476D02*
X30662381Y-59451905D01*
X30662381Y-59166191D02*
X29662381Y-59166191D01*
X29805238Y-59261429D01*
X29900476Y-59356667D01*
X29948095Y-59451905D01*
X66873381Y-103735095D02*
X65873381Y-103735095D01*
X65873381Y-103354142D01*
X65921000Y-103258904D01*
X65968619Y-103211285D01*
X66063857Y-103163666D01*
X66206714Y-103163666D01*
X66301952Y-103211285D01*
X66349571Y-103258904D01*
X66397190Y-103354142D01*
X66397190Y-103735095D01*
X65873381Y-102258904D02*
X65873381Y-102735095D01*
X66349571Y-102782714D01*
X66301952Y-102735095D01*
X66254333Y-102639857D01*
X66254333Y-102401761D01*
X66301952Y-102306523D01*
X66349571Y-102258904D01*
X66444810Y-102211285D01*
X66682905Y-102211285D01*
X66778143Y-102258904D01*
X66825762Y-102306523D01*
X66873381Y-102401761D01*
X66873381Y-102639857D01*
X66825762Y-102735095D01*
X66778143Y-102782714D01*
X60221905Y-62555381D02*
X60221905Y-61555381D01*
X60602858Y-61555381D01*
X60698096Y-61603000D01*
X60745715Y-61650619D01*
X60793334Y-61745857D01*
X60793334Y-61888714D01*
X60745715Y-61983952D01*
X60698096Y-62031571D01*
X60602858Y-62079190D01*
X60221905Y-62079190D01*
X61650477Y-61555381D02*
X61460000Y-61555381D01*
X61364762Y-61603000D01*
X61317143Y-61650619D01*
X61221905Y-61793476D01*
X61174286Y-61983952D01*
X61174286Y-62364905D01*
X61221905Y-62460143D01*
X61269524Y-62507762D01*
X61364762Y-62555381D01*
X61555239Y-62555381D01*
X61650477Y-62507762D01*
X61698096Y-62460143D01*
X61745715Y-62364905D01*
X61745715Y-62126810D01*
X61698096Y-62031571D01*
X61650477Y-61983952D01*
X61555239Y-61936333D01*
X61364762Y-61936333D01*
X61269524Y-61983952D01*
X61221905Y-62031571D01*
X61174286Y-62126810D01*
X83871381Y-60555095D02*
X82871381Y-60555095D01*
X82871381Y-60174142D01*
X82919000Y-60078904D01*
X82966619Y-60031285D01*
X83061857Y-59983666D01*
X83204714Y-59983666D01*
X83299952Y-60031285D01*
X83347571Y-60078904D01*
X83395190Y-60174142D01*
X83395190Y-60555095D01*
X82871381Y-59650333D02*
X82871381Y-58983666D01*
X83871381Y-59412238D01*
X73937905Y-62682381D02*
X73937905Y-61682381D01*
X74318858Y-61682381D01*
X74414096Y-61730000D01*
X74461715Y-61777619D01*
X74509334Y-61872857D01*
X74509334Y-62015714D01*
X74461715Y-62110952D01*
X74414096Y-62158571D01*
X74318858Y-62206190D01*
X73937905Y-62206190D01*
X75080762Y-62110952D02*
X74985524Y-62063333D01*
X74937905Y-62015714D01*
X74890286Y-61920476D01*
X74890286Y-61872857D01*
X74937905Y-61777619D01*
X74985524Y-61730000D01*
X75080762Y-61682381D01*
X75271239Y-61682381D01*
X75366477Y-61730000D01*
X75414096Y-61777619D01*
X75461715Y-61872857D01*
X75461715Y-61920476D01*
X75414096Y-62015714D01*
X75366477Y-62063333D01*
X75271239Y-62110952D01*
X75080762Y-62110952D01*
X74985524Y-62158571D01*
X74937905Y-62206190D01*
X74890286Y-62301429D01*
X74890286Y-62491905D01*
X74937905Y-62587143D01*
X74985524Y-62634762D01*
X75080762Y-62682381D01*
X75271239Y-62682381D01*
X75366477Y-62634762D01*
X75414096Y-62587143D01*
X75461715Y-62491905D01*
X75461715Y-62301429D01*
X75414096Y-62206190D01*
X75366477Y-62158571D01*
X75271239Y-62110952D01*
X46124905Y-62555381D02*
X46124905Y-61555381D01*
X46505858Y-61555381D01*
X46601096Y-61603000D01*
X46648715Y-61650619D01*
X46696334Y-61745857D01*
X46696334Y-61888714D01*
X46648715Y-61983952D01*
X46601096Y-62031571D01*
X46505858Y-62079190D01*
X46124905Y-62079190D01*
X47172524Y-62555381D02*
X47363000Y-62555381D01*
X47458239Y-62507762D01*
X47505858Y-62460143D01*
X47601096Y-62317286D01*
X47648715Y-62126810D01*
X47648715Y-61745857D01*
X47601096Y-61650619D01*
X47553477Y-61603000D01*
X47458239Y-61555381D01*
X47267762Y-61555381D01*
X47172524Y-61603000D01*
X47124905Y-61650619D01*
X47077286Y-61745857D01*
X47077286Y-61983952D01*
X47124905Y-62079190D01*
X47172524Y-62126810D01*
X47267762Y-62174429D01*
X47458239Y-62174429D01*
X47553477Y-62126810D01*
X47601096Y-62079190D01*
X47648715Y-61983952D01*
X47521905Y-117749381D02*
X47521905Y-116749381D01*
X47760000Y-116749381D01*
X47902858Y-116797000D01*
X47998096Y-116892238D01*
X48045715Y-116987476D01*
X48093334Y-117177952D01*
X48093334Y-117320810D01*
X48045715Y-117511286D01*
X47998096Y-117606524D01*
X47902858Y-117701762D01*
X47760000Y-117749381D01*
X47521905Y-117749381D01*
X49045715Y-117749381D02*
X48474286Y-117749381D01*
X48760000Y-117749381D02*
X48760000Y-116749381D01*
X48664762Y-116892238D01*
X48569524Y-116987476D01*
X48474286Y-117035095D01*
X41013143Y-117799381D02*
X40679809Y-117323190D01*
X40441714Y-117799381D02*
X40441714Y-116799381D01*
X40822667Y-116799381D01*
X40917905Y-116847000D01*
X40965524Y-116894619D01*
X41013143Y-116989857D01*
X41013143Y-117132714D01*
X40965524Y-117227952D01*
X40917905Y-117275571D01*
X40822667Y-117323190D01*
X40441714Y-117323190D01*
X41965524Y-117799381D02*
X41394095Y-117799381D01*
X41679809Y-117799381D02*
X41679809Y-116799381D01*
X41584571Y-116942238D01*
X41489333Y-117037476D01*
X41394095Y-117085095D01*
X42298857Y-116799381D02*
X42965524Y-116799381D01*
X42536952Y-117799381D01*
X57658095Y-106005381D02*
X57658095Y-106814905D01*
X57705714Y-106910143D01*
X57753333Y-106957762D01*
X57848571Y-107005381D01*
X58039048Y-107005381D01*
X58134286Y-106957762D01*
X58181905Y-106910143D01*
X58229524Y-106814905D01*
X58229524Y-106005381D01*
X59134286Y-106338714D02*
X59134286Y-107005381D01*
X58896190Y-105957762D02*
X58658095Y-106672048D01*
X59277143Y-106672048D01*
X42969381Y-104846333D02*
X43683667Y-104846333D01*
X43826524Y-104893953D01*
X43921762Y-104989191D01*
X43969381Y-105132048D01*
X43969381Y-105227286D01*
X43969381Y-104370143D02*
X42969381Y-104370143D01*
X42969381Y-103989190D01*
X43017000Y-103893952D01*
X43064619Y-103846333D01*
X43159857Y-103798714D01*
X43302714Y-103798714D01*
X43397952Y-103846333D01*
X43445571Y-103893952D01*
X43493190Y-103989190D01*
X43493190Y-104370143D01*
X43064619Y-103417762D02*
X43017000Y-103370143D01*
X42969381Y-103274905D01*
X42969381Y-103036809D01*
X43017000Y-102941571D01*
X43064619Y-102893952D01*
X43159857Y-102846333D01*
X43255095Y-102846333D01*
X43397952Y-102893952D01*
X43969381Y-103465381D01*
X43969381Y-102846333D01*
X67619667Y-39628381D02*
X67619667Y-40342667D01*
X67572047Y-40485524D01*
X67476809Y-40580762D01*
X67333952Y-40628381D01*
X67238714Y-40628381D01*
X68095857Y-40628381D02*
X68095857Y-39628381D01*
X68476810Y-39628381D01*
X68572048Y-39676000D01*
X68619667Y-39723619D01*
X68667286Y-39818857D01*
X68667286Y-39961714D01*
X68619667Y-40056952D01*
X68572048Y-40104571D01*
X68476810Y-40152190D01*
X68095857Y-40152190D01*
X69619667Y-40628381D02*
X69048238Y-40628381D01*
X69333952Y-40628381D02*
X69333952Y-39628381D01*
X69238714Y-39771238D01*
X69143476Y-39866476D01*
X69048238Y-39914095D01*
X25912381Y-103449333D02*
X26626667Y-103449333D01*
X26769524Y-103496953D01*
X26864762Y-103592191D01*
X26912381Y-103735048D01*
X26912381Y-103830286D01*
X26912381Y-102973143D02*
X25912381Y-102973143D01*
X25912381Y-102592190D01*
X25960000Y-102496952D01*
X26007619Y-102449333D01*
X26102857Y-102401714D01*
X26245714Y-102401714D01*
X26340952Y-102449333D01*
X26388571Y-102496952D01*
X26436190Y-102592190D01*
X26436190Y-102973143D01*
X25912381Y-102068381D02*
X25912381Y-101449333D01*
X26293333Y-101782667D01*
X26293333Y-101639809D01*
X26340952Y-101544571D01*
X26388571Y-101496952D01*
X26483810Y-101449333D01*
X26721905Y-101449333D01*
X26817143Y-101496952D01*
X26864762Y-101544571D01*
X26912381Y-101639809D01*
X26912381Y-101925524D01*
X26864762Y-102020762D01*
X26817143Y-102068381D01*
X70381905Y-98242381D02*
X70381905Y-97242381D01*
X70762858Y-97242381D01*
X70858096Y-97290000D01*
X70905715Y-97337619D01*
X70953334Y-97432857D01*
X70953334Y-97575714D01*
X70905715Y-97670952D01*
X70858096Y-97718571D01*
X70762858Y-97766190D01*
X70381905Y-97766190D01*
X71334286Y-97337619D02*
X71381905Y-97290000D01*
X71477143Y-97242381D01*
X71715239Y-97242381D01*
X71810477Y-97290000D01*
X71858096Y-97337619D01*
X71905715Y-97432857D01*
X71905715Y-97528095D01*
X71858096Y-97670952D01*
X71286667Y-98242381D01*
X71905715Y-98242381D01*
X55141905Y-98242381D02*
X55141905Y-97242381D01*
X55522858Y-97242381D01*
X55618096Y-97290000D01*
X55665715Y-97337619D01*
X55713334Y-97432857D01*
X55713334Y-97575714D01*
X55665715Y-97670952D01*
X55618096Y-97718571D01*
X55522858Y-97766190D01*
X55141905Y-97766190D01*
X56665715Y-98242381D02*
X56094286Y-98242381D01*
X56380000Y-98242381D02*
X56380000Y-97242381D01*
X56284762Y-97385238D01*
X56189524Y-97480476D01*
X56094286Y-97528095D01*
M02*
