G04 #@! TF.FileFunction,Paste,Top*
%FSLAX46Y46*%
G04 Gerber Fmt 4.6, Leading zero omitted, Abs format (unit mm)*
G04 Created by KiCad (PCBNEW 4.0.5+dfsg1-4) date Tue Dec 12 22:17:04 2017*
%MOMM*%
%LPD*%
G01*
G04 APERTURE LIST*
%ADD10C,0.100000*%
%ADD11R,4.000500X2.400300*%
%ADD12R,0.800000X0.900000*%
%ADD13R,1.250000X1.000000*%
%ADD14R,0.700000X1.300000*%
%ADD15R,1.300000X0.700000*%
%ADD16R,3.657600X2.032000*%
%ADD17R,1.016000X2.032000*%
%ADD18R,1.980000X3.960000*%
%ADD19O,1.980000X3.960000*%
G04 APERTURE END LIST*
D10*
D11*
X37020500Y-34290000D03*
X29019500Y-34290000D03*
D12*
X65466000Y-51832000D03*
X63566000Y-51832000D03*
X64516000Y-53832000D03*
X58608000Y-51832000D03*
X56708000Y-51832000D03*
X57658000Y-53832000D03*
X51496000Y-51832000D03*
X49596000Y-51832000D03*
X50546000Y-53832000D03*
X44384000Y-51832000D03*
X42484000Y-51832000D03*
X43434000Y-53832000D03*
D13*
X78232000Y-53991000D03*
X78232000Y-55991000D03*
X82677000Y-53991000D03*
X82677000Y-55991000D03*
D14*
X65466000Y-47498000D03*
X63566000Y-47498000D03*
X65466000Y-43180000D03*
X63566000Y-43180000D03*
X63566000Y-38989000D03*
X65466000Y-38989000D03*
X63566000Y-34036000D03*
X65466000Y-34036000D03*
D15*
X95631000Y-53909000D03*
X95631000Y-52009000D03*
X92329000Y-53909000D03*
X92329000Y-52009000D03*
D14*
X51496000Y-47498000D03*
X49596000Y-47498000D03*
X58608000Y-47498000D03*
X56708000Y-47498000D03*
X51496000Y-43180000D03*
X49596000Y-43180000D03*
X58608000Y-43180000D03*
X56708000Y-43180000D03*
X44384000Y-47498000D03*
X42484000Y-47498000D03*
X44384000Y-43180000D03*
X42484000Y-43180000D03*
D16*
X49022000Y-28067000D03*
D17*
X49022000Y-34671000D03*
X51308000Y-34671000D03*
X46736000Y-34671000D03*
D15*
X58039000Y-58740000D03*
X58039000Y-60640000D03*
X85598000Y-58867000D03*
X85598000Y-60767000D03*
X71755000Y-58740000D03*
X71755000Y-60640000D03*
X42722800Y-58384400D03*
X42722800Y-60284400D03*
D12*
X49310000Y-115697000D03*
X47210000Y-115697000D03*
D14*
X42606000Y-115697000D03*
X40706000Y-115697000D03*
D16*
X58420000Y-104013000D03*
D17*
X58420000Y-110617000D03*
X60706000Y-110617000D03*
X56134000Y-110617000D03*
D18*
X71628000Y-90170000D03*
D19*
X76628000Y-90170000D03*
X81628000Y-90170000D03*
D18*
X56388000Y-90170000D03*
D19*
X61388000Y-90170000D03*
X66388000Y-90170000D03*
M02*
