G04 #@! TF.FileFunction,Copper,L1,Top,Signal*
%FSLAX46Y46*%
G04 Gerber Fmt 4.6, Leading zero omitted, Abs format (unit mm)*
G04 Created by KiCad (PCBNEW 4.0.5+dfsg1-4) date Tue Dec 12 22:17:04 2017*
%MOMM*%
%LPD*%
G01*
G04 APERTURE LIST*
%ADD10C,0.100000*%
%ADD11R,4.000500X2.400300*%
%ADD12R,1.700000X1.700000*%
%ADD13C,1.700000*%
%ADD14O,4.000500X2.499360*%
%ADD15C,1.800000*%
%ADD16R,0.800000X0.900000*%
%ADD17R,1.250000X1.000000*%
%ADD18R,0.700000X1.300000*%
%ADD19R,1.300000X0.700000*%
%ADD20R,3.657600X2.032000*%
%ADD21R,1.016000X2.032000*%
%ADD22R,2.500000X1.100000*%
%ADD23O,2.500000X1.100000*%
%ADD24C,1.524000*%
%ADD25C,2.500000*%
%ADD26R,2.032000X1.727200*%
%ADD27O,2.032000X1.727200*%
%ADD28R,2.032000X2.032000*%
%ADD29O,2.032000X2.032000*%
%ADD30O,1.700000X1.700000*%
%ADD31R,1.980000X3.960000*%
%ADD32O,1.980000X3.960000*%
%ADD33C,1.500000*%
%ADD34C,0.508000*%
%ADD35C,1.000000*%
%ADD36C,2.000000*%
%ADD37C,0.254000*%
G04 APERTURE END LIST*
D10*
D11*
X37020500Y-34290000D03*
X29019500Y-34290000D03*
D12*
X104394000Y-55372000D03*
D13*
X101854000Y-55372000D03*
X104394000Y-52832000D03*
X101854000Y-52832000D03*
X104394000Y-50292000D03*
X101854000Y-50292000D03*
X104394000Y-47752000D03*
X101854000Y-47752000D03*
X104394000Y-45212000D03*
X101854000Y-45212000D03*
D14*
X25829260Y-91440000D03*
X47830740Y-91440000D03*
D15*
X39370000Y-83820000D03*
X31870000Y-82120000D03*
D16*
X65466000Y-51832000D03*
X63566000Y-51832000D03*
X64516000Y-53832000D03*
X58608000Y-51832000D03*
X56708000Y-51832000D03*
X57658000Y-53832000D03*
X51496000Y-51832000D03*
X49596000Y-51832000D03*
X50546000Y-53832000D03*
X44384000Y-51832000D03*
X42484000Y-51832000D03*
X43434000Y-53832000D03*
D17*
X78232000Y-53991000D03*
X78232000Y-55991000D03*
X82677000Y-53991000D03*
X82677000Y-55991000D03*
D18*
X65466000Y-47498000D03*
X63566000Y-47498000D03*
X65466000Y-43180000D03*
X63566000Y-43180000D03*
X63566000Y-38989000D03*
X65466000Y-38989000D03*
X63566000Y-34036000D03*
X65466000Y-34036000D03*
D19*
X95631000Y-53909000D03*
X95631000Y-52009000D03*
X92329000Y-53909000D03*
X92329000Y-52009000D03*
D18*
X51496000Y-47498000D03*
X49596000Y-47498000D03*
X58608000Y-47498000D03*
X56708000Y-47498000D03*
X51496000Y-43180000D03*
X49596000Y-43180000D03*
X58608000Y-43180000D03*
X56708000Y-43180000D03*
X44384000Y-47498000D03*
X42484000Y-47498000D03*
X44384000Y-43180000D03*
X42484000Y-43180000D03*
D20*
X49022000Y-28067000D03*
D21*
X49022000Y-34671000D03*
X51308000Y-34671000D03*
X46736000Y-34671000D03*
D22*
X73214000Y-35306000D03*
D23*
X73214000Y-37306000D03*
X73214000Y-39306000D03*
X73214000Y-41306000D03*
X73214000Y-43306000D03*
X73214000Y-45306000D03*
X73214000Y-47306000D03*
X73214000Y-49306000D03*
X88614000Y-49306000D03*
X88514000Y-47306000D03*
X88614000Y-45306000D03*
X88614000Y-43306000D03*
X88614000Y-41306000D03*
X88614000Y-39306000D03*
X88614000Y-37306000D03*
X88614000Y-35306000D03*
D12*
X31750000Y-110998000D03*
D13*
X31750000Y-113538000D03*
X29210000Y-110998000D03*
X29210000Y-113538000D03*
X26670000Y-110998000D03*
X26670000Y-113538000D03*
X24130000Y-110998000D03*
X24130000Y-113538000D03*
X21590000Y-110998000D03*
X21590000Y-113538000D03*
D19*
X58039000Y-58740000D03*
X58039000Y-60640000D03*
X85598000Y-58867000D03*
X85598000Y-60767000D03*
X71755000Y-58740000D03*
X71755000Y-60640000D03*
X42722800Y-58384400D03*
X42722800Y-60284400D03*
D24*
X94234000Y-59436000D03*
X94234000Y-61976000D03*
X94234000Y-72136000D03*
X94234000Y-79756000D03*
X80467200Y-59436000D03*
X80467200Y-61976000D03*
X80467200Y-72136000D03*
X80467200Y-79756000D03*
X66802000Y-59436000D03*
X66802000Y-61976000D03*
X66802000Y-72136000D03*
X66802000Y-79756000D03*
X53086000Y-59436000D03*
X53086000Y-61976000D03*
X53086000Y-72136000D03*
X53086000Y-79756000D03*
D25*
X26710000Y-74390000D03*
X31710000Y-74390000D03*
X21510000Y-44990000D03*
X36910000Y-44990000D03*
X24130000Y-75565000D03*
X34290000Y-75565000D03*
X25400000Y-43815000D03*
X33020000Y-43815000D03*
D26*
X68961000Y-102997000D03*
D27*
X68961000Y-105537000D03*
X68961000Y-108077000D03*
X68961000Y-110617000D03*
X68961000Y-113157000D03*
X68961000Y-115697000D03*
D28*
X60960000Y-59690000D03*
D29*
X63500000Y-59690000D03*
D28*
X88519000Y-59817000D03*
D29*
X91059000Y-59817000D03*
D28*
X74676000Y-59690000D03*
D29*
X77216000Y-59690000D03*
D28*
X46990000Y-59690000D03*
D29*
X49530000Y-59690000D03*
D16*
X49310000Y-115697000D03*
X47210000Y-115697000D03*
D18*
X42606000Y-115697000D03*
X40706000Y-115697000D03*
D20*
X58420000Y-104013000D03*
D21*
X58420000Y-110617000D03*
X60706000Y-110617000D03*
X56134000Y-110617000D03*
D12*
X45847000Y-104013000D03*
D30*
X48387000Y-104013000D03*
D12*
X68453000Y-37846000D03*
D30*
X68453000Y-35306000D03*
D12*
X24130000Y-102616000D03*
D30*
X21590000Y-102616000D03*
D31*
X71628000Y-90170000D03*
D32*
X76628000Y-90170000D03*
X81628000Y-90170000D03*
D31*
X56388000Y-90170000D03*
D32*
X61388000Y-90170000D03*
X66388000Y-90170000D03*
D33*
X51308000Y-37338000D03*
X80391000Y-56007000D03*
X56642000Y-49784000D03*
X63500000Y-49784000D03*
X67310000Y-48514000D03*
X53594000Y-47244000D03*
X60960000Y-43180000D03*
X46228000Y-43180000D03*
X52959000Y-115697000D03*
D34*
X85598000Y-60767000D02*
X85598000Y-61976000D01*
X58039000Y-60640000D02*
X58039000Y-61976000D01*
X71755000Y-60640000D02*
X71755000Y-61976000D01*
X42722800Y-60284400D02*
X42722800Y-61569600D01*
X42722800Y-61569600D02*
X42316400Y-61976000D01*
D35*
X53086000Y-61976000D02*
X42316400Y-61976000D01*
X42316400Y-61976000D02*
X40589200Y-61976000D01*
X36910000Y-58296800D02*
X36910000Y-44990000D01*
X40589200Y-61976000D02*
X36910000Y-58296800D01*
X53086000Y-61976000D02*
X54813200Y-61976000D01*
X54813200Y-61976000D02*
X58039000Y-61976000D01*
X58039000Y-61976000D02*
X66802000Y-61976000D01*
X51322000Y-34392000D02*
X51322000Y-37338000D01*
D34*
X51322000Y-37338000D02*
X51308000Y-37338000D01*
X36910000Y-44990000D02*
X36910000Y-34400500D01*
X36910000Y-34400500D02*
X37020500Y-34290000D01*
D35*
X80467200Y-61976000D02*
X85598000Y-61976000D01*
X85598000Y-61976000D02*
X94234000Y-61976000D01*
X66802000Y-61976000D02*
X71755000Y-61976000D01*
X71755000Y-61976000D02*
X80467200Y-61976000D01*
D34*
X82677000Y-55991000D02*
X80407000Y-55991000D01*
X80407000Y-55991000D02*
X80391000Y-56007000D01*
X82661000Y-56007000D02*
X82677000Y-55991000D01*
X78232000Y-55991000D02*
X80375000Y-55991000D01*
X80375000Y-55991000D02*
X80391000Y-56007000D01*
X48260000Y-41402000D02*
X48260000Y-45466000D01*
X48260000Y-41402000D02*
X46736000Y-39878000D01*
X46736000Y-39878000D02*
X46722000Y-39878000D01*
X49596000Y-47498000D02*
X49596000Y-46802000D01*
X49596000Y-46802000D02*
X48260000Y-45466000D01*
X46722000Y-34392000D02*
X46722000Y-33260000D01*
X29019500Y-31940500D02*
X30480000Y-30480000D01*
X30480000Y-30480000D02*
X43942000Y-30480000D01*
X29019500Y-31940500D02*
X29019500Y-34290000D01*
X46722000Y-33260000D02*
X43942000Y-30480000D01*
X29019500Y-34290000D02*
X29019500Y-40195500D01*
X29019500Y-40195500D02*
X25400000Y-43815000D01*
X25400000Y-43815000D02*
X22685000Y-43815000D01*
X22685000Y-43815000D02*
X21510000Y-44990000D01*
X63500000Y-51766000D02*
X63566000Y-51832000D01*
X63500000Y-49784000D02*
X63500000Y-51766000D01*
X56642000Y-49784000D02*
X56708000Y-49784000D01*
X41656000Y-39878000D02*
X46722000Y-39878000D01*
X40640000Y-40894000D02*
X41656000Y-39878000D01*
X40640000Y-44450000D02*
X40640000Y-40894000D01*
X42484000Y-46294000D02*
X40640000Y-44450000D01*
X42484000Y-47498000D02*
X42484000Y-46294000D01*
X56708000Y-47498000D02*
X56642000Y-47498000D01*
X49596000Y-47498000D02*
X49596000Y-47940000D01*
X42484000Y-47498000D02*
X42484000Y-47940000D01*
X56708000Y-47498000D02*
X56708000Y-49784000D01*
X56708000Y-49784000D02*
X56708000Y-51832000D01*
X42484000Y-47498000D02*
X42484000Y-47940000D01*
X42484000Y-47940000D02*
X42484000Y-51832000D01*
X49596000Y-47498000D02*
X49596000Y-47940000D01*
X49596000Y-47940000D02*
X49596000Y-51832000D01*
X46722000Y-39878000D02*
X46736000Y-39878000D01*
X46722000Y-34392000D02*
X46722000Y-39878000D01*
X46722000Y-39878000D02*
X46736000Y-39878000D01*
X63500000Y-49784000D02*
X63500000Y-48674000D01*
X63500000Y-48674000D02*
X63500000Y-47564000D01*
X63566000Y-48608000D02*
X63566000Y-47498000D01*
X63500000Y-48674000D02*
X63566000Y-48608000D01*
D35*
X75311000Y-49306000D02*
X84104000Y-49306000D01*
X87630000Y-52832000D02*
X90170000Y-55372000D01*
X90170000Y-55372000D02*
X92456000Y-55372000D01*
X84104000Y-49306000D02*
X87630000Y-52832000D01*
D34*
X73914000Y-49306000D02*
X75311000Y-49306000D01*
X75311000Y-49306000D02*
X77754000Y-49306000D01*
D35*
X104394000Y-55372000D02*
X104394000Y-56515000D01*
X98552000Y-55372000D02*
X95631000Y-55372000D01*
X98552000Y-55372000D02*
X100330000Y-57150000D01*
X103759000Y-57150000D02*
X100330000Y-57150000D01*
X104394000Y-56515000D02*
X103759000Y-57150000D01*
D34*
X95631000Y-53909000D02*
X95631000Y-55372000D01*
X92329000Y-53909000D02*
X92329000Y-55372000D01*
X92329000Y-55372000D02*
X92456000Y-55245000D01*
X92456000Y-55245000D02*
X92456000Y-55372000D01*
D35*
X92456000Y-55372000D02*
X95631000Y-55372000D01*
D34*
X69850000Y-47498000D02*
X69850000Y-45466000D01*
X69850000Y-45466000D02*
X64770000Y-40386000D01*
X63566000Y-38989000D02*
X63566000Y-40386000D01*
X63566000Y-40386000D02*
X63500000Y-40386000D01*
X63566000Y-34036000D02*
X63566000Y-38989000D01*
X49022000Y-34392000D02*
X49022000Y-39116000D01*
X50292000Y-40386000D02*
X63500000Y-40386000D01*
X49022000Y-39116000D02*
X50292000Y-40386000D01*
X64770000Y-40386000D02*
X63500000Y-40386000D01*
X73914000Y-49306000D02*
X71658000Y-49306000D01*
X69850000Y-47498000D02*
X71658000Y-49306000D01*
X73944000Y-49276000D02*
X73914000Y-49306000D01*
X49022000Y-34392000D02*
X49022000Y-28092000D01*
X65466000Y-45908000D02*
X65466000Y-47498000D01*
X63566000Y-44008000D02*
X65466000Y-45908000D01*
X63566000Y-43180000D02*
X63566000Y-44008000D01*
X65466000Y-47898000D02*
X65466000Y-51832000D01*
X65466000Y-47898000D02*
X65466000Y-47498000D01*
X67411600Y-40132000D02*
X66294000Y-39014400D01*
X66294000Y-39014400D02*
X65491400Y-39014400D01*
X65491400Y-39014400D02*
X65466000Y-38989000D01*
X70930000Y-39306000D02*
X73914000Y-39306000D01*
X70104000Y-40132000D02*
X70930000Y-39306000D01*
X67411600Y-40132000D02*
X70104000Y-40132000D01*
D36*
X66802000Y-79756000D02*
X68681600Y-79756000D01*
X68681600Y-79756000D02*
X71628000Y-82702400D01*
X71628000Y-82702400D02*
X71628000Y-90170000D01*
X76628000Y-90170000D02*
X76628000Y-86694000D01*
X76628000Y-86694000D02*
X80467200Y-82854800D01*
X80467200Y-82854800D02*
X80467200Y-79756000D01*
X81628000Y-90170000D02*
X86004400Y-90170000D01*
X86004400Y-90170000D02*
X94234000Y-81940400D01*
X94234000Y-81940400D02*
X94234000Y-79756000D01*
X66388000Y-90170000D02*
X66388000Y-87622400D01*
X66388000Y-87622400D02*
X58521600Y-79756000D01*
X58521600Y-79756000D02*
X53086000Y-79756000D01*
D34*
X58608000Y-45908000D02*
X58608000Y-47498000D01*
X56708000Y-44008000D02*
X58608000Y-45908000D01*
X56708000Y-43180000D02*
X56708000Y-44008000D01*
X58608000Y-51832000D02*
X58608000Y-47498000D01*
X49596000Y-44262000D02*
X49596000Y-43180000D01*
X51496000Y-46162000D02*
X49596000Y-44262000D01*
X51496000Y-47498000D02*
X51496000Y-46162000D01*
X51496000Y-47498000D02*
X51496000Y-51832000D01*
X42484000Y-43754000D02*
X42484000Y-43180000D01*
X44384000Y-45654000D02*
X42484000Y-43754000D01*
X44384000Y-47498000D02*
X44384000Y-45654000D01*
X44384000Y-47898000D02*
X44384000Y-51832000D01*
X44384000Y-47898000D02*
X44384000Y-47498000D01*
X87914000Y-39306000D02*
X90868000Y-39306000D01*
X90868000Y-39306000D02*
X101854000Y-50292000D01*
X87914000Y-41306000D02*
X90328000Y-41306000D01*
X90328000Y-41306000D02*
X101854000Y-52832000D01*
X95631000Y-52009000D02*
X95631000Y-48768000D01*
X92169000Y-45306000D02*
X94488000Y-47625000D01*
X92169000Y-45306000D02*
X87914000Y-45306000D01*
X95631000Y-48768000D02*
X94488000Y-47625000D01*
X95631000Y-52009000D02*
X98491000Y-52009000D01*
X98491000Y-52009000D02*
X101854000Y-55372000D01*
X89891800Y-33976400D02*
X87181600Y-33976400D01*
X83852000Y-37306000D02*
X73914000Y-37306000D01*
X87181600Y-33976400D02*
X83852000Y-37306000D01*
X99992700Y-45890700D02*
X101854000Y-47752000D01*
X99992700Y-44077300D02*
X99992700Y-45890700D01*
X89891800Y-33976400D02*
X99992700Y-44077300D01*
X67310000Y-44450000D02*
X67310000Y-48514000D01*
X66040000Y-43180000D02*
X67310000Y-44450000D01*
X65466000Y-43180000D02*
X66040000Y-43180000D01*
X51496000Y-43180000D02*
X52578000Y-43180000D01*
X53594000Y-44196000D02*
X53594000Y-47244000D01*
X52578000Y-43180000D02*
X53594000Y-44196000D01*
X58608000Y-43180000D02*
X60960000Y-43180000D01*
X44384000Y-43180000D02*
X46228000Y-43180000D01*
X92329000Y-52009000D02*
X88966000Y-52009000D01*
X88966000Y-52009000D02*
X86106000Y-49149000D01*
X86106000Y-49149000D02*
X86106000Y-44196000D01*
X86996000Y-43306000D02*
X87914000Y-43306000D01*
X86106000Y-44196000D02*
X86996000Y-43306000D01*
D36*
X80467200Y-72136000D02*
X94234000Y-72136000D01*
X66802000Y-72136000D02*
X80467200Y-72136000D01*
X53086000Y-72136000D02*
X66802000Y-72136000D01*
X47830740Y-91440000D02*
X47830740Y-78661260D01*
X47830740Y-78661260D02*
X53086000Y-72136000D01*
D34*
X91059000Y-59817000D02*
X91059000Y-58539002D01*
X92583000Y-59817000D02*
X92964000Y-59436000D01*
X92964000Y-59436000D02*
X94234000Y-59436000D01*
X91059000Y-59817000D02*
X92583000Y-59817000D01*
X91059000Y-58539002D02*
X89916000Y-57396002D01*
X89916000Y-57396002D02*
X77716002Y-57396002D01*
X77716002Y-57396002D02*
X75946000Y-55626000D01*
X65278000Y-55626000D02*
X64516000Y-54864000D01*
X64516000Y-54864000D02*
X64516000Y-53832000D01*
X75946000Y-55626000D02*
X65278000Y-55626000D01*
X64532000Y-53848000D02*
X64516000Y-53832000D01*
X77216000Y-59690000D02*
X78867000Y-59690000D01*
X78867000Y-59690000D02*
X79121000Y-59436000D01*
X79121000Y-59436000D02*
X80467200Y-59436000D01*
X77216000Y-59110976D02*
X74874024Y-56769000D01*
X77216000Y-59690000D02*
X77216000Y-59110976D01*
X62611000Y-56769000D02*
X59436000Y-56769000D01*
X57658000Y-54991000D02*
X57658000Y-53832000D01*
X59436000Y-56769000D02*
X57658000Y-54991000D01*
X62611000Y-56769000D02*
X74874024Y-56769000D01*
X80467200Y-59436000D02*
X80721200Y-59436000D01*
X56946800Y-56718200D02*
X52400200Y-56718200D01*
X50546000Y-54864000D02*
X50546000Y-53832000D01*
X52400200Y-56718200D02*
X50546000Y-54864000D01*
X63500000Y-59690000D02*
X65278000Y-59690000D01*
X65532000Y-59436000D02*
X66802000Y-59436000D01*
X65278000Y-59690000D02*
X65532000Y-59436000D01*
X63500000Y-58115200D02*
X63500000Y-59690000D01*
X62992000Y-57607200D02*
X63500000Y-58115200D01*
X57835800Y-57607200D02*
X62992000Y-57607200D01*
X56946800Y-56718200D02*
X57835800Y-57607200D01*
X48069500Y-56705500D02*
X45275500Y-56705500D01*
X43434000Y-54864000D02*
X43434000Y-53832000D01*
X45275500Y-56705500D02*
X43434000Y-54864000D01*
X49530000Y-58166000D02*
X49530000Y-59690000D01*
X48069500Y-56705500D02*
X49530000Y-58166000D01*
X49530000Y-59690000D02*
X51181000Y-59690000D01*
X51181000Y-59690000D02*
X51435000Y-59436000D01*
X51435000Y-59436000D02*
X53086000Y-59436000D01*
X43434000Y-53832000D02*
X43434000Y-53770000D01*
X65466000Y-34036000D02*
X67183000Y-34036000D01*
X67183000Y-34036000D02*
X68453000Y-35306000D01*
X68453000Y-35306000D02*
X73914000Y-35306000D01*
X58039000Y-58740000D02*
X58740000Y-58740000D01*
X59690000Y-59690000D02*
X60960000Y-59690000D01*
X58740000Y-58740000D02*
X59690000Y-59690000D01*
X85598000Y-58867000D02*
X86426000Y-58867000D01*
X86426000Y-58867000D02*
X87376000Y-59817000D01*
X87376000Y-59817000D02*
X88519000Y-59817000D01*
X71755000Y-58740000D02*
X72583000Y-58740000D01*
X72583000Y-58740000D02*
X73533000Y-59690000D01*
X73533000Y-59690000D02*
X74676000Y-59690000D01*
X42722800Y-58384400D02*
X43906400Y-58384400D01*
X45212000Y-59690000D02*
X46990000Y-59690000D01*
X43906400Y-58384400D02*
X45212000Y-59690000D01*
X49310000Y-115697000D02*
X52959000Y-115697000D01*
X53213000Y-115443000D02*
X56134000Y-112522000D01*
X52959000Y-115697000D02*
X53213000Y-115443000D01*
X68961000Y-115697000D02*
X59309000Y-115697000D01*
X56134000Y-112522000D02*
X56134000Y-110617000D01*
X59309000Y-115697000D02*
X56134000Y-112522000D01*
X47210000Y-115697000D02*
X42606000Y-115697000D01*
X40706000Y-115697000D02*
X22352000Y-115697000D01*
X21590000Y-114935000D02*
X21590000Y-113538000D01*
X22352000Y-115697000D02*
X21590000Y-114935000D01*
X60706000Y-110617000D02*
X68961000Y-110617000D01*
X57912000Y-104521000D02*
X58420000Y-104013000D01*
X58420000Y-104013000D02*
X58420000Y-110617000D01*
D37*
G36*
X64389000Y-22912606D02*
X64389000Y-32960974D01*
X64275698Y-32847673D01*
X64042309Y-32751000D01*
X63851750Y-32751000D01*
X63693000Y-32909750D01*
X63693000Y-33909000D01*
X63713000Y-33909000D01*
X63713000Y-34163000D01*
X63693000Y-34163000D01*
X63693000Y-35162250D01*
X63851750Y-35321000D01*
X64042309Y-35321000D01*
X64275698Y-35224327D01*
X64389000Y-35111026D01*
X64389000Y-37913974D01*
X64275698Y-37800673D01*
X64042309Y-37704000D01*
X63851750Y-37704000D01*
X63693000Y-37862750D01*
X63693000Y-38862000D01*
X63713000Y-38862000D01*
X63713000Y-39116000D01*
X63693000Y-39116000D01*
X63693000Y-40115250D01*
X63851750Y-40274000D01*
X64042309Y-40274000D01*
X64275698Y-40177327D01*
X64454327Y-39998699D01*
X64492334Y-39906940D01*
X64608728Y-40023334D01*
X64651910Y-40090441D01*
X64727448Y-40142054D01*
X65315197Y-40729803D01*
X65357211Y-40757666D01*
X65405000Y-40767000D01*
X66792533Y-40767000D01*
X67071394Y-40953329D01*
X67411600Y-41021000D01*
X69670394Y-41021000D01*
X70485000Y-41835606D01*
X70485000Y-47498000D01*
X70495006Y-47547410D01*
X70522197Y-47587803D01*
X71284197Y-48349803D01*
X71326211Y-48377666D01*
X71374000Y-48387000D01*
X71790886Y-48387000D01*
X71586276Y-48557882D01*
X71370602Y-48969854D01*
X71370197Y-48996256D01*
X71495639Y-49179000D01*
X73087000Y-49179000D01*
X73087000Y-49159000D01*
X73341000Y-49159000D01*
X73341000Y-49179000D01*
X74932361Y-49179000D01*
X75057803Y-48996256D01*
X75057398Y-48969854D01*
X74841724Y-48557882D01*
X74637114Y-48387000D01*
X83767394Y-48387000D01*
X90080197Y-54699803D01*
X90122211Y-54727666D01*
X90170000Y-54737000D01*
X91258974Y-54737000D01*
X91319301Y-54797327D01*
X91552690Y-54894000D01*
X92043250Y-54894000D01*
X92200250Y-54737000D01*
X92457750Y-54737000D01*
X92614750Y-54894000D01*
X93105310Y-54894000D01*
X93338699Y-54797327D01*
X93399026Y-54737000D01*
X94560974Y-54737000D01*
X94621301Y-54797327D01*
X94854690Y-54894000D01*
X95345250Y-54894000D01*
X95502250Y-54737000D01*
X95759750Y-54737000D01*
X95916750Y-54894000D01*
X96407310Y-54894000D01*
X96640699Y-54797327D01*
X96701026Y-54737000D01*
X98753394Y-54737000D01*
X100520095Y-56503701D01*
X100315894Y-56496494D01*
X100266162Y-56504751D01*
X100223560Y-56531706D01*
X100194802Y-56573112D01*
X100184419Y-56622444D01*
X100194046Y-56671929D01*
X100221612Y-56713218D01*
X100494197Y-56985803D01*
X100536211Y-57013666D01*
X100584000Y-57023000D01*
X103579394Y-57023000D01*
X103542197Y-57060197D01*
X103514334Y-57102211D01*
X103505012Y-57151754D01*
X103515700Y-57201022D01*
X103544713Y-57242249D01*
X103587480Y-57268941D01*
X103632000Y-57277000D01*
X104013000Y-57277000D01*
X104013000Y-57351394D01*
X103325394Y-58039000D01*
X94234647Y-58039000D01*
X93957339Y-58038758D01*
X93956753Y-58039000D01*
X92889606Y-58039000D01*
X91148803Y-56298197D01*
X91106789Y-56270334D01*
X91059000Y-56261000D01*
X83949440Y-56261000D01*
X83949440Y-55491000D01*
X83905162Y-55255683D01*
X83766090Y-55039559D01*
X83697994Y-54993031D01*
X83840327Y-54850698D01*
X83937000Y-54617309D01*
X83937000Y-54276750D01*
X83778250Y-54118000D01*
X82804000Y-54118000D01*
X82804000Y-54138000D01*
X82550000Y-54138000D01*
X82550000Y-54118000D01*
X81575750Y-54118000D01*
X81417000Y-54276750D01*
X81417000Y-54617309D01*
X81513673Y-54850698D01*
X81654910Y-54991936D01*
X81600559Y-55026910D01*
X81549252Y-55102000D01*
X81444558Y-55102000D01*
X81176564Y-54833539D01*
X80667702Y-54622241D01*
X80116715Y-54621760D01*
X79607485Y-54832169D01*
X79351849Y-55087360D01*
X79321090Y-55039559D01*
X79252994Y-54993031D01*
X79395327Y-54850698D01*
X79492000Y-54617309D01*
X79492000Y-54276750D01*
X79333250Y-54118000D01*
X78359000Y-54118000D01*
X78359000Y-54138000D01*
X78105000Y-54138000D01*
X78105000Y-54118000D01*
X77130750Y-54118000D01*
X76972000Y-54276750D01*
X76972000Y-54617309D01*
X77068673Y-54850698D01*
X77209910Y-54991936D01*
X77155559Y-55026910D01*
X77010569Y-55239110D01*
X76988870Y-55346264D01*
X76416803Y-54774197D01*
X76374789Y-54746334D01*
X76327000Y-54737000D01*
X69521606Y-54737000D01*
X68453000Y-53668394D01*
X68453000Y-53364691D01*
X76972000Y-53364691D01*
X76972000Y-53705250D01*
X77130750Y-53864000D01*
X78105000Y-53864000D01*
X78105000Y-53014750D01*
X78359000Y-53014750D01*
X78359000Y-53864000D01*
X79333250Y-53864000D01*
X79492000Y-53705250D01*
X79492000Y-53364691D01*
X81417000Y-53364691D01*
X81417000Y-53705250D01*
X81575750Y-53864000D01*
X82550000Y-53864000D01*
X82550000Y-53014750D01*
X82804000Y-53014750D01*
X82804000Y-53864000D01*
X83778250Y-53864000D01*
X83937000Y-53705250D01*
X83937000Y-53364691D01*
X83840327Y-53131302D01*
X83661699Y-52952673D01*
X83428310Y-52856000D01*
X82962750Y-52856000D01*
X82804000Y-53014750D01*
X82550000Y-53014750D01*
X82391250Y-52856000D01*
X81925690Y-52856000D01*
X81692301Y-52952673D01*
X81513673Y-53131302D01*
X81417000Y-53364691D01*
X79492000Y-53364691D01*
X79395327Y-53131302D01*
X79216699Y-52952673D01*
X78983310Y-52856000D01*
X78517750Y-52856000D01*
X78359000Y-53014750D01*
X78105000Y-53014750D01*
X77946250Y-52856000D01*
X77480690Y-52856000D01*
X77247301Y-52952673D01*
X77068673Y-53131302D01*
X76972000Y-53364691D01*
X68453000Y-53364691D01*
X68453000Y-49615744D01*
X71370197Y-49615744D01*
X71370602Y-49642146D01*
X71586276Y-50054118D01*
X71943187Y-50352196D01*
X72387000Y-50491000D01*
X73087000Y-50491000D01*
X73087000Y-49433000D01*
X73341000Y-49433000D01*
X73341000Y-50491000D01*
X74041000Y-50491000D01*
X74484813Y-50352196D01*
X74841724Y-50054118D01*
X75057398Y-49642146D01*
X75057803Y-49615744D01*
X74932361Y-49433000D01*
X73341000Y-49433000D01*
X73087000Y-49433000D01*
X71495639Y-49433000D01*
X71370197Y-49615744D01*
X68453000Y-49615744D01*
X68453000Y-49329972D01*
X68483461Y-49299564D01*
X68694759Y-48790702D01*
X68695240Y-48239715D01*
X68484831Y-47730485D01*
X68453000Y-47698598D01*
X68453000Y-44323000D01*
X68442994Y-44273590D01*
X68415803Y-44233197D01*
X66314248Y-42131642D01*
X66280090Y-42078559D01*
X66220339Y-42037733D01*
X65494803Y-41312197D01*
X65452789Y-41284334D01*
X65405000Y-41275000D01*
X50090606Y-41275000D01*
X48090356Y-39274750D01*
X62581000Y-39274750D01*
X62581000Y-39765310D01*
X62677673Y-39998699D01*
X62856302Y-40177327D01*
X63089691Y-40274000D01*
X63280250Y-40274000D01*
X63439000Y-40115250D01*
X63439000Y-39116000D01*
X62739750Y-39116000D01*
X62581000Y-39274750D01*
X48090356Y-39274750D01*
X47879000Y-39063394D01*
X47879000Y-35813310D01*
X47975673Y-36046699D01*
X48154302Y-36225327D01*
X48387691Y-36322000D01*
X48736250Y-36322000D01*
X48895000Y-36163250D01*
X48895000Y-34798000D01*
X48875000Y-34798000D01*
X48875000Y-34544000D01*
X48895000Y-34544000D01*
X48895000Y-33178750D01*
X49149000Y-33178750D01*
X49149000Y-34544000D01*
X49169000Y-34544000D01*
X49169000Y-34798000D01*
X49149000Y-34798000D01*
X49149000Y-36163250D01*
X49307750Y-36322000D01*
X49656309Y-36322000D01*
X49889698Y-36225327D01*
X50068327Y-36046699D01*
X50165000Y-35813310D01*
X50165000Y-35753113D01*
X50187000Y-35870033D01*
X50187000Y-36500066D01*
X50134539Y-36552436D01*
X49923241Y-37061298D01*
X49922760Y-37612285D01*
X50133169Y-38121515D01*
X50522436Y-38511461D01*
X51031298Y-38722759D01*
X51582285Y-38723240D01*
X52091515Y-38512831D01*
X52392179Y-38212690D01*
X62581000Y-38212690D01*
X62581000Y-38703250D01*
X62739750Y-38862000D01*
X63439000Y-38862000D01*
X63439000Y-37862750D01*
X63280250Y-37704000D01*
X63089691Y-37704000D01*
X62856302Y-37800673D01*
X62677673Y-37979301D01*
X62581000Y-38212690D01*
X52392179Y-38212690D01*
X52481461Y-38123564D01*
X52692759Y-37614702D01*
X52693240Y-37063715D01*
X52482831Y-36554485D01*
X52457000Y-36528609D01*
X52457000Y-35718802D01*
X52463440Y-35687000D01*
X52463440Y-34321750D01*
X62581000Y-34321750D01*
X62581000Y-34812310D01*
X62677673Y-35045699D01*
X62856302Y-35224327D01*
X63089691Y-35321000D01*
X63280250Y-35321000D01*
X63439000Y-35162250D01*
X63439000Y-34163000D01*
X62739750Y-34163000D01*
X62581000Y-34321750D01*
X52463440Y-34321750D01*
X52463440Y-33655000D01*
X52419162Y-33419683D01*
X52316210Y-33259690D01*
X62581000Y-33259690D01*
X62581000Y-33750250D01*
X62739750Y-33909000D01*
X63439000Y-33909000D01*
X63439000Y-32909750D01*
X63280250Y-32751000D01*
X63089691Y-32751000D01*
X62856302Y-32847673D01*
X62677673Y-33026301D01*
X62581000Y-33259690D01*
X52316210Y-33259690D01*
X52280090Y-33203559D01*
X52067890Y-33058569D01*
X51816000Y-33007560D01*
X50800000Y-33007560D01*
X50564683Y-33051838D01*
X50348559Y-33190910D01*
X50203569Y-33403110D01*
X50165000Y-33593569D01*
X50165000Y-33528690D01*
X50068327Y-33295301D01*
X49889698Y-33116673D01*
X49656309Y-33020000D01*
X49307750Y-33020000D01*
X49149000Y-33178750D01*
X48895000Y-33178750D01*
X48736250Y-33020000D01*
X48387691Y-33020000D01*
X48154302Y-33116673D01*
X47975673Y-33295301D01*
X47879000Y-33528690D01*
X47879000Y-32512000D01*
X47868994Y-32462590D01*
X47841803Y-32422197D01*
X43772356Y-28352750D01*
X46558200Y-28352750D01*
X46558200Y-29209310D01*
X46654873Y-29442699D01*
X46833502Y-29621327D01*
X47066891Y-29718000D01*
X48736250Y-29718000D01*
X48895000Y-29559250D01*
X48895000Y-28194000D01*
X49149000Y-28194000D01*
X49149000Y-29559250D01*
X49307750Y-29718000D01*
X50977109Y-29718000D01*
X51210498Y-29621327D01*
X51389127Y-29442699D01*
X51485800Y-29209310D01*
X51485800Y-28352750D01*
X51327050Y-28194000D01*
X49149000Y-28194000D01*
X48895000Y-28194000D01*
X46716950Y-28194000D01*
X46558200Y-28352750D01*
X43772356Y-28352750D01*
X42344296Y-26924690D01*
X46558200Y-26924690D01*
X46558200Y-27781250D01*
X46716950Y-27940000D01*
X48895000Y-27940000D01*
X48895000Y-26574750D01*
X49149000Y-26574750D01*
X49149000Y-27940000D01*
X51327050Y-27940000D01*
X51485800Y-27781250D01*
X51485800Y-26924690D01*
X51389127Y-26691301D01*
X51210498Y-26512673D01*
X50977109Y-26416000D01*
X49307750Y-26416000D01*
X49149000Y-26574750D01*
X48895000Y-26574750D01*
X48736250Y-26416000D01*
X47066891Y-26416000D01*
X46833502Y-26512673D01*
X46654873Y-26691301D01*
X46558200Y-26924690D01*
X42344296Y-26924690D01*
X41745803Y-26326197D01*
X41703789Y-26298334D01*
X41656000Y-26289000D01*
X35941000Y-26289000D01*
X35941000Y-20701000D01*
X62177394Y-20701000D01*
X64389000Y-22912606D01*
X64389000Y-22912606D01*
G37*
X64389000Y-22912606D02*
X64389000Y-32960974D01*
X64275698Y-32847673D01*
X64042309Y-32751000D01*
X63851750Y-32751000D01*
X63693000Y-32909750D01*
X63693000Y-33909000D01*
X63713000Y-33909000D01*
X63713000Y-34163000D01*
X63693000Y-34163000D01*
X63693000Y-35162250D01*
X63851750Y-35321000D01*
X64042309Y-35321000D01*
X64275698Y-35224327D01*
X64389000Y-35111026D01*
X64389000Y-37913974D01*
X64275698Y-37800673D01*
X64042309Y-37704000D01*
X63851750Y-37704000D01*
X63693000Y-37862750D01*
X63693000Y-38862000D01*
X63713000Y-38862000D01*
X63713000Y-39116000D01*
X63693000Y-39116000D01*
X63693000Y-40115250D01*
X63851750Y-40274000D01*
X64042309Y-40274000D01*
X64275698Y-40177327D01*
X64454327Y-39998699D01*
X64492334Y-39906940D01*
X64608728Y-40023334D01*
X64651910Y-40090441D01*
X64727448Y-40142054D01*
X65315197Y-40729803D01*
X65357211Y-40757666D01*
X65405000Y-40767000D01*
X66792533Y-40767000D01*
X67071394Y-40953329D01*
X67411600Y-41021000D01*
X69670394Y-41021000D01*
X70485000Y-41835606D01*
X70485000Y-47498000D01*
X70495006Y-47547410D01*
X70522197Y-47587803D01*
X71284197Y-48349803D01*
X71326211Y-48377666D01*
X71374000Y-48387000D01*
X71790886Y-48387000D01*
X71586276Y-48557882D01*
X71370602Y-48969854D01*
X71370197Y-48996256D01*
X71495639Y-49179000D01*
X73087000Y-49179000D01*
X73087000Y-49159000D01*
X73341000Y-49159000D01*
X73341000Y-49179000D01*
X74932361Y-49179000D01*
X75057803Y-48996256D01*
X75057398Y-48969854D01*
X74841724Y-48557882D01*
X74637114Y-48387000D01*
X83767394Y-48387000D01*
X90080197Y-54699803D01*
X90122211Y-54727666D01*
X90170000Y-54737000D01*
X91258974Y-54737000D01*
X91319301Y-54797327D01*
X91552690Y-54894000D01*
X92043250Y-54894000D01*
X92200250Y-54737000D01*
X92457750Y-54737000D01*
X92614750Y-54894000D01*
X93105310Y-54894000D01*
X93338699Y-54797327D01*
X93399026Y-54737000D01*
X94560974Y-54737000D01*
X94621301Y-54797327D01*
X94854690Y-54894000D01*
X95345250Y-54894000D01*
X95502250Y-54737000D01*
X95759750Y-54737000D01*
X95916750Y-54894000D01*
X96407310Y-54894000D01*
X96640699Y-54797327D01*
X96701026Y-54737000D01*
X98753394Y-54737000D01*
X100520095Y-56503701D01*
X100315894Y-56496494D01*
X100266162Y-56504751D01*
X100223560Y-56531706D01*
X100194802Y-56573112D01*
X100184419Y-56622444D01*
X100194046Y-56671929D01*
X100221612Y-56713218D01*
X100494197Y-56985803D01*
X100536211Y-57013666D01*
X100584000Y-57023000D01*
X103579394Y-57023000D01*
X103542197Y-57060197D01*
X103514334Y-57102211D01*
X103505012Y-57151754D01*
X103515700Y-57201022D01*
X103544713Y-57242249D01*
X103587480Y-57268941D01*
X103632000Y-57277000D01*
X104013000Y-57277000D01*
X104013000Y-57351394D01*
X103325394Y-58039000D01*
X94234647Y-58039000D01*
X93957339Y-58038758D01*
X93956753Y-58039000D01*
X92889606Y-58039000D01*
X91148803Y-56298197D01*
X91106789Y-56270334D01*
X91059000Y-56261000D01*
X83949440Y-56261000D01*
X83949440Y-55491000D01*
X83905162Y-55255683D01*
X83766090Y-55039559D01*
X83697994Y-54993031D01*
X83840327Y-54850698D01*
X83937000Y-54617309D01*
X83937000Y-54276750D01*
X83778250Y-54118000D01*
X82804000Y-54118000D01*
X82804000Y-54138000D01*
X82550000Y-54138000D01*
X82550000Y-54118000D01*
X81575750Y-54118000D01*
X81417000Y-54276750D01*
X81417000Y-54617309D01*
X81513673Y-54850698D01*
X81654910Y-54991936D01*
X81600559Y-55026910D01*
X81549252Y-55102000D01*
X81444558Y-55102000D01*
X81176564Y-54833539D01*
X80667702Y-54622241D01*
X80116715Y-54621760D01*
X79607485Y-54832169D01*
X79351849Y-55087360D01*
X79321090Y-55039559D01*
X79252994Y-54993031D01*
X79395327Y-54850698D01*
X79492000Y-54617309D01*
X79492000Y-54276750D01*
X79333250Y-54118000D01*
X78359000Y-54118000D01*
X78359000Y-54138000D01*
X78105000Y-54138000D01*
X78105000Y-54118000D01*
X77130750Y-54118000D01*
X76972000Y-54276750D01*
X76972000Y-54617309D01*
X77068673Y-54850698D01*
X77209910Y-54991936D01*
X77155559Y-55026910D01*
X77010569Y-55239110D01*
X76988870Y-55346264D01*
X76416803Y-54774197D01*
X76374789Y-54746334D01*
X76327000Y-54737000D01*
X69521606Y-54737000D01*
X68453000Y-53668394D01*
X68453000Y-53364691D01*
X76972000Y-53364691D01*
X76972000Y-53705250D01*
X77130750Y-53864000D01*
X78105000Y-53864000D01*
X78105000Y-53014750D01*
X78359000Y-53014750D01*
X78359000Y-53864000D01*
X79333250Y-53864000D01*
X79492000Y-53705250D01*
X79492000Y-53364691D01*
X81417000Y-53364691D01*
X81417000Y-53705250D01*
X81575750Y-53864000D01*
X82550000Y-53864000D01*
X82550000Y-53014750D01*
X82804000Y-53014750D01*
X82804000Y-53864000D01*
X83778250Y-53864000D01*
X83937000Y-53705250D01*
X83937000Y-53364691D01*
X83840327Y-53131302D01*
X83661699Y-52952673D01*
X83428310Y-52856000D01*
X82962750Y-52856000D01*
X82804000Y-53014750D01*
X82550000Y-53014750D01*
X82391250Y-52856000D01*
X81925690Y-52856000D01*
X81692301Y-52952673D01*
X81513673Y-53131302D01*
X81417000Y-53364691D01*
X79492000Y-53364691D01*
X79395327Y-53131302D01*
X79216699Y-52952673D01*
X78983310Y-52856000D01*
X78517750Y-52856000D01*
X78359000Y-53014750D01*
X78105000Y-53014750D01*
X77946250Y-52856000D01*
X77480690Y-52856000D01*
X77247301Y-52952673D01*
X77068673Y-53131302D01*
X76972000Y-53364691D01*
X68453000Y-53364691D01*
X68453000Y-49615744D01*
X71370197Y-49615744D01*
X71370602Y-49642146D01*
X71586276Y-50054118D01*
X71943187Y-50352196D01*
X72387000Y-50491000D01*
X73087000Y-50491000D01*
X73087000Y-49433000D01*
X73341000Y-49433000D01*
X73341000Y-50491000D01*
X74041000Y-50491000D01*
X74484813Y-50352196D01*
X74841724Y-50054118D01*
X75057398Y-49642146D01*
X75057803Y-49615744D01*
X74932361Y-49433000D01*
X73341000Y-49433000D01*
X73087000Y-49433000D01*
X71495639Y-49433000D01*
X71370197Y-49615744D01*
X68453000Y-49615744D01*
X68453000Y-49329972D01*
X68483461Y-49299564D01*
X68694759Y-48790702D01*
X68695240Y-48239715D01*
X68484831Y-47730485D01*
X68453000Y-47698598D01*
X68453000Y-44323000D01*
X68442994Y-44273590D01*
X68415803Y-44233197D01*
X66314248Y-42131642D01*
X66280090Y-42078559D01*
X66220339Y-42037733D01*
X65494803Y-41312197D01*
X65452789Y-41284334D01*
X65405000Y-41275000D01*
X50090606Y-41275000D01*
X48090356Y-39274750D01*
X62581000Y-39274750D01*
X62581000Y-39765310D01*
X62677673Y-39998699D01*
X62856302Y-40177327D01*
X63089691Y-40274000D01*
X63280250Y-40274000D01*
X63439000Y-40115250D01*
X63439000Y-39116000D01*
X62739750Y-39116000D01*
X62581000Y-39274750D01*
X48090356Y-39274750D01*
X47879000Y-39063394D01*
X47879000Y-35813310D01*
X47975673Y-36046699D01*
X48154302Y-36225327D01*
X48387691Y-36322000D01*
X48736250Y-36322000D01*
X48895000Y-36163250D01*
X48895000Y-34798000D01*
X48875000Y-34798000D01*
X48875000Y-34544000D01*
X48895000Y-34544000D01*
X48895000Y-33178750D01*
X49149000Y-33178750D01*
X49149000Y-34544000D01*
X49169000Y-34544000D01*
X49169000Y-34798000D01*
X49149000Y-34798000D01*
X49149000Y-36163250D01*
X49307750Y-36322000D01*
X49656309Y-36322000D01*
X49889698Y-36225327D01*
X50068327Y-36046699D01*
X50165000Y-35813310D01*
X50165000Y-35753113D01*
X50187000Y-35870033D01*
X50187000Y-36500066D01*
X50134539Y-36552436D01*
X49923241Y-37061298D01*
X49922760Y-37612285D01*
X50133169Y-38121515D01*
X50522436Y-38511461D01*
X51031298Y-38722759D01*
X51582285Y-38723240D01*
X52091515Y-38512831D01*
X52392179Y-38212690D01*
X62581000Y-38212690D01*
X62581000Y-38703250D01*
X62739750Y-38862000D01*
X63439000Y-38862000D01*
X63439000Y-37862750D01*
X63280250Y-37704000D01*
X63089691Y-37704000D01*
X62856302Y-37800673D01*
X62677673Y-37979301D01*
X62581000Y-38212690D01*
X52392179Y-38212690D01*
X52481461Y-38123564D01*
X52692759Y-37614702D01*
X52693240Y-37063715D01*
X52482831Y-36554485D01*
X52457000Y-36528609D01*
X52457000Y-35718802D01*
X52463440Y-35687000D01*
X52463440Y-34321750D01*
X62581000Y-34321750D01*
X62581000Y-34812310D01*
X62677673Y-35045699D01*
X62856302Y-35224327D01*
X63089691Y-35321000D01*
X63280250Y-35321000D01*
X63439000Y-35162250D01*
X63439000Y-34163000D01*
X62739750Y-34163000D01*
X62581000Y-34321750D01*
X52463440Y-34321750D01*
X52463440Y-33655000D01*
X52419162Y-33419683D01*
X52316210Y-33259690D01*
X62581000Y-33259690D01*
X62581000Y-33750250D01*
X62739750Y-33909000D01*
X63439000Y-33909000D01*
X63439000Y-32909750D01*
X63280250Y-32751000D01*
X63089691Y-32751000D01*
X62856302Y-32847673D01*
X62677673Y-33026301D01*
X62581000Y-33259690D01*
X52316210Y-33259690D01*
X52280090Y-33203559D01*
X52067890Y-33058569D01*
X51816000Y-33007560D01*
X50800000Y-33007560D01*
X50564683Y-33051838D01*
X50348559Y-33190910D01*
X50203569Y-33403110D01*
X50165000Y-33593569D01*
X50165000Y-33528690D01*
X50068327Y-33295301D01*
X49889698Y-33116673D01*
X49656309Y-33020000D01*
X49307750Y-33020000D01*
X49149000Y-33178750D01*
X48895000Y-33178750D01*
X48736250Y-33020000D01*
X48387691Y-33020000D01*
X48154302Y-33116673D01*
X47975673Y-33295301D01*
X47879000Y-33528690D01*
X47879000Y-32512000D01*
X47868994Y-32462590D01*
X47841803Y-32422197D01*
X43772356Y-28352750D01*
X46558200Y-28352750D01*
X46558200Y-29209310D01*
X46654873Y-29442699D01*
X46833502Y-29621327D01*
X47066891Y-29718000D01*
X48736250Y-29718000D01*
X48895000Y-29559250D01*
X48895000Y-28194000D01*
X49149000Y-28194000D01*
X49149000Y-29559250D01*
X49307750Y-29718000D01*
X50977109Y-29718000D01*
X51210498Y-29621327D01*
X51389127Y-29442699D01*
X51485800Y-29209310D01*
X51485800Y-28352750D01*
X51327050Y-28194000D01*
X49149000Y-28194000D01*
X48895000Y-28194000D01*
X46716950Y-28194000D01*
X46558200Y-28352750D01*
X43772356Y-28352750D01*
X42344296Y-26924690D01*
X46558200Y-26924690D01*
X46558200Y-27781250D01*
X46716950Y-27940000D01*
X48895000Y-27940000D01*
X48895000Y-26574750D01*
X49149000Y-26574750D01*
X49149000Y-27940000D01*
X51327050Y-27940000D01*
X51485800Y-27781250D01*
X51485800Y-26924690D01*
X51389127Y-26691301D01*
X51210498Y-26512673D01*
X50977109Y-26416000D01*
X49307750Y-26416000D01*
X49149000Y-26574750D01*
X48895000Y-26574750D01*
X48736250Y-26416000D01*
X47066891Y-26416000D01*
X46833502Y-26512673D01*
X46654873Y-26691301D01*
X46558200Y-26924690D01*
X42344296Y-26924690D01*
X41745803Y-26326197D01*
X41703789Y-26298334D01*
X41656000Y-26289000D01*
X35941000Y-26289000D01*
X35941000Y-20701000D01*
X62177394Y-20701000D01*
X64389000Y-22912606D01*
G36*
X46863000Y-33072606D02*
X46863000Y-39370000D01*
X46873006Y-39419410D01*
X46900197Y-39459803D01*
X48387000Y-40946606D01*
X48387000Y-44958000D01*
X48397006Y-45007410D01*
X48424197Y-45047803D01*
X49589394Y-46213000D01*
X49468998Y-46213000D01*
X49468998Y-46371748D01*
X49310250Y-46213000D01*
X49119691Y-46213000D01*
X48886302Y-46309673D01*
X48707673Y-46488301D01*
X48611000Y-46721690D01*
X48611000Y-47212250D01*
X48769750Y-47371000D01*
X49469000Y-47371000D01*
X49469000Y-47351000D01*
X49723000Y-47351000D01*
X49723000Y-47371000D01*
X49743000Y-47371000D01*
X49743000Y-47625000D01*
X49723000Y-47625000D01*
X49723000Y-48624250D01*
X49881750Y-48783000D01*
X50072309Y-48783000D01*
X50165000Y-48744606D01*
X50165000Y-50764683D01*
X50122310Y-50747000D01*
X49881750Y-50747000D01*
X49723000Y-50905750D01*
X49723000Y-51705000D01*
X49743000Y-51705000D01*
X49743000Y-51959000D01*
X49723000Y-51959000D01*
X49723000Y-51979000D01*
X49469000Y-51979000D01*
X49469000Y-51959000D01*
X48719750Y-51959000D01*
X48561000Y-52117750D01*
X48561000Y-52191394D01*
X47625297Y-51255691D01*
X48561000Y-51255691D01*
X48561000Y-51546250D01*
X48719750Y-51705000D01*
X49469000Y-51705000D01*
X49469000Y-50905750D01*
X49310250Y-50747000D01*
X49069690Y-50747000D01*
X48836301Y-50843673D01*
X48657673Y-51022302D01*
X48561000Y-51255691D01*
X47625297Y-51255691D01*
X47371000Y-51001394D01*
X47371000Y-47783750D01*
X48611000Y-47783750D01*
X48611000Y-48274310D01*
X48707673Y-48507699D01*
X48886302Y-48686327D01*
X49119691Y-48783000D01*
X49310250Y-48783000D01*
X49469000Y-48624250D01*
X49469000Y-47625000D01*
X48769750Y-47625000D01*
X48611000Y-47783750D01*
X47371000Y-47783750D01*
X47371000Y-43995972D01*
X47401461Y-43965564D01*
X47612759Y-43456702D01*
X47613240Y-42905715D01*
X47402831Y-42396485D01*
X47013564Y-42006539D01*
X47011137Y-42005531D01*
X46571803Y-41566197D01*
X46529789Y-41538334D01*
X46482000Y-41529000D01*
X41402000Y-41529000D01*
X41352590Y-41539006D01*
X41310965Y-41567447D01*
X41283685Y-41609841D01*
X41275000Y-41656000D01*
X41275000Y-44704000D01*
X41285006Y-44753410D01*
X41312197Y-44793803D01*
X42750572Y-46232178D01*
X42611000Y-46371750D01*
X42611000Y-47371000D01*
X42631000Y-47371000D01*
X42631000Y-47625000D01*
X42611000Y-47625000D01*
X42611000Y-48624250D01*
X42769750Y-48783000D01*
X42960309Y-48783000D01*
X43053000Y-48744606D01*
X43053000Y-50764683D01*
X43010310Y-50747000D01*
X42769750Y-50747000D01*
X42611000Y-50905750D01*
X42611000Y-51705000D01*
X42631000Y-51705000D01*
X42631000Y-51959000D01*
X42611000Y-51959000D01*
X42611000Y-51979000D01*
X42357000Y-51979000D01*
X42357000Y-51959000D01*
X41607750Y-51959000D01*
X41449000Y-52117750D01*
X41449000Y-52191394D01*
X40513297Y-51255691D01*
X41449000Y-51255691D01*
X41449000Y-51546250D01*
X41607750Y-51705000D01*
X42357000Y-51705000D01*
X42357000Y-50905750D01*
X42198250Y-50747000D01*
X41957690Y-50747000D01*
X41724301Y-50843673D01*
X41545673Y-51022302D01*
X41449000Y-51255691D01*
X40513297Y-51255691D01*
X40259000Y-51001394D01*
X40259000Y-47783750D01*
X41499000Y-47783750D01*
X41499000Y-48274310D01*
X41595673Y-48507699D01*
X41774302Y-48686327D01*
X42007691Y-48783000D01*
X42198250Y-48783000D01*
X42357000Y-48624250D01*
X42357000Y-47625000D01*
X41657750Y-47625000D01*
X41499000Y-47783750D01*
X40259000Y-47783750D01*
X40259000Y-46721690D01*
X41499000Y-46721690D01*
X41499000Y-47212250D01*
X41657750Y-47371000D01*
X42357000Y-47371000D01*
X42357000Y-46371750D01*
X42198250Y-46213000D01*
X42007691Y-46213000D01*
X41774302Y-46309673D01*
X41595673Y-46488301D01*
X41499000Y-46721690D01*
X40259000Y-46721690D01*
X40259000Y-40946606D01*
X40983803Y-40221803D01*
X41011666Y-40179789D01*
X41021000Y-40132000D01*
X41021000Y-34956750D01*
X45593000Y-34956750D01*
X45593000Y-35813310D01*
X45689673Y-36046699D01*
X45868302Y-36225327D01*
X46101691Y-36322000D01*
X46450250Y-36322000D01*
X46609000Y-36163250D01*
X46609000Y-34798000D01*
X45751750Y-34798000D01*
X45593000Y-34956750D01*
X41021000Y-34956750D01*
X41021000Y-33528690D01*
X45593000Y-33528690D01*
X45593000Y-34385250D01*
X45751750Y-34544000D01*
X46609000Y-34544000D01*
X46609000Y-33178750D01*
X46450250Y-33020000D01*
X46101691Y-33020000D01*
X45868302Y-33116673D01*
X45689673Y-33295301D01*
X45593000Y-33528690D01*
X41021000Y-33528690D01*
X41021000Y-32512000D01*
X41010994Y-32462590D01*
X40983803Y-32422197D01*
X39459803Y-30898197D01*
X39417789Y-30870334D01*
X39370000Y-30861000D01*
X34290000Y-30861000D01*
X34240590Y-30871006D01*
X34200197Y-30898197D01*
X32930197Y-32168197D01*
X32902334Y-32210211D01*
X32893000Y-32258000D01*
X32893000Y-35761394D01*
X29374197Y-39280197D01*
X29346334Y-39322211D01*
X29337000Y-39370000D01*
X29337000Y-43889394D01*
X25601394Y-47625000D01*
X20626606Y-47625000D01*
X19324926Y-46323320D01*
X20356285Y-46323320D01*
X20485533Y-46616123D01*
X21185806Y-46884388D01*
X21935435Y-46864250D01*
X22534467Y-46616123D01*
X22663715Y-46323320D01*
X21510000Y-45169605D01*
X20356285Y-46323320D01*
X19324926Y-46323320D01*
X18923000Y-45921394D01*
X18923000Y-44665806D01*
X19615612Y-44665806D01*
X19635750Y-45415435D01*
X19883877Y-46014467D01*
X20176680Y-46143715D01*
X21330395Y-44990000D01*
X21689605Y-44990000D01*
X22843320Y-46143715D01*
X23136123Y-46014467D01*
X23404388Y-45314194D01*
X23399932Y-45148320D01*
X24246285Y-45148320D01*
X24375533Y-45441123D01*
X25075806Y-45709388D01*
X25825435Y-45689250D01*
X26424467Y-45441123D01*
X26553715Y-45148320D01*
X25400000Y-43994605D01*
X24246285Y-45148320D01*
X23399932Y-45148320D01*
X23384250Y-44564565D01*
X23136123Y-43965533D01*
X22843320Y-43836285D01*
X21689605Y-44990000D01*
X21330395Y-44990000D01*
X20176680Y-43836285D01*
X19883877Y-43965533D01*
X19615612Y-44665806D01*
X18923000Y-44665806D01*
X18923000Y-43740606D01*
X19006926Y-43656680D01*
X20356285Y-43656680D01*
X21510000Y-44810395D01*
X22663715Y-43656680D01*
X22590496Y-43490806D01*
X23505612Y-43490806D01*
X23525750Y-44240435D01*
X23773877Y-44839467D01*
X24066680Y-44968715D01*
X25220395Y-43815000D01*
X25579605Y-43815000D01*
X26733320Y-44968715D01*
X27026123Y-44839467D01*
X27294388Y-44139194D01*
X27274250Y-43389565D01*
X27026123Y-42790533D01*
X26733320Y-42661285D01*
X25579605Y-43815000D01*
X25220395Y-43815000D01*
X24066680Y-42661285D01*
X23773877Y-42790533D01*
X23505612Y-43490806D01*
X22590496Y-43490806D01*
X22534467Y-43363877D01*
X21834194Y-43095612D01*
X21084565Y-43115750D01*
X20485533Y-43363877D01*
X20356285Y-43656680D01*
X19006926Y-43656680D01*
X20181926Y-42481680D01*
X24246285Y-42481680D01*
X25400000Y-43635395D01*
X26553715Y-42481680D01*
X26424467Y-42188877D01*
X25724194Y-41920612D01*
X24974565Y-41940750D01*
X24375533Y-42188877D01*
X24246285Y-42481680D01*
X20181926Y-42481680D01*
X24981803Y-37681803D01*
X25009666Y-37639789D01*
X25019000Y-37592000D01*
X25019000Y-34575750D01*
X26384250Y-34575750D01*
X26384250Y-35616460D01*
X26480923Y-35849849D01*
X26659552Y-36028477D01*
X26892941Y-36125150D01*
X28733750Y-36125150D01*
X28892500Y-35966400D01*
X28892500Y-34417000D01*
X29146500Y-34417000D01*
X29146500Y-35966400D01*
X29305250Y-36125150D01*
X31146059Y-36125150D01*
X31379448Y-36028477D01*
X31558077Y-35849849D01*
X31654750Y-35616460D01*
X31654750Y-34575750D01*
X31496000Y-34417000D01*
X29146500Y-34417000D01*
X28892500Y-34417000D01*
X26543000Y-34417000D01*
X26384250Y-34575750D01*
X25019000Y-34575750D01*
X25019000Y-32963540D01*
X26384250Y-32963540D01*
X26384250Y-34004250D01*
X26543000Y-34163000D01*
X28892500Y-34163000D01*
X28892500Y-32613600D01*
X29146500Y-32613600D01*
X29146500Y-34163000D01*
X31496000Y-34163000D01*
X31654750Y-34004250D01*
X31654750Y-32963540D01*
X31558077Y-32730151D01*
X31379448Y-32551523D01*
X31146059Y-32454850D01*
X29305250Y-32454850D01*
X29146500Y-32613600D01*
X28892500Y-32613600D01*
X28733750Y-32454850D01*
X26892941Y-32454850D01*
X26659552Y-32551523D01*
X26480923Y-32730151D01*
X26384250Y-32963540D01*
X25019000Y-32963540D01*
X25019000Y-29008606D01*
X26722606Y-27305000D01*
X41095394Y-27305000D01*
X46863000Y-33072606D01*
X46863000Y-33072606D01*
G37*
X46863000Y-33072606D02*
X46863000Y-39370000D01*
X46873006Y-39419410D01*
X46900197Y-39459803D01*
X48387000Y-40946606D01*
X48387000Y-44958000D01*
X48397006Y-45007410D01*
X48424197Y-45047803D01*
X49589394Y-46213000D01*
X49468998Y-46213000D01*
X49468998Y-46371748D01*
X49310250Y-46213000D01*
X49119691Y-46213000D01*
X48886302Y-46309673D01*
X48707673Y-46488301D01*
X48611000Y-46721690D01*
X48611000Y-47212250D01*
X48769750Y-47371000D01*
X49469000Y-47371000D01*
X49469000Y-47351000D01*
X49723000Y-47351000D01*
X49723000Y-47371000D01*
X49743000Y-47371000D01*
X49743000Y-47625000D01*
X49723000Y-47625000D01*
X49723000Y-48624250D01*
X49881750Y-48783000D01*
X50072309Y-48783000D01*
X50165000Y-48744606D01*
X50165000Y-50764683D01*
X50122310Y-50747000D01*
X49881750Y-50747000D01*
X49723000Y-50905750D01*
X49723000Y-51705000D01*
X49743000Y-51705000D01*
X49743000Y-51959000D01*
X49723000Y-51959000D01*
X49723000Y-51979000D01*
X49469000Y-51979000D01*
X49469000Y-51959000D01*
X48719750Y-51959000D01*
X48561000Y-52117750D01*
X48561000Y-52191394D01*
X47625297Y-51255691D01*
X48561000Y-51255691D01*
X48561000Y-51546250D01*
X48719750Y-51705000D01*
X49469000Y-51705000D01*
X49469000Y-50905750D01*
X49310250Y-50747000D01*
X49069690Y-50747000D01*
X48836301Y-50843673D01*
X48657673Y-51022302D01*
X48561000Y-51255691D01*
X47625297Y-51255691D01*
X47371000Y-51001394D01*
X47371000Y-47783750D01*
X48611000Y-47783750D01*
X48611000Y-48274310D01*
X48707673Y-48507699D01*
X48886302Y-48686327D01*
X49119691Y-48783000D01*
X49310250Y-48783000D01*
X49469000Y-48624250D01*
X49469000Y-47625000D01*
X48769750Y-47625000D01*
X48611000Y-47783750D01*
X47371000Y-47783750D01*
X47371000Y-43995972D01*
X47401461Y-43965564D01*
X47612759Y-43456702D01*
X47613240Y-42905715D01*
X47402831Y-42396485D01*
X47013564Y-42006539D01*
X47011137Y-42005531D01*
X46571803Y-41566197D01*
X46529789Y-41538334D01*
X46482000Y-41529000D01*
X41402000Y-41529000D01*
X41352590Y-41539006D01*
X41310965Y-41567447D01*
X41283685Y-41609841D01*
X41275000Y-41656000D01*
X41275000Y-44704000D01*
X41285006Y-44753410D01*
X41312197Y-44793803D01*
X42750572Y-46232178D01*
X42611000Y-46371750D01*
X42611000Y-47371000D01*
X42631000Y-47371000D01*
X42631000Y-47625000D01*
X42611000Y-47625000D01*
X42611000Y-48624250D01*
X42769750Y-48783000D01*
X42960309Y-48783000D01*
X43053000Y-48744606D01*
X43053000Y-50764683D01*
X43010310Y-50747000D01*
X42769750Y-50747000D01*
X42611000Y-50905750D01*
X42611000Y-51705000D01*
X42631000Y-51705000D01*
X42631000Y-51959000D01*
X42611000Y-51959000D01*
X42611000Y-51979000D01*
X42357000Y-51979000D01*
X42357000Y-51959000D01*
X41607750Y-51959000D01*
X41449000Y-52117750D01*
X41449000Y-52191394D01*
X40513297Y-51255691D01*
X41449000Y-51255691D01*
X41449000Y-51546250D01*
X41607750Y-51705000D01*
X42357000Y-51705000D01*
X42357000Y-50905750D01*
X42198250Y-50747000D01*
X41957690Y-50747000D01*
X41724301Y-50843673D01*
X41545673Y-51022302D01*
X41449000Y-51255691D01*
X40513297Y-51255691D01*
X40259000Y-51001394D01*
X40259000Y-47783750D01*
X41499000Y-47783750D01*
X41499000Y-48274310D01*
X41595673Y-48507699D01*
X41774302Y-48686327D01*
X42007691Y-48783000D01*
X42198250Y-48783000D01*
X42357000Y-48624250D01*
X42357000Y-47625000D01*
X41657750Y-47625000D01*
X41499000Y-47783750D01*
X40259000Y-47783750D01*
X40259000Y-46721690D01*
X41499000Y-46721690D01*
X41499000Y-47212250D01*
X41657750Y-47371000D01*
X42357000Y-47371000D01*
X42357000Y-46371750D01*
X42198250Y-46213000D01*
X42007691Y-46213000D01*
X41774302Y-46309673D01*
X41595673Y-46488301D01*
X41499000Y-46721690D01*
X40259000Y-46721690D01*
X40259000Y-40946606D01*
X40983803Y-40221803D01*
X41011666Y-40179789D01*
X41021000Y-40132000D01*
X41021000Y-34956750D01*
X45593000Y-34956750D01*
X45593000Y-35813310D01*
X45689673Y-36046699D01*
X45868302Y-36225327D01*
X46101691Y-36322000D01*
X46450250Y-36322000D01*
X46609000Y-36163250D01*
X46609000Y-34798000D01*
X45751750Y-34798000D01*
X45593000Y-34956750D01*
X41021000Y-34956750D01*
X41021000Y-33528690D01*
X45593000Y-33528690D01*
X45593000Y-34385250D01*
X45751750Y-34544000D01*
X46609000Y-34544000D01*
X46609000Y-33178750D01*
X46450250Y-33020000D01*
X46101691Y-33020000D01*
X45868302Y-33116673D01*
X45689673Y-33295301D01*
X45593000Y-33528690D01*
X41021000Y-33528690D01*
X41021000Y-32512000D01*
X41010994Y-32462590D01*
X40983803Y-32422197D01*
X39459803Y-30898197D01*
X39417789Y-30870334D01*
X39370000Y-30861000D01*
X34290000Y-30861000D01*
X34240590Y-30871006D01*
X34200197Y-30898197D01*
X32930197Y-32168197D01*
X32902334Y-32210211D01*
X32893000Y-32258000D01*
X32893000Y-35761394D01*
X29374197Y-39280197D01*
X29346334Y-39322211D01*
X29337000Y-39370000D01*
X29337000Y-43889394D01*
X25601394Y-47625000D01*
X20626606Y-47625000D01*
X19324926Y-46323320D01*
X20356285Y-46323320D01*
X20485533Y-46616123D01*
X21185806Y-46884388D01*
X21935435Y-46864250D01*
X22534467Y-46616123D01*
X22663715Y-46323320D01*
X21510000Y-45169605D01*
X20356285Y-46323320D01*
X19324926Y-46323320D01*
X18923000Y-45921394D01*
X18923000Y-44665806D01*
X19615612Y-44665806D01*
X19635750Y-45415435D01*
X19883877Y-46014467D01*
X20176680Y-46143715D01*
X21330395Y-44990000D01*
X21689605Y-44990000D01*
X22843320Y-46143715D01*
X23136123Y-46014467D01*
X23404388Y-45314194D01*
X23399932Y-45148320D01*
X24246285Y-45148320D01*
X24375533Y-45441123D01*
X25075806Y-45709388D01*
X25825435Y-45689250D01*
X26424467Y-45441123D01*
X26553715Y-45148320D01*
X25400000Y-43994605D01*
X24246285Y-45148320D01*
X23399932Y-45148320D01*
X23384250Y-44564565D01*
X23136123Y-43965533D01*
X22843320Y-43836285D01*
X21689605Y-44990000D01*
X21330395Y-44990000D01*
X20176680Y-43836285D01*
X19883877Y-43965533D01*
X19615612Y-44665806D01*
X18923000Y-44665806D01*
X18923000Y-43740606D01*
X19006926Y-43656680D01*
X20356285Y-43656680D01*
X21510000Y-44810395D01*
X22663715Y-43656680D01*
X22590496Y-43490806D01*
X23505612Y-43490806D01*
X23525750Y-44240435D01*
X23773877Y-44839467D01*
X24066680Y-44968715D01*
X25220395Y-43815000D01*
X25579605Y-43815000D01*
X26733320Y-44968715D01*
X27026123Y-44839467D01*
X27294388Y-44139194D01*
X27274250Y-43389565D01*
X27026123Y-42790533D01*
X26733320Y-42661285D01*
X25579605Y-43815000D01*
X25220395Y-43815000D01*
X24066680Y-42661285D01*
X23773877Y-42790533D01*
X23505612Y-43490806D01*
X22590496Y-43490806D01*
X22534467Y-43363877D01*
X21834194Y-43095612D01*
X21084565Y-43115750D01*
X20485533Y-43363877D01*
X20356285Y-43656680D01*
X19006926Y-43656680D01*
X20181926Y-42481680D01*
X24246285Y-42481680D01*
X25400000Y-43635395D01*
X26553715Y-42481680D01*
X26424467Y-42188877D01*
X25724194Y-41920612D01*
X24974565Y-41940750D01*
X24375533Y-42188877D01*
X24246285Y-42481680D01*
X20181926Y-42481680D01*
X24981803Y-37681803D01*
X25009666Y-37639789D01*
X25019000Y-37592000D01*
X25019000Y-34575750D01*
X26384250Y-34575750D01*
X26384250Y-35616460D01*
X26480923Y-35849849D01*
X26659552Y-36028477D01*
X26892941Y-36125150D01*
X28733750Y-36125150D01*
X28892500Y-35966400D01*
X28892500Y-34417000D01*
X29146500Y-34417000D01*
X29146500Y-35966400D01*
X29305250Y-36125150D01*
X31146059Y-36125150D01*
X31379448Y-36028477D01*
X31558077Y-35849849D01*
X31654750Y-35616460D01*
X31654750Y-34575750D01*
X31496000Y-34417000D01*
X29146500Y-34417000D01*
X28892500Y-34417000D01*
X26543000Y-34417000D01*
X26384250Y-34575750D01*
X25019000Y-34575750D01*
X25019000Y-32963540D01*
X26384250Y-32963540D01*
X26384250Y-34004250D01*
X26543000Y-34163000D01*
X28892500Y-34163000D01*
X28892500Y-32613600D01*
X29146500Y-32613600D01*
X29146500Y-34163000D01*
X31496000Y-34163000D01*
X31654750Y-34004250D01*
X31654750Y-32963540D01*
X31558077Y-32730151D01*
X31379448Y-32551523D01*
X31146059Y-32454850D01*
X29305250Y-32454850D01*
X29146500Y-32613600D01*
X28892500Y-32613600D01*
X28733750Y-32454850D01*
X26892941Y-32454850D01*
X26659552Y-32551523D01*
X26480923Y-32730151D01*
X26384250Y-32963540D01*
X25019000Y-32963540D01*
X25019000Y-29008606D01*
X26722606Y-27305000D01*
X41095394Y-27305000D01*
X46863000Y-33072606D01*
G36*
X40005000Y-32564606D02*
X40005000Y-39571394D01*
X38899197Y-40677197D01*
X38871334Y-40719211D01*
X38862000Y-40767000D01*
X38862000Y-58547000D01*
X38872006Y-58596410D01*
X38899197Y-58636803D01*
X42037000Y-61774606D01*
X42037000Y-62357000D01*
X39168606Y-62357000D01*
X35687000Y-58875394D01*
X35687000Y-52070000D01*
X35676994Y-52020590D01*
X35649803Y-51980197D01*
X31369000Y-47699394D01*
X31369000Y-46323320D01*
X35756285Y-46323320D01*
X35885533Y-46616123D01*
X36585806Y-46884388D01*
X37335435Y-46864250D01*
X37934467Y-46616123D01*
X38063715Y-46323320D01*
X36910000Y-45169605D01*
X35756285Y-46323320D01*
X31369000Y-46323320D01*
X31369000Y-45148320D01*
X31866285Y-45148320D01*
X31995533Y-45441123D01*
X32695806Y-45709388D01*
X33445435Y-45689250D01*
X34044467Y-45441123D01*
X34173715Y-45148320D01*
X33020000Y-43994605D01*
X31866285Y-45148320D01*
X31369000Y-45148320D01*
X31369000Y-44779409D01*
X31393877Y-44839467D01*
X31686680Y-44968715D01*
X32840395Y-43815000D01*
X33199605Y-43815000D01*
X34353320Y-44968715D01*
X34646123Y-44839467D01*
X34712650Y-44665806D01*
X35015612Y-44665806D01*
X35035750Y-45415435D01*
X35283877Y-46014467D01*
X35576680Y-46143715D01*
X36730395Y-44990000D01*
X37089605Y-44990000D01*
X38243320Y-46143715D01*
X38536123Y-46014467D01*
X38804388Y-45314194D01*
X38784250Y-44564565D01*
X38536123Y-43965533D01*
X38243320Y-43836285D01*
X37089605Y-44990000D01*
X36730395Y-44990000D01*
X35576680Y-43836285D01*
X35283877Y-43965533D01*
X35015612Y-44665806D01*
X34712650Y-44665806D01*
X34914388Y-44139194D01*
X34901426Y-43656680D01*
X35756285Y-43656680D01*
X36910000Y-44810395D01*
X38063715Y-43656680D01*
X37934467Y-43363877D01*
X37234194Y-43095612D01*
X36484565Y-43115750D01*
X35885533Y-43363877D01*
X35756285Y-43656680D01*
X34901426Y-43656680D01*
X34894250Y-43389565D01*
X34646123Y-42790533D01*
X34353320Y-42661285D01*
X33199605Y-43815000D01*
X32840395Y-43815000D01*
X31686680Y-42661285D01*
X31393877Y-42790533D01*
X31369000Y-42855471D01*
X31369000Y-42481680D01*
X31866285Y-42481680D01*
X33020000Y-43635395D01*
X34173715Y-42481680D01*
X34044467Y-42188877D01*
X33344194Y-41920612D01*
X32594565Y-41940750D01*
X31995533Y-42188877D01*
X31866285Y-42481680D01*
X31369000Y-42481680D01*
X31369000Y-39422606D01*
X33871803Y-36919803D01*
X33899666Y-36877789D01*
X33909000Y-36830000D01*
X33909000Y-34575750D01*
X34385250Y-34575750D01*
X34385250Y-35616460D01*
X34481923Y-35849849D01*
X34660552Y-36028477D01*
X34893941Y-36125150D01*
X36734750Y-36125150D01*
X36893500Y-35966400D01*
X36893500Y-34417000D01*
X37147500Y-34417000D01*
X37147500Y-35966400D01*
X37306250Y-36125150D01*
X39147059Y-36125150D01*
X39380448Y-36028477D01*
X39559077Y-35849849D01*
X39655750Y-35616460D01*
X39655750Y-34575750D01*
X39497000Y-34417000D01*
X37147500Y-34417000D01*
X36893500Y-34417000D01*
X34544000Y-34417000D01*
X34385250Y-34575750D01*
X33909000Y-34575750D01*
X33909000Y-32963540D01*
X34385250Y-32963540D01*
X34385250Y-34004250D01*
X34544000Y-34163000D01*
X36893500Y-34163000D01*
X36893500Y-32613600D01*
X37147500Y-32613600D01*
X37147500Y-34163000D01*
X39497000Y-34163000D01*
X39655750Y-34004250D01*
X39655750Y-32963540D01*
X39559077Y-32730151D01*
X39380448Y-32551523D01*
X39147059Y-32454850D01*
X37306250Y-32454850D01*
X37147500Y-32613600D01*
X36893500Y-32613600D01*
X36734750Y-32454850D01*
X34893941Y-32454850D01*
X34660552Y-32551523D01*
X34481923Y-32730151D01*
X34385250Y-32963540D01*
X33909000Y-32963540D01*
X33909000Y-32564606D01*
X34596606Y-31877000D01*
X39317394Y-31877000D01*
X40005000Y-32564606D01*
X40005000Y-32564606D01*
G37*
X40005000Y-32564606D02*
X40005000Y-39571394D01*
X38899197Y-40677197D01*
X38871334Y-40719211D01*
X38862000Y-40767000D01*
X38862000Y-58547000D01*
X38872006Y-58596410D01*
X38899197Y-58636803D01*
X42037000Y-61774606D01*
X42037000Y-62357000D01*
X39168606Y-62357000D01*
X35687000Y-58875394D01*
X35687000Y-52070000D01*
X35676994Y-52020590D01*
X35649803Y-51980197D01*
X31369000Y-47699394D01*
X31369000Y-46323320D01*
X35756285Y-46323320D01*
X35885533Y-46616123D01*
X36585806Y-46884388D01*
X37335435Y-46864250D01*
X37934467Y-46616123D01*
X38063715Y-46323320D01*
X36910000Y-45169605D01*
X35756285Y-46323320D01*
X31369000Y-46323320D01*
X31369000Y-45148320D01*
X31866285Y-45148320D01*
X31995533Y-45441123D01*
X32695806Y-45709388D01*
X33445435Y-45689250D01*
X34044467Y-45441123D01*
X34173715Y-45148320D01*
X33020000Y-43994605D01*
X31866285Y-45148320D01*
X31369000Y-45148320D01*
X31369000Y-44779409D01*
X31393877Y-44839467D01*
X31686680Y-44968715D01*
X32840395Y-43815000D01*
X33199605Y-43815000D01*
X34353320Y-44968715D01*
X34646123Y-44839467D01*
X34712650Y-44665806D01*
X35015612Y-44665806D01*
X35035750Y-45415435D01*
X35283877Y-46014467D01*
X35576680Y-46143715D01*
X36730395Y-44990000D01*
X37089605Y-44990000D01*
X38243320Y-46143715D01*
X38536123Y-46014467D01*
X38804388Y-45314194D01*
X38784250Y-44564565D01*
X38536123Y-43965533D01*
X38243320Y-43836285D01*
X37089605Y-44990000D01*
X36730395Y-44990000D01*
X35576680Y-43836285D01*
X35283877Y-43965533D01*
X35015612Y-44665806D01*
X34712650Y-44665806D01*
X34914388Y-44139194D01*
X34901426Y-43656680D01*
X35756285Y-43656680D01*
X36910000Y-44810395D01*
X38063715Y-43656680D01*
X37934467Y-43363877D01*
X37234194Y-43095612D01*
X36484565Y-43115750D01*
X35885533Y-43363877D01*
X35756285Y-43656680D01*
X34901426Y-43656680D01*
X34894250Y-43389565D01*
X34646123Y-42790533D01*
X34353320Y-42661285D01*
X33199605Y-43815000D01*
X32840395Y-43815000D01*
X31686680Y-42661285D01*
X31393877Y-42790533D01*
X31369000Y-42855471D01*
X31369000Y-42481680D01*
X31866285Y-42481680D01*
X33020000Y-43635395D01*
X34173715Y-42481680D01*
X34044467Y-42188877D01*
X33344194Y-41920612D01*
X32594565Y-41940750D01*
X31995533Y-42188877D01*
X31866285Y-42481680D01*
X31369000Y-42481680D01*
X31369000Y-39422606D01*
X33871803Y-36919803D01*
X33899666Y-36877789D01*
X33909000Y-36830000D01*
X33909000Y-34575750D01*
X34385250Y-34575750D01*
X34385250Y-35616460D01*
X34481923Y-35849849D01*
X34660552Y-36028477D01*
X34893941Y-36125150D01*
X36734750Y-36125150D01*
X36893500Y-35966400D01*
X36893500Y-34417000D01*
X37147500Y-34417000D01*
X37147500Y-35966400D01*
X37306250Y-36125150D01*
X39147059Y-36125150D01*
X39380448Y-36028477D01*
X39559077Y-35849849D01*
X39655750Y-35616460D01*
X39655750Y-34575750D01*
X39497000Y-34417000D01*
X37147500Y-34417000D01*
X36893500Y-34417000D01*
X34544000Y-34417000D01*
X34385250Y-34575750D01*
X33909000Y-34575750D01*
X33909000Y-32963540D01*
X34385250Y-32963540D01*
X34385250Y-34004250D01*
X34544000Y-34163000D01*
X36893500Y-34163000D01*
X36893500Y-32613600D01*
X37147500Y-32613600D01*
X37147500Y-34163000D01*
X39497000Y-34163000D01*
X39655750Y-34004250D01*
X39655750Y-32963540D01*
X39559077Y-32730151D01*
X39380448Y-32551523D01*
X39147059Y-32454850D01*
X37306250Y-32454850D01*
X37147500Y-32613600D01*
X36893500Y-32613600D01*
X36734750Y-32454850D01*
X34893941Y-32454850D01*
X34660552Y-32551523D01*
X34481923Y-32730151D01*
X34385250Y-32963540D01*
X33909000Y-32963540D01*
X33909000Y-32564606D01*
X34596606Y-31877000D01*
X39317394Y-31877000D01*
X40005000Y-32564606D01*
G36*
X65151000Y-102414606D02*
X65151000Y-108077000D01*
X59817000Y-108077000D01*
X59767590Y-108087006D01*
X59727197Y-108114197D01*
X58875394Y-108966000D01*
X58705750Y-108966000D01*
X58547000Y-109124750D01*
X58547000Y-109294394D01*
X58420000Y-109421394D01*
X58293000Y-109294394D01*
X58293000Y-109124750D01*
X58134250Y-108966000D01*
X57964606Y-108966000D01*
X57112803Y-108114197D01*
X57070789Y-108086334D01*
X57023000Y-108077000D01*
X47931606Y-108077000D01*
X47117000Y-107262394D01*
X47117000Y-105347322D01*
X47148441Y-105327090D01*
X47293431Y-105114890D01*
X47315301Y-105006893D01*
X47620076Y-105284645D01*
X48030110Y-105454476D01*
X48260000Y-105333155D01*
X48260000Y-104140000D01*
X48514000Y-104140000D01*
X48514000Y-105333155D01*
X48743890Y-105454476D01*
X49153924Y-105284645D01*
X49582183Y-104894358D01*
X49828486Y-104369892D01*
X49791145Y-104298750D01*
X55956200Y-104298750D01*
X55956200Y-105155310D01*
X56052873Y-105388699D01*
X56231502Y-105567327D01*
X56464891Y-105664000D01*
X58134250Y-105664000D01*
X58293000Y-105505250D01*
X58293000Y-104140000D01*
X58547000Y-104140000D01*
X58547000Y-105505250D01*
X58705750Y-105664000D01*
X60375109Y-105664000D01*
X60608498Y-105567327D01*
X60787127Y-105388699D01*
X60883800Y-105155310D01*
X60883800Y-104298750D01*
X60725050Y-104140000D01*
X58547000Y-104140000D01*
X58293000Y-104140000D01*
X56114950Y-104140000D01*
X55956200Y-104298750D01*
X49791145Y-104298750D01*
X49707819Y-104140000D01*
X48514000Y-104140000D01*
X48260000Y-104140000D01*
X48240000Y-104140000D01*
X48240000Y-103886000D01*
X48260000Y-103886000D01*
X48260000Y-102692845D01*
X48514000Y-102692845D01*
X48514000Y-103886000D01*
X49707819Y-103886000D01*
X49828486Y-103656108D01*
X49582183Y-103131642D01*
X49295843Y-102870690D01*
X55956200Y-102870690D01*
X55956200Y-103727250D01*
X56114950Y-103886000D01*
X58293000Y-103886000D01*
X58293000Y-102520750D01*
X58547000Y-102520750D01*
X58547000Y-103886000D01*
X60725050Y-103886000D01*
X60883800Y-103727250D01*
X60883800Y-102870690D01*
X60787127Y-102637301D01*
X60608498Y-102458673D01*
X60375109Y-102362000D01*
X58705750Y-102362000D01*
X58547000Y-102520750D01*
X58293000Y-102520750D01*
X58134250Y-102362000D01*
X56464891Y-102362000D01*
X56231502Y-102458673D01*
X56052873Y-102637301D01*
X55956200Y-102870690D01*
X49295843Y-102870690D01*
X49153924Y-102741355D01*
X48743890Y-102571524D01*
X48514000Y-102692845D01*
X48260000Y-102692845D01*
X48030110Y-102571524D01*
X47620076Y-102741355D01*
X47317063Y-103017501D01*
X47300162Y-102927683D01*
X47161090Y-102711559D01*
X47117000Y-102681434D01*
X47117000Y-102287606D01*
X47296606Y-102108000D01*
X64844394Y-102108000D01*
X65151000Y-102414606D01*
X65151000Y-102414606D01*
G37*
X65151000Y-102414606D02*
X65151000Y-108077000D01*
X59817000Y-108077000D01*
X59767590Y-108087006D01*
X59727197Y-108114197D01*
X58875394Y-108966000D01*
X58705750Y-108966000D01*
X58547000Y-109124750D01*
X58547000Y-109294394D01*
X58420000Y-109421394D01*
X58293000Y-109294394D01*
X58293000Y-109124750D01*
X58134250Y-108966000D01*
X57964606Y-108966000D01*
X57112803Y-108114197D01*
X57070789Y-108086334D01*
X57023000Y-108077000D01*
X47931606Y-108077000D01*
X47117000Y-107262394D01*
X47117000Y-105347322D01*
X47148441Y-105327090D01*
X47293431Y-105114890D01*
X47315301Y-105006893D01*
X47620076Y-105284645D01*
X48030110Y-105454476D01*
X48260000Y-105333155D01*
X48260000Y-104140000D01*
X48514000Y-104140000D01*
X48514000Y-105333155D01*
X48743890Y-105454476D01*
X49153924Y-105284645D01*
X49582183Y-104894358D01*
X49828486Y-104369892D01*
X49791145Y-104298750D01*
X55956200Y-104298750D01*
X55956200Y-105155310D01*
X56052873Y-105388699D01*
X56231502Y-105567327D01*
X56464891Y-105664000D01*
X58134250Y-105664000D01*
X58293000Y-105505250D01*
X58293000Y-104140000D01*
X58547000Y-104140000D01*
X58547000Y-105505250D01*
X58705750Y-105664000D01*
X60375109Y-105664000D01*
X60608498Y-105567327D01*
X60787127Y-105388699D01*
X60883800Y-105155310D01*
X60883800Y-104298750D01*
X60725050Y-104140000D01*
X58547000Y-104140000D01*
X58293000Y-104140000D01*
X56114950Y-104140000D01*
X55956200Y-104298750D01*
X49791145Y-104298750D01*
X49707819Y-104140000D01*
X48514000Y-104140000D01*
X48260000Y-104140000D01*
X48240000Y-104140000D01*
X48240000Y-103886000D01*
X48260000Y-103886000D01*
X48260000Y-102692845D01*
X48514000Y-102692845D01*
X48514000Y-103886000D01*
X49707819Y-103886000D01*
X49828486Y-103656108D01*
X49582183Y-103131642D01*
X49295843Y-102870690D01*
X55956200Y-102870690D01*
X55956200Y-103727250D01*
X56114950Y-103886000D01*
X58293000Y-103886000D01*
X58293000Y-102520750D01*
X58547000Y-102520750D01*
X58547000Y-103886000D01*
X60725050Y-103886000D01*
X60883800Y-103727250D01*
X60883800Y-102870690D01*
X60787127Y-102637301D01*
X60608498Y-102458673D01*
X60375109Y-102362000D01*
X58705750Y-102362000D01*
X58547000Y-102520750D01*
X58293000Y-102520750D01*
X58134250Y-102362000D01*
X56464891Y-102362000D01*
X56231502Y-102458673D01*
X56052873Y-102637301D01*
X55956200Y-102870690D01*
X49295843Y-102870690D01*
X49153924Y-102741355D01*
X48743890Y-102571524D01*
X48514000Y-102692845D01*
X48260000Y-102692845D01*
X48030110Y-102571524D01*
X47620076Y-102741355D01*
X47317063Y-103017501D01*
X47300162Y-102927683D01*
X47161090Y-102711559D01*
X47117000Y-102681434D01*
X47117000Y-102287606D01*
X47296606Y-102108000D01*
X64844394Y-102108000D01*
X65151000Y-102414606D01*
M02*
