G04 #@! TF.FileFunction,Legend,Top*
%FSLAX46Y46*%
G04 Gerber Fmt 4.6, Leading zero omitted, Abs format (unit mm)*
G04 Created by KiCad (PCBNEW 4.0.2+dfsg1-stable) date lun 08 gen 2018 09:22:36 CET*
%MOMM*%
G01*
G04 APERTURE LIST*
%ADD10C,0.100000*%
%ADD11C,0.203200*%
%ADD12C,0.150000*%
%ADD13C,0.152400*%
G04 APERTURE END LIST*
D10*
D11*
X154130000Y-87400000D02*
X148130000Y-87400000D01*
X154630000Y-88900000D02*
G75*
G03X154630000Y-88900000I-3500000J0D01*
G01*
X157130000Y-95400000D02*
X145130000Y-95400000D01*
X145130000Y-95400000D02*
X145130000Y-82400000D01*
X145130000Y-82400000D02*
X157130000Y-82400000D01*
X157130000Y-82400000D02*
X157130000Y-95400000D01*
D12*
X85003000Y-106264000D02*
X85003000Y-106764000D01*
X85003000Y-106764000D02*
X143003000Y-106764000D01*
X143003000Y-72264000D02*
X143003000Y-106764000D01*
X142503000Y-72264000D02*
X143003000Y-72264000D01*
X85003000Y-72264000D02*
X142503000Y-72264000D01*
X85003000Y-72264000D02*
X85003000Y-106264000D01*
X160413867Y-105506781D02*
X160080533Y-105030590D01*
X159842438Y-105506781D02*
X159842438Y-104506781D01*
X160223391Y-104506781D01*
X160318629Y-104554400D01*
X160366248Y-104602019D01*
X160413867Y-104697257D01*
X160413867Y-104840114D01*
X160366248Y-104935352D01*
X160318629Y-104982971D01*
X160223391Y-105030590D01*
X159842438Y-105030590D01*
X160842438Y-104982971D02*
X161175772Y-104982971D01*
X161318629Y-105506781D02*
X160842438Y-105506781D01*
X160842438Y-104506781D01*
X161318629Y-104506781D01*
X162080534Y-104982971D02*
X161747200Y-104982971D01*
X161747200Y-105506781D02*
X161747200Y-104506781D01*
X162223391Y-104506781D01*
X162747200Y-104506781D02*
X162747200Y-104744876D01*
X162509105Y-104649638D02*
X162747200Y-104744876D01*
X162985296Y-104649638D01*
X162604343Y-104935352D02*
X162747200Y-104744876D01*
X162890058Y-104935352D01*
X163509105Y-104506781D02*
X163509105Y-104744876D01*
X163271010Y-104649638D02*
X163509105Y-104744876D01*
X163747201Y-104649638D01*
X163366248Y-104935352D02*
X163509105Y-104744876D01*
X163651963Y-104935352D01*
X160413867Y-76957181D02*
X160080533Y-76480990D01*
X159842438Y-76957181D02*
X159842438Y-75957181D01*
X160223391Y-75957181D01*
X160318629Y-76004800D01*
X160366248Y-76052419D01*
X160413867Y-76147657D01*
X160413867Y-76290514D01*
X160366248Y-76385752D01*
X160318629Y-76433371D01*
X160223391Y-76480990D01*
X159842438Y-76480990D01*
X160842438Y-76433371D02*
X161175772Y-76433371D01*
X161318629Y-76957181D02*
X160842438Y-76957181D01*
X160842438Y-75957181D01*
X161318629Y-75957181D01*
X162080534Y-76433371D02*
X161747200Y-76433371D01*
X161747200Y-76957181D02*
X161747200Y-75957181D01*
X162223391Y-75957181D01*
X162747200Y-75957181D02*
X162747200Y-76195276D01*
X162509105Y-76100038D02*
X162747200Y-76195276D01*
X162985296Y-76100038D01*
X162604343Y-76385752D02*
X162747200Y-76195276D01*
X162890058Y-76385752D01*
X163509105Y-75957181D02*
X163509105Y-76195276D01*
X163271010Y-76100038D02*
X163509105Y-76195276D01*
X163747201Y-76100038D01*
X163366248Y-76385752D02*
X163509105Y-76195276D01*
X163651963Y-76385752D01*
X160439267Y-119578381D02*
X160105933Y-119102190D01*
X159867838Y-119578381D02*
X159867838Y-118578381D01*
X160248791Y-118578381D01*
X160344029Y-118626000D01*
X160391648Y-118673619D01*
X160439267Y-118768857D01*
X160439267Y-118911714D01*
X160391648Y-119006952D01*
X160344029Y-119054571D01*
X160248791Y-119102190D01*
X159867838Y-119102190D01*
X160867838Y-119054571D02*
X161201172Y-119054571D01*
X161344029Y-119578381D02*
X160867838Y-119578381D01*
X160867838Y-118578381D01*
X161344029Y-118578381D01*
X162105934Y-119054571D02*
X161772600Y-119054571D01*
X161772600Y-119578381D02*
X161772600Y-118578381D01*
X162248791Y-118578381D01*
X162772600Y-118578381D02*
X162772600Y-118816476D01*
X162534505Y-118721238D02*
X162772600Y-118816476D01*
X163010696Y-118721238D01*
X162629743Y-119006952D02*
X162772600Y-118816476D01*
X162915458Y-119006952D01*
X163534505Y-118578381D02*
X163534505Y-118816476D01*
X163296410Y-118721238D02*
X163534505Y-118816476D01*
X163772601Y-118721238D01*
X163391648Y-119006952D02*
X163534505Y-118816476D01*
X163677363Y-119006952D01*
X160439267Y-148026381D02*
X160105933Y-147550190D01*
X159867838Y-148026381D02*
X159867838Y-147026381D01*
X160248791Y-147026381D01*
X160344029Y-147074000D01*
X160391648Y-147121619D01*
X160439267Y-147216857D01*
X160439267Y-147359714D01*
X160391648Y-147454952D01*
X160344029Y-147502571D01*
X160248791Y-147550190D01*
X159867838Y-147550190D01*
X160867838Y-147502571D02*
X161201172Y-147502571D01*
X161344029Y-148026381D02*
X160867838Y-148026381D01*
X160867838Y-147026381D01*
X161344029Y-147026381D01*
X162105934Y-147502571D02*
X161772600Y-147502571D01*
X161772600Y-148026381D02*
X161772600Y-147026381D01*
X162248791Y-147026381D01*
X162772600Y-147026381D02*
X162772600Y-147264476D01*
X162534505Y-147169238D02*
X162772600Y-147264476D01*
X163010696Y-147169238D01*
X162629743Y-147454952D02*
X162772600Y-147264476D01*
X162915458Y-147454952D01*
X163534505Y-147026381D02*
X163534505Y-147264476D01*
X163296410Y-147169238D02*
X163534505Y-147264476D01*
X163772601Y-147169238D01*
X163391648Y-147454952D02*
X163534505Y-147264476D01*
X163677363Y-147454952D01*
D13*
X150114001Y-98708429D02*
X150222858Y-98744714D01*
X150404287Y-98744714D01*
X150476858Y-98708429D01*
X150513144Y-98672143D01*
X150549429Y-98599571D01*
X150549429Y-98527000D01*
X150513144Y-98454429D01*
X150476858Y-98418143D01*
X150404287Y-98381857D01*
X150259144Y-98345571D01*
X150186572Y-98309286D01*
X150150287Y-98273000D01*
X150114001Y-98200429D01*
X150114001Y-98127857D01*
X150150287Y-98055286D01*
X150186572Y-98019000D01*
X150259144Y-97982714D01*
X150440572Y-97982714D01*
X150549429Y-98019000D01*
X150803429Y-97982714D02*
X150984858Y-98744714D01*
X151130001Y-98200429D01*
X151275143Y-98744714D01*
X151456572Y-97982714D01*
X152146000Y-98744714D02*
X151710572Y-98744714D01*
X151928286Y-98744714D02*
X151928286Y-97982714D01*
X151855715Y-98091571D01*
X151783143Y-98164143D01*
X151710572Y-98200429D01*
D12*
X138620667Y-119578381D02*
X138287333Y-119102190D01*
X138049238Y-119578381D02*
X138049238Y-118578381D01*
X138430191Y-118578381D01*
X138525429Y-118626000D01*
X138573048Y-118673619D01*
X138620667Y-118768857D01*
X138620667Y-118911714D01*
X138573048Y-119006952D01*
X138525429Y-119054571D01*
X138430191Y-119102190D01*
X138049238Y-119102190D01*
X139049238Y-119054571D02*
X139382572Y-119054571D01*
X139525429Y-119578381D02*
X139049238Y-119578381D01*
X139049238Y-118578381D01*
X139525429Y-118578381D01*
X140287334Y-119054571D02*
X139954000Y-119054571D01*
X139954000Y-119578381D02*
X139954000Y-118578381D01*
X140430191Y-118578381D01*
X140954000Y-118578381D02*
X140954000Y-118816476D01*
X140715905Y-118721238D02*
X140954000Y-118816476D01*
X141192096Y-118721238D01*
X140811143Y-119006952D02*
X140954000Y-118816476D01*
X141096858Y-119006952D01*
X141715905Y-118578381D02*
X141715905Y-118816476D01*
X141477810Y-118721238D02*
X141715905Y-118816476D01*
X141954001Y-118721238D01*
X141573048Y-119006952D02*
X141715905Y-118816476D01*
X141858763Y-119006952D01*
X138747667Y-148026381D02*
X138414333Y-147550190D01*
X138176238Y-148026381D02*
X138176238Y-147026381D01*
X138557191Y-147026381D01*
X138652429Y-147074000D01*
X138700048Y-147121619D01*
X138747667Y-147216857D01*
X138747667Y-147359714D01*
X138700048Y-147454952D01*
X138652429Y-147502571D01*
X138557191Y-147550190D01*
X138176238Y-147550190D01*
X139176238Y-147502571D02*
X139509572Y-147502571D01*
X139652429Y-148026381D02*
X139176238Y-148026381D01*
X139176238Y-147026381D01*
X139652429Y-147026381D01*
X140414334Y-147502571D02*
X140081000Y-147502571D01*
X140081000Y-148026381D02*
X140081000Y-147026381D01*
X140557191Y-147026381D01*
X141081000Y-147026381D02*
X141081000Y-147264476D01*
X140842905Y-147169238D02*
X141081000Y-147264476D01*
X141319096Y-147169238D01*
X140938143Y-147454952D02*
X141081000Y-147264476D01*
X141223858Y-147454952D01*
X141842905Y-147026381D02*
X141842905Y-147264476D01*
X141604810Y-147169238D02*
X141842905Y-147264476D01*
X142081001Y-147169238D01*
X141700048Y-147454952D02*
X141842905Y-147264476D01*
X141985763Y-147454952D01*
X86677667Y-147899381D02*
X86344333Y-147423190D01*
X86106238Y-147899381D02*
X86106238Y-146899381D01*
X86487191Y-146899381D01*
X86582429Y-146947000D01*
X86630048Y-146994619D01*
X86677667Y-147089857D01*
X86677667Y-147232714D01*
X86630048Y-147327952D01*
X86582429Y-147375571D01*
X86487191Y-147423190D01*
X86106238Y-147423190D01*
X87106238Y-147375571D02*
X87439572Y-147375571D01*
X87582429Y-147899381D02*
X87106238Y-147899381D01*
X87106238Y-146899381D01*
X87582429Y-146899381D01*
X88344334Y-147375571D02*
X88011000Y-147375571D01*
X88011000Y-147899381D02*
X88011000Y-146899381D01*
X88487191Y-146899381D01*
X89011000Y-146899381D02*
X89011000Y-147137476D01*
X88772905Y-147042238D02*
X89011000Y-147137476D01*
X89249096Y-147042238D01*
X88868143Y-147327952D02*
X89011000Y-147137476D01*
X89153858Y-147327952D01*
X89772905Y-146899381D02*
X89772905Y-147137476D01*
X89534810Y-147042238D02*
X89772905Y-147137476D01*
X90011001Y-147042238D01*
X89630048Y-147327952D02*
X89772905Y-147137476D01*
X89915763Y-147327952D01*
X86677667Y-119578381D02*
X86344333Y-119102190D01*
X86106238Y-119578381D02*
X86106238Y-118578381D01*
X86487191Y-118578381D01*
X86582429Y-118626000D01*
X86630048Y-118673619D01*
X86677667Y-118768857D01*
X86677667Y-118911714D01*
X86630048Y-119006952D01*
X86582429Y-119054571D01*
X86487191Y-119102190D01*
X86106238Y-119102190D01*
X87106238Y-119054571D02*
X87439572Y-119054571D01*
X87582429Y-119578381D02*
X87106238Y-119578381D01*
X87106238Y-118578381D01*
X87582429Y-118578381D01*
X88344334Y-119054571D02*
X88011000Y-119054571D01*
X88011000Y-119578381D02*
X88011000Y-118578381D01*
X88487191Y-118578381D01*
X89011000Y-118578381D02*
X89011000Y-118816476D01*
X88772905Y-118721238D02*
X89011000Y-118816476D01*
X89249096Y-118721238D01*
X88868143Y-119006952D02*
X89011000Y-118816476D01*
X89153858Y-119006952D01*
X89772905Y-118578381D02*
X89772905Y-118816476D01*
X89534810Y-118721238D02*
X89772905Y-118816476D01*
X90011001Y-118721238D01*
X89630048Y-119006952D02*
X89772905Y-118816476D01*
X89915763Y-119006952D01*
X84478762Y-94288762D02*
X84526381Y-94145905D01*
X84526381Y-93907809D01*
X84478762Y-93812571D01*
X84431143Y-93764952D01*
X84335905Y-93717333D01*
X84240667Y-93717333D01*
X84145429Y-93764952D01*
X84097810Y-93812571D01*
X84050190Y-93907809D01*
X84002571Y-94098286D01*
X83954952Y-94193524D01*
X83907333Y-94241143D01*
X83812095Y-94288762D01*
X83716857Y-94288762D01*
X83621619Y-94241143D01*
X83574000Y-94193524D01*
X83526381Y-94098286D01*
X83526381Y-93860190D01*
X83574000Y-93717333D01*
X83526381Y-93431619D02*
X83526381Y-92860190D01*
X84526381Y-93145905D02*
X83526381Y-93145905D01*
X83526381Y-92622095D02*
X83526381Y-91955428D01*
X84526381Y-92384000D01*
X83526381Y-91669714D02*
X83526381Y-91003047D01*
X84526381Y-91431619D01*
X83526381Y-90717333D02*
X83526381Y-90098285D01*
X83907333Y-90431619D01*
X83907333Y-90288761D01*
X83954952Y-90193523D01*
X84002571Y-90145904D01*
X84097810Y-90098285D01*
X84335905Y-90098285D01*
X84431143Y-90145904D01*
X84478762Y-90193523D01*
X84526381Y-90288761D01*
X84526381Y-90574476D01*
X84478762Y-90669714D01*
X84431143Y-90717333D01*
X83526381Y-89193523D02*
X83526381Y-89669714D01*
X84002571Y-89717333D01*
X83954952Y-89669714D01*
X83907333Y-89574476D01*
X83907333Y-89336380D01*
X83954952Y-89241142D01*
X84002571Y-89193523D01*
X84097810Y-89145904D01*
X84335905Y-89145904D01*
X84431143Y-89193523D01*
X84478762Y-89241142D01*
X84526381Y-89336380D01*
X84526381Y-89574476D01*
X84478762Y-89669714D01*
X84431143Y-89717333D01*
X84621619Y-88955428D02*
X84621619Y-88193523D01*
X84526381Y-87955428D02*
X83526381Y-87955428D01*
X84240667Y-87622094D01*
X83526381Y-87288761D01*
X84526381Y-87288761D01*
X83526381Y-86622095D02*
X83526381Y-86431618D01*
X83574000Y-86336380D01*
X83669238Y-86241142D01*
X83859714Y-86193523D01*
X84193048Y-86193523D01*
X84383524Y-86241142D01*
X84478762Y-86336380D01*
X84526381Y-86431618D01*
X84526381Y-86622095D01*
X84478762Y-86717333D01*
X84383524Y-86812571D01*
X84193048Y-86860190D01*
X83859714Y-86860190D01*
X83669238Y-86812571D01*
X83574000Y-86717333D01*
X83526381Y-86622095D01*
X84526381Y-85764952D02*
X83526381Y-85764952D01*
X83526381Y-85526857D01*
X83574000Y-85383999D01*
X83669238Y-85288761D01*
X83764476Y-85241142D01*
X83954952Y-85193523D01*
X84097810Y-85193523D01*
X84288286Y-85241142D01*
X84383524Y-85288761D01*
X84478762Y-85383999D01*
X84526381Y-85526857D01*
X84526381Y-85764952D01*
X83526381Y-84764952D02*
X84335905Y-84764952D01*
X84431143Y-84717333D01*
X84478762Y-84669714D01*
X84526381Y-84574476D01*
X84526381Y-84383999D01*
X84478762Y-84288761D01*
X84431143Y-84241142D01*
X84335905Y-84193523D01*
X83526381Y-84193523D01*
X84526381Y-83241142D02*
X84526381Y-83717333D01*
X83526381Y-83717333D01*
X84002571Y-82907809D02*
X84002571Y-82574475D01*
X84526381Y-82431618D02*
X84526381Y-82907809D01*
X83526381Y-82907809D01*
X83526381Y-82431618D01*
X84526381Y-81479237D02*
X84526381Y-82050666D01*
X84526381Y-81764952D02*
X83526381Y-81764952D01*
X83669238Y-81860190D01*
X83764476Y-81955428D01*
X83812095Y-82050666D01*
M02*
