G04 #@! TF.FileFunction,Legend,Bot*
%FSLAX46Y46*%
G04 Gerber Fmt 4.6, Leading zero omitted, Abs format (unit mm)*
G04 Created by KiCad (PCBNEW 4.0.2+dfsg1-stable) date lun 08 gen 2018 09:22:36 CET*
%MOMM*%
G01*
G04 APERTURE LIST*
%ADD10C,0.100000*%
%ADD11C,0.300000*%
%ADD12C,0.150000*%
%ADD13C,0.152400*%
%ADD14C,0.120000*%
G04 APERTURE END LIST*
D10*
D11*
X79433029Y-108076914D02*
X80933029Y-108076914D01*
X80933029Y-107505486D01*
X80861600Y-107362628D01*
X80790171Y-107291200D01*
X80647314Y-107219771D01*
X80433029Y-107219771D01*
X80290171Y-107291200D01*
X80218743Y-107362628D01*
X80147314Y-107505486D01*
X80147314Y-108076914D01*
X79433029Y-106362628D02*
X79504457Y-106505486D01*
X79647314Y-106576914D01*
X80933029Y-106576914D01*
X79433029Y-105148343D02*
X80218743Y-105148343D01*
X80361600Y-105219772D01*
X80433029Y-105362629D01*
X80433029Y-105648343D01*
X80361600Y-105791200D01*
X79504457Y-105148343D02*
X79433029Y-105291200D01*
X79433029Y-105648343D01*
X79504457Y-105791200D01*
X79647314Y-105862629D01*
X79790171Y-105862629D01*
X79933029Y-105791200D01*
X80004457Y-105648343D01*
X80004457Y-105291200D01*
X80075886Y-105148343D01*
X80433029Y-104434057D02*
X79433029Y-104434057D01*
X80290171Y-104434057D02*
X80361600Y-104362629D01*
X80433029Y-104219771D01*
X80433029Y-104005486D01*
X80361600Y-103862629D01*
X80218743Y-103791200D01*
X79433029Y-103791200D01*
X79433029Y-102434057D02*
X80218743Y-102434057D01*
X80361600Y-102505486D01*
X80433029Y-102648343D01*
X80433029Y-102934057D01*
X80361600Y-103076914D01*
X79504457Y-102434057D02*
X79433029Y-102576914D01*
X79433029Y-102934057D01*
X79504457Y-103076914D01*
X79647314Y-103148343D01*
X79790171Y-103148343D01*
X79933029Y-103076914D01*
X80004457Y-102934057D01*
X80004457Y-102576914D01*
X80075886Y-102434057D01*
X80433029Y-99934057D02*
X79433029Y-99934057D01*
X81004457Y-100291200D02*
X79933029Y-100648343D01*
X79933029Y-99719771D01*
X79433029Y-98005486D02*
X80433029Y-98005486D01*
X80290171Y-98005486D02*
X80361600Y-97934058D01*
X80433029Y-97791200D01*
X80433029Y-97576915D01*
X80361600Y-97434058D01*
X80218743Y-97362629D01*
X79433029Y-97362629D01*
X80218743Y-97362629D02*
X80361600Y-97291200D01*
X80433029Y-97148343D01*
X80433029Y-96934058D01*
X80361600Y-96791200D01*
X80218743Y-96719772D01*
X79433029Y-96719772D01*
X79433029Y-95791200D02*
X79504457Y-95934058D01*
X79575886Y-96005486D01*
X79718743Y-96076915D01*
X80147314Y-96076915D01*
X80290171Y-96005486D01*
X80361600Y-95934058D01*
X80433029Y-95791200D01*
X80433029Y-95576915D01*
X80361600Y-95434058D01*
X80290171Y-95362629D01*
X80147314Y-95291200D01*
X79718743Y-95291200D01*
X79575886Y-95362629D01*
X79504457Y-95434058D01*
X79433029Y-95576915D01*
X79433029Y-95791200D01*
X79433029Y-94005486D02*
X80933029Y-94005486D01*
X79504457Y-94005486D02*
X79433029Y-94148343D01*
X79433029Y-94434057D01*
X79504457Y-94576915D01*
X79575886Y-94648343D01*
X79718743Y-94719772D01*
X80147314Y-94719772D01*
X80290171Y-94648343D01*
X80361600Y-94576915D01*
X80433029Y-94434057D01*
X80433029Y-94148343D01*
X80361600Y-94005486D01*
X170350571Y-69875486D02*
X168850571Y-69875486D01*
X168850571Y-70446914D01*
X168922000Y-70589772D01*
X168993429Y-70661200D01*
X169136286Y-70732629D01*
X169350571Y-70732629D01*
X169493429Y-70661200D01*
X169564857Y-70589772D01*
X169636286Y-70446914D01*
X169636286Y-69875486D01*
X170350571Y-71589772D02*
X170279143Y-71446914D01*
X170136286Y-71375486D01*
X168850571Y-71375486D01*
X170350571Y-72804057D02*
X169564857Y-72804057D01*
X169422000Y-72732628D01*
X169350571Y-72589771D01*
X169350571Y-72304057D01*
X169422000Y-72161200D01*
X170279143Y-72804057D02*
X170350571Y-72661200D01*
X170350571Y-72304057D01*
X170279143Y-72161200D01*
X170136286Y-72089771D01*
X169993429Y-72089771D01*
X169850571Y-72161200D01*
X169779143Y-72304057D01*
X169779143Y-72661200D01*
X169707714Y-72804057D01*
X169350571Y-73518343D02*
X170350571Y-73518343D01*
X169493429Y-73518343D02*
X169422000Y-73589771D01*
X169350571Y-73732629D01*
X169350571Y-73946914D01*
X169422000Y-74089771D01*
X169564857Y-74161200D01*
X170350571Y-74161200D01*
X170350571Y-75518343D02*
X169564857Y-75518343D01*
X169422000Y-75446914D01*
X169350571Y-75304057D01*
X169350571Y-75018343D01*
X169422000Y-74875486D01*
X170279143Y-75518343D02*
X170350571Y-75375486D01*
X170350571Y-75018343D01*
X170279143Y-74875486D01*
X170136286Y-74804057D01*
X169993429Y-74804057D01*
X169850571Y-74875486D01*
X169779143Y-75018343D01*
X169779143Y-75375486D01*
X169707714Y-75518343D01*
X169350571Y-78018343D02*
X170350571Y-78018343D01*
X168779143Y-77661200D02*
X169850571Y-77304057D01*
X169850571Y-78232629D01*
X170350571Y-79946914D02*
X169350571Y-79946914D01*
X169493429Y-79946914D02*
X169422000Y-80018342D01*
X169350571Y-80161200D01*
X169350571Y-80375485D01*
X169422000Y-80518342D01*
X169564857Y-80589771D01*
X170350571Y-80589771D01*
X169564857Y-80589771D02*
X169422000Y-80661200D01*
X169350571Y-80804057D01*
X169350571Y-81018342D01*
X169422000Y-81161200D01*
X169564857Y-81232628D01*
X170350571Y-81232628D01*
X170350571Y-82161200D02*
X170279143Y-82018342D01*
X170207714Y-81946914D01*
X170064857Y-81875485D01*
X169636286Y-81875485D01*
X169493429Y-81946914D01*
X169422000Y-82018342D01*
X169350571Y-82161200D01*
X169350571Y-82375485D01*
X169422000Y-82518342D01*
X169493429Y-82589771D01*
X169636286Y-82661200D01*
X170064857Y-82661200D01*
X170207714Y-82589771D01*
X170279143Y-82518342D01*
X170350571Y-82375485D01*
X170350571Y-82161200D01*
X170350571Y-83946914D02*
X168850571Y-83946914D01*
X170279143Y-83946914D02*
X170350571Y-83804057D01*
X170350571Y-83518343D01*
X170279143Y-83375485D01*
X170207714Y-83304057D01*
X170064857Y-83232628D01*
X169636286Y-83232628D01*
X169493429Y-83304057D01*
X169422000Y-83375485D01*
X169350571Y-83518343D01*
X169350571Y-83804057D01*
X169422000Y-83946914D01*
D12*
X73787000Y-151511000D02*
X172212000Y-151511000D01*
X172212000Y-111506000D02*
X73787000Y-111506000D01*
X170815000Y-108204000D02*
X170815000Y-69850000D01*
X81407000Y-108204000D02*
X81407000Y-69723000D01*
D11*
X79483829Y-126212514D02*
X80983829Y-126212514D01*
X80983829Y-125641086D01*
X80912400Y-125498228D01*
X80840971Y-125426800D01*
X80698114Y-125355371D01*
X80483829Y-125355371D01*
X80340971Y-125426800D01*
X80269543Y-125498228D01*
X80198114Y-125641086D01*
X80198114Y-126212514D01*
X79483829Y-124498228D02*
X79555257Y-124641086D01*
X79698114Y-124712514D01*
X80983829Y-124712514D01*
X79483829Y-123283943D02*
X80269543Y-123283943D01*
X80412400Y-123355372D01*
X80483829Y-123498229D01*
X80483829Y-123783943D01*
X80412400Y-123926800D01*
X79555257Y-123283943D02*
X79483829Y-123426800D01*
X79483829Y-123783943D01*
X79555257Y-123926800D01*
X79698114Y-123998229D01*
X79840971Y-123998229D01*
X79983829Y-123926800D01*
X80055257Y-123783943D01*
X80055257Y-123426800D01*
X80126686Y-123283943D01*
X80483829Y-122569657D02*
X79483829Y-122569657D01*
X80340971Y-122569657D02*
X80412400Y-122498229D01*
X80483829Y-122355371D01*
X80483829Y-122141086D01*
X80412400Y-121998229D01*
X80269543Y-121926800D01*
X79483829Y-121926800D01*
X79483829Y-120569657D02*
X80269543Y-120569657D01*
X80412400Y-120641086D01*
X80483829Y-120783943D01*
X80483829Y-121069657D01*
X80412400Y-121212514D01*
X79555257Y-120569657D02*
X79483829Y-120712514D01*
X79483829Y-121069657D01*
X79555257Y-121212514D01*
X79698114Y-121283943D01*
X79840971Y-121283943D01*
X79983829Y-121212514D01*
X80055257Y-121069657D01*
X80055257Y-120712514D01*
X80126686Y-120569657D01*
X80483829Y-118069657D02*
X79483829Y-118069657D01*
X81055257Y-118426800D02*
X79983829Y-118783943D01*
X79983829Y-117855371D01*
X79483829Y-116141086D02*
X80483829Y-116141086D01*
X80340971Y-116141086D02*
X80412400Y-116069658D01*
X80483829Y-115926800D01*
X80483829Y-115712515D01*
X80412400Y-115569658D01*
X80269543Y-115498229D01*
X79483829Y-115498229D01*
X80269543Y-115498229D02*
X80412400Y-115426800D01*
X80483829Y-115283943D01*
X80483829Y-115069658D01*
X80412400Y-114926800D01*
X80269543Y-114855372D01*
X79483829Y-114855372D01*
X79483829Y-113926800D02*
X79555257Y-114069658D01*
X79626686Y-114141086D01*
X79769543Y-114212515D01*
X80198114Y-114212515D01*
X80340971Y-114141086D01*
X80412400Y-114069658D01*
X80483829Y-113926800D01*
X80483829Y-113712515D01*
X80412400Y-113569658D01*
X80340971Y-113498229D01*
X80198114Y-113426800D01*
X79769543Y-113426800D01*
X79626686Y-113498229D01*
X79555257Y-113569658D01*
X79483829Y-113712515D01*
X79483829Y-113926800D01*
X79483829Y-112141086D02*
X80983829Y-112141086D01*
X79555257Y-112141086D02*
X79483829Y-112283943D01*
X79483829Y-112569657D01*
X79555257Y-112712515D01*
X79626686Y-112783943D01*
X79769543Y-112855372D01*
X80198114Y-112855372D01*
X80340971Y-112783943D01*
X80412400Y-112712515D01*
X80483829Y-112569657D01*
X80483829Y-112283943D01*
X80412400Y-112141086D01*
X170350571Y-112090286D02*
X168850571Y-112090286D01*
X168850571Y-112661714D01*
X168922000Y-112804572D01*
X168993429Y-112876000D01*
X169136286Y-112947429D01*
X169350571Y-112947429D01*
X169493429Y-112876000D01*
X169564857Y-112804572D01*
X169636286Y-112661714D01*
X169636286Y-112090286D01*
X170350571Y-113804572D02*
X170279143Y-113661714D01*
X170136286Y-113590286D01*
X168850571Y-113590286D01*
X170350571Y-115018857D02*
X169564857Y-115018857D01*
X169422000Y-114947428D01*
X169350571Y-114804571D01*
X169350571Y-114518857D01*
X169422000Y-114376000D01*
X170279143Y-115018857D02*
X170350571Y-114876000D01*
X170350571Y-114518857D01*
X170279143Y-114376000D01*
X170136286Y-114304571D01*
X169993429Y-114304571D01*
X169850571Y-114376000D01*
X169779143Y-114518857D01*
X169779143Y-114876000D01*
X169707714Y-115018857D01*
X169350571Y-115733143D02*
X170350571Y-115733143D01*
X169493429Y-115733143D02*
X169422000Y-115804571D01*
X169350571Y-115947429D01*
X169350571Y-116161714D01*
X169422000Y-116304571D01*
X169564857Y-116376000D01*
X170350571Y-116376000D01*
X170350571Y-117733143D02*
X169564857Y-117733143D01*
X169422000Y-117661714D01*
X169350571Y-117518857D01*
X169350571Y-117233143D01*
X169422000Y-117090286D01*
X170279143Y-117733143D02*
X170350571Y-117590286D01*
X170350571Y-117233143D01*
X170279143Y-117090286D01*
X170136286Y-117018857D01*
X169993429Y-117018857D01*
X169850571Y-117090286D01*
X169779143Y-117233143D01*
X169779143Y-117590286D01*
X169707714Y-117733143D01*
X169350571Y-120233143D02*
X170350571Y-120233143D01*
X168779143Y-119876000D02*
X169850571Y-119518857D01*
X169850571Y-120447429D01*
X170350571Y-122161714D02*
X169350571Y-122161714D01*
X169493429Y-122161714D02*
X169422000Y-122233142D01*
X169350571Y-122376000D01*
X169350571Y-122590285D01*
X169422000Y-122733142D01*
X169564857Y-122804571D01*
X170350571Y-122804571D01*
X169564857Y-122804571D02*
X169422000Y-122876000D01*
X169350571Y-123018857D01*
X169350571Y-123233142D01*
X169422000Y-123376000D01*
X169564857Y-123447428D01*
X170350571Y-123447428D01*
X170350571Y-124376000D02*
X170279143Y-124233142D01*
X170207714Y-124161714D01*
X170064857Y-124090285D01*
X169636286Y-124090285D01*
X169493429Y-124161714D01*
X169422000Y-124233142D01*
X169350571Y-124376000D01*
X169350571Y-124590285D01*
X169422000Y-124733142D01*
X169493429Y-124804571D01*
X169636286Y-124876000D01*
X170064857Y-124876000D01*
X170207714Y-124804571D01*
X170279143Y-124733142D01*
X170350571Y-124590285D01*
X170350571Y-124376000D01*
X170350571Y-126161714D02*
X168850571Y-126161714D01*
X170279143Y-126161714D02*
X170350571Y-126018857D01*
X170350571Y-125733143D01*
X170279143Y-125590285D01*
X170207714Y-125518857D01*
X170064857Y-125447428D01*
X169636286Y-125447428D01*
X169493429Y-125518857D01*
X169422000Y-125590285D01*
X169350571Y-125733143D01*
X169350571Y-126018857D01*
X169422000Y-126161714D01*
D12*
X170815000Y-153289000D02*
X170815000Y-109728000D01*
X81407000Y-153289000D02*
X81407000Y-109728000D01*
X126111000Y-110744000D02*
X126111000Y-112268000D01*
X126111000Y-150876000D02*
X126111000Y-152019000D01*
D11*
X135322571Y-80650001D02*
X135322571Y-79935715D01*
X136036857Y-79864286D01*
X135965429Y-79935715D01*
X135894000Y-80078572D01*
X135894000Y-80435715D01*
X135965429Y-80578572D01*
X136036857Y-80650001D01*
X136179714Y-80721429D01*
X136536857Y-80721429D01*
X136679714Y-80650001D01*
X136751143Y-80578572D01*
X136822571Y-80435715D01*
X136822571Y-80078572D01*
X136751143Y-79935715D01*
X136679714Y-79864286D01*
X135322571Y-81150000D02*
X136822571Y-81650000D01*
X135322571Y-82150000D01*
X136822571Y-83792857D02*
X135822571Y-83792857D01*
X135322571Y-83792857D02*
X135394000Y-83721428D01*
X135465429Y-83792857D01*
X135394000Y-83864285D01*
X135322571Y-83792857D01*
X135465429Y-83792857D01*
X135822571Y-84507143D02*
X136822571Y-84507143D01*
X135965429Y-84507143D02*
X135894000Y-84578571D01*
X135822571Y-84721429D01*
X135822571Y-84935714D01*
X135894000Y-85078571D01*
X136036857Y-85150000D01*
X136822571Y-85150000D01*
X135251143Y-88078571D02*
X137179714Y-86792857D01*
X135322571Y-89578572D02*
X135322571Y-90507143D01*
X135894000Y-90007143D01*
X135894000Y-90221429D01*
X135965429Y-90364286D01*
X136036857Y-90435715D01*
X136179714Y-90507143D01*
X136536857Y-90507143D01*
X136679714Y-90435715D01*
X136751143Y-90364286D01*
X136822571Y-90221429D01*
X136822571Y-89792857D01*
X136751143Y-89650000D01*
X136679714Y-89578572D01*
X135322571Y-90935714D02*
X136822571Y-91435714D01*
X135322571Y-91935714D01*
X135322571Y-92292857D02*
X135322571Y-93221428D01*
X135894000Y-92721428D01*
X135894000Y-92935714D01*
X135965429Y-93078571D01*
X136036857Y-93150000D01*
X136179714Y-93221428D01*
X136536857Y-93221428D01*
X136679714Y-93150000D01*
X136751143Y-93078571D01*
X136822571Y-92935714D01*
X136822571Y-92507142D01*
X136751143Y-92364285D01*
X136679714Y-92292857D01*
X136822571Y-95221428D02*
X136751143Y-95078570D01*
X136679714Y-95007142D01*
X136536857Y-94935713D01*
X136108286Y-94935713D01*
X135965429Y-95007142D01*
X135894000Y-95078570D01*
X135822571Y-95221428D01*
X135822571Y-95435713D01*
X135894000Y-95578570D01*
X135965429Y-95649999D01*
X136108286Y-95721428D01*
X136536857Y-95721428D01*
X136679714Y-95649999D01*
X136751143Y-95578570D01*
X136822571Y-95435713D01*
X136822571Y-95221428D01*
X135822571Y-97007142D02*
X136822571Y-97007142D01*
X135822571Y-96364285D02*
X136608286Y-96364285D01*
X136751143Y-96435713D01*
X136822571Y-96578571D01*
X136822571Y-96792856D01*
X136751143Y-96935713D01*
X136679714Y-97007142D01*
X135822571Y-97507142D02*
X135822571Y-98078571D01*
X135322571Y-97721428D02*
X136608286Y-97721428D01*
X136751143Y-97792856D01*
X136822571Y-97935714D01*
X136822571Y-98078571D01*
X134690428Y-72192571D02*
X134690428Y-70692571D01*
X134333285Y-70692571D01*
X134119000Y-70764000D01*
X133976142Y-70906857D01*
X133904714Y-71049714D01*
X133833285Y-71335429D01*
X133833285Y-71549714D01*
X133904714Y-71835429D01*
X133976142Y-71978286D01*
X134119000Y-72121143D01*
X134333285Y-72192571D01*
X134690428Y-72192571D01*
X132976142Y-72192571D02*
X133119000Y-72121143D01*
X133190428Y-72049714D01*
X133261857Y-71906857D01*
X133261857Y-71478286D01*
X133190428Y-71335429D01*
X133119000Y-71264000D01*
X132976142Y-71192571D01*
X132761857Y-71192571D01*
X132619000Y-71264000D01*
X132547571Y-71335429D01*
X132476142Y-71478286D01*
X132476142Y-71906857D01*
X132547571Y-72049714D01*
X132619000Y-72121143D01*
X132761857Y-72192571D01*
X132976142Y-72192571D01*
X131833285Y-72192571D02*
X131833285Y-71192571D01*
X131833285Y-71335429D02*
X131761857Y-71264000D01*
X131618999Y-71192571D01*
X131404714Y-71192571D01*
X131261857Y-71264000D01*
X131190428Y-71406857D01*
X131190428Y-72192571D01*
X131190428Y-71406857D02*
X131118999Y-71264000D01*
X130976142Y-71192571D01*
X130761857Y-71192571D01*
X130618999Y-71264000D01*
X130547571Y-71406857D01*
X130547571Y-72192571D01*
X129618999Y-72192571D02*
X129761857Y-72121143D01*
X129833285Y-72049714D01*
X129904714Y-71906857D01*
X129904714Y-71478286D01*
X129833285Y-71335429D01*
X129761857Y-71264000D01*
X129618999Y-71192571D01*
X129404714Y-71192571D01*
X129261857Y-71264000D01*
X129190428Y-71335429D01*
X129118999Y-71478286D01*
X129118999Y-71906857D01*
X129190428Y-72049714D01*
X129261857Y-72121143D01*
X129404714Y-72192571D01*
X129618999Y-72192571D01*
X128476142Y-72192571D02*
X128476142Y-70692571D01*
X128118999Y-70692571D01*
X127904714Y-70764000D01*
X127761856Y-70906857D01*
X127690428Y-71049714D01*
X127618999Y-71335429D01*
X127618999Y-71549714D01*
X127690428Y-71835429D01*
X127761856Y-71978286D01*
X127904714Y-72121143D01*
X128118999Y-72192571D01*
X128476142Y-72192571D01*
X126976142Y-72192571D02*
X126976142Y-71192571D01*
X126976142Y-70692571D02*
X127047571Y-70764000D01*
X126976142Y-70835429D01*
X126904714Y-70764000D01*
X126976142Y-70692571D01*
X126976142Y-70835429D01*
X126333285Y-72121143D02*
X126190428Y-72192571D01*
X125904713Y-72192571D01*
X125761856Y-72121143D01*
X125690428Y-71978286D01*
X125690428Y-71906857D01*
X125761856Y-71764000D01*
X125904713Y-71692571D01*
X126118999Y-71692571D01*
X126261856Y-71621143D01*
X126333285Y-71478286D01*
X126333285Y-71406857D01*
X126261856Y-71264000D01*
X126118999Y-71192571D01*
X125904713Y-71192571D01*
X125761856Y-71264000D01*
X125047570Y-71192571D02*
X125047570Y-72692571D01*
X125047570Y-71264000D02*
X124904713Y-71192571D01*
X124618999Y-71192571D01*
X124476142Y-71264000D01*
X124404713Y-71335429D01*
X124333284Y-71478286D01*
X124333284Y-71906857D01*
X124404713Y-72049714D01*
X124476142Y-72121143D01*
X124618999Y-72192571D01*
X124904713Y-72192571D01*
X125047570Y-72121143D01*
X122690427Y-71192571D02*
X122333284Y-72192571D01*
X121976142Y-71192571D01*
X120618999Y-72192571D02*
X121476142Y-72192571D01*
X121047570Y-72192571D02*
X121047570Y-70692571D01*
X121190427Y-70906857D01*
X121333285Y-71049714D01*
X121476142Y-71121143D01*
X119976142Y-72049714D02*
X119904714Y-72121143D01*
X119976142Y-72192571D01*
X120047571Y-72121143D01*
X119976142Y-72049714D01*
X119976142Y-72192571D01*
X118476142Y-72192571D02*
X119333285Y-72192571D01*
X118904713Y-72192571D02*
X118904713Y-70692571D01*
X119047570Y-70906857D01*
X119190428Y-71049714D01*
X119333285Y-71121143D01*
X135226142Y-74592571D02*
X135226142Y-73092571D01*
X134868999Y-73092571D01*
X134654714Y-73164000D01*
X134511856Y-73306857D01*
X134440428Y-73449714D01*
X134368999Y-73735429D01*
X134368999Y-73949714D01*
X134440428Y-74235429D01*
X134511856Y-74378286D01*
X134654714Y-74521143D01*
X134868999Y-74592571D01*
X135226142Y-74592571D01*
X133154714Y-74521143D02*
X133297571Y-74592571D01*
X133583285Y-74592571D01*
X133726142Y-74521143D01*
X133797571Y-74378286D01*
X133797571Y-73806857D01*
X133726142Y-73664000D01*
X133583285Y-73592571D01*
X133297571Y-73592571D01*
X133154714Y-73664000D01*
X133083285Y-73806857D01*
X133083285Y-73949714D01*
X133797571Y-74092571D01*
X132511857Y-74521143D02*
X132369000Y-74592571D01*
X132083285Y-74592571D01*
X131940428Y-74521143D01*
X131869000Y-74378286D01*
X131869000Y-74306857D01*
X131940428Y-74164000D01*
X132083285Y-74092571D01*
X132297571Y-74092571D01*
X132440428Y-74021143D01*
X132511857Y-73878286D01*
X132511857Y-73806857D01*
X132440428Y-73664000D01*
X132297571Y-73592571D01*
X132083285Y-73592571D01*
X131940428Y-73664000D01*
X131226142Y-74592571D02*
X131226142Y-73592571D01*
X131226142Y-73092571D02*
X131297571Y-73164000D01*
X131226142Y-73235429D01*
X131154714Y-73164000D01*
X131226142Y-73092571D01*
X131226142Y-73235429D01*
X129868999Y-73592571D02*
X129868999Y-74806857D01*
X129940428Y-74949714D01*
X130011856Y-75021143D01*
X130154713Y-75092571D01*
X130368999Y-75092571D01*
X130511856Y-75021143D01*
X129868999Y-74521143D02*
X130011856Y-74592571D01*
X130297570Y-74592571D01*
X130440428Y-74521143D01*
X130511856Y-74449714D01*
X130583285Y-74306857D01*
X130583285Y-73878286D01*
X130511856Y-73735429D01*
X130440428Y-73664000D01*
X130297570Y-73592571D01*
X130011856Y-73592571D01*
X129868999Y-73664000D01*
X129154713Y-73592571D02*
X129154713Y-74592571D01*
X129154713Y-73735429D02*
X129083285Y-73664000D01*
X128940427Y-73592571D01*
X128726142Y-73592571D01*
X128583285Y-73664000D01*
X128511856Y-73806857D01*
X128511856Y-74592571D01*
X126726142Y-73235429D02*
X126654713Y-73164000D01*
X126511856Y-73092571D01*
X126154713Y-73092571D01*
X126011856Y-73164000D01*
X125940427Y-73235429D01*
X125868999Y-73378286D01*
X125868999Y-73521143D01*
X125940427Y-73735429D01*
X126797570Y-74592571D01*
X125868999Y-74592571D01*
X124940428Y-73092571D02*
X124797571Y-73092571D01*
X124654714Y-73164000D01*
X124583285Y-73235429D01*
X124511856Y-73378286D01*
X124440428Y-73664000D01*
X124440428Y-74021143D01*
X124511856Y-74306857D01*
X124583285Y-74449714D01*
X124654714Y-74521143D01*
X124797571Y-74592571D01*
X124940428Y-74592571D01*
X125083285Y-74521143D01*
X125154714Y-74449714D01*
X125226142Y-74306857D01*
X125297571Y-74021143D01*
X125297571Y-73664000D01*
X125226142Y-73378286D01*
X125154714Y-73235429D01*
X125083285Y-73164000D01*
X124940428Y-73092571D01*
X123011857Y-74592571D02*
X123869000Y-74592571D01*
X123440428Y-74592571D02*
X123440428Y-73092571D01*
X123583285Y-73306857D01*
X123726143Y-73449714D01*
X123869000Y-73521143D01*
X122154714Y-73735429D02*
X122297572Y-73664000D01*
X122369000Y-73592571D01*
X122440429Y-73449714D01*
X122440429Y-73378286D01*
X122369000Y-73235429D01*
X122297572Y-73164000D01*
X122154714Y-73092571D01*
X121869000Y-73092571D01*
X121726143Y-73164000D01*
X121654714Y-73235429D01*
X121583286Y-73378286D01*
X121583286Y-73449714D01*
X121654714Y-73592571D01*
X121726143Y-73664000D01*
X121869000Y-73735429D01*
X122154714Y-73735429D01*
X122297572Y-73806857D01*
X122369000Y-73878286D01*
X122440429Y-74021143D01*
X122440429Y-74306857D01*
X122369000Y-74449714D01*
X122297572Y-74521143D01*
X122154714Y-74592571D01*
X121869000Y-74592571D01*
X121726143Y-74521143D01*
X121654714Y-74449714D01*
X121583286Y-74306857D01*
X121583286Y-74021143D01*
X121654714Y-73878286D01*
X121726143Y-73806857D01*
X121869000Y-73735429D01*
X119797572Y-74592571D02*
X119797572Y-73092571D01*
X119797572Y-73664000D02*
X119654715Y-73592571D01*
X119369001Y-73592571D01*
X119226144Y-73664000D01*
X119154715Y-73735429D01*
X119083286Y-73878286D01*
X119083286Y-74306857D01*
X119154715Y-74449714D01*
X119226144Y-74521143D01*
X119369001Y-74592571D01*
X119654715Y-74592571D01*
X119797572Y-74521143D01*
X118583286Y-73592571D02*
X118226143Y-74592571D01*
X117869001Y-73592571D02*
X118226143Y-74592571D01*
X118369001Y-74949714D01*
X118440429Y-75021143D01*
X118583286Y-75092571D01*
X134297571Y-75992571D02*
X134297571Y-76992571D01*
X134297571Y-76135429D02*
X134226143Y-76064000D01*
X134083285Y-75992571D01*
X133869000Y-75992571D01*
X133726143Y-76064000D01*
X133654714Y-76206857D01*
X133654714Y-76992571D01*
X132297571Y-76992571D02*
X132297571Y-75492571D01*
X132297571Y-76921143D02*
X132440428Y-76992571D01*
X132726142Y-76992571D01*
X132869000Y-76921143D01*
X132940428Y-76849714D01*
X133011857Y-76706857D01*
X133011857Y-76278286D01*
X132940428Y-76135429D01*
X132869000Y-76064000D01*
X132726142Y-75992571D01*
X132440428Y-75992571D01*
X132297571Y-76064000D01*
X131583285Y-76992571D02*
X131583285Y-75492571D01*
X131440428Y-76421143D02*
X131011857Y-76992571D01*
X131011857Y-75992571D02*
X131583285Y-76564000D01*
X129440428Y-76278286D02*
X129511856Y-76206857D01*
X129654713Y-76135429D01*
X129797571Y-76135429D01*
X129940428Y-76206857D01*
X130011856Y-76278286D01*
X130083285Y-76421143D01*
X130083285Y-76564000D01*
X130011856Y-76706857D01*
X129940428Y-76778286D01*
X129797571Y-76849714D01*
X129654713Y-76849714D01*
X129511856Y-76778286D01*
X129440428Y-76706857D01*
X129440428Y-76135429D02*
X129440428Y-76706857D01*
X129368999Y-76778286D01*
X129297571Y-76778286D01*
X129154713Y-76706857D01*
X129083285Y-76564000D01*
X129083285Y-76206857D01*
X129226142Y-75992571D01*
X129440428Y-75849714D01*
X129726142Y-75778286D01*
X130011856Y-75849714D01*
X130226142Y-75992571D01*
X130368999Y-76206857D01*
X130440428Y-76492571D01*
X130368999Y-76778286D01*
X130226142Y-76992571D01*
X130011856Y-77135429D01*
X129726142Y-77206857D01*
X129440428Y-77135429D01*
X129226142Y-76992571D01*
X127797571Y-76921143D02*
X127940428Y-76992571D01*
X128226142Y-76992571D01*
X128369000Y-76921143D01*
X128440428Y-76849714D01*
X128511857Y-76706857D01*
X128511857Y-76278286D01*
X128440428Y-76135429D01*
X128369000Y-76064000D01*
X128226142Y-75992571D01*
X127940428Y-75992571D01*
X127797571Y-76064000D01*
X127226143Y-76921143D02*
X127083286Y-76992571D01*
X126797571Y-76992571D01*
X126654714Y-76921143D01*
X126583286Y-76778286D01*
X126583286Y-76706857D01*
X126654714Y-76564000D01*
X126797571Y-76492571D01*
X127011857Y-76492571D01*
X127154714Y-76421143D01*
X127226143Y-76278286D01*
X127226143Y-76206857D01*
X127154714Y-76064000D01*
X127011857Y-75992571D01*
X126797571Y-75992571D01*
X126654714Y-76064000D01*
X126011857Y-76921143D02*
X125869000Y-76992571D01*
X125583285Y-76992571D01*
X125440428Y-76921143D01*
X125369000Y-76778286D01*
X125369000Y-76706857D01*
X125440428Y-76564000D01*
X125583285Y-76492571D01*
X125797571Y-76492571D01*
X125940428Y-76421143D01*
X126011857Y-76278286D01*
X126011857Y-76206857D01*
X125940428Y-76064000D01*
X125797571Y-75992571D01*
X125583285Y-75992571D01*
X125440428Y-76064000D01*
X124726142Y-76992571D02*
X124726142Y-75492571D01*
X124083285Y-76992571D02*
X124083285Y-76206857D01*
X124154714Y-76064000D01*
X124297571Y-75992571D01*
X124511856Y-75992571D01*
X124654714Y-76064000D01*
X124726142Y-76135429D01*
X123154713Y-76992571D02*
X123297571Y-76921143D01*
X123368999Y-76778286D01*
X123368999Y-75492571D01*
X122583285Y-76849714D02*
X122511857Y-76921143D01*
X122583285Y-76992571D01*
X122654714Y-76921143D01*
X122583285Y-76849714D01*
X122583285Y-76992571D01*
X121654713Y-76992571D02*
X121797571Y-76921143D01*
X121868999Y-76849714D01*
X121940428Y-76706857D01*
X121940428Y-76278286D01*
X121868999Y-76135429D01*
X121797571Y-76064000D01*
X121654713Y-75992571D01*
X121440428Y-75992571D01*
X121297571Y-76064000D01*
X121226142Y-76135429D01*
X121154713Y-76278286D01*
X121154713Y-76706857D01*
X121226142Y-76849714D01*
X121297571Y-76921143D01*
X121440428Y-76992571D01*
X121654713Y-76992571D01*
X120511856Y-76992571D02*
X120511856Y-75992571D01*
X120511856Y-76278286D02*
X120440428Y-76135429D01*
X120368999Y-76064000D01*
X120226142Y-75992571D01*
X120083285Y-75992571D01*
X118940428Y-75992571D02*
X118940428Y-77206857D01*
X119011857Y-77349714D01*
X119083285Y-77421143D01*
X119226142Y-77492571D01*
X119440428Y-77492571D01*
X119583285Y-77421143D01*
X118940428Y-76921143D02*
X119083285Y-76992571D01*
X119368999Y-76992571D01*
X119511857Y-76921143D01*
X119583285Y-76849714D01*
X119654714Y-76706857D01*
X119654714Y-76278286D01*
X119583285Y-76135429D01*
X119511857Y-76064000D01*
X119368999Y-75992571D01*
X119083285Y-75992571D01*
X118940428Y-76064000D01*
D13*
X102870000Y-84709000D02*
X102870000Y-83947000D01*
X102870000Y-83947000D02*
X118872000Y-83947000D01*
X118872000Y-83947000D02*
X118872000Y-84709000D01*
D14*
X103132000Y-77128000D02*
X104132000Y-77128000D01*
X104132000Y-78828000D02*
X103132000Y-78828000D01*
X103132000Y-80303000D02*
X104132000Y-80303000D01*
X104132000Y-82003000D02*
X103132000Y-82003000D01*
D12*
X125324000Y-99050000D02*
X134264000Y-99050000D01*
X134264000Y-99050000D02*
X134264000Y-78750000D01*
X134264000Y-78750000D02*
X125324000Y-78750000D01*
X125324000Y-78750000D02*
X125324000Y-99050000D01*
X125324000Y-91125000D02*
X126624000Y-91125000D01*
X126624000Y-91125000D02*
X126624000Y-97850000D01*
X126624000Y-97850000D02*
X132964000Y-97850000D01*
X132964000Y-97850000D02*
X132964000Y-79950000D01*
X132964000Y-79950000D02*
X126624000Y-79950000D01*
X126624000Y-79950000D02*
X126624000Y-86675000D01*
X126624000Y-86675000D02*
X125324000Y-86675000D01*
X134264000Y-89150000D02*
X134464000Y-89150000D01*
X134464000Y-89150000D02*
X134464000Y-88650000D01*
X134464000Y-88650000D02*
X134264000Y-88650000D01*
X134364000Y-89150000D02*
X134364000Y-88650000D01*
X134264000Y-81670000D02*
X134464000Y-81670000D01*
X134464000Y-81670000D02*
X134464000Y-81170000D01*
X134464000Y-81170000D02*
X134264000Y-81170000D01*
X134364000Y-81670000D02*
X134364000Y-81170000D01*
X134264000Y-96630000D02*
X134464000Y-96630000D01*
X134464000Y-96630000D02*
X134464000Y-96130000D01*
X134464000Y-96130000D02*
X134264000Y-96130000D01*
X134364000Y-96630000D02*
X134364000Y-96130000D01*
X127924000Y-96180000D02*
X129124000Y-96180000D01*
X129124000Y-96180000D02*
X128524000Y-95580000D01*
X128524000Y-95580000D02*
X127924000Y-96180000D01*
D14*
X123181000Y-93310000D02*
X123181000Y-92110000D01*
X121421000Y-92110000D02*
X121421000Y-93310000D01*
X137423000Y-79918000D02*
X137423000Y-81118000D01*
X139183000Y-81118000D02*
X139183000Y-79918000D01*
X142612000Y-81118000D02*
X142612000Y-79918000D01*
X140852000Y-79918000D02*
X140852000Y-81118000D01*
X144408000Y-79918000D02*
X144408000Y-81118000D01*
X146168000Y-81118000D02*
X146168000Y-79918000D01*
X154296000Y-92040000D02*
X154296000Y-90840000D01*
X152536000Y-90840000D02*
X152536000Y-92040000D01*
X150486000Y-92040000D02*
X150486000Y-90840000D01*
X148726000Y-90840000D02*
X148726000Y-92040000D01*
X150486000Y-86452000D02*
X150486000Y-85252000D01*
X148726000Y-85252000D02*
X148726000Y-86452000D01*
X91586000Y-73528000D02*
X92846000Y-73528000D01*
X98406000Y-73528000D02*
X97146000Y-73528000D01*
X91586000Y-77288000D02*
X91586000Y-73528000D01*
X98406000Y-79538000D02*
X98406000Y-73528000D01*
X92066000Y-84848000D02*
X95386000Y-84848000D01*
X95386000Y-84848000D02*
X95386000Y-93968000D01*
X95386000Y-93968000D02*
X92066000Y-93968000D01*
X92066000Y-93968000D02*
X92066000Y-84848000D01*
X93726000Y-84038000D02*
X93726000Y-84848000D01*
X93726000Y-94778000D02*
X93726000Y-93968000D01*
X114868000Y-76902000D02*
X114868000Y-79562000D01*
X109728000Y-76902000D02*
X114868000Y-76902000D01*
X109728000Y-79562000D02*
X114868000Y-79562000D01*
X109728000Y-76902000D02*
X109728000Y-79562000D01*
X108458000Y-76902000D02*
X107128000Y-76902000D01*
X107128000Y-76902000D02*
X107128000Y-78232000D01*
X97545000Y-99857000D02*
X97545000Y-101057000D01*
X99305000Y-101057000D02*
X99305000Y-99857000D01*
X93735000Y-99857000D02*
X93735000Y-101057000D01*
X95495000Y-101057000D02*
X95495000Y-99857000D01*
X121421000Y-83728000D02*
X121421000Y-84928000D01*
X123181000Y-84928000D02*
X123181000Y-83728000D01*
X123181000Y-89119000D02*
X123181000Y-87919000D01*
X121421000Y-87919000D02*
X121421000Y-89119000D01*
D12*
X106147905Y-82420381D02*
X106147905Y-83229905D01*
X106100286Y-83325143D01*
X106052667Y-83372762D01*
X105957429Y-83420381D01*
X105766952Y-83420381D01*
X105671714Y-83372762D01*
X105624095Y-83325143D01*
X105576476Y-83229905D01*
X105576476Y-82420381D01*
X105147905Y-82515619D02*
X105100286Y-82468000D01*
X105005048Y-82420381D01*
X104766952Y-82420381D01*
X104671714Y-82468000D01*
X104624095Y-82515619D01*
X104576476Y-82610857D01*
X104576476Y-82706095D01*
X104624095Y-82848952D01*
X105195524Y-83420381D01*
X104576476Y-83420381D01*
X101004666Y-78335143D02*
X101052285Y-78382762D01*
X101195142Y-78430381D01*
X101290380Y-78430381D01*
X101433238Y-78382762D01*
X101528476Y-78287524D01*
X101576095Y-78192286D01*
X101623714Y-78001810D01*
X101623714Y-77858952D01*
X101576095Y-77668476D01*
X101528476Y-77573238D01*
X101433238Y-77478000D01*
X101290380Y-77430381D01*
X101195142Y-77430381D01*
X101052285Y-77478000D01*
X101004666Y-77525619D01*
X100052285Y-78430381D02*
X100623714Y-78430381D01*
X100338000Y-78430381D02*
X100338000Y-77430381D01*
X100433238Y-77573238D01*
X100528476Y-77668476D01*
X100623714Y-77716095D01*
X101004666Y-81510143D02*
X101052285Y-81557762D01*
X101195142Y-81605381D01*
X101290380Y-81605381D01*
X101433238Y-81557762D01*
X101528476Y-81462524D01*
X101576095Y-81367286D01*
X101623714Y-81176810D01*
X101623714Y-81033952D01*
X101576095Y-80843476D01*
X101528476Y-80748238D01*
X101433238Y-80653000D01*
X101290380Y-80605381D01*
X101195142Y-80605381D01*
X101052285Y-80653000D01*
X101004666Y-80700619D01*
X100623714Y-80700619D02*
X100576095Y-80653000D01*
X100480857Y-80605381D01*
X100242761Y-80605381D01*
X100147523Y-80653000D01*
X100099904Y-80700619D01*
X100052285Y-80795857D01*
X100052285Y-80891095D01*
X100099904Y-81033952D01*
X100671333Y-81605381D01*
X100052285Y-81605381D01*
X126436381Y-99591905D02*
X125436381Y-99591905D01*
X125436381Y-99972858D01*
X125484000Y-100068096D01*
X125531619Y-100115715D01*
X125626857Y-100163334D01*
X125769714Y-100163334D01*
X125864952Y-100115715D01*
X125912571Y-100068096D01*
X125960190Y-99972858D01*
X125960190Y-99591905D01*
X126436381Y-101115715D02*
X126436381Y-100544286D01*
X126436381Y-100830000D02*
X125436381Y-100830000D01*
X125579238Y-100734762D01*
X125674476Y-100639524D01*
X125722095Y-100544286D01*
X124404381Y-92543334D02*
X123928190Y-92210000D01*
X124404381Y-91971905D02*
X123404381Y-91971905D01*
X123404381Y-92352858D01*
X123452000Y-92448096D01*
X123499619Y-92495715D01*
X123594857Y-92543334D01*
X123737714Y-92543334D01*
X123832952Y-92495715D01*
X123880571Y-92448096D01*
X123928190Y-92352858D01*
X123928190Y-91971905D01*
X123404381Y-92876667D02*
X123404381Y-93495715D01*
X123785333Y-93162381D01*
X123785333Y-93305239D01*
X123832952Y-93400477D01*
X123880571Y-93448096D01*
X123975810Y-93495715D01*
X124213905Y-93495715D01*
X124309143Y-93448096D01*
X124356762Y-93400477D01*
X124404381Y-93305239D01*
X124404381Y-93019524D01*
X124356762Y-92924286D01*
X124309143Y-92876667D01*
X140405381Y-80351334D02*
X139929190Y-80018000D01*
X140405381Y-79779905D02*
X139405381Y-79779905D01*
X139405381Y-80160858D01*
X139453000Y-80256096D01*
X139500619Y-80303715D01*
X139595857Y-80351334D01*
X139738714Y-80351334D01*
X139833952Y-80303715D01*
X139881571Y-80256096D01*
X139929190Y-80160858D01*
X139929190Y-79779905D01*
X139738714Y-81208477D02*
X140405381Y-81208477D01*
X139357762Y-80970381D02*
X140072048Y-80732286D01*
X140072048Y-81351334D01*
X143962381Y-80351334D02*
X143486190Y-80018000D01*
X143962381Y-79779905D02*
X142962381Y-79779905D01*
X142962381Y-80160858D01*
X143010000Y-80256096D01*
X143057619Y-80303715D01*
X143152857Y-80351334D01*
X143295714Y-80351334D01*
X143390952Y-80303715D01*
X143438571Y-80256096D01*
X143486190Y-80160858D01*
X143486190Y-79779905D01*
X142962381Y-81256096D02*
X142962381Y-80779905D01*
X143438571Y-80732286D01*
X143390952Y-80779905D01*
X143343333Y-80875143D01*
X143343333Y-81113239D01*
X143390952Y-81208477D01*
X143438571Y-81256096D01*
X143533810Y-81303715D01*
X143771905Y-81303715D01*
X143867143Y-81256096D01*
X143914762Y-81208477D01*
X143962381Y-81113239D01*
X143962381Y-80875143D01*
X143914762Y-80779905D01*
X143867143Y-80732286D01*
X147390381Y-80351334D02*
X146914190Y-80018000D01*
X147390381Y-79779905D02*
X146390381Y-79779905D01*
X146390381Y-80160858D01*
X146438000Y-80256096D01*
X146485619Y-80303715D01*
X146580857Y-80351334D01*
X146723714Y-80351334D01*
X146818952Y-80303715D01*
X146866571Y-80256096D01*
X146914190Y-80160858D01*
X146914190Y-79779905D01*
X146390381Y-81208477D02*
X146390381Y-81018000D01*
X146438000Y-80922762D01*
X146485619Y-80875143D01*
X146628476Y-80779905D01*
X146818952Y-80732286D01*
X147199905Y-80732286D01*
X147295143Y-80779905D01*
X147342762Y-80827524D01*
X147390381Y-80922762D01*
X147390381Y-81113239D01*
X147342762Y-81208477D01*
X147295143Y-81256096D01*
X147199905Y-81303715D01*
X146961810Y-81303715D01*
X146866571Y-81256096D01*
X146818952Y-81208477D01*
X146771333Y-81113239D01*
X146771333Y-80922762D01*
X146818952Y-80827524D01*
X146866571Y-80779905D01*
X146961810Y-80732286D01*
X152218381Y-91273334D02*
X151742190Y-90940000D01*
X152218381Y-90701905D02*
X151218381Y-90701905D01*
X151218381Y-91082858D01*
X151266000Y-91178096D01*
X151313619Y-91225715D01*
X151408857Y-91273334D01*
X151551714Y-91273334D01*
X151646952Y-91225715D01*
X151694571Y-91178096D01*
X151742190Y-91082858D01*
X151742190Y-90701905D01*
X151646952Y-91844762D02*
X151599333Y-91749524D01*
X151551714Y-91701905D01*
X151456476Y-91654286D01*
X151408857Y-91654286D01*
X151313619Y-91701905D01*
X151266000Y-91749524D01*
X151218381Y-91844762D01*
X151218381Y-92035239D01*
X151266000Y-92130477D01*
X151313619Y-92178096D01*
X151408857Y-92225715D01*
X151456476Y-92225715D01*
X151551714Y-92178096D01*
X151599333Y-92130477D01*
X151646952Y-92035239D01*
X151646952Y-91844762D01*
X151694571Y-91749524D01*
X151742190Y-91701905D01*
X151837429Y-91654286D01*
X152027905Y-91654286D01*
X152123143Y-91701905D01*
X152170762Y-91749524D01*
X152218381Y-91844762D01*
X152218381Y-92035239D01*
X152170762Y-92130477D01*
X152123143Y-92178096D01*
X152027905Y-92225715D01*
X151837429Y-92225715D01*
X151742190Y-92178096D01*
X151694571Y-92130477D01*
X151646952Y-92035239D01*
X148408381Y-91273334D02*
X147932190Y-90940000D01*
X148408381Y-90701905D02*
X147408381Y-90701905D01*
X147408381Y-91082858D01*
X147456000Y-91178096D01*
X147503619Y-91225715D01*
X147598857Y-91273334D01*
X147741714Y-91273334D01*
X147836952Y-91225715D01*
X147884571Y-91178096D01*
X147932190Y-91082858D01*
X147932190Y-90701905D01*
X148408381Y-91749524D02*
X148408381Y-91940000D01*
X148360762Y-92035239D01*
X148313143Y-92082858D01*
X148170286Y-92178096D01*
X147979810Y-92225715D01*
X147598857Y-92225715D01*
X147503619Y-92178096D01*
X147456000Y-92130477D01*
X147408381Y-92035239D01*
X147408381Y-91844762D01*
X147456000Y-91749524D01*
X147503619Y-91701905D01*
X147598857Y-91654286D01*
X147836952Y-91654286D01*
X147932190Y-91701905D01*
X147979810Y-91749524D01*
X148027429Y-91844762D01*
X148027429Y-92035239D01*
X147979810Y-92130477D01*
X147932190Y-92178096D01*
X147836952Y-92225715D01*
X148408381Y-85209143D02*
X147932190Y-84875809D01*
X148408381Y-84637714D02*
X147408381Y-84637714D01*
X147408381Y-85018667D01*
X147456000Y-85113905D01*
X147503619Y-85161524D01*
X147598857Y-85209143D01*
X147741714Y-85209143D01*
X147836952Y-85161524D01*
X147884571Y-85113905D01*
X147932190Y-85018667D01*
X147932190Y-84637714D01*
X148408381Y-86161524D02*
X148408381Y-85590095D01*
X148408381Y-85875809D02*
X147408381Y-85875809D01*
X147551238Y-85780571D01*
X147646476Y-85685333D01*
X147694095Y-85590095D01*
X147408381Y-86780571D02*
X147408381Y-86875810D01*
X147456000Y-86971048D01*
X147503619Y-87018667D01*
X147598857Y-87066286D01*
X147789333Y-87113905D01*
X148027429Y-87113905D01*
X148217905Y-87066286D01*
X148313143Y-87018667D01*
X148360762Y-86971048D01*
X148408381Y-86875810D01*
X148408381Y-86780571D01*
X148360762Y-86685333D01*
X148313143Y-86637714D01*
X148217905Y-86590095D01*
X148027429Y-86542476D01*
X147789333Y-86542476D01*
X147598857Y-86590095D01*
X147503619Y-86637714D01*
X147456000Y-86685333D01*
X147408381Y-86780571D01*
X98948381Y-74676095D02*
X99757905Y-74676095D01*
X99853143Y-74723714D01*
X99900762Y-74771333D01*
X99948381Y-74866571D01*
X99948381Y-75057048D01*
X99900762Y-75152286D01*
X99853143Y-75199905D01*
X99757905Y-75247524D01*
X98948381Y-75247524D01*
X99948381Y-76247524D02*
X99948381Y-75676095D01*
X99948381Y-75961809D02*
X98948381Y-75961809D01*
X99091238Y-75866571D01*
X99186476Y-75771333D01*
X99234095Y-75676095D01*
X91518381Y-89241334D02*
X91042190Y-88908000D01*
X91518381Y-88669905D02*
X90518381Y-88669905D01*
X90518381Y-89050858D01*
X90566000Y-89146096D01*
X90613619Y-89193715D01*
X90708857Y-89241334D01*
X90851714Y-89241334D01*
X90946952Y-89193715D01*
X90994571Y-89146096D01*
X91042190Y-89050858D01*
X91042190Y-88669905D01*
X90518381Y-89574667D02*
X90518381Y-90241334D01*
X91518381Y-89812762D01*
X111609095Y-76525381D02*
X111609095Y-75525381D01*
X111228142Y-75525381D01*
X111132904Y-75573000D01*
X111085285Y-75620619D01*
X111037666Y-75715857D01*
X111037666Y-75858714D01*
X111085285Y-75953952D01*
X111132904Y-76001571D01*
X111228142Y-76049190D01*
X111609095Y-76049190D01*
X110656714Y-75620619D02*
X110609095Y-75573000D01*
X110513857Y-75525381D01*
X110275761Y-75525381D01*
X110180523Y-75573000D01*
X110132904Y-75620619D01*
X110085285Y-75715857D01*
X110085285Y-75811095D01*
X110132904Y-75953952D01*
X110704333Y-76525381D01*
X110085285Y-76525381D01*
X100655381Y-99814143D02*
X100179190Y-99480809D01*
X100655381Y-99242714D02*
X99655381Y-99242714D01*
X99655381Y-99623667D01*
X99703000Y-99718905D01*
X99750619Y-99766524D01*
X99845857Y-99814143D01*
X99988714Y-99814143D01*
X100083952Y-99766524D01*
X100131571Y-99718905D01*
X100179190Y-99623667D01*
X100179190Y-99242714D01*
X100655381Y-100766524D02*
X100655381Y-100195095D01*
X100655381Y-100480809D02*
X99655381Y-100480809D01*
X99798238Y-100385571D01*
X99893476Y-100290333D01*
X99941095Y-100195095D01*
X100655381Y-101718905D02*
X100655381Y-101147476D01*
X100655381Y-101433190D02*
X99655381Y-101433190D01*
X99798238Y-101337952D01*
X99893476Y-101242714D01*
X99941095Y-101147476D01*
X96845381Y-100290334D02*
X96369190Y-99957000D01*
X96845381Y-99718905D02*
X95845381Y-99718905D01*
X95845381Y-100099858D01*
X95893000Y-100195096D01*
X95940619Y-100242715D01*
X96035857Y-100290334D01*
X96178714Y-100290334D01*
X96273952Y-100242715D01*
X96321571Y-100195096D01*
X96369190Y-100099858D01*
X96369190Y-99718905D01*
X96845381Y-101242715D02*
X96845381Y-100671286D01*
X96845381Y-100957000D02*
X95845381Y-100957000D01*
X95988238Y-100861762D01*
X96083476Y-100766524D01*
X96131095Y-100671286D01*
X124378981Y-84135934D02*
X123902790Y-83802600D01*
X124378981Y-83564505D02*
X123378981Y-83564505D01*
X123378981Y-83945458D01*
X123426600Y-84040696D01*
X123474219Y-84088315D01*
X123569457Y-84135934D01*
X123712314Y-84135934D01*
X123807552Y-84088315D01*
X123855171Y-84040696D01*
X123902790Y-83945458D01*
X123902790Y-83564505D01*
X123474219Y-84516886D02*
X123426600Y-84564505D01*
X123378981Y-84659743D01*
X123378981Y-84897839D01*
X123426600Y-84993077D01*
X123474219Y-85040696D01*
X123569457Y-85088315D01*
X123664695Y-85088315D01*
X123807552Y-85040696D01*
X124378981Y-84469267D01*
X124378981Y-85088315D01*
X124404381Y-87876143D02*
X123928190Y-87542809D01*
X124404381Y-87304714D02*
X123404381Y-87304714D01*
X123404381Y-87685667D01*
X123452000Y-87780905D01*
X123499619Y-87828524D01*
X123594857Y-87876143D01*
X123737714Y-87876143D01*
X123832952Y-87828524D01*
X123880571Y-87780905D01*
X123928190Y-87685667D01*
X123928190Y-87304714D01*
X124404381Y-88828524D02*
X124404381Y-88257095D01*
X124404381Y-88542809D02*
X123404381Y-88542809D01*
X123547238Y-88447571D01*
X123642476Y-88352333D01*
X123690095Y-88257095D01*
X123499619Y-89209476D02*
X123452000Y-89257095D01*
X123404381Y-89352333D01*
X123404381Y-89590429D01*
X123452000Y-89685667D01*
X123499619Y-89733286D01*
X123594857Y-89780905D01*
X123690095Y-89780905D01*
X123832952Y-89733286D01*
X124404381Y-89161857D01*
X124404381Y-89780905D01*
M02*
