G04 #@! TF.FileFunction,Copper,L2,Bot,Signal*
%FSLAX46Y46*%
G04 Gerber Fmt 4.6, Leading zero omitted, Abs format (unit mm)*
G04 Created by KiCad (PCBNEW 4.0.5+dfsg1-4) date Tue Jan  9 18:08:06 2018*
%MOMM*%
%LPD*%
G01*
G04 APERTURE LIST*
%ADD10C,0.100000*%
%ADD11R,2.500000X1.100000*%
%ADD12O,2.500000X1.100000*%
%ADD13C,1.800000*%
%ADD14C,3.000000*%
%ADD15R,1.000000X1.250000*%
%ADD16R,1.700000X1.700000*%
%ADD17C,1.700000*%
%ADD18R,1.300000X0.700000*%
%ADD19R,3.800000X2.000000*%
%ADD20R,1.500000X2.000000*%
%ADD21C,1.600000*%
%ADD22O,1.600000X1.600000*%
%ADD23O,1.700000X1.700000*%
%ADD24C,0.600000*%
%ADD25C,0.250000*%
%ADD26C,1.000000*%
%ADD27C,0.254000*%
G04 APERTURE END LIST*
D10*
D11*
X103186000Y-99568000D03*
D12*
X103186000Y-97568000D03*
X103186000Y-95568000D03*
X103186000Y-93568000D03*
X103186000Y-91568000D03*
X103186000Y-89568000D03*
X103186000Y-87568000D03*
X103186000Y-85568000D03*
X118586000Y-85568000D03*
X118486000Y-87568000D03*
X118586000Y-89568000D03*
X118586000Y-91568000D03*
X118586000Y-93568000D03*
X118586000Y-95568000D03*
X118586000Y-97568000D03*
X118586000Y-99568000D03*
D13*
X148630000Y-81900000D03*
X148630000Y-96400000D03*
X151130000Y-96400000D03*
X153630000Y-96400000D03*
X153630000Y-81900000D03*
D14*
X156730000Y-88900000D03*
X145530000Y-88900000D03*
D15*
X104632000Y-77978000D03*
X102632000Y-77978000D03*
X104632000Y-81153000D03*
X102632000Y-81153000D03*
D16*
X128524000Y-93980000D03*
D17*
X131064000Y-93980000D03*
X128524000Y-91440000D03*
X131064000Y-91440000D03*
X128524000Y-88900000D03*
X131064000Y-88900000D03*
X128524000Y-86360000D03*
X131064000Y-86360000D03*
X128524000Y-83820000D03*
X131064000Y-83820000D03*
D18*
X122301000Y-91760000D03*
X122301000Y-93660000D03*
X138303000Y-81468000D03*
X138303000Y-79568000D03*
X141732000Y-79568000D03*
X141732000Y-81468000D03*
X145288000Y-81468000D03*
X145288000Y-79568000D03*
X153416000Y-90490000D03*
X153416000Y-92390000D03*
X149606000Y-90490000D03*
X149606000Y-92390000D03*
X149606000Y-84902000D03*
X149606000Y-86802000D03*
D19*
X94996000Y-72288000D03*
D20*
X94996000Y-78588000D03*
X92696000Y-78588000D03*
X97296000Y-78588000D03*
D21*
X93726000Y-83058000D03*
D22*
X93726000Y-95758000D03*
D16*
X108458000Y-78232000D03*
D23*
X110998000Y-78232000D03*
X113538000Y-78232000D03*
D18*
X98425000Y-101407000D03*
X98425000Y-99507000D03*
X94615000Y-101407000D03*
X94615000Y-99507000D03*
X122301000Y-85278000D03*
X122301000Y-83378000D03*
D16*
X87503000Y-80264000D03*
D23*
X87503000Y-82804000D03*
X87503000Y-85344000D03*
X87503000Y-87884000D03*
X87503000Y-90424000D03*
X87503000Y-92964000D03*
X87503000Y-95504000D03*
X87503000Y-98044000D03*
D18*
X122301000Y-87569000D03*
X122301000Y-89469000D03*
D24*
X92710000Y-81153000D03*
D25*
X123759000Y-87569000D02*
X123759000Y-91252000D01*
X123251000Y-91760000D02*
X122301000Y-91760000D01*
X123759000Y-91252000D02*
X123251000Y-91760000D01*
X122301000Y-87569000D02*
X123759000Y-87569000D01*
X124841000Y-86233000D02*
X124841000Y-81407000D01*
X124841000Y-86487000D02*
X124841000Y-86233000D01*
X123759000Y-87569000D02*
X124841000Y-86487000D01*
X138303000Y-81468000D02*
X132649000Y-81468000D01*
X132842000Y-81407000D02*
X132842000Y-81661000D01*
X132710000Y-81407000D02*
X132842000Y-81407000D01*
X132649000Y-81468000D02*
X132710000Y-81407000D01*
D26*
X132588000Y-81407000D02*
X132842000Y-81661000D01*
X132842000Y-81661000D02*
X134239000Y-83058000D01*
X128524000Y-95504000D02*
X129667000Y-96647000D01*
X129667000Y-96647000D02*
X133223000Y-96647000D01*
X133223000Y-96647000D02*
X134239000Y-95631000D01*
X134239000Y-95631000D02*
X134239000Y-83058000D01*
X128524000Y-95504000D02*
X128524000Y-93980000D01*
D25*
X87437000Y-101407000D02*
X85725000Y-99695000D01*
X94615000Y-101407000D02*
X87437000Y-101407000D01*
X85979000Y-80264000D02*
X87503000Y-80264000D01*
X85725000Y-80518000D02*
X85979000Y-80264000D01*
X85725000Y-99695000D02*
X85725000Y-80518000D01*
X98425000Y-101407000D02*
X94615000Y-101407000D01*
D26*
X94996000Y-78588000D02*
X94996000Y-81788000D01*
X94996000Y-81788000D02*
X93726000Y-83058000D01*
X89916000Y-77851000D02*
X88011000Y-77851000D01*
X93472000Y-74295000D02*
X94996000Y-74295000D01*
X89916000Y-77851000D02*
X93472000Y-74295000D01*
X88011000Y-77851000D02*
X87503000Y-78359000D01*
X87503000Y-78359000D02*
X87503000Y-80264000D01*
X94996000Y-74295000D02*
X94996000Y-78588000D01*
X94996000Y-74295000D02*
X94996000Y-72288000D01*
X113157000Y-74295000D02*
X94996000Y-74295000D01*
X120269000Y-81407000D02*
X113157000Y-74295000D01*
X132588000Y-81407000D02*
X124841000Y-81407000D01*
X124841000Y-81407000D02*
X120269000Y-81407000D01*
D25*
X104632000Y-79502000D02*
X105410000Y-79502000D01*
X105410000Y-79502000D02*
X106680000Y-78232000D01*
X106680000Y-78232000D02*
X108458000Y-78232000D01*
X104632000Y-77978000D02*
X104632000Y-79502000D01*
X104632000Y-79502000D02*
X104632000Y-81153000D01*
D26*
X103886000Y-85568000D02*
X105694000Y-85568000D01*
X108458000Y-82804000D02*
X108458000Y-78232000D01*
X105694000Y-85568000D02*
X108458000Y-82804000D01*
X128524000Y-93980000D02*
X128524000Y-93980300D01*
D25*
X117886000Y-85568000D02*
X120172000Y-85568000D01*
X121346000Y-83378000D02*
X122301000Y-83378000D01*
X120777000Y-83947000D02*
X121346000Y-83378000D01*
X120777000Y-84963000D02*
X120777000Y-83947000D01*
X120172000Y-85568000D02*
X120777000Y-84963000D01*
X145288000Y-79568000D02*
X151298000Y-79568000D01*
X151298000Y-79568000D02*
X153630000Y-81900000D01*
D26*
X94488000Y-84836000D02*
X97282000Y-82042000D01*
X88900000Y-82804000D02*
X90932000Y-84836000D01*
X90932000Y-84836000D02*
X94488000Y-84836000D01*
X87503000Y-82804000D02*
X88900000Y-82804000D01*
X97282000Y-82042000D02*
X97282000Y-78602000D01*
X97282000Y-78602000D02*
X97296000Y-78588000D01*
D25*
X102632000Y-79502000D02*
X100228000Y-79502000D01*
X100228000Y-79502000D02*
X99314000Y-78588000D01*
X102632000Y-77978000D02*
X102632000Y-79502000D01*
X102632000Y-79502000D02*
X102632000Y-81153000D01*
D26*
X99314000Y-78588000D02*
X99339000Y-78588000D01*
X101981000Y-75946000D02*
X112776000Y-75946000D01*
X112776000Y-75946000D02*
X113538000Y-76708000D01*
X113538000Y-76708000D02*
X113538000Y-78232000D01*
X99339000Y-78588000D02*
X101981000Y-75946000D01*
X113538000Y-78232000D02*
X113538000Y-82195000D01*
X113538000Y-82195000D02*
X116911000Y-85568000D01*
X116911000Y-85568000D02*
X117886000Y-85568000D01*
D25*
X117886000Y-85568000D02*
X116911000Y-85568000D01*
D26*
X97296000Y-78588000D02*
X99314000Y-78588000D01*
D25*
X122301000Y-89469000D02*
X121097000Y-89469000D01*
X120998000Y-89568000D02*
X117886000Y-89568000D01*
X121097000Y-89469000D02*
X120998000Y-89568000D01*
X128524000Y-91440000D02*
X120396000Y-99568000D01*
X120396000Y-99568000D02*
X117886000Y-99568000D01*
X117886000Y-99568000D02*
X119380000Y-99568000D01*
X117886000Y-97568000D02*
X120491000Y-97568000D01*
X127127000Y-88900000D02*
X128524000Y-88900000D01*
X125349000Y-90678000D02*
X127127000Y-88900000D01*
X125349000Y-92710000D02*
X125349000Y-90678000D01*
X120491000Y-97568000D02*
X125349000Y-92710000D01*
X117886000Y-97568000D02*
X119729000Y-97568000D01*
X122301000Y-93660000D02*
X123510000Y-93660000D01*
X124714000Y-92456000D02*
X124714000Y-88392000D01*
X124714000Y-88392000D02*
X126746000Y-86360000D01*
X126746000Y-86360000D02*
X128524000Y-86360000D01*
X123510000Y-93660000D02*
X124714000Y-92456000D01*
X122301000Y-93660000D02*
X121346000Y-93660000D01*
X120524000Y-91568000D02*
X117886000Y-91568000D01*
X120904000Y-91948000D02*
X120524000Y-91568000D01*
X120904000Y-93218000D02*
X120904000Y-91948000D01*
X121346000Y-93660000D02*
X120904000Y-93218000D01*
X145288000Y-81468000D02*
X146873000Y-81468000D01*
X147305000Y-81900000D02*
X148630000Y-81900000D01*
X146873000Y-81468000D02*
X147305000Y-81900000D01*
X141732000Y-81468000D02*
X145288000Y-81468000D01*
X149606000Y-84902000D02*
X149606000Y-82876000D01*
X153416000Y-90490000D02*
X153416000Y-86686000D01*
X153416000Y-86686000D02*
X149606000Y-82876000D01*
X149606000Y-82876000D02*
X148630000Y-81900000D01*
D26*
X92696000Y-78588000D02*
X92696000Y-81139000D01*
X92696000Y-81139000D02*
X92710000Y-81153000D01*
X87503000Y-98044000D02*
X89408000Y-98044000D01*
X91694000Y-95758000D02*
X93726000Y-95758000D01*
X89408000Y-98044000D02*
X91694000Y-95758000D01*
D25*
X153630000Y-93379300D02*
X153630000Y-96400000D01*
X153416000Y-93165300D02*
X153630000Y-93379300D01*
X153416000Y-92390000D02*
X153416000Y-93165300D01*
X149606000Y-86802000D02*
X149606000Y-90490000D01*
X148630000Y-94141300D02*
X148630000Y-96400000D01*
X149606000Y-93165300D02*
X148630000Y-94141300D01*
X149606000Y-92390000D02*
X149606000Y-93165300D01*
X117886000Y-87568000D02*
X120585000Y-87568000D01*
X122301000Y-85852000D02*
X122301000Y-85278000D01*
X120585000Y-87568000D02*
X122301000Y-85852000D01*
X117991600Y-87462400D02*
X117886000Y-87568000D01*
X138303000Y-79568000D02*
X141732000Y-79568000D01*
X98425000Y-99507000D02*
X103825000Y-99507000D01*
X103825000Y-99507000D02*
X103886000Y-99568000D01*
X110998000Y-83431300D02*
X110998000Y-78232000D01*
X103886000Y-89568000D02*
X104861000Y-89568000D01*
X104861000Y-89568000D02*
X110998000Y-83431300D01*
X94615000Y-99507000D02*
X94615000Y-98425000D01*
X97472000Y-95568000D02*
X103886000Y-95568000D01*
X94615000Y-98425000D02*
X97472000Y-95568000D01*
X103886000Y-93568000D02*
X97632000Y-93568000D01*
X94488000Y-90424000D02*
X87503000Y-90424000D01*
X97632000Y-93568000D02*
X94488000Y-90424000D01*
D27*
G36*
X103251000Y-70791606D02*
X103251000Y-72999600D01*
X103261006Y-73049010D01*
X103288197Y-73089403D01*
X104341394Y-74142600D01*
X103067116Y-74142600D01*
X103118581Y-74011079D01*
X103127268Y-73961420D01*
X103115951Y-73912293D01*
X103086412Y-73871441D01*
X103043307Y-73845299D01*
X103000313Y-73837800D01*
X102438200Y-73837800D01*
X102388790Y-73847806D01*
X102348397Y-73874997D01*
X99642394Y-76581000D01*
X92075000Y-76581000D01*
X92025590Y-76591006D01*
X91985197Y-76618197D01*
X90715197Y-77888197D01*
X90687334Y-77930211D01*
X90678000Y-77978000D01*
X90678000Y-81534000D01*
X88831026Y-81534000D01*
X88891327Y-81473699D01*
X88988000Y-81240310D01*
X88988000Y-80549750D01*
X88829250Y-80391000D01*
X87630000Y-80391000D01*
X87630000Y-80411000D01*
X87376000Y-80411000D01*
X87376000Y-80391000D01*
X86176750Y-80391000D01*
X86018000Y-80549750D01*
X86018000Y-81240310D01*
X86114673Y-81473699D01*
X86174974Y-81534000D01*
X83499183Y-81534000D01*
X82423000Y-80218665D01*
X82423000Y-79287690D01*
X86018000Y-79287690D01*
X86018000Y-79978250D01*
X86176750Y-80137000D01*
X87376000Y-80137000D01*
X87376000Y-78937750D01*
X87630000Y-78937750D01*
X87630000Y-80137000D01*
X88829250Y-80137000D01*
X88988000Y-79978250D01*
X88988000Y-79287690D01*
X88891327Y-79054301D01*
X88712698Y-78875673D01*
X88479309Y-78779000D01*
X87788750Y-78779000D01*
X87630000Y-78937750D01*
X87376000Y-78937750D01*
X87217250Y-78779000D01*
X86526691Y-78779000D01*
X86293302Y-78875673D01*
X86114673Y-79054301D01*
X86018000Y-79287690D01*
X82423000Y-79287690D01*
X82423000Y-75607599D01*
X86267699Y-75607599D01*
X86531281Y-76245515D01*
X87018918Y-76734004D01*
X87656373Y-76998699D01*
X88346599Y-76999301D01*
X88984515Y-76735719D01*
X89473004Y-76248082D01*
X89737699Y-75610627D01*
X89738301Y-74920401D01*
X89474719Y-74282485D01*
X88987082Y-73793996D01*
X88349627Y-73529301D01*
X87659401Y-73528699D01*
X87021485Y-73792281D01*
X86532996Y-74279918D01*
X86268301Y-74917373D01*
X86267699Y-75607599D01*
X82423000Y-75607599D01*
X82423000Y-72573750D01*
X92461000Y-72573750D01*
X92461000Y-73414309D01*
X92557673Y-73647698D01*
X92736301Y-73826327D01*
X92969690Y-73923000D01*
X94710250Y-73923000D01*
X94869000Y-73764250D01*
X94869000Y-72415000D01*
X95123000Y-72415000D01*
X95123000Y-73764250D01*
X95281750Y-73923000D01*
X97022310Y-73923000D01*
X97255699Y-73826327D01*
X97434327Y-73647698D01*
X97531000Y-73414309D01*
X97531000Y-72573750D01*
X97372250Y-72415000D01*
X95123000Y-72415000D01*
X94869000Y-72415000D01*
X92619750Y-72415000D01*
X92461000Y-72573750D01*
X82423000Y-72573750D01*
X82423000Y-72442606D01*
X83703915Y-71161691D01*
X92461000Y-71161691D01*
X92461000Y-72002250D01*
X92619750Y-72161000D01*
X94869000Y-72161000D01*
X94869000Y-70811750D01*
X95123000Y-70811750D01*
X95123000Y-72161000D01*
X97372250Y-72161000D01*
X97531000Y-72002250D01*
X97531000Y-71161691D01*
X97434327Y-70928302D01*
X97255699Y-70749673D01*
X97022310Y-70653000D01*
X95281750Y-70653000D01*
X95123000Y-70811750D01*
X94869000Y-70811750D01*
X94710250Y-70653000D01*
X92969690Y-70653000D01*
X92736301Y-70749673D01*
X92557673Y-70928302D01*
X92461000Y-71161691D01*
X83703915Y-71161691D01*
X84634606Y-70231000D01*
X102690394Y-70231000D01*
X103251000Y-70791606D01*
X103251000Y-70791606D01*
G37*
X103251000Y-70791606D02*
X103251000Y-72999600D01*
X103261006Y-73049010D01*
X103288197Y-73089403D01*
X104341394Y-74142600D01*
X103067116Y-74142600D01*
X103118581Y-74011079D01*
X103127268Y-73961420D01*
X103115951Y-73912293D01*
X103086412Y-73871441D01*
X103043307Y-73845299D01*
X103000313Y-73837800D01*
X102438200Y-73837800D01*
X102388790Y-73847806D01*
X102348397Y-73874997D01*
X99642394Y-76581000D01*
X92075000Y-76581000D01*
X92025590Y-76591006D01*
X91985197Y-76618197D01*
X90715197Y-77888197D01*
X90687334Y-77930211D01*
X90678000Y-77978000D01*
X90678000Y-81534000D01*
X88831026Y-81534000D01*
X88891327Y-81473699D01*
X88988000Y-81240310D01*
X88988000Y-80549750D01*
X88829250Y-80391000D01*
X87630000Y-80391000D01*
X87630000Y-80411000D01*
X87376000Y-80411000D01*
X87376000Y-80391000D01*
X86176750Y-80391000D01*
X86018000Y-80549750D01*
X86018000Y-81240310D01*
X86114673Y-81473699D01*
X86174974Y-81534000D01*
X83499183Y-81534000D01*
X82423000Y-80218665D01*
X82423000Y-79287690D01*
X86018000Y-79287690D01*
X86018000Y-79978250D01*
X86176750Y-80137000D01*
X87376000Y-80137000D01*
X87376000Y-78937750D01*
X87630000Y-78937750D01*
X87630000Y-80137000D01*
X88829250Y-80137000D01*
X88988000Y-79978250D01*
X88988000Y-79287690D01*
X88891327Y-79054301D01*
X88712698Y-78875673D01*
X88479309Y-78779000D01*
X87788750Y-78779000D01*
X87630000Y-78937750D01*
X87376000Y-78937750D01*
X87217250Y-78779000D01*
X86526691Y-78779000D01*
X86293302Y-78875673D01*
X86114673Y-79054301D01*
X86018000Y-79287690D01*
X82423000Y-79287690D01*
X82423000Y-75607599D01*
X86267699Y-75607599D01*
X86531281Y-76245515D01*
X87018918Y-76734004D01*
X87656373Y-76998699D01*
X88346599Y-76999301D01*
X88984515Y-76735719D01*
X89473004Y-76248082D01*
X89737699Y-75610627D01*
X89738301Y-74920401D01*
X89474719Y-74282485D01*
X88987082Y-73793996D01*
X88349627Y-73529301D01*
X87659401Y-73528699D01*
X87021485Y-73792281D01*
X86532996Y-74279918D01*
X86268301Y-74917373D01*
X86267699Y-75607599D01*
X82423000Y-75607599D01*
X82423000Y-72573750D01*
X92461000Y-72573750D01*
X92461000Y-73414309D01*
X92557673Y-73647698D01*
X92736301Y-73826327D01*
X92969690Y-73923000D01*
X94710250Y-73923000D01*
X94869000Y-73764250D01*
X94869000Y-72415000D01*
X95123000Y-72415000D01*
X95123000Y-73764250D01*
X95281750Y-73923000D01*
X97022310Y-73923000D01*
X97255699Y-73826327D01*
X97434327Y-73647698D01*
X97531000Y-73414309D01*
X97531000Y-72573750D01*
X97372250Y-72415000D01*
X95123000Y-72415000D01*
X94869000Y-72415000D01*
X92619750Y-72415000D01*
X92461000Y-72573750D01*
X82423000Y-72573750D01*
X82423000Y-72442606D01*
X83703915Y-71161691D01*
X92461000Y-71161691D01*
X92461000Y-72002250D01*
X92619750Y-72161000D01*
X94869000Y-72161000D01*
X94869000Y-70811750D01*
X95123000Y-70811750D01*
X95123000Y-72161000D01*
X97372250Y-72161000D01*
X97531000Y-72002250D01*
X97531000Y-71161691D01*
X97434327Y-70928302D01*
X97255699Y-70749673D01*
X97022310Y-70653000D01*
X95281750Y-70653000D01*
X95123000Y-70811750D01*
X94869000Y-70811750D01*
X94710250Y-70653000D01*
X92969690Y-70653000D01*
X92736301Y-70749673D01*
X92557673Y-70928302D01*
X92461000Y-71161691D01*
X83703915Y-71161691D01*
X84634606Y-70231000D01*
X102690394Y-70231000D01*
X103251000Y-70791606D01*
G36*
X102780197Y-76745197D02*
X102752334Y-76787211D01*
X102743000Y-76835000D01*
X102743000Y-83259394D01*
X99642394Y-86360000D01*
X90857606Y-86360000D01*
X88437966Y-83940360D01*
X88774645Y-83570924D01*
X88944476Y-83160890D01*
X88823155Y-82931000D01*
X87884000Y-82931000D01*
X87884000Y-82677000D01*
X88823155Y-82677000D01*
X88944476Y-82447110D01*
X88881888Y-82296000D01*
X90752394Y-82296000D01*
X92874197Y-84417803D01*
X92916211Y-84445666D01*
X92964000Y-84455000D01*
X93348397Y-84455000D01*
X93439309Y-84492750D01*
X94010187Y-84493248D01*
X94102754Y-84455000D01*
X94411800Y-84455000D01*
X94461210Y-84444994D01*
X94501603Y-84417803D01*
X97422603Y-81496803D01*
X97450466Y-81454789D01*
X97452660Y-81438750D01*
X101497000Y-81438750D01*
X101497000Y-81904310D01*
X101593673Y-82137699D01*
X101772302Y-82316327D01*
X102005691Y-82413000D01*
X102346250Y-82413000D01*
X102505000Y-82254250D01*
X102505000Y-81280000D01*
X101655750Y-81280000D01*
X101497000Y-81438750D01*
X97452660Y-81438750D01*
X97458979Y-81392580D01*
X97345735Y-80401690D01*
X101497000Y-80401690D01*
X101497000Y-80867250D01*
X101655750Y-81026000D01*
X102505000Y-81026000D01*
X102505000Y-80051750D01*
X102346250Y-79893000D01*
X102005691Y-79893000D01*
X101772302Y-79989673D01*
X101593673Y-80168301D01*
X101497000Y-80401690D01*
X97345735Y-80401690D01*
X97325313Y-80223000D01*
X97423002Y-80223000D01*
X97423002Y-80064252D01*
X97581750Y-80223000D01*
X98172310Y-80223000D01*
X98405699Y-80126327D01*
X98584327Y-79947698D01*
X98681000Y-79714309D01*
X98681000Y-78873750D01*
X98674250Y-78867000D01*
X99187000Y-78867000D01*
X99236410Y-78856994D01*
X99271683Y-78834646D01*
X99909743Y-78263750D01*
X101497000Y-78263750D01*
X101497000Y-78729310D01*
X101593673Y-78962699D01*
X101772302Y-79141327D01*
X102005691Y-79238000D01*
X102346250Y-79238000D01*
X102505000Y-79079250D01*
X102505000Y-78105000D01*
X101655750Y-78105000D01*
X101497000Y-78263750D01*
X99909743Y-78263750D01*
X101068810Y-77226690D01*
X101497000Y-77226690D01*
X101497000Y-77692250D01*
X101655750Y-77851000D01*
X102505000Y-77851000D01*
X102505000Y-76876750D01*
X102346250Y-76718000D01*
X102005691Y-76718000D01*
X101772302Y-76814673D01*
X101593673Y-76993301D01*
X101497000Y-77226690D01*
X101068810Y-77226690D01*
X101684683Y-76675646D01*
X101689803Y-76670803D01*
X101906606Y-76454000D01*
X103071394Y-76454000D01*
X102780197Y-76745197D01*
X102780197Y-76745197D01*
G37*
X102780197Y-76745197D02*
X102752334Y-76787211D01*
X102743000Y-76835000D01*
X102743000Y-83259394D01*
X99642394Y-86360000D01*
X90857606Y-86360000D01*
X88437966Y-83940360D01*
X88774645Y-83570924D01*
X88944476Y-83160890D01*
X88823155Y-82931000D01*
X87884000Y-82931000D01*
X87884000Y-82677000D01*
X88823155Y-82677000D01*
X88944476Y-82447110D01*
X88881888Y-82296000D01*
X90752394Y-82296000D01*
X92874197Y-84417803D01*
X92916211Y-84445666D01*
X92964000Y-84455000D01*
X93348397Y-84455000D01*
X93439309Y-84492750D01*
X94010187Y-84493248D01*
X94102754Y-84455000D01*
X94411800Y-84455000D01*
X94461210Y-84444994D01*
X94501603Y-84417803D01*
X97422603Y-81496803D01*
X97450466Y-81454789D01*
X97452660Y-81438750D01*
X101497000Y-81438750D01*
X101497000Y-81904310D01*
X101593673Y-82137699D01*
X101772302Y-82316327D01*
X102005691Y-82413000D01*
X102346250Y-82413000D01*
X102505000Y-82254250D01*
X102505000Y-81280000D01*
X101655750Y-81280000D01*
X101497000Y-81438750D01*
X97452660Y-81438750D01*
X97458979Y-81392580D01*
X97345735Y-80401690D01*
X101497000Y-80401690D01*
X101497000Y-80867250D01*
X101655750Y-81026000D01*
X102505000Y-81026000D01*
X102505000Y-80051750D01*
X102346250Y-79893000D01*
X102005691Y-79893000D01*
X101772302Y-79989673D01*
X101593673Y-80168301D01*
X101497000Y-80401690D01*
X97345735Y-80401690D01*
X97325313Y-80223000D01*
X97423002Y-80223000D01*
X97423002Y-80064252D01*
X97581750Y-80223000D01*
X98172310Y-80223000D01*
X98405699Y-80126327D01*
X98584327Y-79947698D01*
X98681000Y-79714309D01*
X98681000Y-78873750D01*
X98674250Y-78867000D01*
X99187000Y-78867000D01*
X99236410Y-78856994D01*
X99271683Y-78834646D01*
X99909743Y-78263750D01*
X101497000Y-78263750D01*
X101497000Y-78729310D01*
X101593673Y-78962699D01*
X101772302Y-79141327D01*
X102005691Y-79238000D01*
X102346250Y-79238000D01*
X102505000Y-79079250D01*
X102505000Y-78105000D01*
X101655750Y-78105000D01*
X101497000Y-78263750D01*
X99909743Y-78263750D01*
X101068810Y-77226690D01*
X101497000Y-77226690D01*
X101497000Y-77692250D01*
X101655750Y-77851000D01*
X102505000Y-77851000D01*
X102505000Y-76876750D01*
X102346250Y-76718000D01*
X102005691Y-76718000D01*
X101772302Y-76814673D01*
X101593673Y-76993301D01*
X101497000Y-77226690D01*
X101068810Y-77226690D01*
X101684683Y-76675646D01*
X101689803Y-76670803D01*
X101906606Y-76454000D01*
X103071394Y-76454000D01*
X102780197Y-76745197D01*
G36*
X106973000Y-77255691D02*
X106973000Y-77946250D01*
X107131750Y-78105000D01*
X108331000Y-78105000D01*
X108331000Y-78085000D01*
X108585000Y-78085000D01*
X108585000Y-78105000D01*
X108605000Y-78105000D01*
X108605000Y-78359000D01*
X108585000Y-78359000D01*
X108585000Y-79558250D01*
X108743750Y-79717000D01*
X109434310Y-79717000D01*
X109601000Y-79647955D01*
X109601000Y-83259394D01*
X106881394Y-85979000D01*
X104990211Y-85979000D01*
X105029398Y-85904146D01*
X105029803Y-85877744D01*
X104904361Y-85695000D01*
X103886000Y-85695000D01*
X103886000Y-85441000D01*
X104904361Y-85441000D01*
X105029803Y-85258256D01*
X105029398Y-85231854D01*
X104813724Y-84819882D01*
X104521000Y-84575410D01*
X104521000Y-81280000D01*
X104759000Y-81280000D01*
X104759000Y-82254250D01*
X104917750Y-82413000D01*
X105258309Y-82413000D01*
X105491698Y-82316327D01*
X105670327Y-82137699D01*
X105767000Y-81904310D01*
X105767000Y-81438750D01*
X105608250Y-81280000D01*
X104759000Y-81280000D01*
X104521000Y-81280000D01*
X104521000Y-80051750D01*
X104759000Y-80051750D01*
X104759000Y-81026000D01*
X105608250Y-81026000D01*
X105767000Y-80867250D01*
X105767000Y-80401690D01*
X105670327Y-80168301D01*
X105491698Y-79989673D01*
X105258309Y-79893000D01*
X104917750Y-79893000D01*
X104759000Y-80051750D01*
X104521000Y-80051750D01*
X104521000Y-78105000D01*
X104759000Y-78105000D01*
X104759000Y-79079250D01*
X104917750Y-79238000D01*
X105258309Y-79238000D01*
X105491698Y-79141327D01*
X105670327Y-78962699D01*
X105767000Y-78729310D01*
X105767000Y-78517750D01*
X106973000Y-78517750D01*
X106973000Y-79208309D01*
X107069673Y-79441698D01*
X107248301Y-79620327D01*
X107481690Y-79717000D01*
X108172250Y-79717000D01*
X108331000Y-79558250D01*
X108331000Y-78359000D01*
X107131750Y-78359000D01*
X106973000Y-78517750D01*
X105767000Y-78517750D01*
X105767000Y-78263750D01*
X105608250Y-78105000D01*
X104759000Y-78105000D01*
X104521000Y-78105000D01*
X104521000Y-77831000D01*
X104759000Y-77831000D01*
X104759000Y-77851000D01*
X105608250Y-77851000D01*
X105767000Y-77692250D01*
X105767000Y-77226690D01*
X105706653Y-77081000D01*
X107045359Y-77081000D01*
X106973000Y-77255691D01*
X106973000Y-77255691D01*
G37*
X106973000Y-77255691D02*
X106973000Y-77946250D01*
X107131750Y-78105000D01*
X108331000Y-78105000D01*
X108331000Y-78085000D01*
X108585000Y-78085000D01*
X108585000Y-78105000D01*
X108605000Y-78105000D01*
X108605000Y-78359000D01*
X108585000Y-78359000D01*
X108585000Y-79558250D01*
X108743750Y-79717000D01*
X109434310Y-79717000D01*
X109601000Y-79647955D01*
X109601000Y-83259394D01*
X106881394Y-85979000D01*
X104990211Y-85979000D01*
X105029398Y-85904146D01*
X105029803Y-85877744D01*
X104904361Y-85695000D01*
X103886000Y-85695000D01*
X103886000Y-85441000D01*
X104904361Y-85441000D01*
X105029803Y-85258256D01*
X105029398Y-85231854D01*
X104813724Y-84819882D01*
X104521000Y-84575410D01*
X104521000Y-81280000D01*
X104759000Y-81280000D01*
X104759000Y-82254250D01*
X104917750Y-82413000D01*
X105258309Y-82413000D01*
X105491698Y-82316327D01*
X105670327Y-82137699D01*
X105767000Y-81904310D01*
X105767000Y-81438750D01*
X105608250Y-81280000D01*
X104759000Y-81280000D01*
X104521000Y-81280000D01*
X104521000Y-80051750D01*
X104759000Y-80051750D01*
X104759000Y-81026000D01*
X105608250Y-81026000D01*
X105767000Y-80867250D01*
X105767000Y-80401690D01*
X105670327Y-80168301D01*
X105491698Y-79989673D01*
X105258309Y-79893000D01*
X104917750Y-79893000D01*
X104759000Y-80051750D01*
X104521000Y-80051750D01*
X104521000Y-78105000D01*
X104759000Y-78105000D01*
X104759000Y-79079250D01*
X104917750Y-79238000D01*
X105258309Y-79238000D01*
X105491698Y-79141327D01*
X105670327Y-78962699D01*
X105767000Y-78729310D01*
X105767000Y-78517750D01*
X106973000Y-78517750D01*
X106973000Y-79208309D01*
X107069673Y-79441698D01*
X107248301Y-79620327D01*
X107481690Y-79717000D01*
X108172250Y-79717000D01*
X108331000Y-79558250D01*
X108331000Y-78359000D01*
X107131750Y-78359000D01*
X106973000Y-78517750D01*
X105767000Y-78517750D01*
X105767000Y-78263750D01*
X105608250Y-78105000D01*
X104759000Y-78105000D01*
X104521000Y-78105000D01*
X104521000Y-77831000D01*
X104759000Y-77831000D01*
X104759000Y-77851000D01*
X105608250Y-77851000D01*
X105767000Y-77692250D01*
X105767000Y-77226690D01*
X105706653Y-77081000D01*
X107045359Y-77081000D01*
X106973000Y-77255691D01*
M02*
