M48
;DRILL file {KiCad 4.0.2+dfsg1-stable} date lun 08 gen 2018 09:22:43 CET
;FORMAT={-:-/ absolute / inch / decimal}
FMAT,2
INCH,TZ
T1C0.016
T2C0.026
T3C0.031
T4C0.039
T5C0.087
%
G90
G05
M72
T1
X3.65Y-3.195
T2
X4.09Y-3.3688
X4.09Y-3.4476
X4.09Y-3.5263
X4.09Y-3.605
X4.09Y-3.6838
X4.09Y-3.7625
X4.09Y-3.8413
X4.09Y-3.92
X4.6412Y-3.3688
X4.6412Y-3.4476
X4.6412Y-3.5263
X4.6412Y-3.605
X4.6412Y-3.6838
X4.6412Y-3.7625
X4.6412Y-3.8413
X4.6412Y-3.92
T3
X3.69Y-3.27
X3.69Y-3.77
T4
X3.445Y-3.16
X3.445Y-3.26
X3.445Y-3.36
X3.445Y-3.46
X3.445Y-3.56
X3.445Y-3.66
X3.445Y-3.76
X3.445Y-3.86
X4.27Y-3.08
X4.37Y-3.08
X4.47Y-3.08
X5.06Y-3.3
X5.06Y-3.4
X5.06Y-3.5
X5.06Y-3.6
X5.06Y-3.7
X5.16Y-3.3
X5.16Y-3.4
X5.16Y-3.5
X5.16Y-3.6
X5.16Y-3.7
X5.8516Y-3.2244
X5.8516Y-3.7953
X5.95Y-3.7953
X6.0484Y-3.2244
X6.0484Y-3.7953
T5
X5.7295Y-3.5
X6.1705Y-3.5
T0
M30
