G04 #@! TF.FileFunction,Soldermask,Bot*
%FSLAX46Y46*%
G04 Gerber Fmt 4.6, Leading zero omitted, Abs format (unit mm)*
G04 Created by KiCad (PCBNEW 4.0.5+dfsg1-4) date Tue Jan  9 18:08:06 2018*
%MOMM*%
%LPD*%
G01*
G04 APERTURE LIST*
%ADD10C,0.100000*%
%ADD11C,2.600000*%
%ADD12R,2.900000X1.500000*%
%ADD13O,2.900000X1.500000*%
%ADD14C,2.200000*%
%ADD15C,3.400000*%
%ADD16R,1.400000X1.650000*%
%ADD17R,2.100000X2.100000*%
%ADD18C,2.100000*%
%ADD19R,1.700000X1.100000*%
%ADD20R,4.200000X2.400000*%
%ADD21R,1.900000X2.400000*%
%ADD22C,2.000000*%
%ADD23O,2.000000X2.000000*%
%ADD24O,2.100000X2.100000*%
%ADD25C,8.400000*%
G04 APERTURE END LIST*
D10*
D11*
X161747200Y-103784400D03*
X161747200Y-75234800D03*
X161772600Y-117856000D03*
X161772600Y-146304000D03*
D12*
X103186000Y-99568000D03*
D13*
X103186000Y-97568000D03*
X103186000Y-95568000D03*
X103186000Y-93568000D03*
X103186000Y-91568000D03*
X103186000Y-89568000D03*
X103186000Y-87568000D03*
X103186000Y-85568000D03*
X118586000Y-85568000D03*
X118486000Y-87568000D03*
X118586000Y-89568000D03*
X118586000Y-91568000D03*
X118586000Y-93568000D03*
X118586000Y-95568000D03*
X118586000Y-97568000D03*
X118586000Y-99568000D03*
D14*
X148630000Y-81900000D03*
X148630000Y-96400000D03*
X151130000Y-96400000D03*
X153630000Y-96400000D03*
X153630000Y-81900000D03*
D15*
X156730000Y-88900000D03*
X145530000Y-88900000D03*
D16*
X104632000Y-77978000D03*
X102632000Y-77978000D03*
X104632000Y-81153000D03*
X102632000Y-81153000D03*
D17*
X128524000Y-93980000D03*
D18*
X131064000Y-93980000D03*
X128524000Y-91440000D03*
X131064000Y-91440000D03*
X128524000Y-88900000D03*
X131064000Y-88900000D03*
X128524000Y-86360000D03*
X131064000Y-86360000D03*
X128524000Y-83820000D03*
X131064000Y-83820000D03*
D19*
X122301000Y-91760000D03*
X122301000Y-93660000D03*
X138303000Y-81468000D03*
X138303000Y-79568000D03*
X141732000Y-79568000D03*
X141732000Y-81468000D03*
X145288000Y-81468000D03*
X145288000Y-79568000D03*
X153416000Y-90490000D03*
X153416000Y-92390000D03*
X149606000Y-90490000D03*
X149606000Y-92390000D03*
X149606000Y-84902000D03*
X149606000Y-86802000D03*
D20*
X94996000Y-72288000D03*
D21*
X94996000Y-78588000D03*
X92696000Y-78588000D03*
X97296000Y-78588000D03*
D22*
X93726000Y-83058000D03*
D23*
X93726000Y-95758000D03*
D17*
X108458000Y-78232000D03*
D24*
X110998000Y-78232000D03*
X113538000Y-78232000D03*
D19*
X98425000Y-101407000D03*
X98425000Y-99507000D03*
X94615000Y-101407000D03*
X94615000Y-99507000D03*
D25*
X151130000Y-131572000D03*
D11*
X139954000Y-117856000D03*
X140081000Y-146304000D03*
X88011000Y-146304000D03*
X88011000Y-117856000D03*
D19*
X122301000Y-85278000D03*
X122301000Y-83378000D03*
D11*
X140003000Y-103764000D03*
X140003000Y-75264000D03*
X88003000Y-103764000D03*
D17*
X87503000Y-80264000D03*
D24*
X87503000Y-82804000D03*
X87503000Y-85344000D03*
X87503000Y-87884000D03*
X87503000Y-90424000D03*
X87503000Y-92964000D03*
X87503000Y-95504000D03*
X87503000Y-98044000D03*
D11*
X88003000Y-75264000D03*
D19*
X122301000Y-87569000D03*
X122301000Y-89469000D03*
M02*
