M48
;DRILL file {KiCad 4.0.5+dfsg1-4} date Tue Jan  9 18:08:15 2018
;FORMAT={2:4/ absolute / inch / suppress leading zeros}
FMAT,2
INCH,TZ
T1C0.016
T2C0.026
T3C0.031
T4C0.039
T5C0.087
T6C0.087
T7C0.315
%
G90
G05
M72
T1
X36500Y-31950
T2
X40900Y-33688
X40900Y-34476
X40900Y-35263
X40900Y-36050
X40900Y-36838
X40900Y-37625
X40900Y-38413
X40900Y-39200
X46412Y-33688
X46412Y-34476
X46412Y-35263
X46412Y-36050
X46412Y-36838
X46412Y-37625
X46412Y-38413
X46412Y-39200
T3
X36900Y-32700
X36900Y-37700
T4
X34450Y-31600
X34450Y-32600
X34450Y-33600
X34450Y-34600
X34450Y-35600
X34450Y-36600
X34450Y-37600
X34450Y-38600
X42700Y-30800
X43700Y-30800
X44700Y-30800
X50600Y-33000
X50600Y-34000
X50600Y-35000
X50600Y-36000
X50600Y-37000
X51600Y-33000
X51600Y-34000
X51600Y-35000
X51600Y-36000
X51600Y-37000
X58516Y-32244
X58516Y-37953
X59500Y-37953
X60484Y-32244
X60484Y-37953
T5
X57295Y-35000
X61705Y-35000
T6
X34647Y-29631
X34647Y-40852
X34650Y-46400
X34650Y-57600
X55100Y-46400
X55119Y-29631
X55119Y-40852
X55150Y-57600
X63680Y-29620
X63680Y-40860
X63690Y-46400
X63690Y-57600
T7
X59500Y-51800
T0
M30
