M48
;DRILL file {KiCad 4.0.5+dfsg1-4} date Tue Dec 12 22:09:17 2017
;FORMAT={2:4/ absolute / inch / suppress leading zeros}
FMAT,2
INCH,TZ
T1C0.016
T2C0.030
T3C0.031
T4C0.039
T5C0.052
T6C0.059
T7C0.126
%
G90
G05
M72
T1
X17360Y-13860
X18400Y-19840
X19080Y-19580
X20160Y-19200
X22200Y-20100
X22325Y-17925
X22460Y-19200
X22700Y-20100
X23200Y-19280
X23200Y-20100
X36550Y-18500
T2
X8500Y-10300
X10000Y-10300
X17050Y-10300
X17080Y-23000
X17080Y-24000
X17080Y-28000
X17080Y-31000
X18550Y-10300
X20620Y-23000
X20620Y-24000
X20620Y-28000
X20620Y-31000
X21050Y-10300
X22550Y-10300
X24580Y-23000
X24580Y-24000
X24580Y-28000
X24580Y-31000
X25050Y-10300
X26550Y-10300
X28540Y-23000
X28540Y-24000
X28540Y-28000
X28540Y-31000
X29050Y-10300
X30550Y-10300
X33050Y-10300
X34550Y-10300
X37050Y-10300
X38550Y-10300
X41050Y-10300
X42550Y-10300
T3
X10031Y-35053
X10700Y-32100
X30900Y-27100
X30900Y-32100
X33100Y-21550
X33100Y-24550
X34100Y-21550
X34100Y-24550
X35100Y-21550
X35100Y-24550
X35300Y-27100
X35300Y-32100
X36100Y-21550
X36100Y-24550
X37100Y-21550
X37100Y-24550
X38100Y-21550
X38100Y-24550
X39700Y-25500
X39700Y-30500
T4
X7769Y-15713
X8800Y-27750
X9300Y-15250
X9816Y-27287
X11784Y-27287
X12300Y-15250
X12800Y-27750
X13831Y-15713
X16500Y-14900
X16500Y-15900
X18400Y-14900
X18400Y-15900
X20300Y-14900
X20300Y-15900
X22300Y-14900
X22300Y-15900
X26650Y-16300
X26650Y-17300
X27650Y-16300
X27650Y-17300
X28650Y-16300
X28650Y-17300
X29600Y-13600
X29650Y-16300
X29650Y-17300
X30600Y-13600
X30650Y-16300
X30650Y-17300
X33100Y-27860
X33100Y-31797
X37500Y-27840
X37500Y-31777
X41900Y-27100
X41900Y-31037
T5
X17000Y-36000
X18969Y-36000
X20937Y-36000
X23000Y-36000
X24969Y-36000
X26937Y-36000
X29000Y-36000
X30969Y-36000
X32937Y-36000
X35000Y-36000
X36969Y-36000
X38937Y-36000
T6
X13900Y-29669
X13900Y-38331
T7
X7950Y-13450
X7950Y-33450
X41650Y-13450
X41650Y-33450
T0
M30
