G04 #@! TF.FileFunction,Copper,L2,Bot,Signal*
%FSLAX46Y46*%
G04 Gerber Fmt 4.6, Leading zero omitted, Abs format (unit mm)*
G04 Created by KiCad (PCBNEW 4.0.5+dfsg1-4) date Tue Dec 12 22:09:06 2017*
%MOMM*%
%LPD*%
G01*
G04 APERTURE LIST*
%ADD10C,0.100000*%
%ADD11C,2.500000*%
%ADD12C,1.524000*%
%ADD13R,1.700000X1.700000*%
%ADD14C,1.700000*%
%ADD15O,2.499360X4.000500*%
%ADD16C,1.800000*%
%ADD17C,1.600000*%
%ADD18O,1.600000X1.600000*%
%ADD19R,1.600000X1.600000*%
%ADD20O,1.700000X1.700000*%
%ADD21C,2.000000*%
%ADD22R,1.980000X3.960000*%
%ADD23O,1.980000X3.960000*%
%ADD24C,0.600000*%
%ADD25C,0.250000*%
%ADD26C,0.508000*%
%ADD27C,1.000000*%
%ADD28C,2.000000*%
%ADD29C,0.254000*%
G04 APERTURE END LIST*
D10*
D11*
X24932000Y-69310000D03*
X29932000Y-69310000D03*
X19732000Y-39910000D03*
X35132000Y-39910000D03*
X22352000Y-70485000D03*
X32512000Y-70485000D03*
X23622000Y-38735000D03*
X31242000Y-38735000D03*
D12*
X73787000Y-26162000D03*
X77597000Y-26162000D03*
X21590000Y-26162000D03*
X25400000Y-26162000D03*
D13*
X77851000Y-41402000D03*
D14*
X77851000Y-43942000D03*
X75311000Y-41402000D03*
X75311000Y-43942000D03*
X72771000Y-41402000D03*
X72771000Y-43942000D03*
X70231000Y-41402000D03*
X70231000Y-43942000D03*
X67691000Y-41402000D03*
X67691000Y-43942000D03*
D15*
X35306000Y-75359260D03*
X35306000Y-97360740D03*
D16*
X27178000Y-81534000D03*
X25478000Y-89034000D03*
D17*
X78486000Y-68834000D03*
D18*
X78486000Y-81534000D03*
D17*
X89662000Y-68834000D03*
D18*
X89662000Y-81534000D03*
D17*
X100838000Y-64770000D03*
D18*
X100838000Y-77470000D03*
D19*
X84074000Y-62357000D03*
D18*
X86614000Y-54737000D03*
X86614000Y-62357000D03*
X84074000Y-54737000D03*
D19*
X89154000Y-62357000D03*
D18*
X91694000Y-54737000D03*
X91694000Y-62357000D03*
X89154000Y-54737000D03*
D19*
X94234000Y-62357000D03*
D18*
X96774000Y-54737000D03*
X96774000Y-62357000D03*
X94234000Y-54737000D03*
D12*
X104267000Y-26162000D03*
X108077000Y-26162000D03*
X94107000Y-26162000D03*
X97917000Y-26162000D03*
X83947000Y-26162000D03*
X87757000Y-26162000D03*
X63627000Y-26162000D03*
X67437000Y-26162000D03*
X53467000Y-26162000D03*
X57277000Y-26162000D03*
X43307000Y-26162000D03*
X47117000Y-26162000D03*
D13*
X41910000Y-40386000D03*
D20*
X41910000Y-37846000D03*
D13*
X46736000Y-40386000D03*
D20*
X46736000Y-37846000D03*
D13*
X51562000Y-40386000D03*
D20*
X51562000Y-37846000D03*
D13*
X56642000Y-40386000D03*
D20*
X56642000Y-37846000D03*
D12*
X72491600Y-58420000D03*
X72491600Y-60960000D03*
X72491600Y-71120000D03*
X72491600Y-78740000D03*
X52374800Y-58420000D03*
X52374800Y-60960000D03*
X52374800Y-71120000D03*
X52374800Y-78740000D03*
X43383200Y-58420000D03*
X43383200Y-60960000D03*
X43383200Y-71120000D03*
X43383200Y-78740000D03*
X62433200Y-58420000D03*
X62433200Y-60960000D03*
X62433200Y-71120000D03*
X62433200Y-78740000D03*
D21*
X106426000Y-68834000D03*
X106426000Y-78834000D03*
X95250000Y-70713600D03*
X95250000Y-80713600D03*
X84074000Y-70764400D03*
X84074000Y-80764400D03*
D22*
X43180000Y-91440000D03*
D23*
X48180000Y-91440000D03*
X53180000Y-91440000D03*
D22*
X58420000Y-91440000D03*
D23*
X63420000Y-91440000D03*
X68420000Y-91440000D03*
D22*
X73660000Y-91440000D03*
D23*
X78660000Y-91440000D03*
X83660000Y-91440000D03*
D22*
X88900000Y-91440000D03*
D23*
X93900000Y-91440000D03*
X98900000Y-91440000D03*
D13*
X75184000Y-34544000D03*
D20*
X77724000Y-34544000D03*
D24*
X56705500Y-45529500D03*
X92837000Y-46990000D03*
X58928000Y-48971200D03*
X44094400Y-35204400D03*
X56388000Y-51054000D03*
X57658000Y-51054000D03*
X46736000Y-50393600D03*
X58928000Y-51054000D03*
X48463200Y-49733200D03*
X51206400Y-48768000D03*
X57048400Y-48768000D03*
D25*
X54229000Y-37846000D02*
X54229000Y-43053000D01*
X54229000Y-43053000D02*
X56705500Y-45529500D01*
X72491600Y-60960000D02*
X73660000Y-60960000D01*
X87630000Y-46990000D02*
X92837000Y-46990000D01*
X73660000Y-60960000D02*
X87630000Y-46990000D01*
D26*
X43383200Y-60960000D02*
X54610000Y-60960000D01*
X35132000Y-39910000D02*
X35132000Y-52708800D01*
X35132000Y-52708800D02*
X43383200Y-60960000D01*
D25*
X35132000Y-39910000D02*
X35185600Y-39910000D01*
X56708000Y-37912000D02*
X56642000Y-37846000D01*
D26*
X64770000Y-60960000D02*
X72491600Y-60960000D01*
X54610000Y-60960000D02*
X64770000Y-60960000D01*
D25*
X41910000Y-37846000D02*
X46736000Y-37846000D01*
X36942000Y-37846000D02*
X35132000Y-39910000D01*
X41910000Y-37846000D02*
X36942000Y-37846000D01*
X46736000Y-37846000D02*
X51562000Y-37846000D01*
X51562000Y-37846000D02*
X53975000Y-37846000D01*
X53975000Y-37846000D02*
X54229000Y-37846000D01*
X54229000Y-37846000D02*
X56642000Y-37846000D01*
X86614000Y-54737000D02*
X86614000Y-53467000D01*
X86741000Y-53340000D02*
X91821000Y-53340000D01*
X86614000Y-53467000D02*
X86741000Y-53340000D01*
X91694000Y-54737000D02*
X91694000Y-53467000D01*
X91694000Y-53467000D02*
X91821000Y-53340000D01*
X91821000Y-53340000D02*
X95377000Y-53340000D01*
X94107000Y-26162000D02*
X94107000Y-52070000D01*
X94107000Y-52070000D02*
X95377000Y-53340000D01*
X95377000Y-53340000D02*
X96774000Y-54737000D01*
D27*
X73787000Y-28575000D02*
X73787000Y-26162000D01*
X77724000Y-34544000D02*
X77724000Y-32512000D01*
X77724000Y-32512000D02*
X73787000Y-28575000D01*
D25*
X75311000Y-43942000D02*
X75311000Y-44704000D01*
X58928000Y-48971200D02*
X71043800Y-48971200D01*
X71043800Y-48971200D02*
X75311000Y-44704000D01*
D27*
X43180000Y-91440000D02*
X43180000Y-86363250D01*
X35306000Y-78489250D02*
X35306000Y-75359260D01*
X43180000Y-86363250D02*
X35306000Y-78489250D01*
D28*
X39545300Y-71120000D02*
X45720000Y-71120000D01*
X35306000Y-75359300D02*
X39545300Y-71120000D01*
X35735300Y-75359300D02*
X35306000Y-75359300D01*
X64770000Y-71120000D02*
X72491600Y-71120000D01*
X54610000Y-71120000D02*
X64770000Y-71120000D01*
X54610000Y-71120000D02*
X45720000Y-71120000D01*
D27*
X22352000Y-70485000D02*
X23757000Y-70485000D01*
X23757000Y-70485000D02*
X24932000Y-69310000D01*
X35306000Y-89034000D02*
X35306000Y-83439000D01*
X35306000Y-83439000D02*
X22352000Y-70485000D01*
X25478000Y-89034000D02*
X35306000Y-89034000D01*
X35186000Y-89154000D02*
X35306000Y-89154000D01*
X35306000Y-89034000D02*
X35186000Y-89154000D01*
X35306000Y-89034000D02*
X35306000Y-89154000D01*
X35306000Y-89154000D02*
X35306000Y-97360700D01*
D25*
X58928000Y-40386000D02*
X56642000Y-40386000D01*
X62484000Y-43942000D02*
X58928000Y-40386000D01*
X67691000Y-43942000D02*
X62484000Y-43942000D01*
D28*
X53180000Y-91440000D02*
X53180000Y-88536800D01*
X53180000Y-88536800D02*
X43383200Y-78740000D01*
X63420000Y-91440000D02*
X63420000Y-85416400D01*
X62433200Y-84429600D02*
X62433200Y-78740000D01*
X63420000Y-85416400D02*
X62433200Y-84429600D01*
X68420000Y-91440000D02*
X68420000Y-82811600D01*
X68420000Y-82811600D02*
X72491600Y-78740000D01*
D25*
X84074000Y-70764400D02*
X84074000Y-68707000D01*
X86614000Y-66167000D02*
X86614000Y-62357000D01*
X84074000Y-68707000D02*
X86614000Y-66167000D01*
X95250000Y-70713600D02*
X95250000Y-67437000D01*
X91694000Y-63881000D02*
X91694000Y-62357000D01*
X95250000Y-67437000D02*
X91694000Y-63881000D01*
X96774000Y-62357000D02*
X103759000Y-62357000D01*
X106426000Y-65024000D02*
X106426000Y-68834000D01*
X103759000Y-62357000D02*
X106426000Y-65024000D01*
D27*
X73660000Y-91440000D02*
X73660000Y-86360000D01*
X73660000Y-86360000D02*
X78486000Y-81534000D01*
X78660000Y-91440000D02*
X78660000Y-89107000D01*
X84074000Y-83693000D02*
X84074000Y-80786000D01*
X78660000Y-89107000D02*
X84074000Y-83693000D01*
X83820000Y-91440000D02*
X83660000Y-91440000D01*
X83820000Y-88900000D02*
X83820000Y-91440000D01*
X89662000Y-83058000D02*
X83820000Y-88900000D01*
X89662000Y-81534000D02*
X89662000Y-83058000D01*
X100838000Y-77470000D02*
X100838000Y-82423000D01*
X100736400Y-82524600D02*
X93900000Y-89361000D01*
X100838000Y-82423000D02*
X100736400Y-82524600D01*
X93900000Y-89361000D02*
X93900000Y-91440000D01*
X93900000Y-89361000D02*
X93900000Y-91440000D01*
D25*
X78486000Y-68834000D02*
X81026000Y-68834000D01*
X84074000Y-65786000D02*
X84074000Y-62357000D01*
X81026000Y-68834000D02*
X84074000Y-65786000D01*
X89662000Y-68834000D02*
X89662000Y-66929000D01*
X89154000Y-66421000D02*
X89154000Y-62357000D01*
X89662000Y-66929000D02*
X89154000Y-66421000D01*
X100838000Y-64770000D02*
X94996000Y-64770000D01*
X94234000Y-64008000D02*
X94234000Y-62357000D01*
X94996000Y-64770000D02*
X94234000Y-64008000D01*
X44094400Y-35204400D02*
X35052000Y-26162000D01*
X35052000Y-26162000D02*
X25400000Y-26162000D01*
X46926500Y-51054000D02*
X45923200Y-51054000D01*
X45307250Y-50438050D02*
X45307250Y-49434750D01*
X45923200Y-51054000D02*
X45307250Y-50438050D01*
X45307250Y-43148250D02*
X45307250Y-49434750D01*
X42545000Y-40386000D02*
X45307250Y-43148250D01*
X41910000Y-40386000D02*
X42545000Y-40386000D01*
X56388000Y-51054000D02*
X46926500Y-51054000D01*
X46736000Y-50393600D02*
X56997600Y-50393600D01*
X56997600Y-50393600D02*
X57658000Y-51054000D01*
X46736000Y-50393600D02*
X46736000Y-40386000D01*
X48463200Y-49733200D02*
X57607200Y-49733200D01*
X57607200Y-49733200D02*
X58928000Y-51054000D01*
X48463200Y-49733200D02*
X51562000Y-46634400D01*
X51562000Y-46634400D02*
X51562000Y-40386000D01*
X57048400Y-48768000D02*
X51206400Y-48768000D01*
D29*
G36*
X73685400Y-70867806D02*
X73685400Y-72896194D01*
X71524594Y-75057000D01*
X44196000Y-75057000D01*
X44146590Y-75067006D01*
X44106197Y-75094197D01*
X43970561Y-75229833D01*
X43383200Y-75113000D01*
X41995207Y-75389089D01*
X40818524Y-76175324D01*
X40032289Y-77352007D01*
X39756200Y-78740000D01*
X40032289Y-80127993D01*
X40818524Y-81304676D01*
X44577000Y-85063152D01*
X44577000Y-90289361D01*
X44563000Y-90359744D01*
X44563000Y-92520256D01*
X44577000Y-92590639D01*
X44577000Y-93927394D01*
X42873394Y-95631000D01*
X39676606Y-95631000D01*
X38735000Y-94689394D01*
X38735000Y-82550000D01*
X38724994Y-82500590D01*
X38697803Y-82460197D01*
X37621109Y-81383503D01*
X37517123Y-81227877D01*
X34798000Y-78508754D01*
X34798000Y-73966606D01*
X38787606Y-69977000D01*
X72794594Y-69977000D01*
X73685400Y-70867806D01*
X73685400Y-70867806D01*
G37*
X73685400Y-70867806D02*
X73685400Y-72896194D01*
X71524594Y-75057000D01*
X44196000Y-75057000D01*
X44146590Y-75067006D01*
X44106197Y-75094197D01*
X43970561Y-75229833D01*
X43383200Y-75113000D01*
X41995207Y-75389089D01*
X40818524Y-76175324D01*
X40032289Y-77352007D01*
X39756200Y-78740000D01*
X40032289Y-80127993D01*
X40818524Y-81304676D01*
X44577000Y-85063152D01*
X44577000Y-90289361D01*
X44563000Y-90359744D01*
X44563000Y-92520256D01*
X44577000Y-92590639D01*
X44577000Y-93927394D01*
X42873394Y-95631000D01*
X39676606Y-95631000D01*
X38735000Y-94689394D01*
X38735000Y-82550000D01*
X38724994Y-82500590D01*
X38697803Y-82460197D01*
X37621109Y-81383503D01*
X37517123Y-81227877D01*
X34798000Y-78508754D01*
X34798000Y-73966606D01*
X38787606Y-69977000D01*
X72794594Y-69977000D01*
X73685400Y-70867806D01*
G36*
X41185197Y-36157803D02*
X41227211Y-36185666D01*
X41275000Y-36195000D01*
X58875394Y-36195000D01*
X59563000Y-36882606D01*
X59563000Y-38265741D01*
X59522503Y-38291091D01*
X58926194Y-38887400D01*
X57663506Y-38887400D01*
X57913645Y-38612924D01*
X58083476Y-38202890D01*
X57962155Y-37973000D01*
X56769000Y-37973000D01*
X56769000Y-37993000D01*
X56515000Y-37993000D01*
X56515000Y-37973000D01*
X55321845Y-37973000D01*
X55200524Y-38202890D01*
X55370355Y-38612924D01*
X55620494Y-38887400D01*
X52583506Y-38887400D01*
X52833645Y-38612924D01*
X53003476Y-38202890D01*
X52882155Y-37973000D01*
X51689000Y-37973000D01*
X51689000Y-37993000D01*
X51435000Y-37993000D01*
X51435000Y-37973000D01*
X50241845Y-37973000D01*
X50120524Y-38202890D01*
X50290355Y-38612924D01*
X50540494Y-38887400D01*
X47757506Y-38887400D01*
X48007645Y-38612924D01*
X48177476Y-38202890D01*
X48056155Y-37973000D01*
X46863000Y-37973000D01*
X46863000Y-37993000D01*
X46609000Y-37993000D01*
X46609000Y-37973000D01*
X45415845Y-37973000D01*
X45294524Y-38202890D01*
X45464355Y-38612924D01*
X45714494Y-38887400D01*
X42931506Y-38887400D01*
X43181645Y-38612924D01*
X43351476Y-38202890D01*
X43230155Y-37973000D01*
X42037000Y-37973000D01*
X42037000Y-37993000D01*
X41783000Y-37993000D01*
X41783000Y-37973000D01*
X40589845Y-37973000D01*
X40468524Y-38202890D01*
X40638355Y-38612924D01*
X40888494Y-38887400D01*
X39624000Y-38887400D01*
X39574590Y-38897406D01*
X39534197Y-38924597D01*
X38670597Y-39788197D01*
X38642734Y-39830211D01*
X38633400Y-39878000D01*
X38633400Y-55219600D01*
X38643406Y-55269010D01*
X38670597Y-55309403D01*
X41986021Y-58624827D01*
X41985958Y-58696661D01*
X42198190Y-59210303D01*
X42590830Y-59603629D01*
X42782927Y-59683395D01*
X42652057Y-59737603D01*
X42582592Y-59979787D01*
X43383200Y-60780395D01*
X43397343Y-60766253D01*
X43576948Y-60945858D01*
X43562805Y-60960000D01*
X44363413Y-61760608D01*
X44605597Y-61691143D01*
X44792344Y-61167698D01*
X44764562Y-60612632D01*
X44605597Y-60228857D01*
X44419355Y-60175438D01*
X51298538Y-60186941D01*
X51152403Y-60228857D01*
X50965656Y-60752302D01*
X50993438Y-61307368D01*
X51152403Y-61691143D01*
X51394587Y-61760608D01*
X52195195Y-60960000D01*
X52181053Y-60945858D01*
X52360658Y-60766253D01*
X52374800Y-60780395D01*
X52388943Y-60766253D01*
X52568548Y-60945858D01*
X52554405Y-60960000D01*
X53355013Y-61760608D01*
X53597197Y-61691143D01*
X53783944Y-61167698D01*
X53756162Y-60612632D01*
X53597197Y-60228857D01*
X53463685Y-60190562D01*
X61298636Y-60203664D01*
X61210803Y-60228857D01*
X61024056Y-60752302D01*
X61051838Y-61307368D01*
X61210803Y-61691143D01*
X61452987Y-61760608D01*
X62253595Y-60960000D01*
X62239453Y-60945858D01*
X62419058Y-60766253D01*
X62433200Y-60780395D01*
X62447343Y-60766253D01*
X62626948Y-60945858D01*
X62612805Y-60960000D01*
X63413413Y-61760608D01*
X63655597Y-61691143D01*
X63842344Y-61167698D01*
X63814562Y-60612632D01*
X63655597Y-60228857D01*
X63581071Y-60207481D01*
X71298734Y-60220387D01*
X71269203Y-60228857D01*
X71082456Y-60752302D01*
X71110238Y-61307368D01*
X71269203Y-61691143D01*
X71511387Y-61760608D01*
X72311995Y-60960000D01*
X72297853Y-60945858D01*
X72477458Y-60766253D01*
X72491600Y-60780395D01*
X72505743Y-60766253D01*
X72685348Y-60945858D01*
X72671205Y-60960000D01*
X72685348Y-60974143D01*
X72505743Y-61153748D01*
X72491600Y-61139605D01*
X71690992Y-61940213D01*
X71737684Y-62103000D01*
X63187116Y-62103000D01*
X63233808Y-61940213D01*
X62433200Y-61139605D01*
X61632592Y-61940213D01*
X61679284Y-62103000D01*
X53128716Y-62103000D01*
X53175408Y-61940213D01*
X52374800Y-61139605D01*
X51574192Y-61940213D01*
X51620884Y-62103000D01*
X44137116Y-62103000D01*
X44183808Y-61940213D01*
X43383200Y-61139605D01*
X43369058Y-61153748D01*
X43189453Y-60974143D01*
X43203595Y-60960000D01*
X42402987Y-60159392D01*
X42160803Y-60228857D01*
X41974056Y-60752302D01*
X42001838Y-61307368D01*
X42053361Y-61431755D01*
X34163000Y-53541394D01*
X34163000Y-45466000D01*
X34152994Y-45416590D01*
X34125803Y-45376197D01*
X29992926Y-41243320D01*
X33978285Y-41243320D01*
X34107533Y-41536123D01*
X34807806Y-41804388D01*
X35557435Y-41784250D01*
X36156467Y-41536123D01*
X36285715Y-41243320D01*
X35132000Y-40089605D01*
X33978285Y-41243320D01*
X29992926Y-41243320D01*
X29591000Y-40841394D01*
X29591000Y-40068320D01*
X30088285Y-40068320D01*
X30217533Y-40361123D01*
X30917806Y-40629388D01*
X31667435Y-40609250D01*
X32266467Y-40361123D01*
X32395715Y-40068320D01*
X31242000Y-38914605D01*
X30088285Y-40068320D01*
X29591000Y-40068320D01*
X29591000Y-39699409D01*
X29615877Y-39759467D01*
X29908680Y-39888715D01*
X31062395Y-38735000D01*
X31421605Y-38735000D01*
X32575320Y-39888715D01*
X32868123Y-39759467D01*
X32934650Y-39585806D01*
X33237612Y-39585806D01*
X33257750Y-40335435D01*
X33505877Y-40934467D01*
X33798680Y-41063715D01*
X34952395Y-39910000D01*
X35311605Y-39910000D01*
X36465320Y-41063715D01*
X36758123Y-40934467D01*
X37026388Y-40234194D01*
X37006250Y-39484565D01*
X36758123Y-38885533D01*
X36465320Y-38756285D01*
X35311605Y-39910000D01*
X34952395Y-39910000D01*
X33798680Y-38756285D01*
X33505877Y-38885533D01*
X33237612Y-39585806D01*
X32934650Y-39585806D01*
X33136388Y-39059194D01*
X33123426Y-38576680D01*
X33978285Y-38576680D01*
X35132000Y-39730395D01*
X36285715Y-38576680D01*
X36156467Y-38283877D01*
X35456194Y-38015612D01*
X34706565Y-38035750D01*
X34107533Y-38283877D01*
X33978285Y-38576680D01*
X33123426Y-38576680D01*
X33116250Y-38309565D01*
X32868123Y-37710533D01*
X32575320Y-37581285D01*
X31421605Y-38735000D01*
X31062395Y-38735000D01*
X29908680Y-37581285D01*
X29615877Y-37710533D01*
X29591000Y-37775471D01*
X29591000Y-37401680D01*
X30088285Y-37401680D01*
X31242000Y-38555395D01*
X32308285Y-37489110D01*
X40468524Y-37489110D01*
X40589845Y-37719000D01*
X41783000Y-37719000D01*
X41783000Y-36525181D01*
X42037000Y-36525181D01*
X42037000Y-37719000D01*
X43230155Y-37719000D01*
X43351476Y-37489110D01*
X45294524Y-37489110D01*
X45415845Y-37719000D01*
X46609000Y-37719000D01*
X46609000Y-36525181D01*
X46863000Y-36525181D01*
X46863000Y-37719000D01*
X48056155Y-37719000D01*
X48177476Y-37489110D01*
X50120524Y-37489110D01*
X50241845Y-37719000D01*
X51435000Y-37719000D01*
X51435000Y-36525181D01*
X51689000Y-36525181D01*
X51689000Y-37719000D01*
X52882155Y-37719000D01*
X53003476Y-37489110D01*
X55200524Y-37489110D01*
X55321845Y-37719000D01*
X56515000Y-37719000D01*
X56515000Y-36525181D01*
X56769000Y-36525181D01*
X56769000Y-37719000D01*
X57962155Y-37719000D01*
X58083476Y-37489110D01*
X57913645Y-37079076D01*
X57523358Y-36650817D01*
X56998892Y-36404514D01*
X56769000Y-36525181D01*
X56515000Y-36525181D01*
X56285108Y-36404514D01*
X55760642Y-36650817D01*
X55370355Y-37079076D01*
X55200524Y-37489110D01*
X53003476Y-37489110D01*
X52833645Y-37079076D01*
X52443358Y-36650817D01*
X51918892Y-36404514D01*
X51689000Y-36525181D01*
X51435000Y-36525181D01*
X51205108Y-36404514D01*
X50680642Y-36650817D01*
X50290355Y-37079076D01*
X50120524Y-37489110D01*
X48177476Y-37489110D01*
X48007645Y-37079076D01*
X47617358Y-36650817D01*
X47092892Y-36404514D01*
X46863000Y-36525181D01*
X46609000Y-36525181D01*
X46379108Y-36404514D01*
X45854642Y-36650817D01*
X45464355Y-37079076D01*
X45294524Y-37489110D01*
X43351476Y-37489110D01*
X43181645Y-37079076D01*
X42791358Y-36650817D01*
X42266892Y-36404514D01*
X42037000Y-36525181D01*
X41783000Y-36525181D01*
X41553108Y-36404514D01*
X41028642Y-36650817D01*
X40638355Y-37079076D01*
X40468524Y-37489110D01*
X32308285Y-37489110D01*
X32395715Y-37401680D01*
X32266467Y-37108877D01*
X31566194Y-36840612D01*
X30816565Y-36860750D01*
X30217533Y-37108877D01*
X30088285Y-37401680D01*
X29591000Y-37401680D01*
X29591000Y-35866606D01*
X31294606Y-34163000D01*
X39190394Y-34163000D01*
X41185197Y-36157803D01*
X41185197Y-36157803D01*
G37*
X41185197Y-36157803D02*
X41227211Y-36185666D01*
X41275000Y-36195000D01*
X58875394Y-36195000D01*
X59563000Y-36882606D01*
X59563000Y-38265741D01*
X59522503Y-38291091D01*
X58926194Y-38887400D01*
X57663506Y-38887400D01*
X57913645Y-38612924D01*
X58083476Y-38202890D01*
X57962155Y-37973000D01*
X56769000Y-37973000D01*
X56769000Y-37993000D01*
X56515000Y-37993000D01*
X56515000Y-37973000D01*
X55321845Y-37973000D01*
X55200524Y-38202890D01*
X55370355Y-38612924D01*
X55620494Y-38887400D01*
X52583506Y-38887400D01*
X52833645Y-38612924D01*
X53003476Y-38202890D01*
X52882155Y-37973000D01*
X51689000Y-37973000D01*
X51689000Y-37993000D01*
X51435000Y-37993000D01*
X51435000Y-37973000D01*
X50241845Y-37973000D01*
X50120524Y-38202890D01*
X50290355Y-38612924D01*
X50540494Y-38887400D01*
X47757506Y-38887400D01*
X48007645Y-38612924D01*
X48177476Y-38202890D01*
X48056155Y-37973000D01*
X46863000Y-37973000D01*
X46863000Y-37993000D01*
X46609000Y-37993000D01*
X46609000Y-37973000D01*
X45415845Y-37973000D01*
X45294524Y-38202890D01*
X45464355Y-38612924D01*
X45714494Y-38887400D01*
X42931506Y-38887400D01*
X43181645Y-38612924D01*
X43351476Y-38202890D01*
X43230155Y-37973000D01*
X42037000Y-37973000D01*
X42037000Y-37993000D01*
X41783000Y-37993000D01*
X41783000Y-37973000D01*
X40589845Y-37973000D01*
X40468524Y-38202890D01*
X40638355Y-38612924D01*
X40888494Y-38887400D01*
X39624000Y-38887400D01*
X39574590Y-38897406D01*
X39534197Y-38924597D01*
X38670597Y-39788197D01*
X38642734Y-39830211D01*
X38633400Y-39878000D01*
X38633400Y-55219600D01*
X38643406Y-55269010D01*
X38670597Y-55309403D01*
X41986021Y-58624827D01*
X41985958Y-58696661D01*
X42198190Y-59210303D01*
X42590830Y-59603629D01*
X42782927Y-59683395D01*
X42652057Y-59737603D01*
X42582592Y-59979787D01*
X43383200Y-60780395D01*
X43397343Y-60766253D01*
X43576948Y-60945858D01*
X43562805Y-60960000D01*
X44363413Y-61760608D01*
X44605597Y-61691143D01*
X44792344Y-61167698D01*
X44764562Y-60612632D01*
X44605597Y-60228857D01*
X44419355Y-60175438D01*
X51298538Y-60186941D01*
X51152403Y-60228857D01*
X50965656Y-60752302D01*
X50993438Y-61307368D01*
X51152403Y-61691143D01*
X51394587Y-61760608D01*
X52195195Y-60960000D01*
X52181053Y-60945858D01*
X52360658Y-60766253D01*
X52374800Y-60780395D01*
X52388943Y-60766253D01*
X52568548Y-60945858D01*
X52554405Y-60960000D01*
X53355013Y-61760608D01*
X53597197Y-61691143D01*
X53783944Y-61167698D01*
X53756162Y-60612632D01*
X53597197Y-60228857D01*
X53463685Y-60190562D01*
X61298636Y-60203664D01*
X61210803Y-60228857D01*
X61024056Y-60752302D01*
X61051838Y-61307368D01*
X61210803Y-61691143D01*
X61452987Y-61760608D01*
X62253595Y-60960000D01*
X62239453Y-60945858D01*
X62419058Y-60766253D01*
X62433200Y-60780395D01*
X62447343Y-60766253D01*
X62626948Y-60945858D01*
X62612805Y-60960000D01*
X63413413Y-61760608D01*
X63655597Y-61691143D01*
X63842344Y-61167698D01*
X63814562Y-60612632D01*
X63655597Y-60228857D01*
X63581071Y-60207481D01*
X71298734Y-60220387D01*
X71269203Y-60228857D01*
X71082456Y-60752302D01*
X71110238Y-61307368D01*
X71269203Y-61691143D01*
X71511387Y-61760608D01*
X72311995Y-60960000D01*
X72297853Y-60945858D01*
X72477458Y-60766253D01*
X72491600Y-60780395D01*
X72505743Y-60766253D01*
X72685348Y-60945858D01*
X72671205Y-60960000D01*
X72685348Y-60974143D01*
X72505743Y-61153748D01*
X72491600Y-61139605D01*
X71690992Y-61940213D01*
X71737684Y-62103000D01*
X63187116Y-62103000D01*
X63233808Y-61940213D01*
X62433200Y-61139605D01*
X61632592Y-61940213D01*
X61679284Y-62103000D01*
X53128716Y-62103000D01*
X53175408Y-61940213D01*
X52374800Y-61139605D01*
X51574192Y-61940213D01*
X51620884Y-62103000D01*
X44137116Y-62103000D01*
X44183808Y-61940213D01*
X43383200Y-61139605D01*
X43369058Y-61153748D01*
X43189453Y-60974143D01*
X43203595Y-60960000D01*
X42402987Y-60159392D01*
X42160803Y-60228857D01*
X41974056Y-60752302D01*
X42001838Y-61307368D01*
X42053361Y-61431755D01*
X34163000Y-53541394D01*
X34163000Y-45466000D01*
X34152994Y-45416590D01*
X34125803Y-45376197D01*
X29992926Y-41243320D01*
X33978285Y-41243320D01*
X34107533Y-41536123D01*
X34807806Y-41804388D01*
X35557435Y-41784250D01*
X36156467Y-41536123D01*
X36285715Y-41243320D01*
X35132000Y-40089605D01*
X33978285Y-41243320D01*
X29992926Y-41243320D01*
X29591000Y-40841394D01*
X29591000Y-40068320D01*
X30088285Y-40068320D01*
X30217533Y-40361123D01*
X30917806Y-40629388D01*
X31667435Y-40609250D01*
X32266467Y-40361123D01*
X32395715Y-40068320D01*
X31242000Y-38914605D01*
X30088285Y-40068320D01*
X29591000Y-40068320D01*
X29591000Y-39699409D01*
X29615877Y-39759467D01*
X29908680Y-39888715D01*
X31062395Y-38735000D01*
X31421605Y-38735000D01*
X32575320Y-39888715D01*
X32868123Y-39759467D01*
X32934650Y-39585806D01*
X33237612Y-39585806D01*
X33257750Y-40335435D01*
X33505877Y-40934467D01*
X33798680Y-41063715D01*
X34952395Y-39910000D01*
X35311605Y-39910000D01*
X36465320Y-41063715D01*
X36758123Y-40934467D01*
X37026388Y-40234194D01*
X37006250Y-39484565D01*
X36758123Y-38885533D01*
X36465320Y-38756285D01*
X35311605Y-39910000D01*
X34952395Y-39910000D01*
X33798680Y-38756285D01*
X33505877Y-38885533D01*
X33237612Y-39585806D01*
X32934650Y-39585806D01*
X33136388Y-39059194D01*
X33123426Y-38576680D01*
X33978285Y-38576680D01*
X35132000Y-39730395D01*
X36285715Y-38576680D01*
X36156467Y-38283877D01*
X35456194Y-38015612D01*
X34706565Y-38035750D01*
X34107533Y-38283877D01*
X33978285Y-38576680D01*
X33123426Y-38576680D01*
X33116250Y-38309565D01*
X32868123Y-37710533D01*
X32575320Y-37581285D01*
X31421605Y-38735000D01*
X31062395Y-38735000D01*
X29908680Y-37581285D01*
X29615877Y-37710533D01*
X29591000Y-37775471D01*
X29591000Y-37401680D01*
X30088285Y-37401680D01*
X31242000Y-38555395D01*
X32308285Y-37489110D01*
X40468524Y-37489110D01*
X40589845Y-37719000D01*
X41783000Y-37719000D01*
X41783000Y-36525181D01*
X42037000Y-36525181D01*
X42037000Y-37719000D01*
X43230155Y-37719000D01*
X43351476Y-37489110D01*
X45294524Y-37489110D01*
X45415845Y-37719000D01*
X46609000Y-37719000D01*
X46609000Y-36525181D01*
X46863000Y-36525181D01*
X46863000Y-37719000D01*
X48056155Y-37719000D01*
X48177476Y-37489110D01*
X50120524Y-37489110D01*
X50241845Y-37719000D01*
X51435000Y-37719000D01*
X51435000Y-36525181D01*
X51689000Y-36525181D01*
X51689000Y-37719000D01*
X52882155Y-37719000D01*
X53003476Y-37489110D01*
X55200524Y-37489110D01*
X55321845Y-37719000D01*
X56515000Y-37719000D01*
X56515000Y-36525181D01*
X56769000Y-36525181D01*
X56769000Y-37719000D01*
X57962155Y-37719000D01*
X58083476Y-37489110D01*
X57913645Y-37079076D01*
X57523358Y-36650817D01*
X56998892Y-36404514D01*
X56769000Y-36525181D01*
X56515000Y-36525181D01*
X56285108Y-36404514D01*
X55760642Y-36650817D01*
X55370355Y-37079076D01*
X55200524Y-37489110D01*
X53003476Y-37489110D01*
X52833645Y-37079076D01*
X52443358Y-36650817D01*
X51918892Y-36404514D01*
X51689000Y-36525181D01*
X51435000Y-36525181D01*
X51205108Y-36404514D01*
X50680642Y-36650817D01*
X50290355Y-37079076D01*
X50120524Y-37489110D01*
X48177476Y-37489110D01*
X48007645Y-37079076D01*
X47617358Y-36650817D01*
X47092892Y-36404514D01*
X46863000Y-36525181D01*
X46609000Y-36525181D01*
X46379108Y-36404514D01*
X45854642Y-36650817D01*
X45464355Y-37079076D01*
X45294524Y-37489110D01*
X43351476Y-37489110D01*
X43181645Y-37079076D01*
X42791358Y-36650817D01*
X42266892Y-36404514D01*
X42037000Y-36525181D01*
X41783000Y-36525181D01*
X41553108Y-36404514D01*
X41028642Y-36650817D01*
X40638355Y-37079076D01*
X40468524Y-37489110D01*
X32308285Y-37489110D01*
X32395715Y-37401680D01*
X32266467Y-37108877D01*
X31566194Y-36840612D01*
X30816565Y-36860750D01*
X30217533Y-37108877D01*
X30088285Y-37401680D01*
X29591000Y-37401680D01*
X29591000Y-35866606D01*
X31294606Y-34163000D01*
X39190394Y-34163000D01*
X41185197Y-36157803D01*
G36*
X61378197Y-42634803D02*
X61420211Y-42662666D01*
X61468000Y-42672000D01*
X66877164Y-42672000D01*
X66896312Y-42679951D01*
X66826647Y-42898042D01*
X67564000Y-43635395D01*
X67564000Y-44248605D01*
X66826647Y-44985958D01*
X66906920Y-45237259D01*
X66995150Y-45269265D01*
X66509548Y-45593000D01*
X58726606Y-45593000D01*
X56846885Y-43713279D01*
X66194282Y-43713279D01*
X66220685Y-44303458D01*
X66395741Y-44726080D01*
X66647042Y-44806353D01*
X67511395Y-43942000D01*
X66647042Y-43077647D01*
X66395741Y-43157920D01*
X66194282Y-43713279D01*
X56846885Y-43713279D01*
X54737000Y-41603394D01*
X54737000Y-40671750D01*
X55157000Y-40671750D01*
X55157000Y-41362310D01*
X55253673Y-41595699D01*
X55432302Y-41774327D01*
X55665691Y-41871000D01*
X56356250Y-41871000D01*
X56515000Y-41712250D01*
X56515000Y-40513000D01*
X56769000Y-40513000D01*
X56769000Y-41712250D01*
X56927750Y-41871000D01*
X57618309Y-41871000D01*
X57851698Y-41774327D01*
X58030327Y-41595699D01*
X58127000Y-41362310D01*
X58127000Y-40671750D01*
X57968250Y-40513000D01*
X56769000Y-40513000D01*
X56515000Y-40513000D01*
X55315750Y-40513000D01*
X55157000Y-40671750D01*
X54737000Y-40671750D01*
X54737000Y-40311606D01*
X55157000Y-39891606D01*
X55157000Y-40100250D01*
X55315750Y-40259000D01*
X56515000Y-40259000D01*
X56515000Y-40239000D01*
X56769000Y-40239000D01*
X56769000Y-40259000D01*
X57968250Y-40259000D01*
X58127000Y-40100250D01*
X58127000Y-39878000D01*
X58621394Y-39878000D01*
X61378197Y-42634803D01*
X61378197Y-42634803D01*
G37*
X61378197Y-42634803D02*
X61420211Y-42662666D01*
X61468000Y-42672000D01*
X66877164Y-42672000D01*
X66896312Y-42679951D01*
X66826647Y-42898042D01*
X67564000Y-43635395D01*
X67564000Y-44248605D01*
X66826647Y-44985958D01*
X66906920Y-45237259D01*
X66995150Y-45269265D01*
X66509548Y-45593000D01*
X58726606Y-45593000D01*
X56846885Y-43713279D01*
X66194282Y-43713279D01*
X66220685Y-44303458D01*
X66395741Y-44726080D01*
X66647042Y-44806353D01*
X67511395Y-43942000D01*
X66647042Y-43077647D01*
X66395741Y-43157920D01*
X66194282Y-43713279D01*
X56846885Y-43713279D01*
X54737000Y-41603394D01*
X54737000Y-40671750D01*
X55157000Y-40671750D01*
X55157000Y-41362310D01*
X55253673Y-41595699D01*
X55432302Y-41774327D01*
X55665691Y-41871000D01*
X56356250Y-41871000D01*
X56515000Y-41712250D01*
X56515000Y-40513000D01*
X56769000Y-40513000D01*
X56769000Y-41712250D01*
X56927750Y-41871000D01*
X57618309Y-41871000D01*
X57851698Y-41774327D01*
X58030327Y-41595699D01*
X58127000Y-41362310D01*
X58127000Y-40671750D01*
X57968250Y-40513000D01*
X56769000Y-40513000D01*
X56515000Y-40513000D01*
X55315750Y-40513000D01*
X55157000Y-40671750D01*
X54737000Y-40671750D01*
X54737000Y-40311606D01*
X55157000Y-39891606D01*
X55157000Y-40100250D01*
X55315750Y-40259000D01*
X56515000Y-40259000D01*
X56515000Y-40239000D01*
X56769000Y-40239000D01*
X56769000Y-40259000D01*
X57968250Y-40259000D01*
X58127000Y-40100250D01*
X58127000Y-39878000D01*
X58621394Y-39878000D01*
X61378197Y-42634803D01*
G36*
X96901000Y-54610000D02*
X96921000Y-54610000D01*
X96921000Y-54864000D01*
X96901000Y-54864000D01*
X96901000Y-54884000D01*
X96647000Y-54884000D01*
X96647000Y-54864000D01*
X96627000Y-54864000D01*
X96627000Y-54610000D01*
X96647000Y-54610000D01*
X96647000Y-54590000D01*
X96901000Y-54590000D01*
X96901000Y-54610000D01*
X96901000Y-54610000D01*
G37*
X96901000Y-54610000D02*
X96921000Y-54610000D01*
X96921000Y-54864000D01*
X96901000Y-54864000D01*
X96901000Y-54884000D01*
X96647000Y-54884000D01*
X96647000Y-54864000D01*
X96627000Y-54864000D01*
X96627000Y-54610000D01*
X96647000Y-54610000D01*
X96647000Y-54590000D01*
X96901000Y-54590000D01*
X96901000Y-54610000D01*
G36*
X96278961Y-53405567D02*
X96036577Y-53505959D01*
X95621611Y-53881866D01*
X95518986Y-54098703D01*
X95248698Y-53694189D01*
X94783151Y-53383120D01*
X94234000Y-53273887D01*
X93684849Y-53383120D01*
X93219302Y-53694189D01*
X92949014Y-54098703D01*
X92846389Y-53881866D01*
X92431423Y-53505959D01*
X92043039Y-53345096D01*
X91821000Y-53467085D01*
X91821000Y-54610000D01*
X91841000Y-54610000D01*
X91841000Y-54864000D01*
X91821000Y-54864000D01*
X91821000Y-54884000D01*
X91567000Y-54884000D01*
X91567000Y-54864000D01*
X91547000Y-54864000D01*
X91547000Y-54610000D01*
X91567000Y-54610000D01*
X91567000Y-53467085D01*
X91344961Y-53345096D01*
X90956577Y-53505959D01*
X90541611Y-53881866D01*
X90438986Y-54098703D01*
X90168698Y-53694189D01*
X89703151Y-53383120D01*
X89154000Y-53273887D01*
X88604849Y-53383120D01*
X88139302Y-53694189D01*
X87869014Y-54098703D01*
X87766389Y-53881866D01*
X87351423Y-53505959D01*
X86963039Y-53345096D01*
X86741000Y-53467085D01*
X86741000Y-54610000D01*
X86761000Y-54610000D01*
X86761000Y-54864000D01*
X86741000Y-54864000D01*
X86741000Y-54884000D01*
X86487000Y-54884000D01*
X86487000Y-54864000D01*
X86467000Y-54864000D01*
X86467000Y-54610000D01*
X86487000Y-54610000D01*
X86487000Y-53467085D01*
X86264961Y-53345096D01*
X85876577Y-53505959D01*
X85760456Y-53611150D01*
X86158606Y-53213000D01*
X96086394Y-53213000D01*
X96278961Y-53405567D01*
X96278961Y-53405567D01*
G37*
X96278961Y-53405567D02*
X96036577Y-53505959D01*
X95621611Y-53881866D01*
X95518986Y-54098703D01*
X95248698Y-53694189D01*
X94783151Y-53383120D01*
X94234000Y-53273887D01*
X93684849Y-53383120D01*
X93219302Y-53694189D01*
X92949014Y-54098703D01*
X92846389Y-53881866D01*
X92431423Y-53505959D01*
X92043039Y-53345096D01*
X91821000Y-53467085D01*
X91821000Y-54610000D01*
X91841000Y-54610000D01*
X91841000Y-54864000D01*
X91821000Y-54864000D01*
X91821000Y-54884000D01*
X91567000Y-54884000D01*
X91567000Y-54864000D01*
X91547000Y-54864000D01*
X91547000Y-54610000D01*
X91567000Y-54610000D01*
X91567000Y-53467085D01*
X91344961Y-53345096D01*
X90956577Y-53505959D01*
X90541611Y-53881866D01*
X90438986Y-54098703D01*
X90168698Y-53694189D01*
X89703151Y-53383120D01*
X89154000Y-53273887D01*
X88604849Y-53383120D01*
X88139302Y-53694189D01*
X87869014Y-54098703D01*
X87766389Y-53881866D01*
X87351423Y-53505959D01*
X86963039Y-53345096D01*
X86741000Y-53467085D01*
X86741000Y-54610000D01*
X86761000Y-54610000D01*
X86761000Y-54864000D01*
X86741000Y-54864000D01*
X86741000Y-54884000D01*
X86487000Y-54884000D01*
X86487000Y-54864000D01*
X86467000Y-54864000D01*
X86467000Y-54610000D01*
X86487000Y-54610000D01*
X86487000Y-53467085D01*
X86264961Y-53345096D01*
X85876577Y-53505959D01*
X85760456Y-53611150D01*
X86158606Y-53213000D01*
X96086394Y-53213000D01*
X96278961Y-53405567D01*
M02*
