G04 #@! TF.FileFunction,Paste,Top*
%FSLAX46Y46*%
G04 Gerber Fmt 4.6, Leading zero omitted, Abs format (unit mm)*
G04 Created by KiCad (PCBNEW 4.0.5+dfsg1-4) date Tue Dec 12 22:09:06 2017*
%MOMM*%
%LPD*%
G01*
G04 APERTURE LIST*
%ADD10C,0.100000*%
%ADD11R,4.000500X2.400300*%
%ADD12R,1.250000X1.000000*%
%ADD13R,1.300000X0.700000*%
%ADD14R,0.450000X1.750000*%
%ADD15R,1.000000X1.250000*%
%ADD16R,0.700000X1.300000*%
%ADD17R,0.600000X1.550000*%
%ADD18R,1.980000X3.960000*%
%ADD19O,1.980000X3.960000*%
G04 APERTURE END LIST*
D10*
D11*
X38163500Y-30670500D03*
X30162500Y-30670500D03*
D12*
X39624000Y-45228000D03*
X39624000Y-47228000D03*
X43180000Y-45228000D03*
X43180000Y-47228000D03*
D13*
X67818000Y-50861000D03*
X67818000Y-48961000D03*
X64770000Y-50861000D03*
X64770000Y-48961000D03*
X51562000Y-33716000D03*
X51562000Y-31816000D03*
X46736000Y-33716000D03*
X46736000Y-31816000D03*
X41910000Y-33716000D03*
X41910000Y-31816000D03*
D14*
X45955000Y-52622000D03*
X46605000Y-52622000D03*
X47255000Y-52622000D03*
X47905000Y-52622000D03*
X48555000Y-52622000D03*
X49205000Y-52622000D03*
X49855000Y-52622000D03*
X50505000Y-52622000D03*
X51155000Y-52622000D03*
X51805000Y-52622000D03*
X52455000Y-52622000D03*
X53105000Y-52622000D03*
X53105000Y-45422000D03*
X52455000Y-45422000D03*
X51805000Y-45422000D03*
X51155000Y-45422000D03*
X50505000Y-45422000D03*
X49855000Y-45422000D03*
X49205000Y-45422000D03*
X48555000Y-45422000D03*
X47905000Y-45422000D03*
X47255000Y-45422000D03*
X46605000Y-45422000D03*
X45955000Y-45422000D03*
D15*
X84344000Y-50673000D03*
X86344000Y-50673000D03*
X89424000Y-50673000D03*
X91424000Y-50673000D03*
X94631000Y-50673000D03*
X96631000Y-50673000D03*
D13*
X79502000Y-54417000D03*
X79502000Y-52517000D03*
D16*
X91374000Y-46990000D03*
X89474000Y-46990000D03*
X94427000Y-46990000D03*
X96327000Y-46990000D03*
D17*
X56388000Y-52484000D03*
X57658000Y-52484000D03*
X58928000Y-52484000D03*
X60198000Y-52484000D03*
X60198000Y-47084000D03*
X58928000Y-47084000D03*
X57658000Y-47084000D03*
X56388000Y-47084000D03*
D18*
X43180000Y-91440000D03*
D19*
X48180000Y-91440000D03*
X53180000Y-91440000D03*
D18*
X58420000Y-91440000D03*
D19*
X63420000Y-91440000D03*
X68420000Y-91440000D03*
D18*
X73660000Y-91440000D03*
D19*
X78660000Y-91440000D03*
X83660000Y-91440000D03*
D18*
X88900000Y-91440000D03*
D19*
X93900000Y-91440000D03*
X98900000Y-91440000D03*
D13*
X71882000Y-33594000D03*
X71882000Y-35494000D03*
M02*
