G04 #@! TF.FileFunction,Soldermask,Bot*
%FSLAX46Y46*%
G04 Gerber Fmt 4.6, Leading zero omitted, Abs format (unit mm)*
G04 Created by KiCad (PCBNEW 4.0.5+dfsg1-4) date Tue Dec 12 22:09:06 2017*
%MOMM*%
%LPD*%
G01*
G04 APERTURE LIST*
%ADD10C,0.100000*%
%ADD11C,2.900000*%
%ADD12C,1.924000*%
%ADD13R,2.100000X2.100000*%
%ADD14C,2.100000*%
%ADD15O,2.899360X4.400500*%
%ADD16C,2.200000*%
%ADD17C,2.000000*%
%ADD18O,2.000000X2.000000*%
%ADD19R,2.000000X2.000000*%
%ADD20O,2.100000X2.100000*%
%ADD21C,2.400000*%
%ADD22R,2.380000X4.360000*%
%ADD23O,2.380000X4.360000*%
%ADD24C,3.600000*%
G04 APERTURE END LIST*
D10*
D11*
X24932000Y-69310000D03*
X29932000Y-69310000D03*
X19732000Y-39910000D03*
X35132000Y-39910000D03*
X22352000Y-70485000D03*
X32512000Y-70485000D03*
X23622000Y-38735000D03*
X31242000Y-38735000D03*
D12*
X73787000Y-26162000D03*
X77597000Y-26162000D03*
X21590000Y-26162000D03*
X25400000Y-26162000D03*
D13*
X77851000Y-41402000D03*
D14*
X77851000Y-43942000D03*
X75311000Y-41402000D03*
X75311000Y-43942000D03*
X72771000Y-41402000D03*
X72771000Y-43942000D03*
X70231000Y-41402000D03*
X70231000Y-43942000D03*
X67691000Y-41402000D03*
X67691000Y-43942000D03*
D15*
X35306000Y-75359260D03*
X35306000Y-97360740D03*
D16*
X27178000Y-81534000D03*
X25478000Y-89034000D03*
D17*
X78486000Y-68834000D03*
D18*
X78486000Y-81534000D03*
D17*
X89662000Y-68834000D03*
D18*
X89662000Y-81534000D03*
D17*
X100838000Y-64770000D03*
D18*
X100838000Y-77470000D03*
D19*
X84074000Y-62357000D03*
D18*
X86614000Y-54737000D03*
X86614000Y-62357000D03*
X84074000Y-54737000D03*
D19*
X89154000Y-62357000D03*
D18*
X91694000Y-54737000D03*
X91694000Y-62357000D03*
X89154000Y-54737000D03*
D19*
X94234000Y-62357000D03*
D18*
X96774000Y-54737000D03*
X96774000Y-62357000D03*
X94234000Y-54737000D03*
D12*
X104267000Y-26162000D03*
X108077000Y-26162000D03*
X94107000Y-26162000D03*
X97917000Y-26162000D03*
X83947000Y-26162000D03*
X87757000Y-26162000D03*
X63627000Y-26162000D03*
X67437000Y-26162000D03*
X53467000Y-26162000D03*
X57277000Y-26162000D03*
X43307000Y-26162000D03*
X47117000Y-26162000D03*
D13*
X41910000Y-40386000D03*
D20*
X41910000Y-37846000D03*
D13*
X46736000Y-40386000D03*
D20*
X46736000Y-37846000D03*
D13*
X51562000Y-40386000D03*
D20*
X51562000Y-37846000D03*
D13*
X56642000Y-40386000D03*
D20*
X56642000Y-37846000D03*
D12*
X72491600Y-58420000D03*
X72491600Y-60960000D03*
X72491600Y-71120000D03*
X72491600Y-78740000D03*
X52374800Y-58420000D03*
X52374800Y-60960000D03*
X52374800Y-71120000D03*
X52374800Y-78740000D03*
X43383200Y-58420000D03*
X43383200Y-60960000D03*
X43383200Y-71120000D03*
X43383200Y-78740000D03*
X62433200Y-58420000D03*
X62433200Y-60960000D03*
X62433200Y-71120000D03*
X62433200Y-78740000D03*
D21*
X106426000Y-68834000D03*
X106426000Y-78834000D03*
X95250000Y-70713600D03*
X95250000Y-80713600D03*
X84074000Y-70764400D03*
X84074000Y-80764400D03*
D22*
X43180000Y-91440000D03*
D23*
X48180000Y-91440000D03*
X53180000Y-91440000D03*
D22*
X58420000Y-91440000D03*
D23*
X63420000Y-91440000D03*
X68420000Y-91440000D03*
D22*
X73660000Y-91440000D03*
D23*
X78660000Y-91440000D03*
X83660000Y-91440000D03*
D22*
X88900000Y-91440000D03*
D23*
X93900000Y-91440000D03*
X98900000Y-91440000D03*
D24*
X20193000Y-34163000D03*
X20193000Y-84963000D03*
X105791000Y-84963000D03*
X105791000Y-34163000D03*
D13*
X75184000Y-34544000D03*
D20*
X77724000Y-34544000D03*
M02*
