<?xml version="1.0"?>
<!DOCTYPE svg PUBLIC "-//W3C//DTD SVG 1.1//EN" "http://www.w3.org/Graphics/SVG/1.1/DTD/svg11.dtd">
<svg width="65.28mm" height="16.28mm" viewBox="0 0 65.28 16.28" xmlns="http://www.w3.org/2000/svg" version="1.1">
<g id="Sketch" transform="translate(32.640000,15.640000) scale(1,-1)">
<path id="Sketch_w0000"  d="M -32.0 0.0 L 32.0 0.0 L 32.0 5.0 L 25.0 5.0 L 25.0 15.0 L 20.5 15.0 L 20.5 5.0 L 18.5 5.0 L 18.5 15.0 L 14.0 15.0 L 14.0 5.0 L 12.0 5.0 L 12.0 15.0 L 7.5 15.0 L 7.5 5.0 L 5.5 5.0 L 5.5 15.0 L 1.0 15.0 L 1.0 5.0 L -1.0 5.0 L -0.9999999999999999 15.0 L -5.5 15.0 L -5.5 5.0 L -7.5 5.0 L -7.5 15.0 L -12.0 15.0 L -12.0 5.0 L -14.0 5.0 L -14.0 15.0 L -18.5 15.0 L -18.5 5.0 L -20.5 5.0 L -20.5 15.0 L -25.0 15.0 L -25.0 5.0 L -32.0 5.0 L -32.0 0.0 " stroke="#000000" stroke-width="0.35 px" style="stroke-width:0.35;stroke-miterlimit:4;stroke-dasharray:none;fill:none;fill-rule: evenodd "/>
<title>b'Sketch'</title>
</g>
</svg>