G04 #@! TF.FileFunction,Soldermask,Bot*
%FSLAX46Y46*%
G04 Gerber Fmt 4.6, Leading zero omitted, Abs format (unit mm)*
G04 Created by KiCad (PCBNEW 4.0.5+dfsg1-4) date Tue Dec 12 22:17:04 2017*
%MOMM*%
%LPD*%
G01*
G04 APERTURE LIST*
%ADD10C,0.100000*%
%ADD11R,2.100000X2.100000*%
%ADD12C,2.100000*%
%ADD13O,4.400500X2.899360*%
%ADD14C,2.200000*%
%ADD15R,2.900000X1.500000*%
%ADD16O,2.900000X1.500000*%
%ADD17C,1.924000*%
%ADD18C,2.900000*%
%ADD19R,2.432000X2.127200*%
%ADD20O,2.432000X2.127200*%
%ADD21R,2.432000X2.432000*%
%ADD22O,2.432000X2.432000*%
%ADD23C,3.600000*%
%ADD24O,2.100000X2.100000*%
%ADD25R,2.380000X4.360000*%
%ADD26O,2.380000X4.360000*%
G04 APERTURE END LIST*
D10*
D11*
X104394000Y-55372000D03*
D12*
X101854000Y-55372000D03*
X104394000Y-52832000D03*
X101854000Y-52832000D03*
X104394000Y-50292000D03*
X101854000Y-50292000D03*
X104394000Y-47752000D03*
X101854000Y-47752000D03*
X104394000Y-45212000D03*
X101854000Y-45212000D03*
D13*
X25829260Y-91440000D03*
X47830740Y-91440000D03*
D14*
X39370000Y-83820000D03*
X31870000Y-82120000D03*
D15*
X73214000Y-35306000D03*
D16*
X73214000Y-37306000D03*
X73214000Y-39306000D03*
X73214000Y-41306000D03*
X73214000Y-43306000D03*
X73214000Y-45306000D03*
X73214000Y-47306000D03*
X73214000Y-49306000D03*
X88614000Y-49306000D03*
X88514000Y-47306000D03*
X88614000Y-45306000D03*
X88614000Y-43306000D03*
X88614000Y-41306000D03*
X88614000Y-39306000D03*
X88614000Y-37306000D03*
X88614000Y-35306000D03*
D11*
X31750000Y-110998000D03*
D12*
X31750000Y-113538000D03*
X29210000Y-110998000D03*
X29210000Y-113538000D03*
X26670000Y-110998000D03*
X26670000Y-113538000D03*
X24130000Y-110998000D03*
X24130000Y-113538000D03*
X21590000Y-110998000D03*
X21590000Y-113538000D03*
D17*
X94234000Y-59436000D03*
X94234000Y-61976000D03*
X94234000Y-72136000D03*
X94234000Y-79756000D03*
X80467200Y-59436000D03*
X80467200Y-61976000D03*
X80467200Y-72136000D03*
X80467200Y-79756000D03*
X66802000Y-59436000D03*
X66802000Y-61976000D03*
X66802000Y-72136000D03*
X66802000Y-79756000D03*
X53086000Y-59436000D03*
X53086000Y-61976000D03*
X53086000Y-72136000D03*
X53086000Y-79756000D03*
D18*
X26710000Y-74390000D03*
X31710000Y-74390000D03*
X21510000Y-44990000D03*
X36910000Y-44990000D03*
X24130000Y-75565000D03*
X34290000Y-75565000D03*
X25400000Y-43815000D03*
X33020000Y-43815000D03*
D19*
X68961000Y-102997000D03*
D20*
X68961000Y-105537000D03*
X68961000Y-108077000D03*
X68961000Y-110617000D03*
X68961000Y-113157000D03*
X68961000Y-115697000D03*
D21*
X60960000Y-59690000D03*
D22*
X63500000Y-59690000D03*
D21*
X88519000Y-59817000D03*
D22*
X91059000Y-59817000D03*
D21*
X74676000Y-59690000D03*
D22*
X77216000Y-59690000D03*
D21*
X46990000Y-59690000D03*
D22*
X49530000Y-59690000D03*
D23*
X19939000Y-33528000D03*
X19939000Y-84328000D03*
X105537000Y-84328000D03*
X105537000Y-33528000D03*
D11*
X45847000Y-104013000D03*
D24*
X48387000Y-104013000D03*
D11*
X68453000Y-37846000D03*
D24*
X68453000Y-35306000D03*
D11*
X24130000Y-102616000D03*
D24*
X21590000Y-102616000D03*
D25*
X71628000Y-90170000D03*
D26*
X76628000Y-90170000D03*
X81628000Y-90170000D03*
D25*
X56388000Y-90170000D03*
D26*
X61388000Y-90170000D03*
X66388000Y-90170000D03*
M02*
