M48
;DRILL file {KiCad 4.0.2+dfsg1-stable} date lun 08 gen 2018 08:50:07 CET
;FORMAT={-:-/ absolute / inch / decimal}
FMAT,2
INCH,TZ
T1C0.016
T2C0.030
T3C0.031
T4C0.039
T5C0.043
T6C0.052
T7C0.059
%
G90
G05
M72
T1
X4.505Y-2.73
X4.61Y-3.384
X4.678Y-3.358
X4.786Y-3.32
X4.99Y-3.19
X4.99Y-3.41
X5.016Y-3.32
X5.04Y-3.41
X5.09Y-3.328
X5.09Y-3.41
X6.425Y-3.25
T2
X4.478Y-3.7
X4.478Y-3.8
X4.478Y-4.2
X4.478Y-4.5
X4.832Y-3.7
X4.832Y-3.8
X4.832Y-4.2
X4.832Y-4.5
X5.228Y-3.7
X5.228Y-3.8
X5.228Y-4.2
X5.228Y-4.5
X5.624Y-3.7
X5.624Y-3.8
X5.624Y-4.2
X5.624Y-4.5
T3
X3.7731Y-4.9053
X3.84Y-4.61
X5.86Y-4.11
X5.86Y-4.61
X6.08Y-3.555
X6.08Y-3.855
X6.18Y-3.555
X6.18Y-3.855
X6.28Y-3.555
X6.28Y-3.855
X6.3Y-4.11
X6.3Y-4.61
X6.38Y-3.555
X6.38Y-3.855
X6.48Y-3.555
X6.48Y-3.855
X6.58Y-3.555
X6.58Y-3.855
X6.74Y-3.95
X6.74Y-4.45
T4
X3.5469Y-2.9713
X3.65Y-4.175
X3.7Y-2.925
X3.7516Y-4.1287
X3.9484Y-4.1287
X4.Y-2.925
X4.05Y-4.175
X4.1531Y-2.9713
X4.42Y-2.89
X4.42Y-2.99
X4.61Y-2.89
X4.61Y-2.99
X4.8Y-2.89
X4.8Y-2.99
X5.Y-2.89
X5.Y-2.99
X5.435Y-3.03
X5.435Y-3.13
X5.535Y-3.03
X5.535Y-3.13
X5.635Y-3.03
X5.635Y-3.13
X5.73Y-2.76
X5.735Y-3.03
X5.735Y-3.13
X5.83Y-2.76
X5.835Y-3.03
X5.835Y-3.13
X6.08Y-4.186
X6.08Y-4.5797
X6.52Y-4.184
X6.52Y-4.5777
X6.96Y-4.11
X6.96Y-4.5037
T5
X3.625Y-2.38
X3.775Y-2.38
X4.475Y-2.38
X4.625Y-2.38
X4.875Y-2.38
X5.025Y-2.38
X5.275Y-2.38
X5.425Y-2.38
X5.675Y-2.38
X5.825Y-2.38
X6.075Y-2.38
X6.225Y-2.38
X6.475Y-2.38
X6.625Y-2.38
X6.875Y-2.38
X7.025Y-2.38
T6
X4.47Y-5.
X4.6669Y-5.
X4.8637Y-5.
X5.07Y-5.
X5.2669Y-5.
X5.4637Y-5.
X5.67Y-5.
X5.8669Y-5.
X6.0637Y-5.
X6.27Y-5.
X6.4669Y-5.
X6.6637Y-5.
T7
X4.16Y-4.3669
X4.16Y-5.2331
T0
M30
