G04 #@! TF.FileFunction,Copper,L1,Top,Signal*
%FSLAX46Y46*%
G04 Gerber Fmt 4.6, Leading zero omitted, Abs format (unit mm)*
G04 Created by KiCad (PCBNEW 4.0.7-e2-6376~58~ubuntu16.04.1) date Thu Jun 28 22:55:59 2018*
%MOMM*%
%LPD*%
G01*
G04 APERTURE LIST*
%ADD10C,0.100000*%
%ADD11C,2.500000*%
%ADD12R,1.700000X1.700000*%
%ADD13C,1.700000*%
%ADD14O,2.499360X4.000500*%
%ADD15C,1.800000*%
%ADD16R,4.000500X2.400300*%
%ADD17R,1.250000X1.000000*%
%ADD18R,1.300000X0.700000*%
%ADD19R,0.450000X1.750000*%
%ADD20R,1.000000X1.250000*%
%ADD21C,1.600000*%
%ADD22O,1.600000X1.600000*%
%ADD23R,0.700000X1.300000*%
%ADD24O,1.700000X1.700000*%
%ADD25R,0.600000X1.550000*%
%ADD26C,1.524000*%
%ADD27C,2.000000*%
%ADD28O,1.981200X3.962400*%
%ADD29R,1.600000X1.600000*%
%ADD30C,0.600000*%
%ADD31C,0.250000*%
%ADD32C,1.000000*%
G04 APERTURE END LIST*
D10*
D11*
X95290000Y-104870000D03*
X100290000Y-104870000D03*
X90090000Y-75470000D03*
X105490000Y-75470000D03*
X92710000Y-106045000D03*
X102870000Y-106045000D03*
X93980000Y-74295000D03*
X101600000Y-74295000D03*
D12*
X148209000Y-76962000D03*
D13*
X148209000Y-79502000D03*
X145669000Y-76962000D03*
X145669000Y-79502000D03*
X143129000Y-76962000D03*
X143129000Y-79502000D03*
X140589000Y-76962000D03*
X140589000Y-79502000D03*
X138049000Y-76962000D03*
X138049000Y-79502000D03*
D14*
X105664000Y-110919260D03*
X105664000Y-132920740D03*
D15*
X97536000Y-117094000D03*
X95836000Y-124594000D03*
D16*
X108521500Y-66230500D03*
X100520500Y-66230500D03*
D17*
X109982000Y-80788000D03*
X109982000Y-82788000D03*
X113538000Y-80788000D03*
X113538000Y-82788000D03*
D18*
X135128000Y-86421000D03*
X135128000Y-84521000D03*
X139446000Y-86421000D03*
X139446000Y-84521000D03*
X121920000Y-69276000D03*
X121920000Y-67376000D03*
X117094000Y-69276000D03*
X117094000Y-67376000D03*
X112268000Y-69276000D03*
X112268000Y-67376000D03*
D19*
X116313000Y-88182000D03*
X116963000Y-88182000D03*
X117613000Y-88182000D03*
X118263000Y-88182000D03*
X118913000Y-88182000D03*
X119563000Y-88182000D03*
X120213000Y-88182000D03*
X120863000Y-88182000D03*
X121513000Y-88182000D03*
X122163000Y-88182000D03*
X122813000Y-88182000D03*
X123463000Y-88182000D03*
X123463000Y-80982000D03*
X122813000Y-80982000D03*
X122163000Y-80982000D03*
X121513000Y-80982000D03*
X120863000Y-80982000D03*
X120213000Y-80982000D03*
X119563000Y-80982000D03*
X118913000Y-80982000D03*
X118263000Y-80982000D03*
X117613000Y-80982000D03*
X116963000Y-80982000D03*
X116313000Y-80982000D03*
D20*
X154702000Y-86233000D03*
X156702000Y-86233000D03*
X159782000Y-86233000D03*
X161782000Y-86233000D03*
X164989000Y-86233000D03*
X166989000Y-86233000D03*
D18*
X149860000Y-89977000D03*
X149860000Y-88077000D03*
D21*
X148844000Y-104394000D03*
D22*
X148844000Y-117094000D03*
D23*
X161732000Y-82550000D03*
X159832000Y-82550000D03*
D21*
X160020000Y-104394000D03*
D22*
X160020000Y-117094000D03*
D23*
X164785000Y-82550000D03*
X166685000Y-82550000D03*
D21*
X171196000Y-100330000D03*
D22*
X171196000Y-113030000D03*
D12*
X112268000Y-75946000D03*
D24*
X112268000Y-73406000D03*
D12*
X117094000Y-75946000D03*
D24*
X117094000Y-73406000D03*
D12*
X121920000Y-75946000D03*
D24*
X121920000Y-73406000D03*
D12*
X127000000Y-75946000D03*
D24*
X127000000Y-73406000D03*
D25*
X126746000Y-88044000D03*
X128016000Y-88044000D03*
X129286000Y-88044000D03*
X130556000Y-88044000D03*
X130556000Y-82644000D03*
X129286000Y-82644000D03*
X128016000Y-82644000D03*
X126746000Y-82644000D03*
D26*
X142849600Y-93980000D03*
X142849600Y-96520000D03*
X142849600Y-106680000D03*
X142849600Y-114300000D03*
X122732800Y-93980000D03*
X122732800Y-96520000D03*
X122732800Y-106680000D03*
X122732800Y-114300000D03*
X113741200Y-93980000D03*
X113741200Y-96520000D03*
X113741200Y-106680000D03*
X113741200Y-114300000D03*
X132791200Y-93980000D03*
X132791200Y-96520000D03*
X132791200Y-106680000D03*
X132791200Y-114300000D03*
D18*
X142240000Y-69154000D03*
X142240000Y-71054000D03*
D12*
X145542000Y-70104000D03*
D24*
X148082000Y-70104000D03*
D27*
X113665000Y-60452000D03*
X117475000Y-60452000D03*
X123825000Y-60452000D03*
X127635000Y-60452000D03*
X133985000Y-60452000D03*
X137795000Y-60452000D03*
X154305000Y-60452000D03*
X158115000Y-60452000D03*
X164465000Y-60452000D03*
X168275000Y-60452000D03*
X174625000Y-60452000D03*
X178435000Y-60452000D03*
X92075000Y-60452000D03*
X95885000Y-60452000D03*
X144145000Y-60452000D03*
X147955000Y-60452000D03*
D28*
X113411000Y-126365000D03*
X118491000Y-126365000D03*
X123571000Y-126365000D03*
X128651000Y-126365000D03*
X133731000Y-126365000D03*
X138811000Y-126365000D03*
X143891000Y-126365000D03*
X148971000Y-126365000D03*
X154051000Y-126365000D03*
X159131000Y-126365000D03*
X164211000Y-126365000D03*
X169291000Y-126365000D03*
D29*
X154432000Y-97917000D03*
D22*
X156972000Y-90297000D03*
X156972000Y-97917000D03*
X154432000Y-90297000D03*
D29*
X159512000Y-97917000D03*
D22*
X162052000Y-90297000D03*
X162052000Y-97917000D03*
X159512000Y-90297000D03*
D29*
X164592000Y-97917000D03*
D22*
X167132000Y-90297000D03*
X167132000Y-97917000D03*
X164592000Y-90297000D03*
D27*
X154432000Y-106324400D03*
X154432000Y-116324400D03*
X165608000Y-106273600D03*
X165608000Y-116273600D03*
X176784000Y-104394000D03*
X176784000Y-114394000D03*
D30*
X126746000Y-81026000D03*
X163195000Y-82550000D03*
X129286000Y-84582000D03*
X114427000Y-69342000D03*
X126746000Y-86614000D03*
X128016000Y-86614000D03*
X117094000Y-85953600D03*
X129286000Y-86614000D03*
X118821200Y-85293200D03*
X121564400Y-84328000D03*
X127406400Y-84328000D03*
D31*
X130175000Y-80772000D02*
X127000000Y-80772000D01*
X141859000Y-70104000D02*
X142240000Y-69723000D01*
X142240000Y-69154000D02*
X142240000Y-69723000D01*
X130175000Y-80772000D02*
X140843000Y-70104000D01*
X140843000Y-70104000D02*
X141859000Y-70104000D01*
X127000000Y-80772000D02*
X126746000Y-81026000D01*
X126746000Y-82644000D02*
X126746000Y-81026000D01*
D32*
X108521500Y-66230500D02*
X108521500Y-72438500D01*
X108521500Y-72438500D02*
X105490000Y-75470000D01*
D31*
X161732000Y-82550000D02*
X163195000Y-82550000D01*
X163195000Y-82550000D02*
X164785000Y-82550000D01*
X149860000Y-89977000D02*
X149860000Y-90678000D01*
X144018000Y-96520000D02*
X142849600Y-96520000D01*
X149860000Y-90678000D02*
X144018000Y-96520000D01*
X105490000Y-75470000D02*
X105490000Y-75467200D01*
X116313000Y-80982000D02*
X115653000Y-80982000D01*
X115459000Y-80788000D02*
X113538000Y-80788000D01*
X115653000Y-80982000D02*
X115459000Y-80788000D01*
X109982000Y-80788000D02*
X113538000Y-80788000D01*
X109982000Y-79708000D02*
X109982000Y-80788000D01*
X105490000Y-75470000D02*
X109982000Y-79708000D01*
X123825000Y-60452000D02*
X123825000Y-63500000D01*
X113665000Y-60452000D02*
X113665000Y-64262000D01*
X113665000Y-64262000D02*
X113792000Y-64262000D01*
X156972000Y-90297000D02*
X156972000Y-87630000D01*
X156972000Y-87630000D02*
X156702000Y-87360000D01*
X156702000Y-87360000D02*
X156702000Y-86233000D01*
X162052000Y-90297000D02*
X162052000Y-87630000D01*
X161782000Y-87360000D02*
X161782000Y-86233000D01*
X162052000Y-87630000D02*
X161782000Y-87360000D01*
X167132000Y-90297000D02*
X167132000Y-88265000D01*
X166989000Y-88122000D02*
X166989000Y-86233000D01*
X167132000Y-88265000D02*
X166989000Y-88122000D01*
X113538000Y-82788000D02*
X116519200Y-82788000D01*
X121742200Y-83515200D02*
X122682000Y-84455000D01*
X117246400Y-83515200D02*
X121742200Y-83515200D01*
X116519200Y-82788000D02*
X117246400Y-83515200D01*
X117094000Y-67376000D02*
X117094000Y-65735200D01*
X115620800Y-64262000D02*
X113792000Y-64262000D01*
X113792000Y-64262000D02*
X113665000Y-64262000D01*
X117094000Y-65735200D02*
X115620800Y-64262000D01*
X112268000Y-67376000D02*
X112268000Y-65176400D01*
X112268000Y-65176400D02*
X113182400Y-64262000D01*
D32*
X100520500Y-66230500D02*
X100520500Y-67754500D01*
X100520500Y-67754500D02*
X93980000Y-74295000D01*
D31*
X121920000Y-67376000D02*
X121920000Y-65405000D01*
X121920000Y-65405000D02*
X123698000Y-63627000D01*
X123698000Y-63627000D02*
X123825000Y-63500000D01*
X130556000Y-88044000D02*
X130556000Y-89027000D01*
X130175000Y-89408000D02*
X125222000Y-89408000D01*
X130556000Y-89027000D02*
X130175000Y-89408000D01*
X123463000Y-88182000D02*
X123996000Y-88182000D01*
X123996000Y-88182000D02*
X125222000Y-89408000D01*
X123463000Y-88182000D02*
X123463000Y-85236000D01*
X123463000Y-85236000D02*
X122682000Y-84455000D01*
X109982000Y-82788000D02*
X102727000Y-82788000D01*
X102727000Y-82788000D02*
X93980000Y-74295000D01*
X113182400Y-64262000D02*
X113665000Y-64262000D01*
X109982000Y-82788000D02*
X113538000Y-82788000D01*
X139446000Y-86421000D02*
X139446000Y-89408000D01*
X148209000Y-76962000D02*
X149479000Y-76962000D01*
X142113000Y-89408000D02*
X139446000Y-89408000D01*
X139446000Y-89408000D02*
X138049000Y-89408000D01*
X142113000Y-89408000D02*
X149987000Y-81534000D01*
X149987000Y-77470000D02*
X149987000Y-81534000D01*
X149479000Y-76962000D02*
X149987000Y-77470000D01*
X135128000Y-86421000D02*
X135128000Y-88773000D01*
X135763000Y-89408000D02*
X138049000Y-89408000D01*
X135128000Y-88773000D02*
X135763000Y-89408000D01*
X117544010Y-83000010D02*
X116963000Y-82419000D01*
X116963000Y-82419000D02*
X116963000Y-80982000D01*
X130556000Y-84582000D02*
X129597991Y-85540009D01*
X129597991Y-85540009D02*
X125800419Y-85540009D01*
X125800419Y-85540009D02*
X123260420Y-83000010D01*
X123260420Y-83000010D02*
X117544010Y-83000010D01*
X143129000Y-79502000D02*
X143129000Y-81153000D01*
X141097000Y-83185000D02*
X137414000Y-83185000D01*
X143129000Y-81153000D02*
X141097000Y-83185000D01*
X136078000Y-84521000D02*
X137414000Y-83185000D01*
X130556000Y-82517000D02*
X130556000Y-84582000D01*
X135128000Y-84521000D02*
X136078000Y-84521000D01*
X135102300Y-84582000D02*
X130556000Y-84582000D01*
X129286000Y-84582000D02*
X128778000Y-85090000D01*
X124587000Y-82550000D02*
X127127000Y-85090000D01*
X118056000Y-82550000D02*
X124587000Y-82550000D01*
X117613000Y-82107000D02*
X117613000Y-80982000D01*
X117613000Y-82107000D02*
X118056000Y-82550000D01*
X128778000Y-85090000D02*
X127127000Y-85090000D01*
X129286000Y-84582000D02*
X129286000Y-82644000D01*
X141412000Y-84521000D02*
X139446000Y-84521000D01*
X129286000Y-82644000D02*
X129286000Y-84531200D01*
X145669000Y-80264000D02*
X141412000Y-84521000D01*
X113741200Y-93980000D02*
X114655600Y-93980000D01*
X114655600Y-93980000D02*
X118263000Y-90372600D01*
X118263000Y-88182000D02*
X118263000Y-90372600D01*
X121984200Y-92139200D02*
X119563000Y-89718000D01*
X132791200Y-93980000D02*
X130454400Y-93980000D01*
X130454400Y-93980000D02*
X128613600Y-92139200D01*
X128613600Y-92139200D02*
X121984200Y-92139200D01*
X119563000Y-89718000D02*
X119563000Y-88182000D01*
X118913000Y-88182000D02*
X118913000Y-90160200D01*
X118913000Y-90160200D02*
X122732800Y-93980000D01*
X120213000Y-89352000D02*
X122428000Y-91567000D01*
X142849600Y-93980000D02*
X140665200Y-93980000D01*
X140665200Y-93980000D02*
X138252200Y-91567000D01*
X120213000Y-89352000D02*
X120213000Y-88182000D01*
X122428000Y-91567000D02*
X138252200Y-91567000D01*
D32*
X118538000Y-127000000D02*
X118538000Y-123110000D01*
X118538000Y-123110000D02*
X113893600Y-118465600D01*
X98907600Y-118465600D02*
X97536000Y-117094000D01*
X113893600Y-118465600D02*
X98907600Y-118465600D01*
X97536000Y-117094000D02*
X97536000Y-111379000D01*
X97536000Y-111379000D02*
X102870000Y-106045000D01*
X102870000Y-106045000D02*
X101465000Y-106045000D01*
X101465000Y-106045000D02*
X100290000Y-104870000D01*
D31*
X145796000Y-91059000D02*
X145923000Y-91059000D01*
X145415000Y-91059000D02*
X122682000Y-91059000D01*
X121513000Y-89890000D02*
X122682000Y-91059000D01*
X121513000Y-88182000D02*
X121513000Y-89890000D01*
X145415000Y-91059000D02*
X145796000Y-91059000D01*
X148905000Y-88077000D02*
X149860000Y-88077000D01*
X145923000Y-91059000D02*
X148905000Y-88077000D01*
X154702000Y-86233000D02*
X152781000Y-86233000D01*
X150937000Y-88077000D02*
X149860000Y-88077000D01*
X152781000Y-86233000D02*
X150937000Y-88077000D01*
X154432000Y-90297000D02*
X154432000Y-87630000D01*
X154702000Y-87360000D02*
X154702000Y-86233000D01*
X154432000Y-87630000D02*
X154702000Y-87360000D01*
X159832000Y-82550000D02*
X152654000Y-82550000D01*
X122163000Y-89778000D02*
X122936000Y-90551000D01*
X122936000Y-90551000D02*
X143489400Y-90551000D01*
X143489400Y-90551000D02*
X143499700Y-90540700D01*
X122163000Y-89778000D02*
X122163000Y-88182000D01*
X143499700Y-90540700D02*
X144663300Y-90540700D01*
X152654000Y-82550000D02*
X144663300Y-90540700D01*
X159782000Y-86233000D02*
X159782000Y-82600000D01*
X159782000Y-82600000D02*
X159832000Y-82550000D01*
X159512000Y-90297000D02*
X159512000Y-87757000D01*
X159782000Y-87487000D02*
X159782000Y-86233000D01*
X159512000Y-87757000D02*
X159782000Y-87487000D01*
X143764000Y-90043000D02*
X143637000Y-90043000D01*
X122813000Y-89539000D02*
X123317000Y-90043000D01*
X122813000Y-88182000D02*
X122813000Y-89539000D01*
X123317000Y-90043000D02*
X143637000Y-90043000D01*
X166370000Y-81534000D02*
X152273000Y-81534000D01*
X152273000Y-81534000D02*
X143764000Y-90043000D01*
X166685000Y-81849000D02*
X166370000Y-81534000D01*
X166685000Y-81849000D02*
X166685000Y-82550000D01*
X164592000Y-90297000D02*
X164592000Y-87630000D01*
X164989000Y-87233000D02*
X164989000Y-86233000D01*
X164592000Y-87630000D02*
X164989000Y-87233000D01*
X166685000Y-82550000D02*
X166685000Y-83124000D01*
X166685000Y-83124000D02*
X164989000Y-84820000D01*
X164989000Y-84820000D02*
X164989000Y-86233000D01*
X165039000Y-86183000D02*
X164989000Y-86233000D01*
D32*
X176784000Y-114394000D02*
X175784001Y-115393999D01*
X175784001Y-115393999D02*
X174625652Y-115393999D01*
X174625652Y-115393999D02*
X169291000Y-120728651D01*
X169291000Y-120728651D02*
X169291000Y-123383800D01*
X169291000Y-123383800D02*
X169291000Y-126365000D01*
D31*
X170688000Y-67437000D02*
X171450000Y-67437000D01*
X171450000Y-67437000D02*
X178435000Y-60452000D01*
X142367000Y-67437000D02*
X170688000Y-67437000D01*
X129540000Y-80264000D02*
X142367000Y-67437000D01*
X123463000Y-80982000D02*
X124123000Y-80982000D01*
X124123000Y-80982000D02*
X124841000Y-80264000D01*
X129540000Y-80264000D02*
X142367000Y-67437000D01*
X124841000Y-80264000D02*
X129540000Y-80264000D01*
X161290000Y-66641598D02*
X162085402Y-66641598D01*
X162085402Y-66641598D02*
X168275000Y-60452000D01*
X142019402Y-66641598D02*
X128879300Y-79781700D01*
X161290000Y-66641598D02*
X142019402Y-66641598D01*
X122813000Y-80006000D02*
X123037300Y-79781700D01*
X123037300Y-79781700D02*
X128879300Y-79781700D01*
X122813000Y-80982000D02*
X122813000Y-80006000D01*
X152654378Y-65909450D02*
X152657550Y-65909450D01*
X152657550Y-65909450D02*
X158115000Y-60452000D01*
X141866382Y-65878253D02*
X152654378Y-65909450D01*
X128573231Y-79213253D02*
X141866382Y-65878253D01*
X122163000Y-80982000D02*
X122163000Y-79756000D01*
X122174000Y-79756000D02*
X122682000Y-79248000D01*
X122682000Y-79248000D02*
X128573231Y-79213253D01*
X122163000Y-79756000D02*
X122174000Y-79756000D01*
X142494000Y-65151000D02*
X143256000Y-65151000D01*
X143256000Y-65151000D02*
X147955000Y-60452000D01*
X127762000Y-78740000D02*
X141351000Y-65151000D01*
X127762000Y-78740000D02*
X122428000Y-78740000D01*
X122428000Y-78740000D02*
X121513000Y-79655000D01*
X121513000Y-80982000D02*
X121513000Y-79655000D01*
X141351000Y-65151000D02*
X142494000Y-65151000D01*
X137795000Y-60452000D02*
X137795000Y-67691000D01*
X137795000Y-67691000D02*
X137668000Y-67818000D01*
X125095000Y-78289998D02*
X127196002Y-78289998D01*
X127196002Y-78289998D02*
X137668000Y-67818000D01*
X137668000Y-67818000D02*
X137795000Y-67691000D01*
X122116002Y-78289998D02*
X120863000Y-79543000D01*
X125095000Y-78289998D02*
X122116002Y-78289998D01*
X120863000Y-79543000D02*
X120863000Y-80982000D01*
X127635000Y-60452000D02*
X127635000Y-64262000D01*
X124587000Y-76511998D02*
X124587000Y-67310000D01*
X120213000Y-79065000D02*
X121554000Y-77724000D01*
X120213000Y-80982000D02*
X120213000Y-79065000D01*
X124587000Y-76511998D02*
X123374998Y-77724000D01*
X123374998Y-77724000D02*
X121554000Y-77724000D01*
X124587000Y-67310000D02*
X127508000Y-64389000D01*
X127508000Y-64389000D02*
X127635000Y-64262000D01*
X119563000Y-80982000D02*
X119563000Y-62540000D01*
X119563000Y-62540000D02*
X117475000Y-60452000D01*
X114452400Y-69367400D02*
X114452400Y-70764400D01*
X114427000Y-69342000D02*
X114452400Y-69367400D01*
X118913000Y-79162000D02*
X118491000Y-78740000D01*
X118913000Y-80982000D02*
X118913000Y-79162000D01*
X117538500Y-77787500D02*
X116268500Y-77787500D01*
X116268500Y-77787500D02*
X114452400Y-75984100D01*
X114452400Y-75984100D02*
X114452400Y-70764400D01*
X118491000Y-78740000D02*
X117538500Y-77787500D01*
X112268000Y-75946000D02*
X110896400Y-75946000D01*
X110439200Y-75488800D02*
X110439200Y-71805800D01*
X110896400Y-75946000D02*
X110439200Y-75488800D01*
X112268000Y-69276000D02*
X112268000Y-69977000D01*
X110439200Y-71805800D02*
X111760000Y-70485000D01*
X112268000Y-69977000D02*
X111760000Y-70485000D01*
X112268000Y-75946000D02*
X112903000Y-75946000D01*
X112903000Y-75946000D02*
X115697000Y-78740000D01*
X126746000Y-88044000D02*
X126746000Y-86614000D01*
X117221000Y-78740000D02*
X115697000Y-78740000D01*
X118263000Y-80982000D02*
X118263000Y-79782000D01*
X118263000Y-79782000D02*
X117221000Y-78740000D01*
X128016000Y-86614000D02*
X128016000Y-88044000D01*
X116963000Y-88182000D02*
X116963000Y-86084600D01*
X116963000Y-86084600D02*
X117094000Y-85953600D01*
X115316000Y-72009000D02*
X117094000Y-70231000D01*
X117094000Y-69276000D02*
X117094000Y-70231000D01*
X115747800Y-75946000D02*
X117094000Y-75946000D01*
X115747800Y-75946000D02*
X115316000Y-75514200D01*
X115316000Y-75514200D02*
X115316000Y-72009000D01*
X129286000Y-86614000D02*
X129286000Y-88044000D01*
X117613000Y-88182000D02*
X117613000Y-86501400D01*
X117613000Y-86501400D02*
X118821200Y-85293200D01*
X120103900Y-75526900D02*
X120103900Y-72301100D01*
X120142000Y-72288400D02*
X120142000Y-72263000D01*
X120116600Y-72288400D02*
X120142000Y-72288400D01*
X120103900Y-72301100D02*
X120116600Y-72288400D01*
X121920000Y-70485000D02*
X121920000Y-69276000D01*
X120142000Y-72263000D02*
X121920000Y-70485000D01*
X120523000Y-75946000D02*
X120103900Y-75526900D01*
X121920000Y-75946000D02*
X120523000Y-75946000D01*
X142240000Y-71054000D02*
X142240000Y-72009000D01*
X145542000Y-71374000D02*
X145542000Y-70104000D01*
X131318000Y-81026000D02*
X140335000Y-72009000D01*
X140335000Y-72009000D02*
X142240000Y-72009000D01*
X142240000Y-72009000D02*
X144907000Y-72009000D01*
X144907000Y-72009000D02*
X145542000Y-71374000D01*
X128016000Y-82644000D02*
X128016000Y-83718400D01*
X120863000Y-85029400D02*
X120863000Y-88182000D01*
X121564400Y-84328000D02*
X120863000Y-85029400D01*
X128016000Y-83718400D02*
X127406400Y-84328000D01*
X129082800Y-81280000D02*
X131064000Y-81280000D01*
X131064000Y-81280000D02*
X131318000Y-81026000D01*
X128016000Y-82644000D02*
X128016000Y-81661000D01*
X128016000Y-81661000D02*
X128397000Y-81280000D01*
X128397000Y-81280000D02*
X129082800Y-81280000D01*
M02*
