G04 #@! TF.FileFunction,Soldermask,Top*
%FSLAX46Y46*%
G04 Gerber Fmt 4.6, Leading zero omitted, Abs format (unit mm)*
G04 Created by KiCad (PCBNEW 4.0.7-e2-6376~58~ubuntu16.04.1) date Thu Jun 28 22:55:59 2018*
%MOMM*%
%LPD*%
G01*
G04 APERTURE LIST*
%ADD10C,0.100000*%
%ADD11C,2.900000*%
%ADD12R,2.100000X2.100000*%
%ADD13C,2.100000*%
%ADD14O,2.899360X4.400500*%
%ADD15C,2.200000*%
%ADD16R,4.400500X2.800300*%
%ADD17R,1.650000X1.400000*%
%ADD18R,1.700000X1.100000*%
%ADD19R,0.850000X2.150000*%
%ADD20R,1.400000X1.650000*%
%ADD21C,2.000000*%
%ADD22O,2.000000X2.000000*%
%ADD23R,1.100000X1.700000*%
%ADD24O,2.100000X2.100000*%
%ADD25R,1.000000X1.950000*%
%ADD26C,1.924000*%
%ADD27C,3.600000*%
%ADD28C,2.400000*%
%ADD29O,2.381200X4.362400*%
%ADD30R,2.000000X2.000000*%
G04 APERTURE END LIST*
D10*
D11*
X95290000Y-104870000D03*
X100290000Y-104870000D03*
X90090000Y-75470000D03*
X105490000Y-75470000D03*
X92710000Y-106045000D03*
X102870000Y-106045000D03*
X93980000Y-74295000D03*
X101600000Y-74295000D03*
D12*
X148209000Y-76962000D03*
D13*
X148209000Y-79502000D03*
X145669000Y-76962000D03*
X145669000Y-79502000D03*
X143129000Y-76962000D03*
X143129000Y-79502000D03*
X140589000Y-76962000D03*
X140589000Y-79502000D03*
X138049000Y-76962000D03*
X138049000Y-79502000D03*
D14*
X105664000Y-110919260D03*
X105664000Y-132920740D03*
D15*
X97536000Y-117094000D03*
X95836000Y-124594000D03*
D16*
X108521500Y-66230500D03*
X100520500Y-66230500D03*
D17*
X109982000Y-80788000D03*
X109982000Y-82788000D03*
X113538000Y-80788000D03*
X113538000Y-82788000D03*
D18*
X135128000Y-86421000D03*
X135128000Y-84521000D03*
X139446000Y-86421000D03*
X139446000Y-84521000D03*
X121920000Y-69276000D03*
X121920000Y-67376000D03*
X117094000Y-69276000D03*
X117094000Y-67376000D03*
X112268000Y-69276000D03*
X112268000Y-67376000D03*
D19*
X116313000Y-88182000D03*
X116963000Y-88182000D03*
X117613000Y-88182000D03*
X118263000Y-88182000D03*
X118913000Y-88182000D03*
X119563000Y-88182000D03*
X120213000Y-88182000D03*
X120863000Y-88182000D03*
X121513000Y-88182000D03*
X122163000Y-88182000D03*
X122813000Y-88182000D03*
X123463000Y-88182000D03*
X123463000Y-80982000D03*
X122813000Y-80982000D03*
X122163000Y-80982000D03*
X121513000Y-80982000D03*
X120863000Y-80982000D03*
X120213000Y-80982000D03*
X119563000Y-80982000D03*
X118913000Y-80982000D03*
X118263000Y-80982000D03*
X117613000Y-80982000D03*
X116963000Y-80982000D03*
X116313000Y-80982000D03*
D20*
X154702000Y-86233000D03*
X156702000Y-86233000D03*
X159782000Y-86233000D03*
X161782000Y-86233000D03*
X164989000Y-86233000D03*
X166989000Y-86233000D03*
D18*
X149860000Y-89977000D03*
X149860000Y-88077000D03*
D21*
X148844000Y-104394000D03*
D22*
X148844000Y-117094000D03*
D23*
X161732000Y-82550000D03*
X159832000Y-82550000D03*
D21*
X160020000Y-104394000D03*
D22*
X160020000Y-117094000D03*
D23*
X164785000Y-82550000D03*
X166685000Y-82550000D03*
D21*
X171196000Y-100330000D03*
D22*
X171196000Y-113030000D03*
D12*
X112268000Y-75946000D03*
D24*
X112268000Y-73406000D03*
D12*
X117094000Y-75946000D03*
D24*
X117094000Y-73406000D03*
D12*
X121920000Y-75946000D03*
D24*
X121920000Y-73406000D03*
D12*
X127000000Y-75946000D03*
D24*
X127000000Y-73406000D03*
D25*
X126746000Y-88044000D03*
X128016000Y-88044000D03*
X129286000Y-88044000D03*
X130556000Y-88044000D03*
X130556000Y-82644000D03*
X129286000Y-82644000D03*
X128016000Y-82644000D03*
X126746000Y-82644000D03*
D26*
X142849600Y-93980000D03*
X142849600Y-96520000D03*
X142849600Y-106680000D03*
X142849600Y-114300000D03*
X122732800Y-93980000D03*
X122732800Y-96520000D03*
X122732800Y-106680000D03*
X122732800Y-114300000D03*
X113741200Y-93980000D03*
X113741200Y-96520000D03*
X113741200Y-106680000D03*
X113741200Y-114300000D03*
X132791200Y-93980000D03*
X132791200Y-96520000D03*
X132791200Y-106680000D03*
X132791200Y-114300000D03*
D18*
X142240000Y-69154000D03*
X142240000Y-71054000D03*
D27*
X90551000Y-69723000D03*
X90551000Y-120523000D03*
X176149000Y-120523000D03*
X176149000Y-69723000D03*
D12*
X145542000Y-70104000D03*
D24*
X148082000Y-70104000D03*
D28*
X113665000Y-60452000D03*
X117475000Y-60452000D03*
X123825000Y-60452000D03*
X127635000Y-60452000D03*
X133985000Y-60452000D03*
X137795000Y-60452000D03*
X154305000Y-60452000D03*
X158115000Y-60452000D03*
X164465000Y-60452000D03*
X168275000Y-60452000D03*
X174625000Y-60452000D03*
X178435000Y-60452000D03*
X92075000Y-60452000D03*
X95885000Y-60452000D03*
X144145000Y-60452000D03*
X147955000Y-60452000D03*
D29*
X113411000Y-126365000D03*
X118491000Y-126365000D03*
X123571000Y-126365000D03*
X128651000Y-126365000D03*
X133731000Y-126365000D03*
X138811000Y-126365000D03*
X143891000Y-126365000D03*
X148971000Y-126365000D03*
X154051000Y-126365000D03*
X159131000Y-126365000D03*
X164211000Y-126365000D03*
X169291000Y-126365000D03*
D30*
X154432000Y-97917000D03*
D22*
X156972000Y-90297000D03*
X156972000Y-97917000D03*
X154432000Y-90297000D03*
D30*
X159512000Y-97917000D03*
D22*
X162052000Y-90297000D03*
X162052000Y-97917000D03*
X159512000Y-90297000D03*
D30*
X164592000Y-97917000D03*
D22*
X167132000Y-90297000D03*
X167132000Y-97917000D03*
X164592000Y-90297000D03*
D28*
X154432000Y-106324400D03*
X154432000Y-116324400D03*
X165608000Y-106273600D03*
X165608000Y-116273600D03*
X176784000Y-104394000D03*
X176784000Y-114394000D03*
M02*
