M48
;DRILL file {KiCad 4.0.7-e2-6376~58~ubuntu16.04.1} date Sun May 13 22:19:52 2018
;FORMAT={2:4/ absolute / inch / suppress leading zeros}
FMAT,2
INCH,TZ
T1C0.016
T2C0.030
T3C0.031
T4C0.039
T5C0.043
T6C0.052
T7C0.059
%
G90
G05
M72
T1
X45050Y-27300
X46100Y-33840
X46780Y-33580
X47860Y-33200
X49900Y-31900
X49900Y-34100
X50160Y-33200
X50400Y-34100
X50900Y-33280
X50900Y-34100
X64250Y-32500
T2
X44780Y-37000
X44780Y-38000
X44780Y-42000
X44780Y-45000
X48320Y-37000
X48320Y-38000
X48320Y-42000
X48320Y-45000
X52280Y-37000
X52280Y-38000
X52280Y-42000
X52280Y-45000
X56240Y-37000
X56240Y-38000
X56240Y-42000
X56240Y-45000
T3
X37731Y-49053
X38400Y-46100
X58600Y-41100
X58600Y-46100
X60800Y-35550
X60800Y-38550
X61800Y-35550
X61800Y-38550
X62800Y-35550
X62800Y-38550
X63000Y-41100
X63000Y-46100
X63800Y-35550
X63800Y-38550
X64800Y-35550
X64800Y-38550
X65800Y-35550
X65800Y-38550
X67400Y-39500
X67400Y-44500
T4
X35469Y-29713
X36500Y-41750
X37000Y-29250
X37516Y-41287
X39484Y-41287
X40000Y-29250
X40500Y-41750
X41531Y-29713
X44200Y-28900
X44200Y-29900
X46100Y-28900
X46100Y-29900
X48000Y-28900
X48000Y-29900
X50000Y-28900
X50000Y-29900
X54350Y-30300
X54350Y-31300
X55350Y-30300
X55350Y-31300
X56350Y-30300
X56350Y-31300
X57300Y-27600
X57350Y-30300
X57350Y-31300
X58300Y-27600
X58350Y-30300
X58350Y-31300
X60800Y-41860
X60800Y-45797
X65200Y-41840
X65200Y-45777
X69600Y-41100
X69600Y-45037
T5
X36250Y-23800
X37750Y-23800
X44750Y-23800
X46250Y-23800
X48750Y-23800
X50250Y-23800
X52750Y-23800
X54250Y-23800
X56750Y-23800
X58250Y-23800
X60750Y-23800
X62250Y-23800
X64750Y-23800
X66250Y-23800
X68750Y-23800
X70250Y-23800
T6
X44650Y-49750
X46650Y-49750
X48650Y-49750
X50650Y-49750
X52650Y-49750
X54650Y-49750
X56650Y-49750
X58650Y-49750
X60650Y-49750
X62650Y-49750
X64650Y-49750
X66650Y-49750
T7
X41600Y-43669
X41600Y-52331
T0
M30
