G04 #@! TF.FileFunction,Legend,Top*
%FSLAX46Y46*%
G04 Gerber Fmt 4.6, Leading zero omitted, Abs format (unit mm)*
G04 Created by KiCad (PCBNEW 4.0.7-e2-6376~58~ubuntu16.04.1) date Thu Jun 28 22:55:59 2018*
%MOMM*%
%LPD*%
G01*
G04 APERTURE LIST*
%ADD10C,0.100000*%
%ADD11C,0.300000*%
%ADD12C,2.000000*%
%ADD13C,0.150000*%
%ADD14C,0.120000*%
%ADD15C,0.002540*%
%ADD16C,0.200000*%
G04 APERTURE END LIST*
D10*
D11*
X138874572Y-88030857D02*
X140017429Y-88030857D01*
X140017429Y-88459429D02*
X138874572Y-88459429D01*
X134429572Y-88030857D02*
X135572429Y-88030857D01*
X135572429Y-88459429D02*
X134429572Y-88459429D01*
X166366915Y-122395371D02*
X166366915Y-120895371D01*
X166938344Y-120895371D02*
X167866915Y-120895371D01*
X167366915Y-121466800D01*
X167581201Y-121466800D01*
X167724058Y-121538229D01*
X167795487Y-121609657D01*
X167866915Y-121752514D01*
X167866915Y-122109657D01*
X167795487Y-122252514D01*
X167724058Y-122323943D01*
X167581201Y-122395371D01*
X167152629Y-122395371D01*
X167009772Y-122323943D01*
X166938344Y-122252514D01*
X154682915Y-122395371D02*
X154682915Y-120895371D01*
X155325772Y-121038229D02*
X155397201Y-120966800D01*
X155540058Y-120895371D01*
X155897201Y-120895371D01*
X156040058Y-120966800D01*
X156111487Y-121038229D01*
X156182915Y-121181086D01*
X156182915Y-121323943D01*
X156111487Y-121538229D01*
X155254344Y-122395371D01*
X156182915Y-122395371D01*
X147012115Y-122344571D02*
X147012115Y-120844571D01*
X148512115Y-122344571D02*
X147654972Y-122344571D01*
X148083544Y-122344571D02*
X148083544Y-120844571D01*
X147940687Y-121058857D01*
X147797829Y-121201714D01*
X147654972Y-121273143D01*
D12*
X87376000Y-99314000D02*
X149858000Y-99314000D01*
D11*
X148321714Y-66708571D02*
X148321714Y-65208571D01*
X148678857Y-65208571D01*
X148893142Y-65280000D01*
X149036000Y-65422857D01*
X149107428Y-65565714D01*
X149178857Y-65851429D01*
X149178857Y-66065714D01*
X149107428Y-66351429D01*
X149036000Y-66494286D01*
X148893142Y-66637143D01*
X148678857Y-66708571D01*
X148321714Y-66708571D01*
X150036000Y-66708571D02*
X149893142Y-66637143D01*
X149821714Y-66565714D01*
X149750285Y-66422857D01*
X149750285Y-65994286D01*
X149821714Y-65851429D01*
X149893142Y-65780000D01*
X150036000Y-65708571D01*
X150250285Y-65708571D01*
X150393142Y-65780000D01*
X150464571Y-65851429D01*
X150536000Y-65994286D01*
X150536000Y-66422857D01*
X150464571Y-66565714D01*
X150393142Y-66637143D01*
X150250285Y-66708571D01*
X150036000Y-66708571D01*
X151178857Y-66708571D02*
X151178857Y-65708571D01*
X151178857Y-65851429D02*
X151250285Y-65780000D01*
X151393143Y-65708571D01*
X151607428Y-65708571D01*
X151750285Y-65780000D01*
X151821714Y-65922857D01*
X151821714Y-66708571D01*
X151821714Y-65922857D02*
X151893143Y-65780000D01*
X152036000Y-65708571D01*
X152250285Y-65708571D01*
X152393143Y-65780000D01*
X152464571Y-65922857D01*
X152464571Y-66708571D01*
X153393143Y-66708571D02*
X153250285Y-66637143D01*
X153178857Y-66565714D01*
X153107428Y-66422857D01*
X153107428Y-65994286D01*
X153178857Y-65851429D01*
X153250285Y-65780000D01*
X153393143Y-65708571D01*
X153607428Y-65708571D01*
X153750285Y-65780000D01*
X153821714Y-65851429D01*
X153893143Y-65994286D01*
X153893143Y-66422857D01*
X153821714Y-66565714D01*
X153750285Y-66637143D01*
X153607428Y-66708571D01*
X153393143Y-66708571D01*
X154536000Y-66708571D02*
X154536000Y-65208571D01*
X155393143Y-66708571D01*
X155393143Y-65208571D01*
X156321715Y-66708571D02*
X156178857Y-66637143D01*
X156107429Y-66565714D01*
X156036000Y-66422857D01*
X156036000Y-65994286D01*
X156107429Y-65851429D01*
X156178857Y-65780000D01*
X156321715Y-65708571D01*
X156536000Y-65708571D01*
X156678857Y-65780000D01*
X156750286Y-65851429D01*
X156821715Y-65994286D01*
X156821715Y-66422857D01*
X156750286Y-66565714D01*
X156678857Y-66637143D01*
X156536000Y-66708571D01*
X156321715Y-66708571D01*
X158107429Y-66708571D02*
X158107429Y-65208571D01*
X158107429Y-66637143D02*
X157964572Y-66708571D01*
X157678858Y-66708571D01*
X157536000Y-66637143D01*
X157464572Y-66565714D01*
X157393143Y-66422857D01*
X157393143Y-65994286D01*
X157464572Y-65851429D01*
X157536000Y-65780000D01*
X157678858Y-65708571D01*
X157964572Y-65708571D01*
X158107429Y-65780000D01*
X159393143Y-66637143D02*
X159250286Y-66708571D01*
X158964572Y-66708571D01*
X158821715Y-66637143D01*
X158750286Y-66494286D01*
X158750286Y-65922857D01*
X158821715Y-65780000D01*
X158964572Y-65708571D01*
X159250286Y-65708571D01*
X159393143Y-65780000D01*
X159464572Y-65922857D01*
X159464572Y-66065714D01*
X158750286Y-66208571D01*
X160107429Y-66137143D02*
X161250286Y-66137143D01*
X161964572Y-66708571D02*
X161964572Y-65708571D01*
X161964572Y-65208571D02*
X161893143Y-65280000D01*
X161964572Y-65351429D01*
X162036000Y-65280000D01*
X161964572Y-65208571D01*
X161964572Y-65351429D01*
X162678858Y-65708571D02*
X162678858Y-66708571D01*
X162678858Y-65851429D02*
X162750286Y-65780000D01*
X162893144Y-65708571D01*
X163107429Y-65708571D01*
X163250286Y-65780000D01*
X163321715Y-65922857D01*
X163321715Y-66708571D01*
X164250287Y-66708571D02*
X164107429Y-66637143D01*
X164036001Y-66565714D01*
X163964572Y-66422857D01*
X163964572Y-65994286D01*
X164036001Y-65851429D01*
X164107429Y-65780000D01*
X164250287Y-65708571D01*
X164464572Y-65708571D01*
X164607429Y-65780000D01*
X164678858Y-65851429D01*
X164750287Y-65994286D01*
X164750287Y-66422857D01*
X164678858Y-66565714D01*
X164607429Y-66637143D01*
X164464572Y-66708571D01*
X164250287Y-66708571D01*
X166036001Y-65708571D02*
X166036001Y-66708571D01*
X165393144Y-65708571D02*
X165393144Y-66494286D01*
X165464572Y-66637143D01*
X165607430Y-66708571D01*
X165821715Y-66708571D01*
X165964572Y-66637143D01*
X166036001Y-66565714D01*
X166536001Y-65708571D02*
X167107430Y-65708571D01*
X166750287Y-65208571D02*
X166750287Y-66494286D01*
X166821715Y-66637143D01*
X166964573Y-66708571D01*
X167107430Y-66708571D01*
X169536001Y-66708571D02*
X168678858Y-66708571D01*
X169107430Y-66708571D02*
X169107430Y-65208571D01*
X168964573Y-65422857D01*
X168821715Y-65565714D01*
X168678858Y-65637143D01*
X170178858Y-66565714D02*
X170250286Y-66637143D01*
X170178858Y-66708571D01*
X170107429Y-66637143D01*
X170178858Y-66565714D01*
X170178858Y-66708571D01*
X171678858Y-66708571D02*
X170821715Y-66708571D01*
X171250287Y-66708571D02*
X171250287Y-65208571D01*
X171107430Y-65422857D01*
X170964572Y-65565714D01*
X170821715Y-65637143D01*
X172321715Y-66565714D02*
X172393143Y-66637143D01*
X172321715Y-66708571D01*
X172250286Y-66637143D01*
X172321715Y-66565714D01*
X172321715Y-66708571D01*
X172964572Y-65351429D02*
X173036001Y-65280000D01*
X173178858Y-65208571D01*
X173536001Y-65208571D01*
X173678858Y-65280000D01*
X173750287Y-65351429D01*
X173821715Y-65494286D01*
X173821715Y-65637143D01*
X173750287Y-65851429D01*
X172893144Y-66708571D01*
X173821715Y-66708571D01*
X155857429Y-69258571D02*
X155857429Y-67758571D01*
X156214572Y-67758571D01*
X156428857Y-67830000D01*
X156571715Y-67972857D01*
X156643143Y-68115714D01*
X156714572Y-68401429D01*
X156714572Y-68615714D01*
X156643143Y-68901429D01*
X156571715Y-69044286D01*
X156428857Y-69187143D01*
X156214572Y-69258571D01*
X155857429Y-69258571D01*
X157928857Y-69187143D02*
X157786000Y-69258571D01*
X157500286Y-69258571D01*
X157357429Y-69187143D01*
X157286000Y-69044286D01*
X157286000Y-68472857D01*
X157357429Y-68330000D01*
X157500286Y-68258571D01*
X157786000Y-68258571D01*
X157928857Y-68330000D01*
X158000286Y-68472857D01*
X158000286Y-68615714D01*
X157286000Y-68758571D01*
X158571714Y-69187143D02*
X158714571Y-69258571D01*
X159000286Y-69258571D01*
X159143143Y-69187143D01*
X159214571Y-69044286D01*
X159214571Y-68972857D01*
X159143143Y-68830000D01*
X159000286Y-68758571D01*
X158786000Y-68758571D01*
X158643143Y-68687143D01*
X158571714Y-68544286D01*
X158571714Y-68472857D01*
X158643143Y-68330000D01*
X158786000Y-68258571D01*
X159000286Y-68258571D01*
X159143143Y-68330000D01*
X159857429Y-69258571D02*
X159857429Y-68258571D01*
X159857429Y-67758571D02*
X159786000Y-67830000D01*
X159857429Y-67901429D01*
X159928857Y-67830000D01*
X159857429Y-67758571D01*
X159857429Y-67901429D01*
X161214572Y-68258571D02*
X161214572Y-69472857D01*
X161143143Y-69615714D01*
X161071715Y-69687143D01*
X160928858Y-69758571D01*
X160714572Y-69758571D01*
X160571715Y-69687143D01*
X161214572Y-69187143D02*
X161071715Y-69258571D01*
X160786001Y-69258571D01*
X160643143Y-69187143D01*
X160571715Y-69115714D01*
X160500286Y-68972857D01*
X160500286Y-68544286D01*
X160571715Y-68401429D01*
X160643143Y-68330000D01*
X160786001Y-68258571D01*
X161071715Y-68258571D01*
X161214572Y-68330000D01*
X161928858Y-68258571D02*
X161928858Y-69258571D01*
X161928858Y-68401429D02*
X162000286Y-68330000D01*
X162143144Y-68258571D01*
X162357429Y-68258571D01*
X162500286Y-68330000D01*
X162571715Y-68472857D01*
X162571715Y-69258571D01*
X164428858Y-69258571D02*
X164428858Y-67758571D01*
X164428858Y-68330000D02*
X164571715Y-68258571D01*
X164857429Y-68258571D01*
X165000286Y-68330000D01*
X165071715Y-68401429D01*
X165143144Y-68544286D01*
X165143144Y-68972857D01*
X165071715Y-69115714D01*
X165000286Y-69187143D01*
X164857429Y-69258571D01*
X164571715Y-69258571D01*
X164428858Y-69187143D01*
X165643144Y-68258571D02*
X166000287Y-69258571D01*
X166357429Y-68258571D02*
X166000287Y-69258571D01*
X165857429Y-69615714D01*
X165786001Y-69687143D01*
X165643144Y-69758571D01*
X152714572Y-70808571D02*
X152714572Y-71808571D01*
X152714572Y-70951429D02*
X152786000Y-70880000D01*
X152928858Y-70808571D01*
X153143143Y-70808571D01*
X153286000Y-70880000D01*
X153357429Y-71022857D01*
X153357429Y-71808571D01*
X154714572Y-71808571D02*
X154714572Y-70308571D01*
X154714572Y-71737143D02*
X154571715Y-71808571D01*
X154286001Y-71808571D01*
X154143143Y-71737143D01*
X154071715Y-71665714D01*
X154000286Y-71522857D01*
X154000286Y-71094286D01*
X154071715Y-70951429D01*
X154143143Y-70880000D01*
X154286001Y-70808571D01*
X154571715Y-70808571D01*
X154714572Y-70880000D01*
X155428858Y-71808571D02*
X155428858Y-70308571D01*
X155571715Y-71237143D02*
X156000286Y-71808571D01*
X156000286Y-70808571D02*
X155428858Y-71380000D01*
X157571715Y-71094286D02*
X157500287Y-71022857D01*
X157357430Y-70951429D01*
X157214572Y-70951429D01*
X157071715Y-71022857D01*
X157000287Y-71094286D01*
X156928858Y-71237143D01*
X156928858Y-71380000D01*
X157000287Y-71522857D01*
X157071715Y-71594286D01*
X157214572Y-71665714D01*
X157357430Y-71665714D01*
X157500287Y-71594286D01*
X157571715Y-71522857D01*
X157571715Y-70951429D02*
X157571715Y-71522857D01*
X157643144Y-71594286D01*
X157714572Y-71594286D01*
X157857430Y-71522857D01*
X157928858Y-71380000D01*
X157928858Y-71022857D01*
X157786001Y-70808571D01*
X157571715Y-70665714D01*
X157286001Y-70594286D01*
X157000287Y-70665714D01*
X156786001Y-70808571D01*
X156643144Y-71022857D01*
X156571715Y-71308571D01*
X156643144Y-71594286D01*
X156786001Y-71808571D01*
X157000287Y-71951429D01*
X157286001Y-72022857D01*
X157571715Y-71951429D01*
X157786001Y-71808571D01*
X159428858Y-71665714D02*
X159357429Y-71737143D01*
X159143143Y-71808571D01*
X159000286Y-71808571D01*
X158786001Y-71737143D01*
X158643143Y-71594286D01*
X158571715Y-71451429D01*
X158500286Y-71165714D01*
X158500286Y-70951429D01*
X158571715Y-70665714D01*
X158643143Y-70522857D01*
X158786001Y-70380000D01*
X159000286Y-70308571D01*
X159143143Y-70308571D01*
X159357429Y-70380000D01*
X159428858Y-70451429D01*
X160000286Y-71737143D02*
X160214572Y-71808571D01*
X160571715Y-71808571D01*
X160714572Y-71737143D01*
X160786001Y-71665714D01*
X160857429Y-71522857D01*
X160857429Y-71380000D01*
X160786001Y-71237143D01*
X160714572Y-71165714D01*
X160571715Y-71094286D01*
X160286001Y-71022857D01*
X160143143Y-70951429D01*
X160071715Y-70880000D01*
X160000286Y-70737143D01*
X160000286Y-70594286D01*
X160071715Y-70451429D01*
X160143143Y-70380000D01*
X160286001Y-70308571D01*
X160643143Y-70308571D01*
X160857429Y-70380000D01*
X161428857Y-71737143D02*
X161643143Y-71808571D01*
X162000286Y-71808571D01*
X162143143Y-71737143D01*
X162214572Y-71665714D01*
X162286000Y-71522857D01*
X162286000Y-71380000D01*
X162214572Y-71237143D01*
X162143143Y-71165714D01*
X162000286Y-71094286D01*
X161714572Y-71022857D01*
X161571714Y-70951429D01*
X161500286Y-70880000D01*
X161428857Y-70737143D01*
X161428857Y-70594286D01*
X161500286Y-70451429D01*
X161571714Y-70380000D01*
X161714572Y-70308571D01*
X162071714Y-70308571D01*
X162286000Y-70380000D01*
X162928857Y-71808571D02*
X162928857Y-70308571D01*
X162928857Y-71022857D02*
X163786000Y-71022857D01*
X163786000Y-71808571D02*
X163786000Y-70308571D01*
X165214572Y-71808571D02*
X164500286Y-71808571D01*
X164500286Y-70308571D01*
X165714572Y-71665714D02*
X165786000Y-71737143D01*
X165714572Y-71808571D01*
X165643143Y-71737143D01*
X165714572Y-71665714D01*
X165714572Y-71808571D01*
X166643144Y-71808571D02*
X166500286Y-71737143D01*
X166428858Y-71665714D01*
X166357429Y-71522857D01*
X166357429Y-71094286D01*
X166428858Y-70951429D01*
X166500286Y-70880000D01*
X166643144Y-70808571D01*
X166857429Y-70808571D01*
X167000286Y-70880000D01*
X167071715Y-70951429D01*
X167143144Y-71094286D01*
X167143144Y-71522857D01*
X167071715Y-71665714D01*
X167000286Y-71737143D01*
X166857429Y-71808571D01*
X166643144Y-71808571D01*
X167786001Y-71808571D02*
X167786001Y-70808571D01*
X167786001Y-71094286D02*
X167857429Y-70951429D01*
X167928858Y-70880000D01*
X168071715Y-70808571D01*
X168214572Y-70808571D01*
X169357429Y-70808571D02*
X169357429Y-72022857D01*
X169286000Y-72165714D01*
X169214572Y-72237143D01*
X169071715Y-72308571D01*
X168857429Y-72308571D01*
X168714572Y-72237143D01*
X169357429Y-71737143D02*
X169214572Y-71808571D01*
X168928858Y-71808571D01*
X168786000Y-71737143D01*
X168714572Y-71665714D01*
X168643143Y-71522857D01*
X168643143Y-71094286D01*
X168714572Y-70951429D01*
X168786000Y-70880000D01*
X168928858Y-70808571D01*
X169214572Y-70808571D01*
X169357429Y-70880000D01*
X123923372Y-122344571D02*
X123066229Y-122344571D01*
X123494801Y-122344571D02*
X123494801Y-120844571D01*
X123351944Y-121058857D01*
X123209086Y-121201714D01*
X123066229Y-121273143D01*
X128298629Y-121038229D02*
X128370058Y-120966800D01*
X128512915Y-120895371D01*
X128870058Y-120895371D01*
X129012915Y-120966800D01*
X129084344Y-121038229D01*
X129155772Y-121181086D01*
X129155772Y-121323943D01*
X129084344Y-121538229D01*
X128227201Y-122395371D01*
X129155772Y-122395371D01*
X133307201Y-120844571D02*
X134235772Y-120844571D01*
X133735772Y-121416000D01*
X133950058Y-121416000D01*
X134092915Y-121487429D01*
X134164344Y-121558857D01*
X134235772Y-121701714D01*
X134235772Y-122058857D01*
X134164344Y-122201714D01*
X134092915Y-122273143D01*
X133950058Y-122344571D01*
X133521486Y-122344571D01*
X133378629Y-122273143D01*
X133307201Y-122201714D01*
X138868115Y-121344571D02*
X138868115Y-122344571D01*
X138510972Y-120773143D02*
X138153829Y-121844571D01*
X139082401Y-121844571D01*
X113951486Y-122344571D02*
X113237200Y-122344571D01*
X113237200Y-120844571D01*
X118189429Y-122395371D02*
X118189429Y-120895371D01*
X119046572Y-122395371D01*
X119046572Y-120895371D01*
D13*
X87690000Y-107170000D02*
X107890000Y-107170000D01*
X87690000Y-73170000D02*
X87690000Y-107170000D01*
X87890000Y-73170000D02*
X87690000Y-73170000D01*
X107890000Y-73170000D02*
X87890000Y-73170000D01*
X107890000Y-107170000D02*
X107890000Y-73170000D01*
X153279000Y-73762000D02*
X153279000Y-82702000D01*
X153279000Y-82702000D02*
X132979000Y-82702000D01*
X132979000Y-82702000D02*
X132979000Y-73762000D01*
X132979000Y-73762000D02*
X153279000Y-73762000D01*
X145354000Y-73762000D02*
X145354000Y-75062000D01*
X145354000Y-75062000D02*
X152079000Y-75062000D01*
X152079000Y-75062000D02*
X152079000Y-81402000D01*
X152079000Y-81402000D02*
X134179000Y-81402000D01*
X134179000Y-81402000D02*
X134179000Y-75062000D01*
X134179000Y-75062000D02*
X140904000Y-75062000D01*
X140904000Y-75062000D02*
X140904000Y-73762000D01*
X143379000Y-82702000D02*
X143379000Y-82902000D01*
X143379000Y-82902000D02*
X142879000Y-82902000D01*
X142879000Y-82902000D02*
X142879000Y-82702000D01*
X143379000Y-82802000D02*
X142879000Y-82802000D01*
X135899000Y-82702000D02*
X135899000Y-82902000D01*
X135899000Y-82902000D02*
X135399000Y-82902000D01*
X135399000Y-82902000D02*
X135399000Y-82702000D01*
X135899000Y-82802000D02*
X135399000Y-82802000D01*
X150859000Y-82702000D02*
X150859000Y-82902000D01*
X150859000Y-82902000D02*
X150359000Y-82902000D01*
X150359000Y-82902000D02*
X150359000Y-82702000D01*
X150859000Y-82802000D02*
X150359000Y-82802000D01*
X150409000Y-76362000D02*
X150409000Y-77562000D01*
X150409000Y-77562000D02*
X149809000Y-76962000D01*
X149809000Y-76962000D02*
X150409000Y-76362000D01*
X103164640Y-127919480D02*
X100662740Y-127919480D01*
X110665260Y-127919480D02*
X108163360Y-127919480D01*
X110665260Y-115920520D02*
X108163360Y-115920520D01*
X100662740Y-115920520D02*
X103164640Y-115920520D01*
X105664000Y-126420880D02*
X105664000Y-117419120D01*
X103164640Y-126420880D02*
X108163360Y-126420880D01*
X103164640Y-117419120D02*
X108163360Y-117419120D01*
X103764080Y-111920020D02*
X103164640Y-111920020D01*
X107563920Y-131919980D02*
X108163360Y-131919980D01*
X108163360Y-131919980D02*
X108163360Y-111920020D01*
X108163360Y-111920020D02*
X107563920Y-111920020D01*
X103164640Y-111920020D02*
X103164640Y-131919980D01*
X103164640Y-131919980D02*
X103764080Y-131919980D01*
X103764080Y-109921040D02*
X100662740Y-109921040D01*
X107563920Y-133918960D02*
X110665260Y-133918960D01*
X110665260Y-133918960D02*
X110665260Y-109921040D01*
X110665260Y-109921040D02*
X107563920Y-109921040D01*
X100662740Y-109921040D02*
X100662740Y-133918960D01*
X100662740Y-133918960D02*
X103764080Y-133918960D01*
X94586000Y-113094000D02*
X94586000Y-128594000D01*
X98786000Y-113094000D02*
X98786000Y-128594000D01*
X98786000Y-128594000D02*
X94586000Y-128594000D01*
X98786000Y-113094000D02*
X94586000Y-113094000D01*
X99695000Y-67246500D02*
X99695000Y-65214500D01*
X99822000Y-64833500D02*
X99822000Y-67754500D01*
X99949000Y-68008500D02*
X99949000Y-64452500D01*
X100076000Y-64071500D02*
X100076000Y-68389500D01*
X100203000Y-68643500D02*
X100203000Y-63817500D01*
X100330000Y-63690500D02*
X100330000Y-68770500D01*
X99314000Y-61023500D02*
X99314000Y-71437500D01*
X99314000Y-71437500D02*
X108966000Y-71437500D01*
X108966000Y-71437500D02*
X109728000Y-70675500D01*
X109728000Y-70675500D02*
X109728000Y-61785500D01*
X109728000Y-61785500D02*
X108966000Y-61023500D01*
X108966000Y-61023500D02*
X99314000Y-61023500D01*
X109093000Y-66230500D02*
X108331000Y-66230500D01*
X108712000Y-65849500D02*
X108712000Y-66611500D01*
X109474000Y-66230500D02*
G75*
G03X109474000Y-66230500I-4953000J0D01*
G01*
D14*
X110832000Y-82288000D02*
X110832000Y-81288000D01*
X109132000Y-81288000D02*
X109132000Y-82288000D01*
X114388000Y-82288000D02*
X114388000Y-81288000D01*
X112688000Y-81288000D02*
X112688000Y-82288000D01*
X136008000Y-84871000D02*
X136008000Y-86071000D01*
X134248000Y-86071000D02*
X134248000Y-84871000D01*
X140326000Y-84871000D02*
X140326000Y-86071000D01*
X138566000Y-86071000D02*
X138566000Y-84871000D01*
X122800000Y-67726000D02*
X122800000Y-68926000D01*
X121040000Y-68926000D02*
X121040000Y-67726000D01*
X117974000Y-67726000D02*
X117974000Y-68926000D01*
X116214000Y-68926000D02*
X116214000Y-67726000D01*
X113148000Y-67726000D02*
X113148000Y-68926000D01*
X111388000Y-68926000D02*
X111388000Y-67726000D01*
D13*
X115563000Y-87457000D02*
X115788000Y-87457000D01*
X115563000Y-81707000D02*
X115863000Y-81707000D01*
X124213000Y-81707000D02*
X123913000Y-81707000D01*
X124213000Y-87457000D02*
X123913000Y-87457000D01*
X115563000Y-87457000D02*
X115563000Y-81707000D01*
X124213000Y-87457000D02*
X124213000Y-81707000D01*
X115788000Y-87457000D02*
X115788000Y-89057000D01*
D14*
X156202000Y-85383000D02*
X155202000Y-85383000D01*
X155202000Y-87083000D02*
X156202000Y-87083000D01*
X161282000Y-85383000D02*
X160282000Y-85383000D01*
X160282000Y-87083000D02*
X161282000Y-87083000D01*
X166489000Y-85383000D02*
X165489000Y-85383000D01*
X165489000Y-87083000D02*
X166489000Y-87083000D01*
X150740000Y-88427000D02*
X150740000Y-89627000D01*
X148980000Y-89627000D02*
X148980000Y-88427000D01*
X150504000Y-106184000D02*
X147184000Y-106184000D01*
X147184000Y-106184000D02*
X147184000Y-115304000D01*
X147184000Y-115304000D02*
X150504000Y-115304000D01*
X150504000Y-115304000D02*
X150504000Y-106184000D01*
X148844000Y-105374000D02*
X148844000Y-106184000D01*
X148844000Y-116114000D02*
X148844000Y-115304000D01*
X160182000Y-81670000D02*
X161382000Y-81670000D01*
X161382000Y-83430000D02*
X160182000Y-83430000D01*
X161680000Y-106184000D02*
X158360000Y-106184000D01*
X158360000Y-106184000D02*
X158360000Y-115304000D01*
X158360000Y-115304000D02*
X161680000Y-115304000D01*
X161680000Y-115304000D02*
X161680000Y-106184000D01*
X160020000Y-105374000D02*
X160020000Y-106184000D01*
X160020000Y-116114000D02*
X160020000Y-115304000D01*
X166335000Y-83430000D02*
X165135000Y-83430000D01*
X165135000Y-81670000D02*
X166335000Y-81670000D01*
X172856000Y-102120000D02*
X169536000Y-102120000D01*
X169536000Y-102120000D02*
X169536000Y-111240000D01*
X169536000Y-111240000D02*
X172856000Y-111240000D01*
X172856000Y-111240000D02*
X172856000Y-102120000D01*
X171196000Y-101310000D02*
X171196000Y-102120000D01*
X171196000Y-112050000D02*
X171196000Y-111240000D01*
X113598000Y-72076000D02*
X110938000Y-72076000D01*
X113598000Y-74676000D02*
X113598000Y-72076000D01*
X110938000Y-74676000D02*
X110938000Y-72076000D01*
X113598000Y-74676000D02*
X110938000Y-74676000D01*
X113598000Y-75946000D02*
X113598000Y-77276000D01*
X113598000Y-77276000D02*
X112268000Y-77276000D01*
X118424000Y-72076000D02*
X115764000Y-72076000D01*
X118424000Y-74676000D02*
X118424000Y-72076000D01*
X115764000Y-74676000D02*
X115764000Y-72076000D01*
X118424000Y-74676000D02*
X115764000Y-74676000D01*
X118424000Y-75946000D02*
X118424000Y-77276000D01*
X118424000Y-77276000D02*
X117094000Y-77276000D01*
X123250000Y-72076000D02*
X120590000Y-72076000D01*
X123250000Y-74676000D02*
X123250000Y-72076000D01*
X120590000Y-74676000D02*
X120590000Y-72076000D01*
X123250000Y-74676000D02*
X120590000Y-74676000D01*
X123250000Y-75946000D02*
X123250000Y-77276000D01*
X123250000Y-77276000D02*
X121920000Y-77276000D01*
X128330000Y-72076000D02*
X125670000Y-72076000D01*
X128330000Y-74676000D02*
X128330000Y-72076000D01*
X125670000Y-74676000D02*
X125670000Y-72076000D01*
X128330000Y-74676000D02*
X125670000Y-74676000D01*
X128330000Y-75946000D02*
X128330000Y-77276000D01*
X128330000Y-77276000D02*
X127000000Y-77276000D01*
D13*
X126076000Y-87419000D02*
X126126000Y-87419000D01*
X126076000Y-83269000D02*
X126221000Y-83269000D01*
X131226000Y-83269000D02*
X131081000Y-83269000D01*
X131226000Y-87419000D02*
X131081000Y-87419000D01*
X126076000Y-87419000D02*
X126076000Y-83269000D01*
X131226000Y-87419000D02*
X131226000Y-83269000D01*
X126126000Y-87419000D02*
X126126000Y-88819000D01*
X141579600Y-92202000D02*
X141579600Y-92710000D01*
X146659600Y-92202000D02*
X146659600Y-92710000D01*
X141579600Y-115570000D02*
X141579600Y-115824000D01*
X146659600Y-115570000D02*
X146659600Y-115824000D01*
X146659600Y-92710000D02*
X146659600Y-115570000D01*
X146659600Y-115824000D02*
X141579600Y-115824000D01*
X141579600Y-115570000D02*
X141579600Y-92710000D01*
X141579600Y-92202000D02*
X146659600Y-92202000D01*
X121462800Y-92202000D02*
X121462800Y-92710000D01*
X126542800Y-92202000D02*
X126542800Y-92710000D01*
X121462800Y-115570000D02*
X121462800Y-115824000D01*
X126542800Y-115570000D02*
X126542800Y-115824000D01*
X126542800Y-92710000D02*
X126542800Y-115570000D01*
X126542800Y-115824000D02*
X121462800Y-115824000D01*
X121462800Y-115570000D02*
X121462800Y-92710000D01*
X121462800Y-92202000D02*
X126542800Y-92202000D01*
X112471200Y-92202000D02*
X112471200Y-92710000D01*
X117551200Y-92202000D02*
X117551200Y-92710000D01*
X112471200Y-115570000D02*
X112471200Y-115824000D01*
X117551200Y-115570000D02*
X117551200Y-115824000D01*
X117551200Y-92710000D02*
X117551200Y-115570000D01*
X117551200Y-115824000D02*
X112471200Y-115824000D01*
X112471200Y-115570000D02*
X112471200Y-92710000D01*
X112471200Y-92202000D02*
X117551200Y-92202000D01*
X131521200Y-92202000D02*
X131521200Y-92710000D01*
X136601200Y-92202000D02*
X136601200Y-92710000D01*
X131521200Y-115570000D02*
X131521200Y-115824000D01*
X136601200Y-115570000D02*
X136601200Y-115824000D01*
X136601200Y-92710000D02*
X136601200Y-115570000D01*
X136601200Y-115824000D02*
X131521200Y-115824000D01*
X131521200Y-115570000D02*
X131521200Y-92710000D01*
X131521200Y-92202000D02*
X136601200Y-92202000D01*
X175404780Y-87525860D02*
X175765460Y-88996520D01*
X175765460Y-88996520D02*
X176044860Y-87934800D01*
X176044860Y-87934800D02*
X176354740Y-89006680D01*
X176354740Y-89006680D02*
X176695100Y-87556340D01*
X173984920Y-88216740D02*
X174774860Y-88206580D01*
X174774860Y-88206580D02*
X174785020Y-88216740D01*
X174785020Y-88216740D02*
X174785020Y-88206580D01*
X174825660Y-87495380D02*
X174825660Y-89037160D01*
X173936660Y-87485220D02*
X173936660Y-89054940D01*
X173936660Y-89054940D02*
X173946820Y-89044780D01*
X173385480Y-87586820D02*
X173034960Y-87505540D01*
X173034960Y-87505540D02*
X172714920Y-87495380D01*
X172714920Y-87495380D02*
X172476160Y-87696040D01*
X172476160Y-87696040D02*
X172445680Y-87965280D01*
X172445680Y-87965280D02*
X172686980Y-88206580D01*
X172686980Y-88206580D02*
X173075600Y-88336120D01*
X173075600Y-88336120D02*
X173255940Y-88496140D01*
X173255940Y-88496140D02*
X173296580Y-88795860D01*
X173296580Y-88795860D02*
X173065440Y-89016840D01*
X173065440Y-89016840D02*
X172745400Y-89044780D01*
X172745400Y-89044780D02*
X172394880Y-88935560D01*
X171356020Y-87485220D02*
X171107100Y-87505540D01*
X171107100Y-87505540D02*
X170865800Y-87746840D01*
X170865800Y-87746840D02*
X170776900Y-88237060D01*
X170776900Y-88237060D02*
X170804840Y-88585040D01*
X170804840Y-88585040D02*
X171005500Y-88905080D01*
X171005500Y-88905080D02*
X171256960Y-89027000D01*
X171256960Y-89027000D02*
X171566840Y-88955880D01*
X171566840Y-88955880D02*
X171785280Y-88775540D01*
X171785280Y-88775540D02*
X171856400Y-88315800D01*
X171856400Y-88315800D02*
X171805600Y-87906860D01*
X171805600Y-87906860D02*
X171696380Y-87624920D01*
X171696380Y-87624920D02*
X171335700Y-87495380D01*
X171955460Y-85765640D02*
X171696380Y-86326980D01*
X171696380Y-86326980D02*
X172234860Y-86845140D01*
X172234860Y-86845140D02*
X172755560Y-86575900D01*
X172755560Y-86575900D02*
X173034960Y-86735920D01*
X174475140Y-86715600D02*
X174805340Y-86525100D01*
X174805340Y-86525100D02*
X175244760Y-86855300D01*
X175244760Y-86855300D02*
X175717200Y-86365080D01*
X175717200Y-86365080D02*
X175435260Y-85885020D01*
X175435260Y-85885020D02*
X175625760Y-85415120D01*
X175625760Y-85415120D02*
X176235360Y-85227160D01*
X176235360Y-85227160D02*
X176235360Y-84546440D01*
X176235360Y-84546440D02*
X175676560Y-84406740D01*
X175676560Y-84406740D02*
X175475900Y-83835240D01*
X175475900Y-83835240D02*
X175745140Y-83365340D01*
X175745140Y-83365340D02*
X175275240Y-82854800D01*
X175275240Y-82854800D02*
X174757080Y-83116420D01*
X174757080Y-83116420D02*
X174287180Y-82915760D01*
X174287180Y-82915760D02*
X174117000Y-82374740D01*
X174117000Y-82374740D02*
X173426120Y-82356960D01*
X173426120Y-82356960D02*
X173215300Y-82905600D01*
X173215300Y-82905600D02*
X172796200Y-83075780D01*
X172796200Y-83075780D02*
X172245020Y-82806540D01*
X172245020Y-82806540D02*
X171726860Y-83334860D01*
X171726860Y-83334860D02*
X171975780Y-83875880D01*
X171975780Y-83875880D02*
X171805600Y-84355940D01*
X171805600Y-84355940D02*
X171256960Y-84455000D01*
X171256960Y-84455000D02*
X171246800Y-85156040D01*
X171246800Y-85156040D02*
X171805600Y-85356700D01*
X171805600Y-85356700D02*
X171945300Y-85755480D01*
X174086520Y-85735160D02*
X174386240Y-85585300D01*
X174386240Y-85585300D02*
X174586900Y-85387180D01*
X174586900Y-85387180D02*
X174736760Y-84985860D01*
X174736760Y-84985860D02*
X174736760Y-84587080D01*
X174736760Y-84587080D02*
X174586900Y-84236560D01*
X174586900Y-84236560D02*
X174134780Y-83886040D01*
X174134780Y-83886040D02*
X173685200Y-83835240D01*
X173685200Y-83835240D02*
X173286420Y-83936840D01*
X173286420Y-83936840D02*
X172885100Y-84284820D01*
X172885100Y-84284820D02*
X172735240Y-84736940D01*
X172735240Y-84736940D02*
X172786040Y-85234780D01*
X172786040Y-85234780D02*
X173034960Y-85537040D01*
X173034960Y-85537040D02*
X173385480Y-85735160D01*
X173385480Y-85735160D02*
X173034960Y-86735920D01*
X174086520Y-85735160D02*
X174485300Y-86735920D01*
X141365000Y-70704000D02*
X141365000Y-69504000D01*
X143115000Y-69504000D02*
X143115000Y-70704000D01*
X93599000Y-120523000D02*
G75*
G03X93599000Y-120523000I-3048000J0D01*
G01*
X179199645Y-120523000D02*
G75*
G03X179199645Y-120523000I-3050645J0D01*
G01*
X179197000Y-69723000D02*
G75*
G03X179197000Y-69723000I-3048000J0D01*
G01*
X93599000Y-69723000D02*
G75*
G03X93599000Y-69723000I-3048000J0D01*
G01*
D14*
X149412000Y-71434000D02*
X149412000Y-68774000D01*
X146812000Y-71434000D02*
X149412000Y-71434000D01*
X146812000Y-68774000D02*
X149412000Y-68774000D01*
X146812000Y-71434000D02*
X146812000Y-68774000D01*
X145542000Y-71434000D02*
X144212000Y-71434000D01*
X144212000Y-71434000D02*
X144212000Y-70104000D01*
D13*
X111760000Y-62357000D02*
X119380000Y-62357000D01*
X119380000Y-62357000D02*
X119380000Y-55372000D01*
X119380000Y-55372000D02*
X111760000Y-55372000D01*
X111760000Y-55372000D02*
X111760000Y-62357000D01*
X121920000Y-62357000D02*
X129540000Y-62357000D01*
X129540000Y-62357000D02*
X129540000Y-55372000D01*
X129540000Y-55372000D02*
X121920000Y-55372000D01*
X121920000Y-55372000D02*
X121920000Y-62357000D01*
X132080000Y-62357000D02*
X139700000Y-62357000D01*
X139700000Y-62357000D02*
X139700000Y-55372000D01*
X139700000Y-55372000D02*
X132080000Y-55372000D01*
X132080000Y-55372000D02*
X132080000Y-62357000D01*
X152400000Y-62357000D02*
X160020000Y-62357000D01*
X160020000Y-62357000D02*
X160020000Y-55372000D01*
X160020000Y-55372000D02*
X152400000Y-55372000D01*
X152400000Y-55372000D02*
X152400000Y-62357000D01*
X162560000Y-62357000D02*
X170180000Y-62357000D01*
X170180000Y-62357000D02*
X170180000Y-55372000D01*
X170180000Y-55372000D02*
X162560000Y-55372000D01*
X162560000Y-55372000D02*
X162560000Y-62357000D01*
X172720000Y-62357000D02*
X180340000Y-62357000D01*
X180340000Y-62357000D02*
X180340000Y-55372000D01*
X180340000Y-55372000D02*
X172720000Y-55372000D01*
X172720000Y-55372000D02*
X172720000Y-62357000D01*
X90170000Y-62357000D02*
X97790000Y-62357000D01*
X97790000Y-62357000D02*
X97790000Y-55372000D01*
X97790000Y-55372000D02*
X90170000Y-55372000D01*
X90170000Y-55372000D02*
X90170000Y-62357000D01*
X142240000Y-62357000D02*
X149860000Y-62357000D01*
X149860000Y-62357000D02*
X149860000Y-55372000D01*
X149860000Y-55372000D02*
X142240000Y-55372000D01*
X142240000Y-55372000D02*
X142240000Y-62357000D01*
D15*
G36*
X168784323Y-73600190D02*
X168784323Y-73811857D01*
X168784323Y-78190711D01*
X168784323Y-78402378D01*
X168995990Y-78402378D01*
X178984010Y-78402378D01*
X179195677Y-78402378D01*
X179195677Y-78190711D01*
X179195677Y-73600190D01*
X178781431Y-73600190D01*
X178772344Y-77979045D01*
X169207656Y-77979045D01*
X169207656Y-74023524D01*
X177345799Y-74023524D01*
X177345799Y-73600190D01*
X168995990Y-73600190D01*
X168784323Y-73600190D01*
X168784323Y-73600190D01*
G37*
X168784323Y-73600190D02*
X168784323Y-73811857D01*
X168784323Y-78190711D01*
X168784323Y-78402378D01*
X168995990Y-78402378D01*
X178984010Y-78402378D01*
X179195677Y-78402378D01*
X179195677Y-78190711D01*
X179195677Y-73600190D01*
X178781431Y-73600190D01*
X178772344Y-77979045D01*
X169207656Y-77979045D01*
X169207656Y-74023524D01*
X177345799Y-74023524D01*
X177345799Y-73600190D01*
X168995990Y-73600190D01*
X168784323Y-73600190D01*
G36*
X171227039Y-76052994D02*
X171575958Y-76052994D01*
X171572753Y-76209108D01*
X171563141Y-76354991D01*
X171547121Y-76490642D01*
X171524693Y-76616060D01*
X171495858Y-76731247D01*
X171460615Y-76836202D01*
X171418964Y-76930925D01*
X171370906Y-77015416D01*
X171297134Y-77112430D01*
X171211420Y-77191805D01*
X171113763Y-77253541D01*
X171004163Y-77297638D01*
X170882620Y-77324096D01*
X170749135Y-77332916D01*
X170615649Y-77324142D01*
X170494105Y-77297822D01*
X170384506Y-77253954D01*
X170286849Y-77192539D01*
X170201135Y-77113578D01*
X170127364Y-77017069D01*
X170079693Y-76932914D01*
X170038377Y-76838372D01*
X170003418Y-76733444D01*
X169974815Y-76618128D01*
X169952569Y-76492425D01*
X169936678Y-76356335D01*
X169927144Y-76209858D01*
X169923966Y-76052994D01*
X169927144Y-75896492D01*
X169936678Y-75750274D01*
X169952569Y-75614340D01*
X169974815Y-75488689D01*
X170003418Y-75373321D01*
X170038377Y-75268237D01*
X170079693Y-75173436D01*
X170127364Y-75088918D01*
X170201594Y-74991905D01*
X170287584Y-74912531D01*
X170385332Y-74850795D01*
X170494841Y-74806698D01*
X170616108Y-74780239D01*
X170749135Y-74771418D01*
X170882620Y-74780239D01*
X171004163Y-74806698D01*
X171113763Y-74850795D01*
X171211420Y-74912531D01*
X171297134Y-74991905D01*
X171370906Y-75088918D01*
X171418964Y-75173436D01*
X171460615Y-75268237D01*
X171495858Y-75373321D01*
X171524693Y-75488689D01*
X171547121Y-75614340D01*
X171563141Y-75750274D01*
X171572753Y-75896492D01*
X171575958Y-76052994D01*
X171227039Y-76052994D01*
X171223915Y-75880280D01*
X171214544Y-75724838D01*
X171198926Y-75586667D01*
X171177061Y-75465767D01*
X171148949Y-75362138D01*
X171114591Y-75275780D01*
X171050201Y-75173772D01*
X170967829Y-75100909D01*
X170867473Y-75057190D01*
X170749135Y-75042616D01*
X170631415Y-75057190D01*
X170531266Y-75100909D01*
X170448688Y-75173772D01*
X170383679Y-75275780D01*
X170349825Y-75362138D01*
X170322126Y-75465767D01*
X170300583Y-75586667D01*
X170285195Y-75724838D01*
X170275962Y-75880280D01*
X170272885Y-76052994D01*
X170275962Y-76225203D01*
X170285195Y-76380232D01*
X170300583Y-76518082D01*
X170322126Y-76638752D01*
X170349825Y-76742243D01*
X170383679Y-76828554D01*
X170448688Y-76930563D01*
X170531266Y-77003427D01*
X170631415Y-77047145D01*
X170749135Y-77061718D01*
X170867473Y-77047249D01*
X170967829Y-77003840D01*
X171050201Y-76931493D01*
X171114591Y-76830208D01*
X171148949Y-76743851D01*
X171177061Y-76640222D01*
X171198926Y-76519322D01*
X171214544Y-76381151D01*
X171223915Y-76225708D01*
X171227039Y-76052994D01*
X171227039Y-76052994D01*
G37*
X171227039Y-76052994D02*
X171575958Y-76052994D01*
X171572753Y-76209108D01*
X171563141Y-76354991D01*
X171547121Y-76490642D01*
X171524693Y-76616060D01*
X171495858Y-76731247D01*
X171460615Y-76836202D01*
X171418964Y-76930925D01*
X171370906Y-77015416D01*
X171297134Y-77112430D01*
X171211420Y-77191805D01*
X171113763Y-77253541D01*
X171004163Y-77297638D01*
X170882620Y-77324096D01*
X170749135Y-77332916D01*
X170615649Y-77324142D01*
X170494105Y-77297822D01*
X170384506Y-77253954D01*
X170286849Y-77192539D01*
X170201135Y-77113578D01*
X170127364Y-77017069D01*
X170079693Y-76932914D01*
X170038377Y-76838372D01*
X170003418Y-76733444D01*
X169974815Y-76618128D01*
X169952569Y-76492425D01*
X169936678Y-76356335D01*
X169927144Y-76209858D01*
X169923966Y-76052994D01*
X169927144Y-75896492D01*
X169936678Y-75750274D01*
X169952569Y-75614340D01*
X169974815Y-75488689D01*
X170003418Y-75373321D01*
X170038377Y-75268237D01*
X170079693Y-75173436D01*
X170127364Y-75088918D01*
X170201594Y-74991905D01*
X170287584Y-74912531D01*
X170385332Y-74850795D01*
X170494841Y-74806698D01*
X170616108Y-74780239D01*
X170749135Y-74771418D01*
X170882620Y-74780239D01*
X171004163Y-74806698D01*
X171113763Y-74850795D01*
X171211420Y-74912531D01*
X171297134Y-74991905D01*
X171370906Y-75088918D01*
X171418964Y-75173436D01*
X171460615Y-75268237D01*
X171495858Y-75373321D01*
X171524693Y-75488689D01*
X171547121Y-75614340D01*
X171563141Y-75750274D01*
X171572753Y-75896492D01*
X171575958Y-76052994D01*
X171227039Y-76052994D01*
X171223915Y-75880280D01*
X171214544Y-75724838D01*
X171198926Y-75586667D01*
X171177061Y-75465767D01*
X171148949Y-75362138D01*
X171114591Y-75275780D01*
X171050201Y-75173772D01*
X170967829Y-75100909D01*
X170867473Y-75057190D01*
X170749135Y-75042616D01*
X170631415Y-75057190D01*
X170531266Y-75100909D01*
X170448688Y-75173772D01*
X170383679Y-75275780D01*
X170349825Y-75362138D01*
X170322126Y-75465767D01*
X170300583Y-75586667D01*
X170285195Y-75724838D01*
X170275962Y-75880280D01*
X170272885Y-76052994D01*
X170275962Y-76225203D01*
X170285195Y-76380232D01*
X170300583Y-76518082D01*
X170322126Y-76638752D01*
X170349825Y-76742243D01*
X170383679Y-76828554D01*
X170448688Y-76930563D01*
X170531266Y-77003427D01*
X170631415Y-77047145D01*
X170749135Y-77061718D01*
X170867473Y-77047249D01*
X170967829Y-77003840D01*
X171050201Y-76931493D01*
X171114591Y-76830208D01*
X171148949Y-76743851D01*
X171177061Y-76640222D01*
X171198926Y-76519322D01*
X171214544Y-76381151D01*
X171223915Y-76225708D01*
X171227039Y-76052994D01*
G36*
X173441270Y-74900402D02*
X173441270Y-75239400D01*
X173339662Y-75179687D01*
X173237687Y-75130628D01*
X173135346Y-75092225D01*
X173033554Y-75064666D01*
X172931028Y-75048130D01*
X172827768Y-75042616D01*
X172681144Y-75054928D01*
X172556569Y-75091860D01*
X172454044Y-75153410D01*
X172377792Y-75234808D01*
X172332041Y-75333475D01*
X172316791Y-75449413D01*
X172339115Y-75593695D01*
X172406088Y-75699114D01*
X172483993Y-75753318D01*
X172596441Y-75801273D01*
X172743432Y-75842981D01*
X172918718Y-75882668D01*
X173050083Y-75918784D01*
X173166367Y-75962309D01*
X173267570Y-76013241D01*
X173353693Y-76071581D01*
X173424734Y-76137329D01*
X173494186Y-76232001D01*
X173543795Y-76342382D01*
X173573561Y-76468473D01*
X173583484Y-76610272D01*
X173574752Y-76744482D01*
X173548558Y-76865331D01*
X173504902Y-76972818D01*
X173443783Y-77066943D01*
X173365203Y-77147708D01*
X173269952Y-77214383D01*
X173158827Y-77266241D01*
X173031827Y-77303283D01*
X172888952Y-77325508D01*
X172730203Y-77332916D01*
X172614263Y-77328690D01*
X172497957Y-77316012D01*
X172381283Y-77294881D01*
X172264242Y-77266402D01*
X172146833Y-77229471D01*
X172029057Y-77184087D01*
X172029057Y-76828554D01*
X172153448Y-76901866D01*
X172273061Y-76960846D01*
X172387898Y-77005494D01*
X172501632Y-77036730D01*
X172615733Y-77055471D01*
X172730203Y-77061718D01*
X172849678Y-77054690D01*
X172955098Y-77033606D01*
X173046462Y-76998466D01*
X173123770Y-76949270D01*
X173201858Y-76863281D01*
X173248712Y-76757447D01*
X173264330Y-76631770D01*
X173253489Y-76518036D01*
X173220967Y-76423778D01*
X173166766Y-76348996D01*
X173086838Y-76288914D01*
X172974941Y-76238754D01*
X172831075Y-76198514D01*
X172652481Y-76157173D01*
X172522438Y-76122910D01*
X172407477Y-76082297D01*
X172307597Y-76035334D01*
X172222798Y-75982020D01*
X172153080Y-75922356D01*
X172085074Y-75837091D01*
X172036498Y-75738389D01*
X172007353Y-75626251D01*
X171997637Y-75500676D01*
X172006501Y-75373677D01*
X172033091Y-75257261D01*
X172077409Y-75151428D01*
X172139454Y-75056177D01*
X172219226Y-74971510D01*
X172314344Y-74899478D01*
X172421103Y-74843453D01*
X172539504Y-74803435D01*
X172669547Y-74779423D01*
X172811231Y-74771418D01*
X172907693Y-74775095D01*
X173007463Y-74786119D01*
X173110541Y-74804491D01*
X173217108Y-74829114D01*
X173327351Y-74861084D01*
X173441270Y-74900402D01*
X173441270Y-74900402D01*
G37*
X173441270Y-74900402D02*
X173441270Y-75239400D01*
X173339662Y-75179687D01*
X173237687Y-75130628D01*
X173135346Y-75092225D01*
X173033554Y-75064666D01*
X172931028Y-75048130D01*
X172827768Y-75042616D01*
X172681144Y-75054928D01*
X172556569Y-75091860D01*
X172454044Y-75153410D01*
X172377792Y-75234808D01*
X172332041Y-75333475D01*
X172316791Y-75449413D01*
X172339115Y-75593695D01*
X172406088Y-75699114D01*
X172483993Y-75753318D01*
X172596441Y-75801273D01*
X172743432Y-75842981D01*
X172918718Y-75882668D01*
X173050083Y-75918784D01*
X173166367Y-75962309D01*
X173267570Y-76013241D01*
X173353693Y-76071581D01*
X173424734Y-76137329D01*
X173494186Y-76232001D01*
X173543795Y-76342382D01*
X173573561Y-76468473D01*
X173583484Y-76610272D01*
X173574752Y-76744482D01*
X173548558Y-76865331D01*
X173504902Y-76972818D01*
X173443783Y-77066943D01*
X173365203Y-77147708D01*
X173269952Y-77214383D01*
X173158827Y-77266241D01*
X173031827Y-77303283D01*
X172888952Y-77325508D01*
X172730203Y-77332916D01*
X172614263Y-77328690D01*
X172497957Y-77316012D01*
X172381283Y-77294881D01*
X172264242Y-77266402D01*
X172146833Y-77229471D01*
X172029057Y-77184087D01*
X172029057Y-76828554D01*
X172153448Y-76901866D01*
X172273061Y-76960846D01*
X172387898Y-77005494D01*
X172501632Y-77036730D01*
X172615733Y-77055471D01*
X172730203Y-77061718D01*
X172849678Y-77054690D01*
X172955098Y-77033606D01*
X173046462Y-76998466D01*
X173123770Y-76949270D01*
X173201858Y-76863281D01*
X173248712Y-76757447D01*
X173264330Y-76631770D01*
X173253489Y-76518036D01*
X173220967Y-76423778D01*
X173166766Y-76348996D01*
X173086838Y-76288914D01*
X172974941Y-76238754D01*
X172831075Y-76198514D01*
X172652481Y-76157173D01*
X172522438Y-76122910D01*
X172407477Y-76082297D01*
X172307597Y-76035334D01*
X172222798Y-75982020D01*
X172153080Y-75922356D01*
X172085074Y-75837091D01*
X172036498Y-75738389D01*
X172007353Y-75626251D01*
X171997637Y-75500676D01*
X172006501Y-75373677D01*
X172033091Y-75257261D01*
X172077409Y-75151428D01*
X172139454Y-75056177D01*
X172219226Y-74971510D01*
X172314344Y-74899478D01*
X172421103Y-74843453D01*
X172539504Y-74803435D01*
X172669547Y-74779423D01*
X172811231Y-74771418D01*
X172907693Y-74775095D01*
X173007463Y-74786119D01*
X173110541Y-74804491D01*
X173217108Y-74829114D01*
X173327351Y-74861084D01*
X173441270Y-74900402D01*
G36*
X174031622Y-74816067D02*
X174367312Y-74816067D01*
X174367312Y-75828098D01*
X175281778Y-75828098D01*
X175281778Y-74816067D01*
X175617468Y-74816067D01*
X175617468Y-77284960D01*
X175281778Y-77284960D01*
X175281778Y-76109218D01*
X174367312Y-76109218D01*
X174367312Y-77284960D01*
X174031622Y-77284960D01*
X174031622Y-74816067D01*
X174031622Y-74816067D01*
G37*
X174031622Y-74816067D02*
X174367312Y-74816067D01*
X174367312Y-75828098D01*
X175281778Y-75828098D01*
X175281778Y-74816067D01*
X175617468Y-74816067D01*
X175617468Y-77284960D01*
X175281778Y-77284960D01*
X175281778Y-76109218D01*
X174367312Y-76109218D01*
X174367312Y-77284960D01*
X174031622Y-77284960D01*
X174031622Y-74816067D01*
G36*
X175842364Y-74816067D02*
X176168133Y-74816067D01*
X176404604Y-76820285D01*
X176685723Y-75494062D01*
X177034643Y-75494062D01*
X177319070Y-76823593D01*
X178119986Y-72981622D01*
X178445754Y-72981622D01*
X177512546Y-77284960D01*
X177196700Y-77284960D01*
X176861010Y-75818176D01*
X176526973Y-77284960D01*
X176211127Y-77284960D01*
X175842364Y-74816067D01*
X175842364Y-74816067D01*
G37*
X175842364Y-74816067D02*
X176168133Y-74816067D01*
X176404604Y-76820285D01*
X176685723Y-75494062D01*
X177034643Y-75494062D01*
X177319070Y-76823593D01*
X178119986Y-72981622D01*
X178445754Y-72981622D01*
X177512546Y-77284960D01*
X177196700Y-77284960D01*
X176861010Y-75818176D01*
X176526973Y-77284960D01*
X176211127Y-77284960D01*
X175842364Y-74816067D01*
D13*
X110871000Y-136017000D02*
X110871000Y-125095000D01*
X121031000Y-125095000D02*
X121031000Y-136017000D01*
X110871000Y-136017000D02*
X121031000Y-136017000D01*
X121031000Y-125095000D02*
X110871000Y-125095000D01*
X121031000Y-125095000D02*
X121031000Y-136017000D01*
X141351000Y-125095000D02*
X141351000Y-136017000D01*
X121031000Y-136017000D02*
X141351000Y-136017000D01*
X141351000Y-125095000D02*
X121031000Y-125095000D01*
X141351000Y-136017000D02*
X141351000Y-125095000D01*
X151511000Y-125095000D02*
X151511000Y-136017000D01*
X141351000Y-136017000D02*
X151511000Y-136017000D01*
X151511000Y-125095000D02*
X141351000Y-125095000D01*
X151511000Y-136017000D02*
X151511000Y-125095000D01*
X161671000Y-125095000D02*
X161671000Y-136017000D01*
X151511000Y-136017000D02*
X161671000Y-136017000D01*
X161671000Y-125095000D02*
X151511000Y-125095000D01*
X161671000Y-136017000D02*
X161671000Y-125095000D01*
X171831000Y-125095000D02*
X171831000Y-136017000D01*
X161671000Y-136017000D02*
X171831000Y-136017000D01*
X171831000Y-125095000D02*
X161671000Y-125095000D01*
D14*
X153102000Y-93107000D02*
G75*
G02X153102000Y-95107000I0J-1000000D01*
G01*
X153102000Y-95107000D02*
X153102000Y-96757000D01*
X153102000Y-96757000D02*
X158302000Y-96757000D01*
X158302000Y-96757000D02*
X158302000Y-91457000D01*
X158302000Y-91457000D02*
X153102000Y-91457000D01*
X153102000Y-91457000D02*
X153102000Y-93107000D01*
X158182000Y-93107000D02*
G75*
G02X158182000Y-95107000I0J-1000000D01*
G01*
X158182000Y-95107000D02*
X158182000Y-96757000D01*
X158182000Y-96757000D02*
X163382000Y-96757000D01*
X163382000Y-96757000D02*
X163382000Y-91457000D01*
X163382000Y-91457000D02*
X158182000Y-91457000D01*
X158182000Y-91457000D02*
X158182000Y-93107000D01*
X163262000Y-93107000D02*
G75*
G02X163262000Y-95107000I0J-1000000D01*
G01*
X163262000Y-95107000D02*
X163262000Y-96757000D01*
X163262000Y-96757000D02*
X168462000Y-96757000D01*
X168462000Y-96757000D02*
X168462000Y-91457000D01*
X168462000Y-91457000D02*
X163262000Y-91457000D01*
X163262000Y-91457000D02*
X163262000Y-93107000D01*
X157492000Y-104764400D02*
X157492000Y-117884400D01*
X151372000Y-104764400D02*
X151372000Y-117884400D01*
X157492000Y-104764400D02*
X151372000Y-104764400D01*
X157492000Y-117884400D02*
X151372000Y-117884400D01*
X168668000Y-104713600D02*
X168668000Y-117833600D01*
X162548000Y-104713600D02*
X162548000Y-117833600D01*
X168668000Y-104713600D02*
X162548000Y-104713600D01*
X168668000Y-117833600D02*
X162548000Y-117833600D01*
X179844000Y-102834000D02*
X179844000Y-115954000D01*
X173724000Y-102834000D02*
X173724000Y-115954000D01*
X179844000Y-102834000D02*
X173724000Y-102834000D01*
X179844000Y-115954000D02*
X173724000Y-115954000D01*
D13*
X98242381Y-90931905D02*
X99051905Y-90931905D01*
X99147143Y-90884286D01*
X99194762Y-90836667D01*
X99242381Y-90741429D01*
X99242381Y-90550952D01*
X99194762Y-90455714D01*
X99147143Y-90408095D01*
X99051905Y-90360476D01*
X98242381Y-90360476D01*
X99242381Y-89360476D02*
X99242381Y-89931905D01*
X99242381Y-89646191D02*
X98242381Y-89646191D01*
X98385238Y-89741429D01*
X98480476Y-89836667D01*
X98528095Y-89931905D01*
X150875667Y-83414381D02*
X150875667Y-84128667D01*
X150828047Y-84271524D01*
X150732809Y-84366762D01*
X150589952Y-84414381D01*
X150494714Y-84414381D01*
X151875667Y-84414381D02*
X151304238Y-84414381D01*
X151589952Y-84414381D02*
X151589952Y-83414381D01*
X151494714Y-83557238D01*
X151399476Y-83652476D01*
X151304238Y-83700095D01*
X99496571Y-131905333D02*
X99496571Y-132238667D01*
X100020381Y-132238667D02*
X99020381Y-132238667D01*
X99020381Y-131762476D01*
X100020381Y-130857714D02*
X100020381Y-131429143D01*
X100020381Y-131143429D02*
X99020381Y-131143429D01*
X99163238Y-131238667D01*
X99258476Y-131333905D01*
X99306095Y-131429143D01*
X92670381Y-127801524D02*
X93670381Y-127468191D01*
X92670381Y-127134857D01*
X93670381Y-126230095D02*
X93194190Y-126563429D01*
X93670381Y-126801524D02*
X92670381Y-126801524D01*
X92670381Y-126420571D01*
X92718000Y-126325333D01*
X92765619Y-126277714D01*
X92860857Y-126230095D01*
X93003714Y-126230095D01*
X93098952Y-126277714D01*
X93146571Y-126325333D01*
X93194190Y-126420571D01*
X93194190Y-126801524D01*
X93670381Y-125277714D02*
X93670381Y-125849143D01*
X93670381Y-125563429D02*
X92670381Y-125563429D01*
X92813238Y-125658667D01*
X92908476Y-125753905D01*
X92956095Y-125849143D01*
X104354334Y-59983643D02*
X104306715Y-60031262D01*
X104163858Y-60078881D01*
X104068620Y-60078881D01*
X103925762Y-60031262D01*
X103830524Y-59936024D01*
X103782905Y-59840786D01*
X103735286Y-59650310D01*
X103735286Y-59507452D01*
X103782905Y-59316976D01*
X103830524Y-59221738D01*
X103925762Y-59126500D01*
X104068620Y-59078881D01*
X104163858Y-59078881D01*
X104306715Y-59126500D01*
X104354334Y-59174119D01*
X105306715Y-60078881D02*
X104735286Y-60078881D01*
X105021000Y-60078881D02*
X105021000Y-59078881D01*
X104925762Y-59221738D01*
X104830524Y-59316976D01*
X104735286Y-59364595D01*
X110339143Y-84951866D02*
X110386762Y-84999485D01*
X110434381Y-85142342D01*
X110434381Y-85237580D01*
X110386762Y-85380438D01*
X110291524Y-85475676D01*
X110196286Y-85523295D01*
X110005810Y-85570914D01*
X109862952Y-85570914D01*
X109672476Y-85523295D01*
X109577238Y-85475676D01*
X109482000Y-85380438D01*
X109434381Y-85237580D01*
X109434381Y-85142342D01*
X109482000Y-84999485D01*
X109529619Y-84951866D01*
X109529619Y-84570914D02*
X109482000Y-84523295D01*
X109434381Y-84428057D01*
X109434381Y-84189961D01*
X109482000Y-84094723D01*
X109529619Y-84047104D01*
X109624857Y-83999485D01*
X109720095Y-83999485D01*
X109862952Y-84047104D01*
X110434381Y-84618533D01*
X110434381Y-83999485D01*
X113895143Y-84901066D02*
X113942762Y-84948685D01*
X113990381Y-85091542D01*
X113990381Y-85186780D01*
X113942762Y-85329638D01*
X113847524Y-85424876D01*
X113752286Y-85472495D01*
X113561810Y-85520114D01*
X113418952Y-85520114D01*
X113228476Y-85472495D01*
X113133238Y-85424876D01*
X113038000Y-85329638D01*
X112990381Y-85186780D01*
X112990381Y-85091542D01*
X113038000Y-84948685D01*
X113085619Y-84901066D01*
X112990381Y-84567733D02*
X112990381Y-83948685D01*
X113371333Y-84282019D01*
X113371333Y-84139161D01*
X113418952Y-84043923D01*
X113466571Y-83996304D01*
X113561810Y-83948685D01*
X113799905Y-83948685D01*
X113895143Y-83996304D01*
X113942762Y-84043923D01*
X113990381Y-84139161D01*
X113990381Y-84424876D01*
X113942762Y-84520114D01*
X113895143Y-84567733D01*
X137231381Y-85637666D02*
X136755190Y-85971000D01*
X137231381Y-86209095D02*
X136231381Y-86209095D01*
X136231381Y-85828142D01*
X136279000Y-85732904D01*
X136326619Y-85685285D01*
X136421857Y-85637666D01*
X136564714Y-85637666D01*
X136659952Y-85685285D01*
X136707571Y-85732904D01*
X136755190Y-85828142D01*
X136755190Y-86209095D01*
X137231381Y-84685285D02*
X137231381Y-85256714D01*
X137231381Y-84971000D02*
X136231381Y-84971000D01*
X136374238Y-85066238D01*
X136469476Y-85161476D01*
X136517095Y-85256714D01*
X141549381Y-85637666D02*
X141073190Y-85971000D01*
X141549381Y-86209095D02*
X140549381Y-86209095D01*
X140549381Y-85828142D01*
X140597000Y-85732904D01*
X140644619Y-85685285D01*
X140739857Y-85637666D01*
X140882714Y-85637666D01*
X140977952Y-85685285D01*
X141025571Y-85732904D01*
X141073190Y-85828142D01*
X141073190Y-86209095D01*
X140644619Y-85256714D02*
X140597000Y-85209095D01*
X140549381Y-85113857D01*
X140549381Y-84875761D01*
X140597000Y-84780523D01*
X140644619Y-84732904D01*
X140739857Y-84685285D01*
X140835095Y-84685285D01*
X140977952Y-84732904D01*
X141549381Y-85304333D01*
X141549381Y-84685285D01*
X124023381Y-68492666D02*
X123547190Y-68826000D01*
X124023381Y-69064095D02*
X123023381Y-69064095D01*
X123023381Y-68683142D01*
X123071000Y-68587904D01*
X123118619Y-68540285D01*
X123213857Y-68492666D01*
X123356714Y-68492666D01*
X123451952Y-68540285D01*
X123499571Y-68587904D01*
X123547190Y-68683142D01*
X123547190Y-69064095D01*
X123023381Y-68159333D02*
X123023381Y-67540285D01*
X123404333Y-67873619D01*
X123404333Y-67730761D01*
X123451952Y-67635523D01*
X123499571Y-67587904D01*
X123594810Y-67540285D01*
X123832905Y-67540285D01*
X123928143Y-67587904D01*
X123975762Y-67635523D01*
X124023381Y-67730761D01*
X124023381Y-68016476D01*
X123975762Y-68111714D01*
X123928143Y-68159333D01*
X119197381Y-68365666D02*
X118721190Y-68699000D01*
X119197381Y-68937095D02*
X118197381Y-68937095D01*
X118197381Y-68556142D01*
X118245000Y-68460904D01*
X118292619Y-68413285D01*
X118387857Y-68365666D01*
X118530714Y-68365666D01*
X118625952Y-68413285D01*
X118673571Y-68460904D01*
X118721190Y-68556142D01*
X118721190Y-68937095D01*
X118530714Y-67508523D02*
X119197381Y-67508523D01*
X118149762Y-67746619D02*
X118864048Y-67984714D01*
X118864048Y-67365666D01*
X114371381Y-68492666D02*
X113895190Y-68826000D01*
X114371381Y-69064095D02*
X113371381Y-69064095D01*
X113371381Y-68683142D01*
X113419000Y-68587904D01*
X113466619Y-68540285D01*
X113561857Y-68492666D01*
X113704714Y-68492666D01*
X113799952Y-68540285D01*
X113847571Y-68587904D01*
X113895190Y-68683142D01*
X113895190Y-69064095D01*
X113371381Y-67587904D02*
X113371381Y-68064095D01*
X113847571Y-68111714D01*
X113799952Y-68064095D01*
X113752333Y-67968857D01*
X113752333Y-67730761D01*
X113799952Y-67635523D01*
X113847571Y-67587904D01*
X113942810Y-67540285D01*
X114180905Y-67540285D01*
X114276143Y-67587904D01*
X114323762Y-67635523D01*
X114371381Y-67730761D01*
X114371381Y-67968857D01*
X114323762Y-68064095D01*
X114276143Y-68111714D01*
X124674381Y-88391905D02*
X125483905Y-88391905D01*
X125579143Y-88344286D01*
X125626762Y-88296667D01*
X125674381Y-88201429D01*
X125674381Y-88010952D01*
X125626762Y-87915714D01*
X125579143Y-87868095D01*
X125483905Y-87820476D01*
X124674381Y-87820476D01*
X124769619Y-87391905D02*
X124722000Y-87344286D01*
X124674381Y-87249048D01*
X124674381Y-87010952D01*
X124722000Y-86915714D01*
X124769619Y-86868095D01*
X124864857Y-86820476D01*
X124960095Y-86820476D01*
X125102952Y-86868095D01*
X125674381Y-87439524D01*
X125674381Y-86820476D01*
X155535334Y-85090143D02*
X155487715Y-85137762D01*
X155344858Y-85185381D01*
X155249620Y-85185381D01*
X155106762Y-85137762D01*
X155011524Y-85042524D01*
X154963905Y-84947286D01*
X154916286Y-84756810D01*
X154916286Y-84613952D01*
X154963905Y-84423476D01*
X155011524Y-84328238D01*
X155106762Y-84233000D01*
X155249620Y-84185381D01*
X155344858Y-84185381D01*
X155487715Y-84233000D01*
X155535334Y-84280619D01*
X156440096Y-84185381D02*
X155963905Y-84185381D01*
X155916286Y-84661571D01*
X155963905Y-84613952D01*
X156059143Y-84566333D01*
X156297239Y-84566333D01*
X156392477Y-84613952D01*
X156440096Y-84661571D01*
X156487715Y-84756810D01*
X156487715Y-84994905D01*
X156440096Y-85090143D01*
X156392477Y-85137762D01*
X156297239Y-85185381D01*
X156059143Y-85185381D01*
X155963905Y-85137762D01*
X155916286Y-85090143D01*
X160615334Y-85090143D02*
X160567715Y-85137762D01*
X160424858Y-85185381D01*
X160329620Y-85185381D01*
X160186762Y-85137762D01*
X160091524Y-85042524D01*
X160043905Y-84947286D01*
X159996286Y-84756810D01*
X159996286Y-84613952D01*
X160043905Y-84423476D01*
X160091524Y-84328238D01*
X160186762Y-84233000D01*
X160329620Y-84185381D01*
X160424858Y-84185381D01*
X160567715Y-84233000D01*
X160615334Y-84280619D01*
X160948667Y-84185381D02*
X161615334Y-84185381D01*
X161186762Y-85185381D01*
X165822334Y-85090143D02*
X165774715Y-85137762D01*
X165631858Y-85185381D01*
X165536620Y-85185381D01*
X165393762Y-85137762D01*
X165298524Y-85042524D01*
X165250905Y-84947286D01*
X165203286Y-84756810D01*
X165203286Y-84613952D01*
X165250905Y-84423476D01*
X165298524Y-84328238D01*
X165393762Y-84233000D01*
X165536620Y-84185381D01*
X165631858Y-84185381D01*
X165774715Y-84233000D01*
X165822334Y-84280619D01*
X166298524Y-85185381D02*
X166489000Y-85185381D01*
X166584239Y-85137762D01*
X166631858Y-85090143D01*
X166727096Y-84947286D01*
X166774715Y-84756810D01*
X166774715Y-84375857D01*
X166727096Y-84280619D01*
X166679477Y-84233000D01*
X166584239Y-84185381D01*
X166393762Y-84185381D01*
X166298524Y-84233000D01*
X166250905Y-84280619D01*
X166203286Y-84375857D01*
X166203286Y-84613952D01*
X166250905Y-84709190D01*
X166298524Y-84756810D01*
X166393762Y-84804429D01*
X166584239Y-84804429D01*
X166679477Y-84756810D01*
X166727096Y-84709190D01*
X166774715Y-84613952D01*
X148662381Y-89193666D02*
X148186190Y-89527000D01*
X148662381Y-89765095D02*
X147662381Y-89765095D01*
X147662381Y-89384142D01*
X147710000Y-89288904D01*
X147757619Y-89241285D01*
X147852857Y-89193666D01*
X147995714Y-89193666D01*
X148090952Y-89241285D01*
X148138571Y-89288904D01*
X148186190Y-89384142D01*
X148186190Y-89765095D01*
X147662381Y-88336523D02*
X147662381Y-88527000D01*
X147710000Y-88622238D01*
X147757619Y-88669857D01*
X147900476Y-88765095D01*
X148090952Y-88812714D01*
X148471905Y-88812714D01*
X148567143Y-88765095D01*
X148614762Y-88717476D01*
X148662381Y-88622238D01*
X148662381Y-88431761D01*
X148614762Y-88336523D01*
X148567143Y-88288904D01*
X148471905Y-88241285D01*
X148233810Y-88241285D01*
X148138571Y-88288904D01*
X148090952Y-88336523D01*
X148043333Y-88431761D01*
X148043333Y-88622238D01*
X148090952Y-88717476D01*
X148138571Y-88765095D01*
X148233810Y-88812714D01*
X150693381Y-102147666D02*
X150217190Y-102481000D01*
X150693381Y-102719095D02*
X149693381Y-102719095D01*
X149693381Y-102338142D01*
X149741000Y-102242904D01*
X149788619Y-102195285D01*
X149883857Y-102147666D01*
X150026714Y-102147666D01*
X150121952Y-102195285D01*
X150169571Y-102242904D01*
X150217190Y-102338142D01*
X150217190Y-102719095D01*
X149693381Y-101814333D02*
X149693381Y-101147666D01*
X150693381Y-101576238D01*
X160615334Y-81351381D02*
X160282000Y-80875190D01*
X160043905Y-81351381D02*
X160043905Y-80351381D01*
X160424858Y-80351381D01*
X160520096Y-80399000D01*
X160567715Y-80446619D01*
X160615334Y-80541857D01*
X160615334Y-80684714D01*
X160567715Y-80779952D01*
X160520096Y-80827571D01*
X160424858Y-80875190D01*
X160043905Y-80875190D01*
X161186762Y-80779952D02*
X161091524Y-80732333D01*
X161043905Y-80684714D01*
X160996286Y-80589476D01*
X160996286Y-80541857D01*
X161043905Y-80446619D01*
X161091524Y-80399000D01*
X161186762Y-80351381D01*
X161377239Y-80351381D01*
X161472477Y-80399000D01*
X161520096Y-80446619D01*
X161567715Y-80541857D01*
X161567715Y-80589476D01*
X161520096Y-80684714D01*
X161472477Y-80732333D01*
X161377239Y-80779952D01*
X161186762Y-80779952D01*
X161091524Y-80827571D01*
X161043905Y-80875190D01*
X160996286Y-80970429D01*
X160996286Y-81160905D01*
X161043905Y-81256143D01*
X161091524Y-81303762D01*
X161186762Y-81351381D01*
X161377239Y-81351381D01*
X161472477Y-81303762D01*
X161520096Y-81256143D01*
X161567715Y-81160905D01*
X161567715Y-80970429D01*
X161520096Y-80875190D01*
X161472477Y-80827571D01*
X161377239Y-80779952D01*
X161869381Y-102147666D02*
X161393190Y-102481000D01*
X161869381Y-102719095D02*
X160869381Y-102719095D01*
X160869381Y-102338142D01*
X160917000Y-102242904D01*
X160964619Y-102195285D01*
X161059857Y-102147666D01*
X161202714Y-102147666D01*
X161297952Y-102195285D01*
X161345571Y-102242904D01*
X161393190Y-102338142D01*
X161393190Y-102719095D01*
X161869381Y-101671476D02*
X161869381Y-101481000D01*
X161821762Y-101385761D01*
X161774143Y-101338142D01*
X161631286Y-101242904D01*
X161440810Y-101195285D01*
X161059857Y-101195285D01*
X160964619Y-101242904D01*
X160917000Y-101290523D01*
X160869381Y-101385761D01*
X160869381Y-101576238D01*
X160917000Y-101671476D01*
X160964619Y-101719095D01*
X161059857Y-101766714D01*
X161297952Y-101766714D01*
X161393190Y-101719095D01*
X161440810Y-101671476D01*
X161488429Y-101576238D01*
X161488429Y-101385761D01*
X161440810Y-101290523D01*
X161393190Y-101242904D01*
X161297952Y-101195285D01*
X165092143Y-81352381D02*
X164758809Y-80876190D01*
X164520714Y-81352381D02*
X164520714Y-80352381D01*
X164901667Y-80352381D01*
X164996905Y-80400000D01*
X165044524Y-80447619D01*
X165092143Y-80542857D01*
X165092143Y-80685714D01*
X165044524Y-80780952D01*
X164996905Y-80828571D01*
X164901667Y-80876190D01*
X164520714Y-80876190D01*
X166044524Y-81352381D02*
X165473095Y-81352381D01*
X165758809Y-81352381D02*
X165758809Y-80352381D01*
X165663571Y-80495238D01*
X165568333Y-80590476D01*
X165473095Y-80638095D01*
X166663571Y-80352381D02*
X166758810Y-80352381D01*
X166854048Y-80400000D01*
X166901667Y-80447619D01*
X166949286Y-80542857D01*
X166996905Y-80733333D01*
X166996905Y-80971429D01*
X166949286Y-81161905D01*
X166901667Y-81257143D01*
X166854048Y-81304762D01*
X166758810Y-81352381D01*
X166663571Y-81352381D01*
X166568333Y-81304762D01*
X166520714Y-81257143D01*
X166473095Y-81161905D01*
X166425476Y-80971429D01*
X166425476Y-80733333D01*
X166473095Y-80542857D01*
X166520714Y-80447619D01*
X166568333Y-80400000D01*
X166663571Y-80352381D01*
X174442381Y-101099857D02*
X173966190Y-101433191D01*
X174442381Y-101671286D02*
X173442381Y-101671286D01*
X173442381Y-101290333D01*
X173490000Y-101195095D01*
X173537619Y-101147476D01*
X173632857Y-101099857D01*
X173775714Y-101099857D01*
X173870952Y-101147476D01*
X173918571Y-101195095D01*
X173966190Y-101290333D01*
X173966190Y-101671286D01*
X174442381Y-100147476D02*
X174442381Y-100718905D01*
X174442381Y-100433191D02*
X173442381Y-100433191D01*
X173585238Y-100528429D01*
X173680476Y-100623667D01*
X173728095Y-100718905D01*
X174442381Y-99195095D02*
X174442381Y-99766524D01*
X174442381Y-99480810D02*
X173442381Y-99480810D01*
X173585238Y-99576048D01*
X173680476Y-99671286D01*
X173728095Y-99766524D01*
X111434667Y-77728381D02*
X111434667Y-78442667D01*
X111387047Y-78585524D01*
X111291809Y-78680762D01*
X111148952Y-78728381D01*
X111053714Y-78728381D01*
X111910857Y-78728381D02*
X111910857Y-77728381D01*
X112291810Y-77728381D01*
X112387048Y-77776000D01*
X112434667Y-77823619D01*
X112482286Y-77918857D01*
X112482286Y-78061714D01*
X112434667Y-78156952D01*
X112387048Y-78204571D01*
X112291810Y-78252190D01*
X111910857Y-78252190D01*
X113434667Y-78728381D02*
X112863238Y-78728381D01*
X113148952Y-78728381D02*
X113148952Y-77728381D01*
X113053714Y-77871238D01*
X112958476Y-77966476D01*
X112863238Y-78014095D01*
X116260667Y-77728381D02*
X116260667Y-78442667D01*
X116213047Y-78585524D01*
X116117809Y-78680762D01*
X115974952Y-78728381D01*
X115879714Y-78728381D01*
X116736857Y-78728381D02*
X116736857Y-77728381D01*
X117117810Y-77728381D01*
X117213048Y-77776000D01*
X117260667Y-77823619D01*
X117308286Y-77918857D01*
X117308286Y-78061714D01*
X117260667Y-78156952D01*
X117213048Y-78204571D01*
X117117810Y-78252190D01*
X116736857Y-78252190D01*
X117689238Y-77823619D02*
X117736857Y-77776000D01*
X117832095Y-77728381D01*
X118070191Y-77728381D01*
X118165429Y-77776000D01*
X118213048Y-77823619D01*
X118260667Y-77918857D01*
X118260667Y-78014095D01*
X118213048Y-78156952D01*
X117641619Y-78728381D01*
X118260667Y-78728381D01*
X121086667Y-77728381D02*
X121086667Y-78442667D01*
X121039047Y-78585524D01*
X120943809Y-78680762D01*
X120800952Y-78728381D01*
X120705714Y-78728381D01*
X121562857Y-78728381D02*
X121562857Y-77728381D01*
X121943810Y-77728381D01*
X122039048Y-77776000D01*
X122086667Y-77823619D01*
X122134286Y-77918857D01*
X122134286Y-78061714D01*
X122086667Y-78156952D01*
X122039048Y-78204571D01*
X121943810Y-78252190D01*
X121562857Y-78252190D01*
X122467619Y-77728381D02*
X123086667Y-77728381D01*
X122753333Y-78109333D01*
X122896191Y-78109333D01*
X122991429Y-78156952D01*
X123039048Y-78204571D01*
X123086667Y-78299810D01*
X123086667Y-78537905D01*
X123039048Y-78633143D01*
X122991429Y-78680762D01*
X122896191Y-78728381D01*
X122610476Y-78728381D01*
X122515238Y-78680762D01*
X122467619Y-78633143D01*
X126166667Y-77728381D02*
X126166667Y-78442667D01*
X126119047Y-78585524D01*
X126023809Y-78680762D01*
X125880952Y-78728381D01*
X125785714Y-78728381D01*
X126642857Y-78728381D02*
X126642857Y-77728381D01*
X127023810Y-77728381D01*
X127119048Y-77776000D01*
X127166667Y-77823619D01*
X127214286Y-77918857D01*
X127214286Y-78061714D01*
X127166667Y-78156952D01*
X127119048Y-78204571D01*
X127023810Y-78252190D01*
X126642857Y-78252190D01*
X128071429Y-78061714D02*
X128071429Y-78728381D01*
X127833333Y-77680762D02*
X127595238Y-78395048D01*
X128214286Y-78395048D01*
X131786381Y-88391905D02*
X132595905Y-88391905D01*
X132691143Y-88344286D01*
X132738762Y-88296667D01*
X132786381Y-88201429D01*
X132786381Y-88010952D01*
X132738762Y-87915714D01*
X132691143Y-87868095D01*
X132595905Y-87820476D01*
X131786381Y-87820476D01*
X131786381Y-86915714D02*
X131786381Y-87106191D01*
X131834000Y-87201429D01*
X131881619Y-87249048D01*
X132024476Y-87344286D01*
X132214952Y-87391905D01*
X132595905Y-87391905D01*
X132691143Y-87344286D01*
X132738762Y-87296667D01*
X132786381Y-87201429D01*
X132786381Y-87010952D01*
X132738762Y-86915714D01*
X132691143Y-86868095D01*
X132595905Y-86820476D01*
X132357810Y-86820476D01*
X132262571Y-86868095D01*
X132214952Y-86915714D01*
X132167333Y-87010952D01*
X132167333Y-87201429D01*
X132214952Y-87296667D01*
X132262571Y-87344286D01*
X132357810Y-87391905D01*
X140914381Y-70619857D02*
X140438190Y-70953191D01*
X140914381Y-71191286D02*
X139914381Y-71191286D01*
X139914381Y-70810333D01*
X139962000Y-70715095D01*
X140009619Y-70667476D01*
X140104857Y-70619857D01*
X140247714Y-70619857D01*
X140342952Y-70667476D01*
X140390571Y-70715095D01*
X140438190Y-70810333D01*
X140438190Y-71191286D01*
X140914381Y-69667476D02*
X140914381Y-70238905D01*
X140914381Y-69953191D02*
X139914381Y-69953191D01*
X140057238Y-70048429D01*
X140152476Y-70143667D01*
X140200095Y-70238905D01*
X140009619Y-69286524D02*
X139962000Y-69238905D01*
X139914381Y-69143667D01*
X139914381Y-68905571D01*
X139962000Y-68810333D01*
X140009619Y-68762714D01*
X140104857Y-68715095D01*
X140200095Y-68715095D01*
X140342952Y-68762714D01*
X140914381Y-69334143D01*
X140914381Y-68715095D01*
X145851667Y-67143381D02*
X145851667Y-67857667D01*
X145804047Y-68000524D01*
X145708809Y-68095762D01*
X145565952Y-68143381D01*
X145470714Y-68143381D01*
X146327857Y-68143381D02*
X146327857Y-67143381D01*
X146708810Y-67143381D01*
X146804048Y-67191000D01*
X146851667Y-67238619D01*
X146899286Y-67333857D01*
X146899286Y-67476714D01*
X146851667Y-67571952D01*
X146804048Y-67619571D01*
X146708810Y-67667190D01*
X146327857Y-67667190D01*
X147804048Y-67143381D02*
X147327857Y-67143381D01*
X147280238Y-67619571D01*
X147327857Y-67571952D01*
X147423095Y-67524333D01*
X147661191Y-67524333D01*
X147756429Y-67571952D01*
X147804048Y-67619571D01*
X147851667Y-67714810D01*
X147851667Y-67952905D01*
X147804048Y-68048143D01*
X147756429Y-68095762D01*
X147661191Y-68143381D01*
X147423095Y-68143381D01*
X147327857Y-68095762D01*
X147280238Y-68048143D01*
X113365114Y-63647581D02*
X113365114Y-62647581D01*
X113746067Y-62647581D01*
X113841305Y-62695200D01*
X113888924Y-62742819D01*
X113936543Y-62838057D01*
X113936543Y-62980914D01*
X113888924Y-63076152D01*
X113841305Y-63123771D01*
X113746067Y-63171390D01*
X113365114Y-63171390D01*
X114888924Y-63647581D02*
X114317495Y-63647581D01*
X114603209Y-63647581D02*
X114603209Y-62647581D01*
X114507971Y-62790438D01*
X114412733Y-62885676D01*
X114317495Y-62933295D01*
X115269876Y-62742819D02*
X115317495Y-62695200D01*
X115412733Y-62647581D01*
X115650829Y-62647581D01*
X115746067Y-62695200D01*
X115793686Y-62742819D01*
X115841305Y-62838057D01*
X115841305Y-62933295D01*
X115793686Y-63076152D01*
X115222257Y-63647581D01*
X115841305Y-63647581D01*
X123525114Y-63647581D02*
X123525114Y-62647581D01*
X123906067Y-62647581D01*
X124001305Y-62695200D01*
X124048924Y-62742819D01*
X124096543Y-62838057D01*
X124096543Y-62980914D01*
X124048924Y-63076152D01*
X124001305Y-63123771D01*
X123906067Y-63171390D01*
X123525114Y-63171390D01*
X125048924Y-63647581D02*
X124477495Y-63647581D01*
X124763209Y-63647581D02*
X124763209Y-62647581D01*
X124667971Y-62790438D01*
X124572733Y-62885676D01*
X124477495Y-62933295D01*
X126001305Y-63647581D02*
X125429876Y-63647581D01*
X125715590Y-63647581D02*
X125715590Y-62647581D01*
X125620352Y-62790438D01*
X125525114Y-62885676D01*
X125429876Y-62933295D01*
X133685114Y-63647581D02*
X133685114Y-62647581D01*
X134066067Y-62647581D01*
X134161305Y-62695200D01*
X134208924Y-62742819D01*
X134256543Y-62838057D01*
X134256543Y-62980914D01*
X134208924Y-63076152D01*
X134161305Y-63123771D01*
X134066067Y-63171390D01*
X133685114Y-63171390D01*
X135208924Y-63647581D02*
X134637495Y-63647581D01*
X134923209Y-63647581D02*
X134923209Y-62647581D01*
X134827971Y-62790438D01*
X134732733Y-62885676D01*
X134637495Y-62933295D01*
X135827971Y-62647581D02*
X135923210Y-62647581D01*
X136018448Y-62695200D01*
X136066067Y-62742819D01*
X136113686Y-62838057D01*
X136161305Y-63028533D01*
X136161305Y-63266629D01*
X136113686Y-63457105D01*
X136066067Y-63552343D01*
X136018448Y-63599962D01*
X135923210Y-63647581D01*
X135827971Y-63647581D01*
X135732733Y-63599962D01*
X135685114Y-63552343D01*
X135637495Y-63457105D01*
X135589876Y-63266629D01*
X135589876Y-63028533D01*
X135637495Y-62838057D01*
X135685114Y-62742819D01*
X135732733Y-62695200D01*
X135827971Y-62647581D01*
X154481305Y-63647581D02*
X154481305Y-62647581D01*
X154862258Y-62647581D01*
X154957496Y-62695200D01*
X155005115Y-62742819D01*
X155052734Y-62838057D01*
X155052734Y-62980914D01*
X155005115Y-63076152D01*
X154957496Y-63123771D01*
X154862258Y-63171390D01*
X154481305Y-63171390D01*
X155624162Y-63076152D02*
X155528924Y-63028533D01*
X155481305Y-62980914D01*
X155433686Y-62885676D01*
X155433686Y-62838057D01*
X155481305Y-62742819D01*
X155528924Y-62695200D01*
X155624162Y-62647581D01*
X155814639Y-62647581D01*
X155909877Y-62695200D01*
X155957496Y-62742819D01*
X156005115Y-62838057D01*
X156005115Y-62885676D01*
X155957496Y-62980914D01*
X155909877Y-63028533D01*
X155814639Y-63076152D01*
X155624162Y-63076152D01*
X155528924Y-63123771D01*
X155481305Y-63171390D01*
X155433686Y-63266629D01*
X155433686Y-63457105D01*
X155481305Y-63552343D01*
X155528924Y-63599962D01*
X155624162Y-63647581D01*
X155814639Y-63647581D01*
X155909877Y-63599962D01*
X155957496Y-63552343D01*
X156005115Y-63457105D01*
X156005115Y-63266629D01*
X155957496Y-63171390D01*
X155909877Y-63123771D01*
X155814639Y-63076152D01*
X164641305Y-63647581D02*
X164641305Y-62647581D01*
X165022258Y-62647581D01*
X165117496Y-62695200D01*
X165165115Y-62742819D01*
X165212734Y-62838057D01*
X165212734Y-62980914D01*
X165165115Y-63076152D01*
X165117496Y-63123771D01*
X165022258Y-63171390D01*
X164641305Y-63171390D01*
X165546067Y-62647581D02*
X166212734Y-62647581D01*
X165784162Y-63647581D01*
X174801305Y-63647581D02*
X174801305Y-62647581D01*
X175182258Y-62647581D01*
X175277496Y-62695200D01*
X175325115Y-62742819D01*
X175372734Y-62838057D01*
X175372734Y-62980914D01*
X175325115Y-63076152D01*
X175277496Y-63123771D01*
X175182258Y-63171390D01*
X174801305Y-63171390D01*
X176229877Y-62647581D02*
X176039400Y-62647581D01*
X175944162Y-62695200D01*
X175896543Y-62742819D01*
X175801305Y-62885676D01*
X175753686Y-63076152D01*
X175753686Y-63457105D01*
X175801305Y-63552343D01*
X175848924Y-63599962D01*
X175944162Y-63647581D01*
X176134639Y-63647581D01*
X176229877Y-63599962D01*
X176277496Y-63552343D01*
X176325115Y-63457105D01*
X176325115Y-63219010D01*
X176277496Y-63123771D01*
X176229877Y-63076152D01*
X176134639Y-63028533D01*
X175944162Y-63028533D01*
X175848924Y-63076152D01*
X175801305Y-63123771D01*
X175753686Y-63219010D01*
X91775114Y-63647581D02*
X91775114Y-62647581D01*
X92156067Y-62647581D01*
X92251305Y-62695200D01*
X92298924Y-62742819D01*
X92346543Y-62838057D01*
X92346543Y-62980914D01*
X92298924Y-63076152D01*
X92251305Y-63123771D01*
X92156067Y-63171390D01*
X91775114Y-63171390D01*
X93298924Y-63647581D02*
X92727495Y-63647581D01*
X93013209Y-63647581D02*
X93013209Y-62647581D01*
X92917971Y-62790438D01*
X92822733Y-62885676D01*
X92727495Y-62933295D01*
X93632257Y-62647581D02*
X94251305Y-62647581D01*
X93917971Y-63028533D01*
X94060829Y-63028533D01*
X94156067Y-63076152D01*
X94203686Y-63123771D01*
X94251305Y-63219010D01*
X94251305Y-63457105D01*
X94203686Y-63552343D01*
X94156067Y-63599962D01*
X94060829Y-63647581D01*
X93775114Y-63647581D01*
X93679876Y-63599962D01*
X93632257Y-63552343D01*
X144321305Y-63647581D02*
X144321305Y-62647581D01*
X144702258Y-62647581D01*
X144797496Y-62695200D01*
X144845115Y-62742819D01*
X144892734Y-62838057D01*
X144892734Y-62980914D01*
X144845115Y-63076152D01*
X144797496Y-63123771D01*
X144702258Y-63171390D01*
X144321305Y-63171390D01*
X145368924Y-63647581D02*
X145559400Y-63647581D01*
X145654639Y-63599962D01*
X145702258Y-63552343D01*
X145797496Y-63409486D01*
X145845115Y-63219010D01*
X145845115Y-62838057D01*
X145797496Y-62742819D01*
X145749877Y-62695200D01*
X145654639Y-62647581D01*
X145464162Y-62647581D01*
X145368924Y-62695200D01*
X145321305Y-62742819D01*
X145273686Y-62838057D01*
X145273686Y-63076152D01*
X145321305Y-63171390D01*
X145368924Y-63219010D01*
X145464162Y-63266629D01*
X145654639Y-63266629D01*
X145749877Y-63219010D01*
X145797496Y-63171390D01*
X145845115Y-63076152D01*
D16*
X169916190Y-80859262D02*
X169916190Y-79384262D01*
X170407857Y-79384262D02*
X171250714Y-79384262D01*
X170829286Y-80859262D02*
X170829286Y-79384262D01*
X172023334Y-79384262D02*
X172163810Y-79384262D01*
X172304286Y-79454500D01*
X172374524Y-79524738D01*
X172444762Y-79665214D01*
X172515001Y-79946167D01*
X172515001Y-80297357D01*
X172444762Y-80578310D01*
X172374524Y-80718786D01*
X172304286Y-80789024D01*
X172163810Y-80859262D01*
X172023334Y-80859262D01*
X171882858Y-80789024D01*
X171812620Y-80718786D01*
X171742381Y-80578310D01*
X171672143Y-80297357D01*
X171672143Y-79946167D01*
X171742381Y-79665214D01*
X171812620Y-79524738D01*
X171882858Y-79454500D01*
X172023334Y-79384262D01*
X173428096Y-79384262D02*
X173568572Y-79384262D01*
X173709048Y-79454500D01*
X173779286Y-79524738D01*
X173849524Y-79665214D01*
X173919763Y-79946167D01*
X173919763Y-80297357D01*
X173849524Y-80578310D01*
X173779286Y-80718786D01*
X173709048Y-80789024D01*
X173568572Y-80859262D01*
X173428096Y-80859262D01*
X173287620Y-80789024D01*
X173217382Y-80718786D01*
X173147143Y-80578310D01*
X173076905Y-80297357D01*
X173076905Y-79946167D01*
X173147143Y-79665214D01*
X173217382Y-79524738D01*
X173287620Y-79454500D01*
X173428096Y-79384262D01*
X174832858Y-79384262D02*
X174973334Y-79384262D01*
X175113810Y-79454500D01*
X175184048Y-79524738D01*
X175254286Y-79665214D01*
X175324525Y-79946167D01*
X175324525Y-80297357D01*
X175254286Y-80578310D01*
X175184048Y-80718786D01*
X175113810Y-80789024D01*
X174973334Y-80859262D01*
X174832858Y-80859262D01*
X174692382Y-80789024D01*
X174622144Y-80718786D01*
X174551905Y-80578310D01*
X174481667Y-80297357D01*
X174481667Y-79946167D01*
X174551905Y-79665214D01*
X174622144Y-79524738D01*
X174692382Y-79454500D01*
X174832858Y-79384262D01*
X176237620Y-79384262D02*
X176378096Y-79384262D01*
X176518572Y-79454500D01*
X176588810Y-79524738D01*
X176659048Y-79665214D01*
X176729287Y-79946167D01*
X176729287Y-80297357D01*
X176659048Y-80578310D01*
X176588810Y-80718786D01*
X176518572Y-80789024D01*
X176378096Y-80859262D01*
X176237620Y-80859262D01*
X176097144Y-80789024D01*
X176026906Y-80718786D01*
X175956667Y-80578310D01*
X175886429Y-80297357D01*
X175886429Y-79946167D01*
X175956667Y-79665214D01*
X176026906Y-79524738D01*
X176097144Y-79454500D01*
X176237620Y-79384262D01*
X177291191Y-79524738D02*
X177361429Y-79454500D01*
X177501906Y-79384262D01*
X177853096Y-79384262D01*
X177993572Y-79454500D01*
X178063810Y-79524738D01*
X178134049Y-79665214D01*
X178134049Y-79805690D01*
X178063810Y-80016405D01*
X177220953Y-80859262D01*
X178134049Y-80859262D01*
D13*
X111148905Y-123769381D02*
X111148905Y-122769381D01*
X111529858Y-122769381D01*
X111625096Y-122817000D01*
X111672715Y-122864619D01*
X111720334Y-122959857D01*
X111720334Y-123102714D01*
X111672715Y-123197952D01*
X111625096Y-123245571D01*
X111529858Y-123293190D01*
X111148905Y-123293190D01*
X112672715Y-123769381D02*
X112101286Y-123769381D01*
X112387000Y-123769381D02*
X112387000Y-122769381D01*
X112291762Y-122912238D01*
X112196524Y-123007476D01*
X112101286Y-123055095D01*
X121308905Y-123769381D02*
X121308905Y-122769381D01*
X121689858Y-122769381D01*
X121785096Y-122817000D01*
X121832715Y-122864619D01*
X121880334Y-122959857D01*
X121880334Y-123102714D01*
X121832715Y-123197952D01*
X121785096Y-123245571D01*
X121689858Y-123293190D01*
X121308905Y-123293190D01*
X122261286Y-122864619D02*
X122308905Y-122817000D01*
X122404143Y-122769381D01*
X122642239Y-122769381D01*
X122737477Y-122817000D01*
X122785096Y-122864619D01*
X122832715Y-122959857D01*
X122832715Y-123055095D01*
X122785096Y-123197952D01*
X122213667Y-123769381D01*
X122832715Y-123769381D01*
X141628905Y-123769381D02*
X141628905Y-122769381D01*
X142009858Y-122769381D01*
X142105096Y-122817000D01*
X142152715Y-122864619D01*
X142200334Y-122959857D01*
X142200334Y-123102714D01*
X142152715Y-123197952D01*
X142105096Y-123245571D01*
X142009858Y-123293190D01*
X141628905Y-123293190D01*
X142533667Y-122769381D02*
X143152715Y-122769381D01*
X142819381Y-123150333D01*
X142962239Y-123150333D01*
X143057477Y-123197952D01*
X143105096Y-123245571D01*
X143152715Y-123340810D01*
X143152715Y-123578905D01*
X143105096Y-123674143D01*
X143057477Y-123721762D01*
X142962239Y-123769381D01*
X142676524Y-123769381D01*
X142581286Y-123721762D01*
X142533667Y-123674143D01*
X151788905Y-123769381D02*
X151788905Y-122769381D01*
X152169858Y-122769381D01*
X152265096Y-122817000D01*
X152312715Y-122864619D01*
X152360334Y-122959857D01*
X152360334Y-123102714D01*
X152312715Y-123197952D01*
X152265096Y-123245571D01*
X152169858Y-123293190D01*
X151788905Y-123293190D01*
X153217477Y-123102714D02*
X153217477Y-123769381D01*
X152979381Y-122721762D02*
X152741286Y-123436048D01*
X153360334Y-123436048D01*
X161948905Y-123769381D02*
X161948905Y-122769381D01*
X162329858Y-122769381D01*
X162425096Y-122817000D01*
X162472715Y-122864619D01*
X162520334Y-122959857D01*
X162520334Y-123102714D01*
X162472715Y-123197952D01*
X162425096Y-123245571D01*
X162329858Y-123293190D01*
X161948905Y-123293190D01*
X163425096Y-122769381D02*
X162948905Y-122769381D01*
X162901286Y-123245571D01*
X162948905Y-123197952D01*
X163044143Y-123150333D01*
X163282239Y-123150333D01*
X163377477Y-123197952D01*
X163425096Y-123245571D01*
X163472715Y-123340810D01*
X163472715Y-123578905D01*
X163425096Y-123674143D01*
X163377477Y-123721762D01*
X163282239Y-123769381D01*
X163044143Y-123769381D01*
X162948905Y-123721762D01*
X162901286Y-123674143D01*
X154813095Y-87844381D02*
X154813095Y-88653905D01*
X154860714Y-88749143D01*
X154908333Y-88796762D01*
X155003571Y-88844381D01*
X155194048Y-88844381D01*
X155289286Y-88796762D01*
X155336905Y-88749143D01*
X155384524Y-88653905D01*
X155384524Y-87844381D01*
X155765476Y-87844381D02*
X156384524Y-87844381D01*
X156051190Y-88225333D01*
X156194048Y-88225333D01*
X156289286Y-88272952D01*
X156336905Y-88320571D01*
X156384524Y-88415810D01*
X156384524Y-88653905D01*
X156336905Y-88749143D01*
X156289286Y-88796762D01*
X156194048Y-88844381D01*
X155908333Y-88844381D01*
X155813095Y-88796762D01*
X155765476Y-88749143D01*
X159766095Y-87844381D02*
X159766095Y-88653905D01*
X159813714Y-88749143D01*
X159861333Y-88796762D01*
X159956571Y-88844381D01*
X160147048Y-88844381D01*
X160242286Y-88796762D01*
X160289905Y-88749143D01*
X160337524Y-88653905D01*
X160337524Y-87844381D01*
X161242286Y-88177714D02*
X161242286Y-88844381D01*
X161004190Y-87796762D02*
X160766095Y-88511048D01*
X161385143Y-88511048D01*
X164846095Y-87844381D02*
X164846095Y-88653905D01*
X164893714Y-88749143D01*
X164941333Y-88796762D01*
X165036571Y-88844381D01*
X165227048Y-88844381D01*
X165322286Y-88796762D01*
X165369905Y-88749143D01*
X165417524Y-88653905D01*
X165417524Y-87844381D01*
X166369905Y-87844381D02*
X165893714Y-87844381D01*
X165846095Y-88320571D01*
X165893714Y-88272952D01*
X165988952Y-88225333D01*
X166227048Y-88225333D01*
X166322286Y-88272952D01*
X166369905Y-88320571D01*
X166417524Y-88415810D01*
X166417524Y-88653905D01*
X166369905Y-88749143D01*
X166322286Y-88796762D01*
X166227048Y-88844381D01*
X165988952Y-88844381D01*
X165893714Y-88796762D01*
X165846095Y-88749143D01*
X157075143Y-103163666D02*
X157122762Y-103211285D01*
X157170381Y-103354142D01*
X157170381Y-103449380D01*
X157122762Y-103592238D01*
X157027524Y-103687476D01*
X156932286Y-103735095D01*
X156741810Y-103782714D01*
X156598952Y-103782714D01*
X156408476Y-103735095D01*
X156313238Y-103687476D01*
X156218000Y-103592238D01*
X156170381Y-103449380D01*
X156170381Y-103354142D01*
X156218000Y-103211285D01*
X156265619Y-103163666D01*
X156503714Y-102306523D02*
X157170381Y-102306523D01*
X156122762Y-102544619D02*
X156837048Y-102782714D01*
X156837048Y-102163666D01*
X168251143Y-103417666D02*
X168298762Y-103465285D01*
X168346381Y-103608142D01*
X168346381Y-103703380D01*
X168298762Y-103846238D01*
X168203524Y-103941476D01*
X168108286Y-103989095D01*
X167917810Y-104036714D01*
X167774952Y-104036714D01*
X167584476Y-103989095D01*
X167489238Y-103941476D01*
X167394000Y-103846238D01*
X167346381Y-103703380D01*
X167346381Y-103608142D01*
X167394000Y-103465285D01*
X167441619Y-103417666D01*
X167346381Y-102560523D02*
X167346381Y-102751000D01*
X167394000Y-102846238D01*
X167441619Y-102893857D01*
X167584476Y-102989095D01*
X167774952Y-103036714D01*
X168155905Y-103036714D01*
X168251143Y-102989095D01*
X168298762Y-102941476D01*
X168346381Y-102846238D01*
X168346381Y-102655761D01*
X168298762Y-102560523D01*
X168251143Y-102512904D01*
X168155905Y-102465285D01*
X167917810Y-102465285D01*
X167822571Y-102512904D01*
X167774952Y-102560523D01*
X167727333Y-102655761D01*
X167727333Y-102846238D01*
X167774952Y-102941476D01*
X167822571Y-102989095D01*
X167917810Y-103036714D01*
X179681143Y-101512666D02*
X179728762Y-101560285D01*
X179776381Y-101703142D01*
X179776381Y-101798380D01*
X179728762Y-101941238D01*
X179633524Y-102036476D01*
X179538286Y-102084095D01*
X179347810Y-102131714D01*
X179204952Y-102131714D01*
X179014476Y-102084095D01*
X178919238Y-102036476D01*
X178824000Y-101941238D01*
X178776381Y-101798380D01*
X178776381Y-101703142D01*
X178824000Y-101560285D01*
X178871619Y-101512666D01*
X179204952Y-100941238D02*
X179157333Y-101036476D01*
X179109714Y-101084095D01*
X179014476Y-101131714D01*
X178966857Y-101131714D01*
X178871619Y-101084095D01*
X178824000Y-101036476D01*
X178776381Y-100941238D01*
X178776381Y-100750761D01*
X178824000Y-100655523D01*
X178871619Y-100607904D01*
X178966857Y-100560285D01*
X179014476Y-100560285D01*
X179109714Y-100607904D01*
X179157333Y-100655523D01*
X179204952Y-100750761D01*
X179204952Y-100941238D01*
X179252571Y-101036476D01*
X179300190Y-101084095D01*
X179395429Y-101131714D01*
X179585905Y-101131714D01*
X179681143Y-101084095D01*
X179728762Y-101036476D01*
X179776381Y-100941238D01*
X179776381Y-100750761D01*
X179728762Y-100655523D01*
X179681143Y-100607904D01*
X179585905Y-100560285D01*
X179395429Y-100560285D01*
X179300190Y-100607904D01*
X179252571Y-100655523D01*
X179204952Y-100750761D01*
M02*
